<svg width="384" height="100" viewBox="0 0 384 100" fill="none" xmlns="http://www.w3.org/2000/svg">
<g clip-path="url(#clip0_7131_17340)">
<rect width="384" height="100" rx="4" fill="url(#paint0_linear_7131_17340)"/>
<path d="M31.6094 28.2266H33.9453C33.8984 28.9922 33.6875 29.6719 33.3125 30.2656C32.9427 30.8594 32.4245 31.3229 31.7578 31.6562C31.0964 31.9896 30.2995 32.1562 29.3672 32.1562C28.638 32.1562 27.9844 32.0312 27.4062 31.7812C26.8281 31.526 26.3333 31.1615 25.9219 30.6875C25.5156 30.2135 25.2057 29.6406 24.9922 28.9688C24.7786 28.2969 24.6719 27.5443 24.6719 26.7109V25.9219C24.6719 25.0885 24.7812 24.3359 25 23.6641C25.224 22.987 25.5417 22.4115 25.9531 21.9375C26.3698 21.4635 26.8672 21.099 27.4453 20.8438C28.0234 20.5885 28.6693 20.4609 29.3828 20.4609C30.3307 20.4609 31.1302 20.6328 31.7812 20.9766C32.4375 21.3203 32.9453 21.7943 33.3047 22.3984C33.6693 23.0026 33.888 23.6901 33.9609 24.4609H31.6172C31.5911 24.0026 31.5 23.6146 31.3438 23.2969C31.1875 22.974 30.9505 22.7318 30.6328 22.5703C30.3203 22.4036 29.9036 22.3203 29.3828 22.3203C28.9922 22.3203 28.651 22.3932 28.3594 22.5391C28.0677 22.6849 27.8229 22.9062 27.625 23.2031C27.4271 23.5 27.2786 23.875 27.1797 24.3281C27.0859 24.776 27.0391 25.3021 27.0391 25.9062V26.7109C27.0391 27.2995 27.0833 27.8177 27.1719 28.2656C27.2604 28.7083 27.3958 29.0833 27.5781 29.3906C27.7656 29.6927 28.0052 29.9219 28.2969 30.0781C28.5938 30.2292 28.9505 30.3047 29.3672 30.3047C29.8568 30.3047 30.2604 30.2266 30.5781 30.0703C30.8958 29.9141 31.138 29.6823 31.3047 29.375C31.4766 29.0677 31.5781 28.6849 31.6094 28.2266ZM34.9844 27.8594V27.6953C34.9844 27.0755 35.0729 26.5052 35.25 25.9844C35.4271 25.4583 35.6849 25.0026 36.0234 24.6172C36.362 24.2318 36.7786 23.9323 37.2734 23.7188C37.7682 23.5 38.3359 23.3906 38.9766 23.3906C39.6172 23.3906 40.1875 23.5 40.6875 23.7188C41.1875 23.9323 41.6068 24.2318 41.9453 24.6172C42.2891 25.0026 42.5495 25.4583 42.7266 25.9844C42.9036 26.5052 42.9922 27.0755 42.9922 27.6953V27.8594C42.9922 28.474 42.9036 29.0443 42.7266 29.5703C42.5495 30.0911 42.2891 30.5469 41.9453 30.9375C41.6068 31.3229 41.1901 31.6224 40.6953 31.8359C40.2005 32.0495 39.6328 32.1562 38.9922 32.1562C38.3516 32.1562 37.7812 32.0495 37.2812 31.8359C36.7865 31.6224 36.3672 31.3229 36.0234 30.9375C35.6849 30.5469 35.4271 30.0911 35.25 29.5703C35.0729 29.0443 34.9844 28.474 34.9844 27.8594ZM37.2344 27.6953V27.8594C37.2344 28.2135 37.2656 28.5443 37.3281 28.8516C37.3906 29.1589 37.4896 29.4297 37.625 29.6641C37.7656 29.8932 37.9479 30.0729 38.1719 30.2031C38.3958 30.3333 38.6693 30.3984 38.9922 30.3984C39.3047 30.3984 39.5729 30.3333 39.7969 30.2031C40.0208 30.0729 40.2005 29.8932 40.3359 29.6641C40.4714 29.4297 40.5703 29.1589 40.6328 28.8516C40.7005 28.5443 40.7344 28.2135 40.7344 27.8594V27.6953C40.7344 27.3516 40.7005 27.0286 40.6328 26.7266C40.5703 26.4193 40.4688 26.1484 40.3281 25.9141C40.1927 25.6745 40.013 25.487 39.7891 25.3516C39.5651 25.2161 39.2943 25.1484 38.9766 25.1484C38.6589 25.1484 38.388 25.2161 38.1641 25.3516C37.9453 25.487 37.7656 25.6745 37.625 25.9141C37.4896 26.1484 37.3906 26.4193 37.3281 26.7266C37.2656 27.0286 37.2344 27.3516 37.2344 27.6953ZM46.75 20V32H44.4922V20H46.75ZM50.9844 20V32H48.7266V20H50.9844ZM56.7344 32.1562C56.0781 32.1562 55.4896 32.0521 54.9688 31.8438C54.4479 31.6302 54.0052 31.3359 53.6406 30.9609C53.2812 30.5859 53.0052 30.151 52.8125 29.6562C52.6198 29.1562 52.5234 28.625 52.5234 28.0625V27.75C52.5234 27.1094 52.6146 26.5234 52.7969 25.9922C52.9792 25.4609 53.2396 25 53.5781 24.6094C53.9219 24.2188 54.3385 23.9193 54.8281 23.7109C55.3177 23.4974 55.8698 23.3906 56.4844 23.3906C57.0833 23.3906 57.6146 23.4896 58.0781 23.6875C58.5417 23.8854 58.9297 24.1667 59.2422 24.5312C59.5599 24.8958 59.7995 25.3333 59.9609 25.8438C60.1224 26.349 60.2031 26.9115 60.2031 27.5312V28.4688H53.4844V26.9688H57.9922V26.7969C57.9922 26.4844 57.9349 26.2057 57.8203 25.9609C57.7109 25.7109 57.5443 25.513 57.3203 25.3672C57.0964 25.2214 56.8099 25.1484 56.4609 25.1484C56.1641 25.1484 55.9089 25.2135 55.6953 25.3438C55.4818 25.474 55.3073 25.6562 55.1719 25.8906C55.0417 26.125 54.9427 26.401 54.875 26.7188C54.8125 27.0312 54.7812 27.375 54.7812 27.75V28.0625C54.7812 28.401 54.8281 28.7135 54.9219 29C55.0208 29.2865 55.1589 29.5339 55.3359 29.7422C55.5182 29.9505 55.737 30.112 55.9922 30.2266C56.2526 30.3411 56.5469 30.3984 56.875 30.3984C57.2812 30.3984 57.6589 30.3203 58.0078 30.1641C58.362 30.0026 58.6667 29.7604 58.9219 29.4375L60.0156 30.625C59.8385 30.8802 59.5964 31.125 59.2891 31.3594C58.987 31.5938 58.6224 31.7865 58.1953 31.9375C57.7682 32.0833 57.2812 32.1562 56.7344 32.1562ZM66.8359 23.5469H68.875V31.7188C68.875 32.4896 68.7031 33.1432 68.3594 33.6797C68.0208 34.2214 67.5469 34.6302 66.9375 34.9062C66.3281 35.1875 65.6198 35.3281 64.8125 35.3281C64.4583 35.3281 64.0833 35.2812 63.6875 35.1875C63.2969 35.0938 62.9219 34.9479 62.5625 34.75C62.2083 34.5521 61.9115 34.3021 61.6719 34L62.6641 32.6719C62.9245 32.974 63.2266 33.2083 63.5703 33.375C63.9141 33.5469 64.2943 33.6328 64.7109 33.6328C65.1172 33.6328 65.4609 33.5573 65.7422 33.4062C66.0234 33.2604 66.2396 33.0443 66.3906 32.7578C66.5417 32.4766 66.6172 32.1354 66.6172 31.7344V25.5L66.8359 23.5469ZM61.1484 27.875V27.7109C61.1484 27.0651 61.2266 26.4792 61.3828 25.9531C61.5443 25.4219 61.7708 24.9661 62.0625 24.5859C62.3594 24.2057 62.7188 23.9115 63.1406 23.7031C63.5625 23.4948 64.0391 23.3906 64.5703 23.3906C65.1328 23.3906 65.6042 23.4948 65.9844 23.7031C66.3646 23.9115 66.6771 24.2083 66.9219 24.5938C67.1667 24.974 67.3568 25.4245 67.4922 25.9453C67.6328 26.4609 67.7422 27.026 67.8203 27.6406V28C67.7422 28.5885 67.625 29.1354 67.4688 29.6406C67.3125 30.1458 67.1068 30.5885 66.8516 30.9688C66.5964 31.3438 66.2786 31.6354 65.8984 31.8438C65.5234 32.0521 65.0755 32.1562 64.5547 32.1562C64.0339 32.1562 63.5625 32.0495 63.1406 31.8359C62.724 31.6224 62.3672 31.3229 62.0703 30.9375C61.7734 30.5521 61.5443 30.099 61.3828 29.5781C61.2266 29.0573 61.1484 28.4896 61.1484 27.875ZM63.3984 27.7109V27.875C63.3984 28.224 63.4323 28.5495 63.5 28.8516C63.5677 29.1536 63.6719 29.4219 63.8125 29.6562C63.9583 29.8854 64.138 30.0651 64.3516 30.1953C64.5703 30.3203 64.8281 30.3828 65.125 30.3828C65.5365 30.3828 65.8724 30.2969 66.1328 30.125C66.3932 29.9479 66.5885 29.7057 66.7188 29.3984C66.849 29.0911 66.9245 28.737 66.9453 28.3359V27.3125C66.9349 26.9844 66.8906 26.6901 66.8125 26.4297C66.7344 26.1641 66.625 25.9375 66.4844 25.75C66.3438 25.5625 66.1615 25.4167 65.9375 25.3125C65.7135 25.2083 65.4479 25.1562 65.1406 25.1562C64.8438 25.1562 64.5859 25.224 64.3672 25.3594C64.1536 25.4896 63.974 25.6693 63.8281 25.8984C63.6875 26.1276 63.5807 26.3984 63.5078 26.7109C63.4349 27.0182 63.3984 27.3516 63.3984 27.7109ZM74.5156 32.1562C73.8594 32.1562 73.2708 32.0521 72.75 31.8438C72.2292 31.6302 71.7865 31.3359 71.4219 30.9609C71.0625 30.5859 70.7865 30.151 70.5938 29.6562C70.401 29.1562 70.3047 28.625 70.3047 28.0625V27.75C70.3047 27.1094 70.3958 26.5234 70.5781 25.9922C70.7604 25.4609 71.0208 25 71.3594 24.6094C71.7031 24.2188 72.1198 23.9193 72.6094 23.7109C73.099 23.4974 73.651 23.3906 74.2656 23.3906C74.8646 23.3906 75.3958 23.4896 75.8594 23.6875C76.3229 23.8854 76.7109 24.1667 77.0234 24.5312C77.3411 24.8958 77.5807 25.3333 77.7422 25.8438C77.9036 26.349 77.9844 26.9115 77.9844 27.5312V28.4688H71.2656V26.9688H75.7734V26.7969C75.7734 26.4844 75.7161 26.2057 75.6016 25.9609C75.4922 25.7109 75.3255 25.513 75.1016 25.3672C74.8776 25.2214 74.5911 25.1484 74.2422 25.1484C73.9453 25.1484 73.6901 25.2135 73.4766 25.3438C73.263 25.474 73.0885 25.6562 72.9531 25.8906C72.8229 26.125 72.724 26.401 72.6562 26.7188C72.5938 27.0312 72.5625 27.375 72.5625 27.75V28.0625C72.5625 28.401 72.6094 28.7135 72.7031 29C72.8021 29.2865 72.9401 29.5339 73.1172 29.7422C73.2995 29.9505 73.5182 30.112 73.7734 30.2266C74.0339 30.3411 74.3281 30.3984 74.6562 30.3984C75.0625 30.3984 75.4401 30.3203 75.7891 30.1641C76.1432 30.0026 76.4479 29.7604 76.7031 29.4375L77.7969 30.625C77.6198 30.8802 77.3776 31.125 77.0703 31.3594C76.7682 31.5938 76.4036 31.7865 75.9766 31.9375C75.5495 32.0833 75.0625 32.1562 74.5156 32.1562ZM87.8203 27.9453H84.9219V26.1172H87.8203C88.2682 26.1172 88.6328 26.0443 88.9141 25.8984C89.1953 25.7474 89.401 25.5391 89.5312 25.2734C89.6615 25.0078 89.7266 24.7083 89.7266 24.375C89.7266 24.0365 89.6615 23.7214 89.5312 23.4297C89.401 23.138 89.1953 22.9036 88.9141 22.7266C88.6328 22.5495 88.2682 22.4609 87.8203 22.4609H85.7344V32H83.3906V20.625H87.8203C88.7109 20.625 89.474 20.7865 90.1094 21.1094C90.75 21.4271 91.2396 21.8672 91.5781 22.4297C91.9167 22.9922 92.0859 23.6354 92.0859 24.3594C92.0859 25.0938 91.9167 25.7292 91.5781 26.2656C91.2396 26.8021 90.75 27.2161 90.1094 27.5078C89.474 27.7995 88.7109 27.9453 87.8203 27.9453ZM95.8125 25.3906V32H93.5625V23.5469H95.6797L95.8125 25.3906ZM98.3594 23.4922L98.3203 25.5781C98.2109 25.5625 98.0781 25.5495 97.9219 25.5391C97.7708 25.5234 97.6328 25.5156 97.5078 25.5156C97.1901 25.5156 96.9141 25.5573 96.6797 25.6406C96.4505 25.7188 96.2578 25.8359 96.1016 25.9922C95.9505 26.1484 95.8359 26.3385 95.7578 26.5625C95.6849 26.7865 95.6432 27.0417 95.6328 27.3281L95.1797 27.1875C95.1797 26.6406 95.2344 26.138 95.3438 25.6797C95.4531 25.2161 95.612 24.8125 95.8203 24.4688C96.0339 24.125 96.2943 23.8594 96.6016 23.6719C96.9089 23.4844 97.2604 23.3906 97.6562 23.3906C97.7812 23.3906 97.9089 23.401 98.0391 23.4219C98.1693 23.4375 98.276 23.4609 98.3594 23.4922ZM103.156 32.1562C102.5 32.1562 101.911 32.0521 101.391 31.8438C100.87 31.6302 100.427 31.3359 100.062 30.9609C99.7031 30.5859 99.4271 30.151 99.2344 29.6562C99.0417 29.1562 98.9453 28.625 98.9453 28.0625V27.75C98.9453 27.1094 99.0365 26.5234 99.2188 25.9922C99.401 25.4609 99.6615 25 100 24.6094C100.344 24.2188 100.76 23.9193 101.25 23.7109C101.74 23.4974 102.292 23.3906 102.906 23.3906C103.505 23.3906 104.036 23.4896 104.5 23.6875C104.964 23.8854 105.352 24.1667 105.664 24.5312C105.982 24.8958 106.221 25.3333 106.383 25.8438C106.544 26.349 106.625 26.9115 106.625 27.5312V28.4688H99.9062V26.9688H104.414V26.7969C104.414 26.4844 104.357 26.2057 104.242 25.9609C104.133 25.7109 103.966 25.513 103.742 25.3672C103.518 25.2214 103.232 25.1484 102.883 25.1484C102.586 25.1484 102.331 25.2135 102.117 25.3438C101.904 25.474 101.729 25.6562 101.594 25.8906C101.464 26.125 101.365 26.401 101.297 26.7188C101.234 27.0312 101.203 27.375 101.203 27.75V28.0625C101.203 28.401 101.25 28.7135 101.344 29C101.443 29.2865 101.581 29.5339 101.758 29.7422C101.94 29.9505 102.159 30.112 102.414 30.2266C102.674 30.3411 102.969 30.3984 103.297 30.3984C103.703 30.3984 104.081 30.3203 104.43 30.1641C104.784 30.0026 105.089 29.7604 105.344 29.4375L106.438 30.625C106.26 30.8802 106.018 31.125 105.711 31.3594C105.409 31.5938 105.044 31.7865 104.617 31.9375C104.19 32.0833 103.703 32.1562 103.156 32.1562ZM112.898 30.1562V20H115.164V32H113.125L112.898 30.1562ZM107.555 27.875V27.7109C107.555 27.0651 107.628 26.4792 107.773 25.9531C107.919 25.4219 108.133 24.9661 108.414 24.5859C108.695 24.2057 109.042 23.9115 109.453 23.7031C109.865 23.4948 110.333 23.3906 110.859 23.3906C111.354 23.3906 111.786 23.4948 112.156 23.7031C112.531 23.9115 112.849 24.2083 113.109 24.5938C113.375 24.974 113.589 25.4245 113.75 25.9453C113.911 26.4609 114.029 27.026 114.102 27.6406V28C114.029 28.5885 113.911 29.1354 113.75 29.6406C113.589 30.1458 113.375 30.5885 113.109 30.9688C112.849 31.3438 112.531 31.6354 112.156 31.8438C111.781 32.0521 111.344 32.1562 110.844 32.1562C110.318 32.1562 109.849 32.0495 109.438 31.8359C109.031 31.6224 108.688 31.3229 108.406 30.9375C108.13 30.5521 107.919 30.099 107.773 29.5781C107.628 29.0573 107.555 28.4896 107.555 27.875ZM109.805 27.7109V27.875C109.805 28.224 109.831 28.5495 109.883 28.8516C109.94 29.1536 110.031 29.4219 110.156 29.6562C110.286 29.8854 110.453 30.0651 110.656 30.1953C110.865 30.3203 111.117 30.3828 111.414 30.3828C111.799 30.3828 112.117 30.2969 112.367 30.125C112.617 29.9479 112.807 29.7057 112.938 29.3984C113.073 29.0911 113.151 28.737 113.172 28.3359V27.3125C113.156 26.9844 113.109 26.6901 113.031 26.4297C112.958 26.1641 112.849 25.9375 112.703 25.75C112.562 25.5625 112.385 25.4167 112.172 25.3125C111.964 25.2083 111.716 25.1562 111.43 25.1562C111.138 25.1562 110.888 25.224 110.68 25.3594C110.471 25.4896 110.302 25.6693 110.172 25.8984C110.047 26.1276 109.953 26.3984 109.891 26.7109C109.833 27.0182 109.805 27.3516 109.805 27.7109ZM119.297 23.5469V32H117.039V23.5469H119.297ZM116.898 21.3438C116.898 21.0156 117.013 20.7448 117.242 20.5312C117.471 20.3177 117.779 20.2109 118.164 20.2109C118.544 20.2109 118.849 20.3177 119.078 20.5312C119.312 20.7448 119.43 21.0156 119.43 21.3438C119.43 21.6719 119.312 21.9427 119.078 22.1562C118.849 22.3698 118.544 22.4766 118.164 22.4766C117.779 22.4766 117.471 22.3698 117.242 22.1562C117.013 21.9427 116.898 21.6719 116.898 21.3438ZM124.648 30.3984C124.924 30.3984 125.169 30.3464 125.383 30.2422C125.596 30.1328 125.763 29.9818 125.883 29.7891C126.008 29.5911 126.073 29.3594 126.078 29.0938H128.195C128.19 29.6875 128.031 30.2161 127.719 30.6797C127.406 31.138 126.987 31.5 126.461 31.7656C125.935 32.026 125.346 32.1562 124.695 32.1562C124.039 32.1562 123.466 32.0469 122.977 31.8281C122.492 31.6094 122.089 31.3073 121.766 30.9219C121.443 30.5312 121.201 30.0781 121.039 29.5625C120.878 29.0417 120.797 28.4844 120.797 27.8906V27.6641C120.797 27.0651 120.878 26.5078 121.039 25.9922C121.201 25.4714 121.443 25.0182 121.766 24.6328C122.089 24.2422 122.492 23.9375 122.977 23.7188C123.461 23.5 124.029 23.3906 124.68 23.3906C125.372 23.3906 125.979 23.5234 126.5 23.7891C127.026 24.0547 127.438 24.4349 127.734 24.9297C128.036 25.4193 128.19 26 128.195 26.6719H126.078C126.073 26.3906 126.013 26.1354 125.898 25.9062C125.789 25.6771 125.628 25.4948 125.414 25.3594C125.206 25.2188 124.948 25.1484 124.641 25.1484C124.312 25.1484 124.044 25.2188 123.836 25.3594C123.628 25.4948 123.466 25.6823 123.352 25.9219C123.237 26.1562 123.156 26.4245 123.109 26.7266C123.068 27.0234 123.047 27.3359 123.047 27.6641V27.8906C123.047 28.2188 123.068 28.5339 123.109 28.8359C123.151 29.138 123.229 29.4062 123.344 29.6406C123.464 29.875 123.628 30.0599 123.836 30.1953C124.044 30.3307 124.315 30.3984 124.648 30.3984ZM133.641 23.5469V25.1406H128.719V23.5469H133.641ZM129.938 21.4609H132.188V29.4531C132.188 29.6979 132.219 29.8854 132.281 30.0156C132.349 30.1458 132.448 30.237 132.578 30.2891C132.708 30.3359 132.872 30.3594 133.07 30.3594C133.211 30.3594 133.336 30.3542 133.445 30.3438C133.56 30.3281 133.656 30.3125 133.734 30.2969L133.742 31.9531C133.549 32.0156 133.341 32.0651 133.117 32.1016C132.893 32.138 132.646 32.1562 132.375 32.1562C131.88 32.1562 131.448 32.0755 131.078 31.9141C130.714 31.7474 130.432 31.4818 130.234 31.1172C130.036 30.7526 129.938 30.2734 129.938 29.6797V21.4609ZM134.359 27.8594V27.6953C134.359 27.0755 134.448 26.5052 134.625 25.9844C134.802 25.4583 135.06 25.0026 135.398 24.6172C135.737 24.2318 136.154 23.9323 136.648 23.7188C137.143 23.5 137.711 23.3906 138.352 23.3906C138.992 23.3906 139.562 23.5 140.062 23.7188C140.562 23.9323 140.982 24.2318 141.32 24.6172C141.664 25.0026 141.924 25.4583 142.102 25.9844C142.279 26.5052 142.367 27.0755 142.367 27.6953V27.8594C142.367 28.474 142.279 29.0443 142.102 29.5703C141.924 30.0911 141.664 30.5469 141.32 30.9375C140.982 31.3229 140.565 31.6224 140.07 31.8359C139.576 32.0495 139.008 32.1562 138.367 32.1562C137.727 32.1562 137.156 32.0495 136.656 31.8359C136.161 31.6224 135.742 31.3229 135.398 30.9375C135.06 30.5469 134.802 30.0911 134.625 29.5703C134.448 29.0443 134.359 28.474 134.359 27.8594ZM136.609 27.6953V27.8594C136.609 28.2135 136.641 28.5443 136.703 28.8516C136.766 29.1589 136.865 29.4297 137 29.6641C137.141 29.8932 137.323 30.0729 137.547 30.2031C137.771 30.3333 138.044 30.3984 138.367 30.3984C138.68 30.3984 138.948 30.3333 139.172 30.2031C139.396 30.0729 139.576 29.8932 139.711 29.6641C139.846 29.4297 139.945 29.1589 140.008 28.8516C140.076 28.5443 140.109 28.2135 140.109 27.8594V27.6953C140.109 27.3516 140.076 27.0286 140.008 26.7266C139.945 26.4193 139.844 26.1484 139.703 25.9141C139.568 25.6745 139.388 25.487 139.164 25.3516C138.94 25.2161 138.669 25.1484 138.352 25.1484C138.034 25.1484 137.763 25.2161 137.539 25.3516C137.32 25.487 137.141 25.6745 137 25.9141C136.865 26.1484 136.766 26.4193 136.703 26.7266C136.641 27.0286 136.609 27.3516 136.609 27.6953ZM146 25.3906V32H143.75V23.5469H145.867L146 25.3906ZM148.547 23.4922L148.508 25.5781C148.398 25.5625 148.266 25.5495 148.109 25.5391C147.958 25.5234 147.82 25.5156 147.695 25.5156C147.378 25.5156 147.102 25.5573 146.867 25.6406C146.638 25.7188 146.445 25.8359 146.289 25.9922C146.138 26.1484 146.023 26.3385 145.945 26.5625C145.872 26.7865 145.831 27.0417 145.82 27.3281L145.367 27.1875C145.367 26.6406 145.422 26.138 145.531 25.6797C145.641 25.2161 145.799 24.8125 146.008 24.4688C146.221 24.125 146.482 23.8594 146.789 23.6719C147.096 23.4844 147.448 23.3906 147.844 23.3906C147.969 23.3906 148.096 23.401 148.227 23.4219C148.357 23.4375 148.464 23.4609 148.547 23.4922Z" fill="white"/>
<path d="M26.1431 44.1797V52H24.7949V44.1797H26.1431ZM30.8428 44.1797L27.6738 47.9448L25.8691 49.8569L25.6328 48.5195L26.9219 46.9297L29.1992 44.1797H30.8428ZM29.3926 52L26.8198 48.2939L27.749 47.3755L30.9932 52H29.3926ZM32.814 47.4292V52H31.5195V46.1885H32.7388L32.814 47.4292ZM32.583 48.8794L32.1641 48.874C32.1676 48.4622 32.2249 48.0845 32.3359 47.7407C32.4505 47.397 32.6081 47.1016 32.8086 46.8545C33.0127 46.6074 33.2562 46.4176 33.5391 46.2852C33.8219 46.1491 34.137 46.0811 34.4844 46.0811C34.7637 46.0811 35.0161 46.1204 35.2417 46.1992C35.4709 46.2744 35.666 46.3979 35.8271 46.5698C35.9919 46.7417 36.1172 46.9655 36.2031 47.2412C36.2891 47.5133 36.332 47.8481 36.332 48.2456V52H35.0322V48.2402C35.0322 47.9609 34.991 47.7407 34.9087 47.5796C34.8299 47.4149 34.7135 47.2985 34.5596 47.2305C34.4092 47.1589 34.2212 47.123 33.9956 47.123C33.7736 47.123 33.5749 47.1696 33.3994 47.2627C33.224 47.3558 33.0754 47.4829 32.9536 47.644C32.8354 47.8052 32.7441 47.9914 32.6797 48.2026C32.6152 48.4139 32.583 48.6395 32.583 48.8794ZM37.4062 49.1587V49.0352C37.4062 48.6162 37.4671 48.2277 37.5889 47.8696C37.7106 47.508 37.8861 47.1947 38.1152 46.9297C38.348 46.6611 38.6309 46.4535 38.9639 46.3066C39.3005 46.1562 39.68 46.0811 40.1025 46.0811C40.5286 46.0811 40.9082 46.1562 41.2412 46.3066C41.5778 46.4535 41.8625 46.6611 42.0952 46.9297C42.328 47.1947 42.5052 47.508 42.627 47.8696C42.7487 48.2277 42.8096 48.6162 42.8096 49.0352V49.1587C42.8096 49.5776 42.7487 49.9661 42.627 50.3242C42.5052 50.6823 42.328 50.9956 42.0952 51.2642C41.8625 51.5291 41.5796 51.7368 41.2466 51.8872C40.9136 52.034 40.5358 52.1074 40.1133 52.1074C39.6872 52.1074 39.3058 52.034 38.9692 51.8872C38.6362 51.7368 38.3534 51.5291 38.1206 51.2642C37.8879 50.9956 37.7106 50.6823 37.5889 50.3242C37.4671 49.9661 37.4062 49.5776 37.4062 49.1587ZM38.7007 49.0352V49.1587C38.7007 49.4201 38.7275 49.6672 38.7812 49.8999C38.835 50.1326 38.9191 50.3368 39.0337 50.5122C39.1483 50.6877 39.2951 50.8255 39.4741 50.9258C39.6532 51.026 39.8662 51.0762 40.1133 51.0762C40.3532 51.0762 40.5609 51.026 40.7363 50.9258C40.9154 50.8255 41.0622 50.6877 41.1768 50.5122C41.2913 50.3368 41.3755 50.1326 41.4292 49.8999C41.4865 49.6672 41.5151 49.4201 41.5151 49.1587V49.0352C41.5151 48.7773 41.4865 48.5339 41.4292 48.3047C41.3755 48.0719 41.2896 47.866 41.1714 47.687C41.0568 47.508 40.91 47.3683 40.731 47.2681C40.5555 47.1642 40.346 47.1123 40.1025 47.1123C39.859 47.1123 39.6478 47.1642 39.4688 47.2681C39.2933 47.3683 39.1483 47.508 39.0337 47.687C38.9191 47.866 38.835 48.0719 38.7812 48.3047C38.7275 48.5339 38.7007 48.7773 38.7007 49.0352ZM45.4736 50.7109L46.8164 46.1885H47.6436L47.418 47.542L46.0645 52H45.3232L45.4736 50.7109ZM44.6841 46.1885L45.7314 50.7324L45.8174 52H44.9902L43.4165 46.1885H44.6841ZM48.9004 50.6787L49.9155 46.1885H51.1777L49.6094 52H48.7822L48.9004 50.6787ZM47.7832 46.1885L49.1099 50.6572L49.2764 52H48.5352L47.1655 47.5366L46.9399 46.1885H47.7832ZM55.6733 44.1797L57.4888 47.9126L59.3042 44.1797H60.7974L58.1655 49.1211V52H56.8066V49.1211L54.1748 44.1797H55.6733ZM60.9209 49.1587V49.0352C60.9209 48.6162 60.9818 48.2277 61.1035 47.8696C61.2253 47.508 61.4007 47.1947 61.6299 46.9297C61.8626 46.6611 62.1455 46.4535 62.4785 46.3066C62.8151 46.1562 63.1947 46.0811 63.6172 46.0811C64.0433 46.0811 64.4229 46.1562 64.7559 46.3066C65.0924 46.4535 65.3771 46.6611 65.6099 46.9297C65.8426 47.1947 66.0199 47.508 66.1416 47.8696C66.2633 48.2277 66.3242 48.6162 66.3242 49.0352V49.1587C66.3242 49.5776 66.2633 49.9661 66.1416 50.3242C66.0199 50.6823 65.8426 50.9956 65.6099 51.2642C65.3771 51.5291 65.0942 51.7368 64.7612 51.8872C64.4282 52.034 64.0505 52.1074 63.6279 52.1074C63.2018 52.1074 62.8205 52.034 62.4839 51.8872C62.1509 51.7368 61.868 51.5291 61.6353 51.2642C61.4025 50.9956 61.2253 50.6823 61.1035 50.3242C60.9818 49.9661 60.9209 49.5776 60.9209 49.1587ZM62.2153 49.0352V49.1587C62.2153 49.4201 62.2422 49.6672 62.2959 49.8999C62.3496 50.1326 62.4338 50.3368 62.5483 50.5122C62.6629 50.6877 62.8097 50.8255 62.9888 50.9258C63.1678 51.026 63.3809 51.0762 63.6279 51.0762C63.8678 51.0762 64.0755 51.026 64.251 50.9258C64.43 50.8255 64.5768 50.6877 64.6914 50.5122C64.806 50.3368 64.8901 50.1326 64.9438 49.8999C65.0011 49.6672 65.0298 49.4201 65.0298 49.1587V49.0352C65.0298 48.7773 65.0011 48.5339 64.9438 48.3047C64.8901 48.0719 64.8042 47.866 64.686 47.687C64.5715 47.508 64.4246 47.3683 64.2456 47.2681C64.0701 47.1642 63.8607 47.1123 63.6172 47.1123C63.3737 47.1123 63.1624 47.1642 62.9834 47.2681C62.8079 47.3683 62.6629 47.508 62.5483 47.687C62.4338 47.866 62.3496 48.0719 62.2959 48.3047C62.2422 48.5339 62.2153 48.7773 62.2153 49.0352ZM70.9058 50.6304V46.1885H72.2056V52H70.981L70.9058 50.6304ZM71.0884 49.4219L71.5234 49.4111C71.5234 49.8014 71.4805 50.1613 71.3945 50.4907C71.3086 50.8166 71.1761 51.1012 70.9971 51.3447C70.818 51.5846 70.5889 51.7726 70.3096 51.9087C70.0303 52.0412 69.6955 52.1074 69.3052 52.1074C69.0223 52.1074 68.7627 52.0662 68.5264 51.9839C68.29 51.9015 68.0859 51.7744 67.9141 51.6025C67.7458 51.4307 67.6151 51.2069 67.522 50.9312C67.4289 50.6554 67.3823 50.326 67.3823 49.9429V46.1885H68.6768V49.9536C68.6768 50.1649 68.7018 50.3421 68.752 50.4854C68.8021 50.625 68.8701 50.7378 68.9561 50.8237C69.042 50.9097 69.1423 50.9705 69.2568 51.0063C69.3714 51.0422 69.4932 51.0601 69.6221 51.0601C69.9909 51.0601 70.2809 50.9884 70.4922 50.8452C70.707 50.6984 70.8592 50.5015 70.9487 50.2544C71.0418 50.0073 71.0884 49.7298 71.0884 49.4219ZM74.832 47.2949V52H73.5376V46.1885H74.7729L74.832 47.2949ZM76.6099 46.1509L76.5991 47.354C76.5203 47.3397 76.4344 47.3289 76.3413 47.3218C76.2518 47.3146 76.1623 47.311 76.0728 47.311C75.8507 47.311 75.6556 47.3433 75.4873 47.4077C75.319 47.4686 75.1776 47.5581 75.063 47.6763C74.952 47.7909 74.866 47.9305 74.8052 48.0952C74.7443 48.2599 74.7085 48.4443 74.6978 48.6484L74.4023 48.6699C74.4023 48.3047 74.4382 47.9663 74.5098 47.6548C74.5814 47.3433 74.6888 47.0693 74.832 46.833C74.9788 46.5967 75.1615 46.4123 75.3799 46.2798C75.6019 46.1473 75.8579 46.0811 76.1479 46.0811C76.2267 46.0811 76.3109 46.0882 76.4004 46.1025C76.4935 46.1169 76.5633 46.133 76.6099 46.1509ZM86.5249 47.875V48.3047C86.5249 48.8955 86.4479 49.4255 86.2939 49.8945C86.14 50.3636 85.9198 50.7629 85.6333 51.0923C85.3504 51.4217 85.0103 51.6742 84.6128 51.8496C84.2153 52.0215 83.7749 52.1074 83.2915 52.1074C82.8117 52.1074 82.373 52.0215 81.9756 51.8496C81.5817 51.6742 81.2397 51.4217 80.9497 51.0923C80.6597 50.7629 80.4341 50.3636 80.2729 49.8945C80.1154 49.4255 80.0366 48.8955 80.0366 48.3047V47.875C80.0366 47.2842 80.1154 46.756 80.2729 46.2905C80.4305 45.8215 80.6525 45.4222 80.939 45.0928C81.229 44.7598 81.571 44.5073 81.9648 44.3354C82.3623 44.16 82.8009 44.0723 83.2808 44.0723C83.7642 44.0723 84.2046 44.16 84.6021 44.3354C84.9995 44.5073 85.3415 44.7598 85.6279 45.0928C85.9144 45.4222 86.1346 45.8215 86.2886 46.2905C86.4461 46.756 86.5249 47.2842 86.5249 47.875ZM85.1768 48.3047V47.8643C85.1768 47.4274 85.1338 47.0425 85.0479 46.7095C84.9655 46.3729 84.842 46.0918 84.6772 45.8662C84.5161 45.637 84.3174 45.4652 84.0811 45.3506C83.8447 45.2324 83.578 45.1733 83.2808 45.1733C82.9836 45.1733 82.7186 45.2324 82.4858 45.3506C82.2531 45.4652 82.0544 45.637 81.8896 45.8662C81.7285 46.0918 81.605 46.3729 81.519 46.7095C81.4331 47.0425 81.3901 47.4274 81.3901 47.8643V48.3047C81.3901 48.7415 81.4331 49.1283 81.519 49.4648C81.605 49.8014 81.7303 50.0861 81.895 50.3188C82.0633 50.548 82.2638 50.7217 82.4966 50.8398C82.7293 50.9544 82.9943 51.0117 83.2915 51.0117C83.5923 51.0117 83.859 50.9544 84.0918 50.8398C84.3245 50.7217 84.5215 50.548 84.6826 50.3188C84.8438 50.0861 84.9655 49.8014 85.0479 49.4648C85.1338 49.1283 85.1768 48.7415 85.1768 48.3047ZM91.2891 50.7969V43.75H92.5889V52H91.4126L91.2891 50.7969ZM87.5078 49.1587V49.0459C87.5078 48.6055 87.5597 48.2044 87.6636 47.8428C87.7674 47.4775 87.9178 47.1642 88.1147 46.9028C88.3117 46.6379 88.5516 46.4355 88.8345 46.2959C89.1174 46.1527 89.436 46.0811 89.7905 46.0811C90.1414 46.0811 90.4494 46.1491 90.7144 46.2852C90.9793 46.4212 91.2049 46.6164 91.3911 46.8706C91.5773 47.1213 91.7259 47.422 91.8369 47.7729C91.9479 48.1203 92.0267 48.507 92.0732 48.9331V49.293C92.0267 49.7083 91.9479 50.0879 91.8369 50.4316C91.7259 50.7754 91.5773 51.0726 91.3911 51.3232C91.2049 51.5739 90.9775 51.7673 90.709 51.9033C90.444 52.0394 90.1343 52.1074 89.7798 52.1074C89.4289 52.1074 89.112 52.034 88.8291 51.8872C88.5498 51.7404 88.3117 51.5345 88.1147 51.2695C87.9178 51.0046 87.7674 50.693 87.6636 50.335C87.5597 49.9733 87.5078 49.5812 87.5078 49.1587ZM88.8022 49.0459V49.1587C88.8022 49.4237 88.8255 49.6707 88.8721 49.8999C88.9222 50.1291 88.9992 50.3314 89.103 50.5068C89.2069 50.6787 89.3411 50.8148 89.5059 50.915C89.6742 51.0117 89.8747 51.0601 90.1074 51.0601C90.401 51.0601 90.6427 50.9956 90.8325 50.8667C91.0223 50.7378 91.1709 50.5641 91.2783 50.3457C91.3893 50.1237 91.4645 49.8766 91.5039 49.6045V48.6323C91.4824 48.4211 91.4377 48.2241 91.3696 48.0415C91.3052 47.8589 91.2174 47.6995 91.1064 47.5635C90.9954 47.4238 90.8576 47.3164 90.6929 47.2412C90.5317 47.1624 90.3402 47.123 90.1182 47.123C89.8818 47.123 89.6813 47.1732 89.5166 47.2734C89.3519 47.3737 89.2158 47.5116 89.1084 47.687C89.0046 47.8625 88.9276 48.0666 88.8774 48.2993C88.8273 48.5321 88.8022 48.7809 88.8022 49.0459ZM97.4873 50.7969V43.75H98.7871V52H97.6108L97.4873 50.7969ZM93.7061 49.1587V49.0459C93.7061 48.6055 93.758 48.2044 93.8618 47.8428C93.9657 47.4775 94.116 47.1642 94.313 46.9028C94.5099 46.6379 94.7498 46.4355 95.0327 46.2959C95.3156 46.1527 95.6343 46.0811 95.9888 46.0811C96.3397 46.0811 96.6476 46.1491 96.9126 46.2852C97.1776 46.4212 97.4032 46.6164 97.5894 46.8706C97.7756 47.1213 97.9242 47.422 98.0352 47.7729C98.1462 48.1203 98.2249 48.507 98.2715 48.9331V49.293C98.2249 49.7083 98.1462 50.0879 98.0352 50.4316C97.9242 50.7754 97.7756 51.0726 97.5894 51.3232C97.4032 51.5739 97.1758 51.7673 96.9072 51.9033C96.6423 52.0394 96.3325 52.1074 95.978 52.1074C95.6271 52.1074 95.3102 52.034 95.0273 51.8872C94.748 51.7404 94.5099 51.5345 94.313 51.2695C94.116 51.0046 93.9657 50.693 93.8618 50.335C93.758 49.9733 93.7061 49.5812 93.7061 49.1587ZM95.0005 49.0459V49.1587C95.0005 49.4237 95.0238 49.6707 95.0703 49.8999C95.1204 50.1291 95.1974 50.3314 95.3013 50.5068C95.4051 50.6787 95.5394 50.8148 95.7041 50.915C95.8724 51.0117 96.0729 51.0601 96.3057 51.0601C96.5993 51.0601 96.841 50.9956 97.0308 50.8667C97.2205 50.7378 97.3691 50.5641 97.4766 50.3457C97.5876 50.1237 97.6628 49.8766 97.7021 49.6045V48.6323C97.6807 48.4211 97.6359 48.2241 97.5679 48.0415C97.5034 47.8589 97.4157 47.6995 97.3047 47.5635C97.1937 47.4238 97.0558 47.3164 96.8911 47.2412C96.73 47.1624 96.5384 47.123 96.3164 47.123C96.0801 47.123 95.8796 47.1732 95.7148 47.2734C95.5501 47.3737 95.4141 47.5116 95.3066 47.687C95.2028 47.8625 95.1258 48.0666 95.0757 48.2993C95.0256 48.5321 95.0005 48.7809 95.0005 49.0459ZM103.401 50.4263C103.401 50.2974 103.369 50.181 103.304 50.0771C103.24 49.9697 103.116 49.873 102.934 49.7871C102.755 49.7012 102.49 49.6224 102.139 49.5508C101.831 49.4827 101.548 49.4022 101.29 49.3091C101.036 49.2124 100.817 49.096 100.635 48.96C100.452 48.8239 100.311 48.6628 100.21 48.4766C100.11 48.2904 100.06 48.0755 100.06 47.832C100.06 47.5957 100.112 47.3719 100.216 47.1606C100.32 46.9494 100.468 46.7632 100.662 46.6021C100.855 46.4409 101.09 46.3138 101.365 46.2207C101.645 46.1276 101.956 46.0811 102.3 46.0811C102.787 46.0811 103.204 46.1634 103.551 46.3281C103.902 46.4893 104.171 46.7095 104.357 46.9888C104.543 47.2645 104.636 47.576 104.636 47.9233H103.342C103.342 47.7694 103.302 47.6261 103.224 47.4937C103.148 47.3576 103.034 47.2484 102.88 47.166C102.726 47.0801 102.533 47.0371 102.3 47.0371C102.078 47.0371 101.893 47.0729 101.747 47.1445C101.603 47.2126 101.496 47.3021 101.424 47.4131C101.356 47.5241 101.322 47.6458 101.322 47.7783C101.322 47.875 101.34 47.9627 101.376 48.0415C101.415 48.1167 101.48 48.1865 101.569 48.251C101.659 48.3118 101.781 48.3691 101.935 48.4229C102.092 48.4766 102.289 48.5285 102.525 48.5786C102.969 48.6717 103.351 48.7917 103.669 48.9385C103.992 49.0817 104.239 49.2679 104.411 49.4971C104.583 49.7227 104.668 50.0091 104.668 50.3564C104.668 50.6143 104.613 50.8506 104.502 51.0654C104.395 51.2767 104.237 51.4611 104.029 51.6187C103.822 51.7726 103.573 51.8926 103.283 51.9785C102.996 52.0645 102.674 52.1074 102.316 52.1074C101.79 52.1074 101.344 52.0143 100.979 51.8281C100.613 51.6383 100.336 51.3966 100.146 51.103C99.9598 50.8058 99.8667 50.4979 99.8667 50.1792H101.118C101.132 50.4191 101.199 50.6107 101.317 50.7539C101.439 50.8936 101.589 50.9956 101.768 51.0601C101.951 51.1209 102.139 51.1514 102.332 51.1514C102.565 51.1514 102.76 51.1209 102.917 51.0601C103.075 50.9956 103.195 50.9097 103.277 50.8022C103.36 50.6912 103.401 50.5659 103.401 50.4263ZM108.294 49.1587V49.0352C108.294 48.6162 108.355 48.2277 108.477 47.8696C108.598 47.508 108.774 47.1947 109.003 46.9297C109.236 46.6611 109.519 46.4535 109.852 46.3066C110.188 46.1562 110.568 46.0811 110.99 46.0811C111.416 46.0811 111.796 46.1562 112.129 46.3066C112.465 46.4535 112.75 46.6611 112.983 46.9297C113.216 47.1947 113.393 47.508 113.515 47.8696C113.636 48.2277 113.697 48.6162 113.697 49.0352V49.1587C113.697 49.5776 113.636 49.9661 113.515 50.3242C113.393 50.6823 113.216 50.9956 112.983 51.2642C112.75 51.5291 112.467 51.7368 112.134 51.8872C111.801 52.034 111.424 52.1074 111.001 52.1074C110.575 52.1074 110.194 52.034 109.857 51.8872C109.524 51.7368 109.241 51.5291 109.008 51.2642C108.776 50.9956 108.598 50.6823 108.477 50.3242C108.355 49.9661 108.294 49.5776 108.294 49.1587ZM109.588 49.0352V49.1587C109.588 49.4201 109.615 49.6672 109.669 49.8999C109.723 50.1326 109.807 50.3368 109.921 50.5122C110.036 50.6877 110.183 50.8255 110.362 50.9258C110.541 51.026 110.754 51.0762 111.001 51.0762C111.241 51.0762 111.449 51.026 111.624 50.9258C111.803 50.8255 111.95 50.6877 112.064 50.5122C112.179 50.3368 112.263 50.1326 112.317 49.8999C112.374 49.6672 112.403 49.4201 112.403 49.1587V49.0352C112.403 48.7773 112.374 48.5339 112.317 48.3047C112.263 48.0719 112.177 47.866 112.059 47.687C111.944 47.508 111.798 47.3683 111.619 47.2681C111.443 47.1642 111.234 47.1123 110.99 47.1123C110.747 47.1123 110.535 47.1642 110.356 47.2681C110.181 47.3683 110.036 47.508 109.921 47.687C109.807 47.866 109.723 48.0719 109.669 48.3047C109.615 48.5339 109.588 48.7773 109.588 49.0352ZM116.533 52H115.239V45.6299C115.239 45.1966 115.319 44.8332 115.48 44.5396C115.645 44.2424 115.88 44.0186 116.184 43.8682C116.488 43.7142 116.848 43.6372 117.264 43.6372C117.393 43.6372 117.52 43.6462 117.645 43.6641C117.77 43.6784 117.892 43.7017 118.01 43.7339L117.978 44.7329C117.906 44.715 117.828 44.7025 117.742 44.6953C117.659 44.6882 117.57 44.6846 117.473 44.6846C117.276 44.6846 117.106 44.7222 116.963 44.7974C116.823 44.869 116.716 44.9746 116.641 45.1143C116.569 45.2539 116.533 45.4258 116.533 45.6299V52ZM117.731 46.1885V47.1338H114.347V46.1885H117.731ZM124.584 45.2217L122.248 52H120.835L123.779 44.1797H124.681L124.584 45.2217ZM126.54 52L124.198 45.2217L124.096 44.1797H125.003L127.958 52H126.54ZM126.427 49.0996V50.1685H122.173V49.0996H126.427ZM132.249 50.7969V43.75H133.549V52H132.373L132.249 50.7969ZM128.468 49.1587V49.0459C128.468 48.6055 128.52 48.2044 128.624 47.8428C128.727 47.4775 128.878 47.1642 129.075 46.9028C129.272 46.6379 129.512 46.4355 129.794 46.2959C130.077 46.1527 130.396 46.0811 130.75 46.0811C131.101 46.0811 131.409 46.1491 131.674 46.2852C131.939 46.4212 132.165 46.6164 132.351 46.8706C132.537 47.1213 132.686 47.422 132.797 47.7729C132.908 48.1203 132.987 48.507 133.033 48.9331V49.293C132.987 49.7083 132.908 50.0879 132.797 50.4316C132.686 50.7754 132.537 51.0726 132.351 51.3232C132.165 51.5739 131.938 51.7673 131.669 51.9033C131.404 52.0394 131.094 52.1074 130.74 52.1074C130.389 52.1074 130.072 52.034 129.789 51.8872C129.51 51.7404 129.272 51.5345 129.075 51.2695C128.878 51.0046 128.727 50.693 128.624 50.335C128.52 49.9733 128.468 49.5812 128.468 49.1587ZM129.762 49.0459V49.1587C129.762 49.4237 129.785 49.6707 129.832 49.8999C129.882 50.1291 129.959 50.3314 130.063 50.5068C130.167 50.6787 130.301 50.8148 130.466 50.915C130.634 51.0117 130.835 51.0601 131.067 51.0601C131.361 51.0601 131.603 50.9956 131.792 50.8667C131.982 50.7378 132.131 50.5641 132.238 50.3457C132.349 50.1237 132.424 49.8766 132.464 49.6045V48.6323C132.442 48.4211 132.398 48.2241 132.33 48.0415C132.265 47.8589 132.177 47.6995 132.066 47.5635C131.955 47.4238 131.818 47.3164 131.653 47.2412C131.492 47.1624 131.3 47.123 131.078 47.123C130.842 47.123 130.641 47.1732 130.477 47.2734C130.312 47.3737 130.176 47.5116 130.068 47.687C129.965 47.8625 129.888 48.0666 129.837 48.2993C129.787 48.5321 129.762 48.7809 129.762 49.0459ZM136.197 47.3701V52H134.902V46.1885H136.122L136.197 47.3701ZM135.987 48.8794L135.547 48.874C135.547 48.473 135.597 48.1024 135.697 47.7622C135.798 47.422 135.944 47.1266 136.138 46.876C136.331 46.6217 136.571 46.4266 136.857 46.2905C137.147 46.1509 137.482 46.0811 137.862 46.0811C138.127 46.0811 138.368 46.1204 138.587 46.1992C138.809 46.2744 139 46.3944 139.162 46.5591C139.326 46.7238 139.452 46.9351 139.538 47.1929C139.627 47.4507 139.672 47.7622 139.672 48.1274V52H138.377V48.2402C138.377 47.9574 138.334 47.7354 138.249 47.5742C138.166 47.4131 138.046 47.2985 137.889 47.2305C137.735 47.1589 137.55 47.123 137.335 47.123C137.092 47.123 136.884 47.1696 136.712 47.2627C136.544 47.3558 136.406 47.4829 136.299 47.644C136.191 47.8052 136.113 47.9914 136.062 48.2026C136.012 48.4139 135.987 48.6395 135.987 48.8794ZM139.591 48.5356L138.984 48.6699C138.984 48.319 139.033 47.9878 139.129 47.6763C139.23 47.3612 139.375 47.0854 139.564 46.8491C139.758 46.6092 139.996 46.4212 140.279 46.2852C140.562 46.1491 140.886 46.0811 141.251 46.0811C141.548 46.0811 141.813 46.1222 142.046 46.2046C142.282 46.2834 142.483 46.4087 142.647 46.5806C142.812 46.7524 142.938 46.9762 143.023 47.252C143.109 47.5241 143.152 47.8535 143.152 48.2402V52H141.853V48.2349C141.853 47.9412 141.81 47.7139 141.724 47.5527C141.641 47.3916 141.523 47.2806 141.369 47.2197C141.215 47.1553 141.031 47.123 140.816 47.123C140.615 47.123 140.438 47.1606 140.284 47.2358C140.134 47.3075 140.007 47.4095 139.903 47.542C139.799 47.6709 139.72 47.8195 139.667 47.9878C139.616 48.1561 139.591 48.3387 139.591 48.5356ZM145.87 46.1885V52H144.57V46.1885H145.87ZM144.484 44.6631C144.484 44.4661 144.549 44.3032 144.678 44.1743C144.81 44.0418 144.993 43.9756 145.226 43.9756C145.455 43.9756 145.636 44.0418 145.768 44.1743C145.901 44.3032 145.967 44.4661 145.967 44.6631C145.967 44.8564 145.901 45.0176 145.768 45.1465C145.636 45.2754 145.455 45.3398 145.226 45.3398C144.993 45.3398 144.81 45.2754 144.678 45.1465C144.549 45.0176 144.484 44.8564 144.484 44.6631ZM150.548 50.4263C150.548 50.2974 150.516 50.181 150.452 50.0771C150.387 49.9697 150.264 49.873 150.081 49.7871C149.902 49.7012 149.637 49.6224 149.286 49.5508C148.978 49.4827 148.695 49.4022 148.438 49.3091C148.183 49.2124 147.965 49.096 147.782 48.96C147.6 48.8239 147.458 48.6628 147.358 48.4766C147.258 48.2904 147.208 48.0755 147.208 47.832C147.208 47.5957 147.259 47.3719 147.363 47.1606C147.467 46.9494 147.616 46.7632 147.809 46.6021C148.002 46.4409 148.237 46.3138 148.513 46.2207C148.792 46.1276 149.104 46.0811 149.447 46.0811C149.934 46.0811 150.351 46.1634 150.699 46.3281C151.05 46.4893 151.318 46.7095 151.504 46.9888C151.691 47.2645 151.784 47.576 151.784 47.9233H150.489C150.489 47.7694 150.45 47.6261 150.371 47.4937C150.296 47.3576 150.181 47.2484 150.027 47.166C149.873 47.0801 149.68 47.0371 149.447 47.0371C149.225 47.0371 149.041 47.0729 148.894 47.1445C148.751 47.2126 148.643 47.3021 148.572 47.4131C148.504 47.5241 148.47 47.6458 148.47 47.7783C148.47 47.875 148.488 47.9627 148.523 48.0415C148.563 48.1167 148.627 48.1865 148.717 48.251C148.806 48.3118 148.928 48.3691 149.082 48.4229C149.24 48.4766 149.437 48.5285 149.673 48.5786C150.117 48.6717 150.498 48.7917 150.817 48.9385C151.139 49.0817 151.386 49.2679 151.558 49.4971C151.73 49.7227 151.816 50.0091 151.816 50.3564C151.816 50.6143 151.76 50.8506 151.649 51.0654C151.542 51.2767 151.384 51.4611 151.177 51.6187C150.969 51.7726 150.72 51.8926 150.43 51.9785C150.144 52.0645 149.821 52.1074 149.463 52.1074C148.937 52.1074 148.491 52.0143 148.126 51.8281C147.761 51.6383 147.483 51.3966 147.293 51.103C147.107 50.8058 147.014 50.4979 147.014 50.1792H148.266C148.28 50.4191 148.346 50.6107 148.464 50.7539C148.586 50.8936 148.736 50.9956 148.916 51.0601C149.098 51.1209 149.286 51.1514 149.479 51.1514C149.712 51.1514 149.907 51.1209 150.065 51.0601C150.222 50.9956 150.342 50.9097 150.425 50.8022C150.507 50.6912 150.548 50.5659 150.548 50.4263ZM156.209 50.4263C156.209 50.2974 156.177 50.181 156.113 50.0771C156.048 49.9697 155.925 49.873 155.742 49.7871C155.563 49.7012 155.298 49.6224 154.947 49.5508C154.639 49.4827 154.356 49.4022 154.099 49.3091C153.844 49.2124 153.626 49.096 153.443 48.96C153.261 48.8239 153.119 48.6628 153.019 48.4766C152.919 48.2904 152.869 48.0755 152.869 47.832C152.869 47.5957 152.921 47.3719 153.024 47.1606C153.128 46.9494 153.277 46.7632 153.47 46.6021C153.664 46.4409 153.898 46.3138 154.174 46.2207C154.453 46.1276 154.765 46.0811 155.108 46.0811C155.595 46.0811 156.013 46.1634 156.36 46.3281C156.711 46.4893 156.979 46.7095 157.166 46.9888C157.352 47.2645 157.445 47.576 157.445 47.9233H156.15C156.15 47.7694 156.111 47.6261 156.032 47.4937C155.957 47.3576 155.842 47.2484 155.688 47.166C155.535 47.0801 155.341 47.0371 155.108 47.0371C154.886 47.0371 154.702 47.0729 154.555 47.1445C154.412 47.2126 154.305 47.3021 154.233 47.4131C154.165 47.5241 154.131 47.6458 154.131 47.7783C154.131 47.875 154.149 47.9627 154.185 48.0415C154.224 48.1167 154.288 48.1865 154.378 48.251C154.467 48.3118 154.589 48.3691 154.743 48.4229C154.901 48.4766 155.098 48.5285 155.334 48.5786C155.778 48.6717 156.159 48.7917 156.478 48.9385C156.8 49.0817 157.047 49.2679 157.219 49.4971C157.391 49.7227 157.477 50.0091 157.477 50.3564C157.477 50.6143 157.422 50.8506 157.311 51.0654C157.203 51.2767 157.046 51.4611 156.838 51.6187C156.63 51.7726 156.381 51.8926 156.091 51.9785C155.805 52.0645 155.483 52.1074 155.125 52.1074C154.598 52.1074 154.152 52.0143 153.787 51.8281C153.422 51.6383 153.144 51.3966 152.955 51.103C152.768 50.8058 152.675 50.4979 152.675 50.1792H153.927C153.941 50.4191 154.007 50.6107 154.125 50.7539C154.247 50.8936 154.398 50.9956 154.577 51.0601C154.759 51.1209 154.947 51.1514 155.141 51.1514C155.373 51.1514 155.569 51.1209 155.726 51.0601C155.884 50.9956 156.004 50.9097 156.086 50.8022C156.168 50.6912 156.209 50.5659 156.209 50.4263ZM159.996 46.1885V52H158.696V46.1885H159.996ZM158.61 44.6631C158.61 44.4661 158.675 44.3032 158.804 44.1743C158.936 44.0418 159.119 43.9756 159.352 43.9756C159.581 43.9756 159.762 44.0418 159.894 44.1743C160.027 44.3032 160.093 44.4661 160.093 44.6631C160.093 44.8564 160.027 45.0176 159.894 45.1465C159.762 45.2754 159.581 45.3398 159.352 45.3398C159.119 45.3398 158.936 45.2754 158.804 45.1465C158.675 45.0176 158.61 44.8564 158.61 44.6631ZM161.167 49.1587V49.0352C161.167 48.6162 161.228 48.2277 161.35 47.8696C161.471 47.508 161.647 47.1947 161.876 46.9297C162.109 46.6611 162.392 46.4535 162.725 46.3066C163.061 46.1562 163.441 46.0811 163.863 46.0811C164.289 46.0811 164.669 46.1562 165.002 46.3066C165.339 46.4535 165.623 46.6611 165.856 46.9297C166.089 47.1947 166.266 47.508 166.388 47.8696C166.509 48.2277 166.57 48.6162 166.57 49.0352V49.1587C166.57 49.5776 166.509 49.9661 166.388 50.3242C166.266 50.6823 166.089 50.9956 165.856 51.2642C165.623 51.5291 165.34 51.7368 165.007 51.8872C164.674 52.034 164.297 52.1074 163.874 52.1074C163.448 52.1074 163.067 52.034 162.73 51.8872C162.397 51.7368 162.114 51.5291 161.881 51.2642C161.649 50.9956 161.471 50.6823 161.35 50.3242C161.228 49.9661 161.167 49.5776 161.167 49.1587ZM162.461 49.0352V49.1587C162.461 49.4201 162.488 49.6672 162.542 49.8999C162.596 50.1326 162.68 50.3368 162.794 50.5122C162.909 50.6877 163.056 50.8255 163.235 50.9258C163.414 51.026 163.627 51.0762 163.874 51.0762C164.114 51.0762 164.322 51.026 164.497 50.9258C164.676 50.8255 164.823 50.6877 164.938 50.5122C165.052 50.3368 165.136 50.1326 165.19 49.8999C165.247 49.6672 165.276 49.4201 165.276 49.1587V49.0352C165.276 48.7773 165.247 48.5339 165.19 48.3047C165.136 48.0719 165.05 47.866 164.932 47.687C164.818 47.508 164.671 47.3683 164.492 47.2681C164.316 47.1642 164.107 47.1123 163.863 47.1123C163.62 47.1123 163.409 47.1642 163.229 47.2681C163.054 47.3683 162.909 47.508 162.794 47.687C162.68 47.866 162.596 48.0719 162.542 48.3047C162.488 48.5339 162.461 48.7773 162.461 49.0352ZM168.939 47.4292V52H167.645V46.1885H168.864L168.939 47.4292ZM168.708 48.8794L168.289 48.874C168.293 48.4622 168.35 48.0845 168.461 47.7407C168.576 47.397 168.733 47.1016 168.934 46.8545C169.138 46.6074 169.381 46.4176 169.664 46.2852C169.947 46.1491 170.262 46.0811 170.609 46.0811C170.889 46.0811 171.141 46.1204 171.367 46.1992C171.596 46.2744 171.791 46.3979 171.952 46.5698C172.117 46.7417 172.242 46.9655 172.328 47.2412C172.414 47.5133 172.457 47.8481 172.457 48.2456V52H171.157V48.2402C171.157 47.9609 171.116 47.7407 171.034 47.5796C170.955 47.4149 170.839 47.2985 170.685 47.2305C170.534 47.1589 170.346 47.123 170.121 47.123C169.899 47.123 169.7 47.1696 169.524 47.2627C169.349 47.3558 169.2 47.4829 169.079 47.644C168.96 47.8052 168.869 47.9914 168.805 48.2026C168.74 48.4139 168.708 48.6395 168.708 48.8794Z" fill="white"/>
<rect x="24" y="63" width="94" height="22" rx="4" fill="white"/>
<path d="M36.2651 75.0835H34.2295V74.0146H36.2651C36.6196 74.0146 36.9061 73.9574 37.1245 73.8428C37.3429 73.7282 37.5023 73.5706 37.6025 73.3701C37.7064 73.166 37.7583 72.9333 37.7583 72.6719C37.7583 72.4248 37.7064 72.1938 37.6025 71.979C37.5023 71.7606 37.3429 71.5851 37.1245 71.4526C36.9061 71.3201 36.6196 71.2539 36.2651 71.2539H34.6431V78H33.2949V70.1797H36.2651C36.8703 70.1797 37.3841 70.2871 37.8066 70.502C38.2327 70.7132 38.5568 71.0068 38.7788 71.3828C39.0008 71.7552 39.1118 72.1813 39.1118 72.6611C39.1118 73.166 39.0008 73.5993 38.7788 73.9609C38.5568 74.3226 38.2327 74.6001 37.8066 74.7935C37.3841 74.9868 36.8703 75.0835 36.2651 75.0835ZM41.4912 73.2949V78H40.1968V72.1885H41.4321L41.4912 73.2949ZM43.269 72.1509L43.2583 73.354C43.1795 73.3397 43.0936 73.3289 43.0005 73.3218C42.911 73.3146 42.8215 73.311 42.7319 73.311C42.5099 73.311 42.3148 73.3433 42.1465 73.4077C41.9782 73.4686 41.8368 73.5581 41.7222 73.6763C41.6112 73.7909 41.5252 73.9305 41.4644 74.0952C41.4035 74.2599 41.3677 74.4443 41.3569 74.6484L41.0615 74.6699C41.0615 74.3047 41.0973 73.9663 41.1689 73.6548C41.2406 73.3433 41.348 73.0693 41.4912 72.833C41.638 72.5967 41.8206 72.4123 42.0391 72.2798C42.2611 72.1473 42.5171 72.0811 42.8071 72.0811C42.8859 72.0811 42.9701 72.0882 43.0596 72.1025C43.1527 72.1169 43.2225 72.133 43.269 72.1509ZM46.5347 78.1074C46.105 78.1074 45.7165 78.0376 45.3691 77.8979C45.0254 77.7547 44.7318 77.556 44.4883 77.3018C44.2484 77.0475 44.064 76.7485 43.9351 76.4048C43.8062 76.061 43.7417 75.6904 43.7417 75.293V75.0781C43.7417 74.6234 43.8079 74.2116 43.9404 73.8428C44.0729 73.474 44.2573 73.1589 44.4937 72.8975C44.73 72.6325 45.0093 72.4302 45.3315 72.2905C45.6538 72.1509 46.0029 72.0811 46.3789 72.0811C46.7943 72.0811 47.1577 72.1509 47.4692 72.2905C47.7808 72.4302 48.0386 72.6271 48.2427 72.8813C48.4504 73.132 48.6043 73.431 48.7046 73.7783C48.8084 74.1257 48.8604 74.5088 48.8604 74.9277V75.481H44.3701V74.5518H47.582V74.4497C47.5749 74.217 47.5283 73.9985 47.4424 73.7944C47.36 73.5903 47.2329 73.4256 47.061 73.3003C46.8892 73.175 46.66 73.1123 46.3735 73.1123C46.1587 73.1123 45.9671 73.1589 45.7988 73.252C45.6341 73.3415 45.4963 73.4722 45.3853 73.644C45.2743 73.8159 45.1883 74.0236 45.1274 74.2671C45.0701 74.507 45.0415 74.7773 45.0415 75.0781V75.293C45.0415 75.5472 45.0755 75.7835 45.1436 76.002C45.2152 76.2168 45.319 76.4048 45.4551 76.5659C45.5911 76.7271 45.7559 76.8542 45.9492 76.9473C46.1426 77.0368 46.3628 77.0815 46.6099 77.0815C46.9214 77.0815 47.1989 77.0189 47.4424 76.8936C47.6859 76.7682 47.8971 76.591 48.0762 76.3618L48.7583 77.0225C48.633 77.2051 48.4701 77.3805 48.2695 77.5488C48.069 77.7135 47.8237 77.8478 47.5337 77.9517C47.2472 78.0555 46.9142 78.1074 46.5347 78.1074ZM53.415 76.7969V69.75H54.7148V78H53.5386L53.415 76.7969ZM49.6338 75.1587V75.0459C49.6338 74.6055 49.6857 74.2044 49.7896 73.8428C49.8934 73.4775 50.0438 73.1642 50.2407 72.9028C50.4377 72.6379 50.6776 72.4355 50.9604 72.2959C51.2433 72.1527 51.562 72.0811 51.9165 72.0811C52.2674 72.0811 52.5754 72.1491 52.8403 72.2852C53.1053 72.4212 53.3309 72.6164 53.5171 72.8706C53.7033 73.1213 53.8519 73.422 53.9629 73.7729C54.0739 74.1203 54.1527 74.507 54.1992 74.9331V75.293C54.1527 75.7083 54.0739 76.0879 53.9629 76.4316C53.8519 76.7754 53.7033 77.0726 53.5171 77.3232C53.3309 77.5739 53.1035 77.7673 52.835 77.9033C52.57 78.0394 52.2603 78.1074 51.9058 78.1074C51.5549 78.1074 51.238 78.034 50.9551 77.8872C50.6758 77.7404 50.4377 77.5345 50.2407 77.2695C50.0438 77.0046 49.8934 76.693 49.7896 76.335C49.6857 75.9733 49.6338 75.5812 49.6338 75.1587ZM50.9282 75.0459V75.1587C50.9282 75.4237 50.9515 75.6707 50.998 75.8999C51.0482 76.1291 51.1252 76.3314 51.229 76.5068C51.3328 76.6787 51.4671 76.8148 51.6318 76.915C51.8001 77.0117 52.0007 77.0601 52.2334 77.0601C52.527 77.0601 52.7687 76.9956 52.9585 76.8667C53.1483 76.7378 53.2969 76.5641 53.4043 76.3457C53.5153 76.1237 53.5905 75.8766 53.6299 75.6045V74.6323C53.6084 74.4211 53.5636 74.2241 53.4956 74.0415C53.4312 73.8589 53.3434 73.6995 53.2324 73.5635C53.1214 73.4238 52.9836 73.3164 52.8188 73.2412C52.6577 73.1624 52.4661 73.123 52.2441 73.123C52.0078 73.123 51.8073 73.1732 51.6426 73.2734C51.4779 73.3737 51.3418 73.5116 51.2344 73.687C51.1305 73.8625 51.0535 74.0666 51.0034 74.2993C50.9533 74.5321 50.9282 74.7809 50.9282 75.0459ZM57.4541 72.1885V78H56.1543V72.1885H57.4541ZM56.0684 70.6631C56.0684 70.4661 56.1328 70.3032 56.2617 70.1743C56.3942 70.0418 56.5768 69.9756 56.8096 69.9756C57.0387 69.9756 57.2196 70.0418 57.3521 70.1743C57.4845 70.3032 57.5508 70.4661 57.5508 70.6631C57.5508 70.8564 57.4845 71.0176 57.3521 71.1465C57.2196 71.2754 57.0387 71.3398 56.8096 71.3398C56.5768 71.3398 56.3942 71.2754 56.2617 71.1465C56.1328 71.0176 56.0684 70.8564 56.0684 70.6631ZM61.2461 77.0762C61.4574 77.0762 61.6471 77.035 61.8154 76.9526C61.9873 76.8667 62.1252 76.7485 62.229 76.5981C62.3364 76.4478 62.3955 76.2741 62.4062 76.0771H63.6255C63.6183 76.4531 63.5073 76.7951 63.2925 77.103C63.0776 77.411 62.793 77.6562 62.4385 77.8389C62.084 78.0179 61.6919 78.1074 61.2622 78.1074C60.8182 78.1074 60.4315 78.0322 60.1021 77.8818C59.7726 77.7279 59.4987 77.5166 59.2803 77.248C59.0618 76.9795 58.8971 76.6698 58.7861 76.3188C58.6787 75.9679 58.625 75.592 58.625 75.1909V75.0029C58.625 74.6019 58.6787 74.2259 58.7861 73.875C58.8971 73.5205 59.0618 73.209 59.2803 72.9404C59.4987 72.6719 59.7726 72.4624 60.1021 72.312C60.4315 72.158 60.8164 72.0811 61.2568 72.0811C61.7223 72.0811 62.1305 72.1742 62.4814 72.3604C62.8324 72.543 63.1081 72.799 63.3086 73.1284C63.5127 73.4543 63.6183 73.8338 63.6255 74.2671H62.4062C62.3955 74.0522 62.3418 73.8589 62.2451 73.687C62.152 73.5116 62.0195 73.3719 61.8477 73.2681C61.6794 73.1642 61.4771 73.1123 61.2407 73.1123C60.9793 73.1123 60.7627 73.166 60.5908 73.2734C60.4189 73.3773 60.2847 73.5205 60.188 73.7031C60.0913 73.8822 60.0215 74.0845 59.9785 74.3101C59.9391 74.5321 59.9194 74.763 59.9194 75.0029V75.1909C59.9194 75.4308 59.9391 75.6636 59.9785 75.8892C60.0179 76.1147 60.0859 76.3171 60.1826 76.4961C60.2829 76.6715 60.4189 76.813 60.5908 76.9204C60.7627 77.0243 60.9811 77.0762 61.2461 77.0762ZM67.2832 72.1885V73.1338H64.0068V72.1885H67.2832ZM64.9521 70.7651H66.2466V76.394C66.2466 76.5731 66.2716 76.7109 66.3218 76.8076C66.3755 76.9007 66.4489 76.9634 66.542 76.9956C66.6351 77.0278 66.7443 77.0439 66.8696 77.0439C66.9591 77.0439 67.0451 77.0386 67.1274 77.0278C67.2098 77.0171 67.276 77.0063 67.3262 76.9956L67.3315 77.9839C67.2241 78.0161 67.0988 78.0448 66.9556 78.0698C66.8159 78.0949 66.6548 78.1074 66.4722 78.1074C66.175 78.1074 65.9118 78.0555 65.6826 77.9517C65.4535 77.8442 65.2744 77.6706 65.1455 77.4307C65.0166 77.1908 64.9521 76.8721 64.9521 76.4746V70.7651ZM77.354 70.1797V78H76.0059L72.4985 72.3979V78H71.1504V70.1797H72.4985L76.0166 75.7925V70.1797H77.354ZM78.584 75.1587V75.0352C78.584 74.6162 78.6449 74.2277 78.7666 73.8696C78.8883 73.508 79.0638 73.1947 79.293 72.9297C79.5257 72.6611 79.8086 72.4535 80.1416 72.3066C80.4782 72.1562 80.8577 72.0811 81.2803 72.0811C81.7064 72.0811 82.0859 72.1562 82.4189 72.3066C82.7555 72.4535 83.0402 72.6611 83.2729 72.9297C83.5057 73.1947 83.6829 73.508 83.8047 73.8696C83.9264 74.2277 83.9873 74.6162 83.9873 75.0352V75.1587C83.9873 75.5776 83.9264 75.9661 83.8047 76.3242C83.6829 76.6823 83.5057 76.9956 83.2729 77.2642C83.0402 77.5291 82.7573 77.7368 82.4243 77.8872C82.0913 78.034 81.7135 78.1074 81.291 78.1074C80.8649 78.1074 80.4836 78.034 80.147 77.8872C79.814 77.7368 79.5311 77.5291 79.2983 77.2642C79.0656 76.9956 78.8883 76.6823 78.7666 76.3242C78.6449 75.9661 78.584 75.5776 78.584 75.1587ZM79.8784 75.0352V75.1587C79.8784 75.4201 79.9053 75.6672 79.959 75.8999C80.0127 76.1326 80.0968 76.3368 80.2114 76.5122C80.326 76.6877 80.4728 76.8255 80.6519 76.9258C80.8309 77.026 81.0439 77.0762 81.291 77.0762C81.5309 77.0762 81.7386 77.026 81.9141 76.9258C82.0931 76.8255 82.2399 76.6877 82.3545 76.5122C82.4691 76.3368 82.5532 76.1326 82.6069 75.8999C82.6642 75.6672 82.6929 75.4201 82.6929 75.1587V75.0352C82.6929 74.7773 82.6642 74.5339 82.6069 74.3047C82.5532 74.0719 82.4673 73.866 82.3491 73.687C82.2345 73.508 82.0877 73.3683 81.9087 73.2681C81.7332 73.1642 81.5238 73.1123 81.2803 73.1123C81.0368 73.1123 80.8255 73.1642 80.6465 73.2681C80.471 73.3683 80.326 73.508 80.2114 73.687C80.0968 73.866 80.0127 74.0719 79.959 74.3047C79.9053 74.5339 79.8784 74.7773 79.8784 75.0352ZM86.6514 76.7109L87.9941 72.1885H88.8213L88.5957 73.542L87.2422 78H86.501L86.6514 76.7109ZM85.8618 72.1885L86.9092 76.7324L86.9951 78H86.168L84.5942 72.1885H85.8618ZM90.0781 76.6787L91.0933 72.1885H92.3555L90.7871 78H89.96L90.0781 76.6787ZM88.9609 72.1885L90.2876 76.6572L90.4541 78H89.7129L88.3433 73.5366L88.1177 72.1885H88.9609Z" fill="#B66D26"/>
<mask id="mask0_7131_17340" style="mask-type:alpha" maskUnits="userSpaceOnUse" x="95" y="67" width="15" height="14">
<rect x="95.5" y="67" width="14" height="14" fill="#D9D9D9"/>
</mask>
<g mask="url(#mask0_7131_17340)">
<path d="M103.113 73.9999L100.721 71.6083C100.614 71.5013 100.561 71.3774 100.561 71.2364C100.561 71.0954 100.614 70.9715 100.721 70.8645C100.828 70.7576 100.952 70.7041 101.093 70.7041C101.234 70.7041 101.359 70.7592 101.47 70.8694L104.236 73.6354C104.284 73.6879 104.321 73.7447 104.345 73.806C104.369 73.8672 104.381 73.9329 104.381 74.0029C104.381 74.0729 104.369 74.1385 104.345 74.1997C104.321 74.261 104.284 74.3159 104.236 74.3645L101.47 77.1304C101.359 77.2407 101.236 77.2933 101.1 77.2885C100.964 77.2836 100.842 77.2277 100.736 77.1208C100.629 77.0138 100.575 76.8899 100.575 76.7489C100.575 76.6079 100.629 76.484 100.736 76.377L103.113 73.9999Z" fill="#B66D26"/>
</g>
<path d="M276.664 61.7617L272.631 63.5448C271.767 63.9268 271.093 64.6326 270.755 65.5069C270.418 66.3811 270.445 67.3523 270.831 68.2068L272.633 72.1986C272.824 72.6218 273.098 73.0036 273.438 73.3223C273.778 73.6409 274.178 73.8902 274.615 74.0557C275.052 74.2213 275.518 74.3 275.986 74.2873C276.454 74.2746 276.915 74.1707 277.343 73.9817L281.375 72.1971C282.238 71.8152 282.912 71.1094 283.25 70.2351C283.587 69.3608 283.56 68.3896 283.175 67.5351L281.373 63.542C280.988 62.6875 280.275 62.0198 279.392 61.6857C278.508 61.3515 277.527 61.3798 276.664 61.7617Z" fill="#FC8D36"/>
<path d="M279.917 60.3203L269.376 64.9852L270.743 68.0149L281.286 63.35L279.917 60.3203Z" fill="#F2CC61"/>
<path d="M211.875 99.8716H257.592V85.5967H226.305C224.41 85.5952 222.534 85.9634 220.783 86.6802C219.032 87.397 217.441 88.4484 216.101 89.7743C214.761 91.1001 213.698 92.6745 212.973 94.4073C212.248 96.1401 211.875 97.996 211.875 99.8716ZM368.619 99.8716H322.902V85.5967H354.189C356.084 85.5948 357.96 85.9628 359.712 86.6796C361.463 87.3963 363.054 88.4478 364.394 89.7739C365.734 91.1 366.797 92.6747 367.522 94.4078C368.247 96.141 368.62 97.9986 368.619 99.8744V99.8716Z" fill="#975719"/>
<path d="M352.021 64.168H306.303V99.873H352.021V64.168Z" fill="#D79657"/>
<path d="M352.092 90.0312H306.229V93.9106H352.092V90.0312Z" fill="#A4682D"/>
<path d="M351.951 64.1681H306.229V56.1221H343.823C345.978 56.1228 348.045 56.9708 349.569 58.4795C351.093 59.9883 351.95 62.0344 351.951 64.1681Z" fill="#FFCC9B"/>
<path d="M309.303 72.4111H315.702V85.0822H309.303V72.4111Z" fill="#B57434"/>
<path d="M325.996 72.4111H332.396V85.0822H325.996V72.4111Z" fill="#B57434"/>
<path d="M340.941 72.4111H347.34V85.0822H340.941V72.4111Z" fill="#B57434"/>
<path d="M274.062 64.168H227.637V99.873H274.062V64.168Z" fill="#D79657"/>
<path d="M273.428 90.0312H227.569V93.9106H273.428V90.0312Z" fill="#A4682D"/>
<path d="M227.712 64.1681H273.429V56.1221H235.84C233.684 56.1221 231.617 56.9698 230.092 58.4787C228.568 59.9876 227.712 62.0342 227.712 64.1681Z" fill="#FFCC9B"/>
<path d="M262.715 72.4111H269.115V85.0822H262.715V72.4111Z" fill="#B57434"/>
<path d="M248.139 72.4111H254.538V85.0822H248.139V72.4111Z" fill="#B57434"/>
<path d="M231.073 72.4111H237.473V85.0822H231.073V72.4111Z" fill="#B57434"/>
<path d="M306.312 21.6387H273.511V99.804H306.312V21.6387Z" fill="#F0A65E"/>
<path d="M307.916 47.5024H271.906C271.55 47.5024 271.261 47.787 271.261 48.1399V50.8865C271.261 51.2394 271.548 51.524 271.905 51.524H307.916C308.272 51.524 308.561 51.2394 308.561 50.8865V48.1399C308.561 47.9705 308.493 47.808 308.372 47.6881C308.251 47.5683 308.087 47.5024 307.916 47.5024Z" fill="#A4682D"/>
<path d="M290.351 71.8486C288.874 71.8486 287.411 72.1367 286.046 72.6964C284.681 73.2561 283.441 74.0765 282.397 75.1107C281.352 76.1449 280.524 77.3726 279.958 78.7238C279.393 80.075 279.102 81.5232 279.103 82.9856V99.5787H300.727V82.1261C300.727 80.7767 300.459 79.4404 299.938 78.1936C299.417 76.9468 298.653 75.8139 297.689 74.8596C296.725 73.9053 295.581 73.1483 294.322 72.6319C293.062 72.1156 291.713 71.8499 290.35 71.8501L290.351 71.8486Z" fill="#673A0F"/>
<path d="M270.353 21.6384H309.395C309.62 21.6371 309.838 21.559 310.012 21.4171C310.186 21.2752 310.305 21.0783 310.35 20.8596C310.394 20.6409 310.361 20.4137 310.255 20.2165C310.15 20.0193 309.979 19.864 309.772 19.777L290.075 11.6654C289.957 11.6168 289.831 11.5918 289.703 11.5918C289.575 11.5918 289.448 11.6168 289.331 11.6654L269.98 19.777C269.775 19.865 269.605 20.0201 269.501 20.2165C269.397 20.4129 269.364 20.6388 269.407 20.8565C269.451 21.0741 269.568 21.2705 269.74 21.4127C269.912 21.555 270.129 21.6346 270.353 21.6384Z" fill="#FFCC9B"/>
<path d="M298.249 38.5091C298.516 37.4213 298.562 36.2919 298.386 35.1862C298.21 34.0804 297.814 33.0202 297.221 32.0668C296.629 31.1133 295.851 30.2854 294.934 29.631C294.017 28.9765 292.977 28.5084 291.876 28.2537C290.775 27.9989 289.634 27.9626 288.518 28.1468C287.403 28.331 286.336 28.7321 285.378 29.3269C284.42 29.9216 283.59 30.6984 282.937 31.6122C282.284 32.526 281.82 33.5589 281.572 34.6511C281.083 36.8305 281.481 39.1132 282.682 41.0034C283.882 42.8936 285.787 44.2386 287.983 44.7465C290.18 45.2544 292.49 44.8841 294.412 43.716C296.334 42.5479 297.712 40.6777 298.249 38.5091Z" fill="#975618"/>
<path d="M289.417 39.2087V32.1246C289.413 32.0496 289.424 31.9747 289.451 31.9043C289.477 31.8339 289.518 31.7696 289.57 31.7152C289.622 31.6608 289.685 31.6174 289.755 31.5878C289.824 31.5582 289.899 31.543 289.975 31.543C290.051 31.543 290.126 31.5582 290.196 31.5878C290.265 31.6174 290.328 31.6608 290.381 31.7152C290.433 31.7696 290.473 31.8339 290.5 31.9043C290.526 31.9747 290.538 32.0496 290.534 32.1246V36.5504L292.109 34.975C292.188 34.899 292.287 34.8475 292.395 34.8269C292.503 34.8064 292.615 34.8176 292.717 34.8592C292.818 34.9009 292.905 34.9712 292.967 35.0613C293.029 35.1514 293.062 35.2575 293.064 35.3664C293.064 35.4392 293.049 35.5113 293.021 35.5784C292.992 35.6456 292.951 35.7065 292.898 35.7577L289.417 39.2087Z" fill="white"/>
</g>
<rect x="0.5" y="0.5" width="383" height="99" rx="3.5" stroke="#FFD3A8"/>
<defs>
<linearGradient id="paint0_linear_7131_17340" x1="-5.76" y1="8.21371e-06" x2="375.175" y2="154.793" gradientUnits="userSpaceOnUse">
<stop stop-color="#F8B06A"/>
<stop offset="1" stop-color="#AE641D"/>
</linearGradient>
<clipPath id="clip0_7131_17340">
<rect width="384" height="100" rx="4" fill="white"/>
</clipPath>
</defs>
</svg>
