<svg xmlns="http://www.w3.org/2000/svg" width="144" height="80" fill="none"><path fill="#fff" d="m1.041 79.718 44.234-.215 11.79-.003h3.907l11.813-.004 53.97-.013s12.344-14.838-.842-28.93c-13.672-14.61-20.319-2.713-24.521-23.28C90.813-24.496-13.771 5.635 13.661 49.69c9.877 15.862-19.443 7.43-12.62 30.03Z"/><path fill="#FFB068" d="M120.185 27.094a.376.376 0 0 1-.375.375.376.376 0 0 1-.365-.375V21.31a.377.377 0 0 1 .365-.375.375.375 0 0 1 .375.375v5.785Z"/><path fill="#FFB068" d="M122.883 24.475h-2.7v-2.769h2.7l-.797 1.384.797 1.385Z"/><path fill="#FFE7D3" d="M142.723 38.868H96.896v29.446h45.827V38.868Z"/><path fill="#FFCB9B" d="M143.882 68.314H95.735v4.178h48.147v-4.178Zm0-33.624H95.735v4.178h48.147V34.69Z"/><path fill="#FFC693" d="M102.931 38.868h-3.714v29.446h3.714V38.868Z"/><path fill="#FFB068" d="M103.758 39.437a.565.565 0 0 1-.559.57h-4.242a.57.57 0 1 1 0-1.14h4.242a.57.57 0 0 1 .568.57h-.009Zm0 28.307a.563.563 0 0 1-.35.527.565.565 0 0 1-.218.043h-4.233a.571.571 0 0 1-.403-.972.57.57 0 0 1 .403-.167h4.242a.57.57 0 0 1 .568.569h-.009Z"/><path fill="#FFC693" d="M110.889 38.868h-3.714v29.446h3.714V38.868Z"/><path fill="#FFB068" d="M111.717 39.437a.563.563 0 0 1-.35.527.567.567 0 0 1-.218.043h-4.233a.57.57 0 0 1 0-1.14h4.233a.569.569 0 0 1 .568.57Zm0 28.307a.563.563 0 0 1-.35.527.565.565 0 0 1-.218.043h-4.233a.57.57 0 0 1 0-1.139h4.233a.569.569 0 0 1 .568.569Z"/><path fill="#FFC693" d="M132.444 38.868h-3.715v29.446h3.715V38.868Z"/><path fill="#FFB068" d="M133.277 39.437a.583.583 0 0 1-.166.403.572.572 0 0 1-.403.167h-4.237a.568.568 0 0 1-.527-.789.556.556 0 0 1 .309-.307.565.565 0 0 1 .218-.043h4.233a.562.562 0 0 1 .404.165.562.562 0 0 1 .169.404Zm0 28.307a.583.583 0 0 1-.166.403.572.572 0 0 1-.403.167h-4.237a.57.57 0 1 1 0-1.139h4.233a.57.57 0 0 1 .568.569h.005Z"/><path fill="#FFC693" d="M140.403 38.868h-3.715v29.446h3.715V38.868Z"/><path fill="#FFB068" d="M141.23 39.437a.564.564 0 0 1-.166.403.573.573 0 0 1-.403.167h-4.232a.57.57 0 1 1 0-1.14h4.232a.567.567 0 0 1 .569.57Zm0 28.307a.564.564 0 0 1-.166.403.573.573 0 0 1-.403.167h-4.232a.57.57 0 1 1 0-1.139h4.232a.567.567 0 0 1 .569.569Z"/><path fill="#FFA95A" d="M124.782 68.312V56.618a4.985 4.985 0 0 0-1.419-3.586 4.988 4.988 0 0 0-3.555-1.494 4.978 4.978 0 0 0-4.974 5.08v11.694h9.948Z"/><path fill="#FFB068" d="M119.809 26.644 96.896 34.69h45.827l-22.914-8.046Z"/><path fill="#FFBE84" d="m119.81 27.639-17.249 6.057h34.496l-17.247-6.057Z"/><path fill="#FFB068" d="M60.45 27.094a.378.378 0 0 1-.375.375.375.375 0 0 1-.364-.375V21.31a.373.373 0 0 1 .364-.375.375.375 0 0 1 .375.375v5.785Z"/><path fill="#FFB068" d="M63.148 24.475h-2.7v-2.769h2.7l-.797 1.384.797 1.385Z"/><path fill="#FFE7D3" d="M82.988 38.868H37.16v29.446h45.827V38.868Z"/><path fill="#FFCB9B" d="M84.147 68.314H36v4.178h48.147v-4.178Zm0-33.624H36v4.178h48.147V34.69Z"/><path fill="#FFC693" d="M43.197 38.868h-3.715v29.446h3.715V38.868Z"/><path fill="#FFB068" d="M44.024 39.437a.568.568 0 0 1-.56.57h-4.242a.57.57 0 1 1 0-1.14h4.242a.568.568 0 0 1 .568.57h-.008Zm0 28.307a.567.567 0 0 1-.569.57h-4.233a.57.57 0 1 1 0-1.139h4.242a.569.569 0 0 1 .568.569h-.008Z"/><path fill="#FFC693" d="M51.154 38.868H47.44v29.446h3.714V38.868Z"/><path fill="#FFB068" d="M51.983 39.437a.57.57 0 0 1-.569.57h-4.233a.57.57 0 1 1 0-1.14h4.233a.568.568 0 0 1 .569.57Zm0 28.307a.569.569 0 0 1-.569.57h-4.233a.57.57 0 1 1 0-1.139h4.233a.569.569 0 0 1 .569.569Z"/><path fill="#FFC693" d="M72.709 38.868h-3.715v29.446h3.715V38.868Z"/><path fill="#FFB068" d="M73.542 39.437a.569.569 0 0 1-.569.57h-4.237a.568.568 0 0 1-.404-.973.568.568 0 0 1 .404-.166h4.233a.569.569 0 0 1 .573.569Zm0 28.307a.569.569 0 0 1-.569.57h-4.237a.57.57 0 1 1 0-1.139h4.233a.569.569 0 0 1 .568.569h.005Z"/><path fill="#FFC693" d="M80.668 38.868h-3.715v29.446h3.715V38.868Z"/><path fill="#FFB068" d="M81.495 39.437a.567.567 0 0 1-.569.57h-4.232a.57.57 0 1 1 0-1.14h4.232a.568.568 0 0 1 .569.57Zm0 28.307a.567.567 0 0 1-.569.57h-4.232a.57.57 0 1 1 0-1.139h4.232a.569.569 0 0 1 .569.569Z"/><path fill="#FFA95A" d="M65.047 68.312V56.618a4.975 4.975 0 1 0-9.947 0v11.694h9.947Z"/><path fill="#FFB068" d="M60.075 26.644 37.16 34.69h45.827l-22.913-8.046Z"/><path fill="#FFBE84" d="m60.075 27.639-17.25 6.057h34.497l-17.247-6.057Z"/><path fill="#202938" d="M94.342 26.735h-9.296l.653-4.215-2.611 4.215h-2.101c.69-26.886 25.917-28.396 26.047 0h-2.086l-.788-6.375-.92 6.375h-3.852v-6.282l-1.226 6.282h-3.82Z"/><path fill="#FFB27D" d="M87.966 18.382c.49 3.101-2.112 3.543-2.672.454-.493-3.101 2.11-3.543 2.672-.454Zm12.759 0c-.491 3.101 2.111 3.543 2.671.454.492-3.101-2.111-3.543-2.671-.454Z"/><path fill="#F4D2C6" d="M98.275 20.995h-7.859c.95 2.706-1.12 16.265-1.12 16.265h10.103s-2.072-13.559-1.124-16.265Z"/><path fill="#FFB27D" d="M101.929 18.765c-.188 12.139-14.981 12.137-15.169 0-1.345-12.426 16.113-12.548 15.169 0Z"/><path fill="#FFB27D" d="M90.52 26.735s3.563 2.747 7.647 0l.215 2.459s-4.398 2.055-8.078.025l.217-2.484Z"/><path fill="#202938" d="M95.88 9.538v5.813s-4.695.385-9.017 1.051C85.654 8.875 95.66 6.085 95.88 9.538Z"/><path fill="#202938" d="m95.83 9.09 1.24 5.985c1.618.257 3.201.702 4.716 1.328 0 0 2.121-8.569-5.955-7.313Z"/><path fill="#F99746" d="M109.884 41.273c-1.506-8.213-8.161-10.093-15.54-9.608h-.214c-7.266-.525-13.908 1.589-15.328 9.608L75.727 67.93c17.183 4.964 20.112 4.67 37.233 0l-3.076-26.658Z"/><mask id="a" width="38" height="41" x="76" y="31" maskUnits="userSpaceOnUse" style="mask-type:luminance"><path fill="#fff" d="M110.243 41.62c-1.506-8.212-8.161-10.092-15.54-9.607h-.215c-7.266-.525-13.907 1.589-15.327 9.608l-3.076 26.658c17.183 4.964 20.112 4.67 37.234 0l-3.076-26.658Z"/></mask><g mask="url(#a)"><path fill="#FF7900" d="M77.879 55c6.319 3.502 20.065 11.828 30.59 10.558-15.708 8.158-14.707 8.23-31.165 1.803L77.879 55Z"/></g><path fill="#F4D2C6" d="M88.378 31.472c.731 5.349 11.211 5.325 11.93 0 0 0-6.09-.468-11.93 0Z"/><path fill="#fff" d="m94.342 35.568-3.83 3.818s-3.895-2.4-3.266-7.392l1.023-.206 6.073 3.78Zm.001 0 3.83 3.818s3.896-2.4 3.267-7.392l-1.023-.206-6.074 3.78Z"/><path fill="#FFB27D" d="M74.658 46.76c-.28 5.747-4.53 15.533 4.552 16.48l-.735-13.854-3.817-2.626Zm38.842.375c.364 5.97 4.392 15.39-4.573 16.888l.757-14.262 3.816-2.626Z"/><path fill="#EDA19D" d="M87.096 74.808s-2.956-1.833-4.513-1.352c-.233.073-1.858 2.078-1.858 2.078l-5.516 2.09c-1.023.35-1.547 1.358-1.696 2.376h13.986l-.403-5.192Z"/><path fill="#48639E" d="M86.722 73.665s24.573-13.606 33.326-12.412c8.754 1.194 9.136 13.375 1.576 15.961C114.064 79.8 87.208 80 87.208 80l-.486-6.335Z"/><path fill="#355395" d="M101.964 73.665S77.39 60.059 68.637 61.253c-8.752 1.194-9.136 13.375-1.575 15.961C74.622 79.8 101.477 80 101.477 80l.487-6.335Z"/><path fill="#F4D2C6" d="M101.876 74.808s2.954-1.833 4.512-1.352c.234.073 1.858 2.078 1.858 2.078l5.516 2.09c1.024.35 1.546 1.358 1.697 2.376h-13.983l.4-5.192Z"/><path fill="#323C4F" d="m75.098 37.674 17.212 7.239v19.608l-17.212-7.514V37.674Zm37.819 0-17.211 7.239v19.608l17.211-7.514V37.674Z"/><path fill="#28354F" d="M95.706 44.913h-3.397V64.52h3.397V44.913Z"/><path fill="#fff" d="m76.267 38.166 3.957-.906 13.707 5.848-1.622 1.805-16.042-6.747Zm17.664 4.942 1.775 1.805 15.617-6.568-2.856-1.08-14.536 5.843Z"/><path fill="#DCECFD" d="m93.931 43.108-1.622 1.805h3.397l-1.775-1.805Z"/><path fill="#FFB27D" d="M112.838 44.654c-1.241.753-3.732 1.519-3.852 3.27-.399 2.083 1.996 3.89 3.903 3.013.401-.38.842-.851.81-1.445v-3.478a1.5 1.5 0 0 0-.859-1.36h-.002Zm-37.742 0c1.241.753 3.733 1.519 3.852 3.27.4 2.083-1.995 3.89-3.903 3.013-.4-.38-.842-.85-.81-1.445v-3.478a1.506 1.506 0 0 1 .861-1.36Z"/></svg>