<svg xmlns="http://www.w3.org/2000/svg" width="132" height="76" fill="none"><path fill="#fff" d="m.97 76 41.218-.205 10.986-.003h3.64l11.008-.003 50.29-.013s11.503-14.146-.784-27.58C104.589 34.266 98.394 45.608 94.478 26 84.621-23.353-12.832 5.373 12.73 47.371 21.933 62.493-5.388 54.456.97 76Z"/><path fill="#0384A4" d="m61.505 32.485 1.003-7.094-1.003 7.094Z"/><path fill="#FF7900" d="M41 71.372v2.516a1.713 1.713 0 0 0 1.714 1.717h44.859a1.717 1.717 0 0 0 1.717-1.718v-2.515H41Zm46.573-.097V46.441a.686.686 0 0 0-.686-.685H43.173a.689.689 0 0 0-.686.685v24.834h45.086Z"/><path fill="#FFE7D3" d="M85.151 71.275V48.991a.623.623 0 0 0-.623-.624H45.32a.623.623 0 0 0-.624.624v22.284h40.455Z"/><path fill="#EDEDED" d="M89.29 71.275H41v1.403h48.29v-1.403Z"/><path fill="#E6C3A5" d="M73.81 51.114H56.188v1.954H73.81v-1.954Zm2.982 6.545H53.467v.81h23.325v-.81Zm-18.946 8.657h-9.512v.833h9.512v-.833Zm0 1.415h-9.512v.833h9.512v-.833Zm.003 1.456h-9.512v.832h9.512v-.832Zm11.918-2.88h-9.512v.832h9.512v-.832Zm0 1.418h-9.512v.832h9.512v-.832Zm.003 1.452h-9.512v.833h9.512v-.833Zm11.653-2.879h-9.512v.832h9.512v-.832Zm0 1.418h-9.512v.832h9.512v-.832Zm0 1.452h-9.512V70h9.512v-.832Z"/><path fill="#48639E" d="M102.787 52.977c-1.823 3.74-6.691 4.578-7.411 4.706-.72-.128-5.567-.963-7.39-4.706 0 0-14.52 2.181-14.726 8.92L73.475 76l21.92-.209 21.919.209.209-14.106c-.218-6.739-14.736-8.917-14.736-8.917Z"/><path fill="#DFA17A" d="M100.986 47.208a12.619 12.619 0 0 1-5.46 2.316v.03h-.169v-.03a12.675 12.675 0 0 1-5.541-2.375c-.103 1.337-.546 5.653-1.83 5.828 1.64 3.37 5.741 4.507 7.069 4.793h.664c1.327-.286 5.426-1.424 7.068-4.793-1.34-.18-1.726-4.66-1.801-5.77Z"/><path fill="#202938" d="M106.259 9.783a12 12 0 0 0-.564-.43l-.09-.066a10.99 10.99 0 0 0-.558-.374l-.106-.068a18.72 18.72 0 0 0-.577-.346l-.075-.041a12.053 12.053 0 0 0-.595-.312l-.034-.015a14.868 14.868 0 0 0-.623-.29l-.097-.04a11.425 11.425 0 0 0-.623-.25l-.097-.034a15.773 15.773 0 0 0-.642-.228h-.025a18.056 18.056 0 0 0-.667-.2h-.034a16.527 16.527 0 0 0-.667-.167l-.075-.016c-.221-.05-.443-.097-.664-.137h-.05c-.464-.084-.935-.15-1.393-.197h-.016c-.23-.024-.46-.043-.691-.056h-.035c-5.678-.333-10.82 2.03-10.771 4.853 0 0-8.477.78-5.753 13.068l1.789 8.166 1.399-7s4.052-2.334 4.9-7.312a15.403 15.403 0 0 0 6.856 5.966l.06.024c.17.079.345.15.523.222l.05.018c.168.066.34.131.514.19l.053.02c.184.065.368.124.558.183l.087.025c.181.056.368.11.558.156h.028c.198.05.397.097.599.14l.112.025c.405.084.826.156 1.246.212l.134.016c.216.028.431.05.652.068h.068c.203 0 .412.028.624.038h.947l.624-.019h.13c.237 0 .48-.031.727-.05l.162-.015c.227-.022.458-.047.692-.078h.09c.256-.032.514-.072.776-.119l.187-.031c.268-.047.536-.1.81-.159l1.4 7.792 1.013-6.689s4.7-10.378-2.846-16.443Z"/><path fill="#EEB991" d="m109.152 28.71-.293-.651-.733 4.825-1.399-7.792c-.274.06-.542.112-.81.159l-.187.031a13.91 13.91 0 0 1-.776.118h-.091c-.234.032-.464.056-.692.078l-.152.031c-.247.02-.49.038-.727.05h-.131l-.623.02h-.947c-.212 0-.421-.023-.624-.038h-.068c-.222-.019-.437-.04-.652-.069l-.134-.016c-.43-.056-.85-.127-1.246-.211l-.113-.025a12.72 12.72 0 0 1-.598-.14h-.028c-.19-.047-.377-.1-.558-.156l-.087-.025c-.19-.06-.374-.119-.558-.184l-.053-.019c-.175-.06-.346-.125-.514-.19l-.05-.019a13.259 13.259 0 0 1-.524-.221l-.059-.025a15.346 15.346 0 0 1-6.857-5.965c-.854 4.986-4.9 7.311-4.9 7.311l-1.399 7-.847-3.861c-.337 0-2.615.184-2.135 3.837.517 3.94 2.072 5.921 3.94 4.874 0 0 2.564 10.547 11.861 12.102v.031h.169v-.03c9.297-1.56 11.862-12.103 11.862-12.103 1.87 1.038 3.428-.935 3.939-4.874.512-3.94-2.206-3.853-2.206-3.853Z"/><path fill="#FF7900" d="M87.036 53.176a41.52 41.52 0 0 0-5.102 1.35c.508 3.481 2.805 8.29 11.416 9.222l2.007-5.582c-1.044-.196-5.953-1.296-8.321-4.99Z"/><path fill="#fff" d="M88.145 52.977c-1.334.221-2.656.51-3.961.866.146 2.89 1.605 7.77 9.612 8.637l1.673-4.657c-.928-.174-5.557-1.215-7.324-4.846Z"/><path fill="#FF7900" d="M108.843 54.439a40.633 40.633 0 0 0-5.096-1.331c-2.365 3.706-7.218 4.466-8.262 4.675l2.12 5.978c8.648-.948 10.743-5.838 11.238-9.322Z"/><path fill="#fff" d="M102.809 52.937a39.11 39.11 0 0 1 3.961.863c-.146 2.892-1.605 7.77-9.611 8.636l-1.674-4.656c.932-.168 5.557-1.225 7.324-4.843Z"/><path fill="#333" d="M73.927 4.7h-1.222v7.86h1.222V4.7Z"/><path fill="#FF7900" d="M72.063 24.902s-3.843-3.379-.583-8.908h3.553s2.852 5.53-.467 9.023a2.256 2.256 0 0 0-.056-1.805s-.119 1.87-1.225 2.911c0 0-1.047-1.804-.698-3.26 0 0-.58 1.107-.524 2.039Z"/><path fill="#333" d="M75.033 11.721H71.48a.785.785 0 0 0-.776.78v3.493a.782.782 0 0 0 .776.789h3.553a.71.71 0 0 0 .527-.21l.022-.018.022-.022a.72.72 0 0 0 .205-.526V12.5a.785.785 0 0 0-.776-.779Z"/><path fill="#202020" d="M110.719 7.473H79.983a.785.785 0 0 0-.78.776v14.674a.786.786 0 0 0 .78.776h30.736a.714.714 0 0 0 .527-.21l.022-.018a.732.732 0 0 0 .231-.549V8.25a.787.787 0 0 0-.78-.776Z"/><path fill="#141414" d="M111.499 8.25a.787.787 0 0 0-.78-.777H79.983a.785.785 0 0 0-.78.776v3.117l10.513 3.03 9.46 2.723c.732.212 1.305-.05 1.869-.196l4.22-1.075 6.234-1.621V8.249Z"/><path fill="#231F20" d="m126.726 7.377-24.952-5.685-5.74-1.306-.225-.056h-.04l-.624-.165h-.019l-.243-.06a2.805 2.805 0 0 0-.982-.096L85.4 1.424 65.452 4.746c-.277.047-.405.168-.424.312-.093.193.028.436.452.586.124.062.258.102.396.118l23.868 6.879 9.459 2.724c.732.212 1.306-.05 1.87-.197l4.192-1.115 21.966-5.729c.636-.162.162-.798-.505-.947Zm-19.952 21.268s-.901-.789-4.052-.789c-1.34 0-3.117.134-4.363.683-.313.144-.61.316-.892.514l-.676.57s-.25.228-1.287.237h-.137c-1.038 0-1.288-.236-1.288-.236l-.657-.57a5.613 5.613 0 0 0-.892-.515c-1.246-.549-3.013-.683-4.363-.683-3.15 0-4.052.789-4.052.789h-1.891v1.06l.813.766c.128.897.306 1.786.533 2.662.34 1.318.742 3.033 2.182 3.519a8.73 8.73 0 0 0 2.836.352c1.287 0 3.198.016 4.005-1.203.76-1.147 1.053-2.646 1.318-3.974a.739.739 0 0 1 .42-.477h2.207a.738.738 0 0 1 .421.477c.265 1.328.558 2.827 1.319 3.974.807 1.218 2.717 1.203 4.005 1.203a8.72 8.72 0 0 0 2.836-.352c1.452-.486 1.87-2.2 2.181-3.519a25.11 25.11 0 0 0 .537-2.662l.81-.766v-1.06h-1.873Zm-13.757 2.768a9.882 9.882 0 0 1-.427 2.103c-.2.736-.418 1.559-1.032 2.076-.708.583-1.945.714-2.82.739h-.347c-.935-.025-1.982-.134-2.764-.674a2.125 2.125 0 0 1-.782-1.153c-.025-.065-.35-1.031-.312-1.04a10.577 10.577 0 0 1-.405-1.917 5.67 5.67 0 0 1-.063-.935c.05-1.817 3.226-1.886 4.507-1.886a10.44 10.44 0 0 1 3.291.433c.44.128.82.403 1.079.78.28.464.118.969.075 1.474Zm13.751.134a10.63 10.63 0 0 1-.406 1.916c.025 0-.311.976-.311 1.041a2.146 2.146 0 0 1-.786 1.154c-.782.539-1.839.648-2.764.673h-.346c-.876-.025-2.113-.156-2.82-.739-.624-.508-.833-1.34-1.032-2.076a10.063 10.063 0 0 1-.427-2.103c-.044-.505-.206-1.01.068-1.475a1.96 1.96 0 0 1 1.075-.779 10.446 10.446 0 0 1 3.317-.445c1.277 0 4.453.068 4.503 1.885a5.48 5.48 0 0 1-.071.948Z"/><path fill="#E5E5E5" d="m117.609 73.136-.284-.327a.52.52 0 0 0-.732-.028l-1.091.935a.525.525 0 0 0-.084.729l.283.327 1.908-1.636Z"/><path fill="#C9C9C9" d="m117.609 73.136.281.33a.525.525 0 0 1-.085.73l-1.09.935a.522.522 0 0 1-.733-.028l-.28-.328 1.907-1.639Z"/><path fill="#E5E5E5" d="m117.609 73.136-.284-.327a.52.52 0 0 0-.732-.028l-1.091.935a.525.525 0 0 0-.084.729l.283.327 1.908-1.636Z"/><path fill="#C9C9C9" d="m117.609 73.136.281.33a.525.525 0 0 1-.085.73l-1.09.935a.522.522 0 0 1-.733-.028l-.28-.328 1.907-1.639Z"/><path fill="#48639E" d="m128.392 62.63-12.169 10.452.619.722 12.169-10.453-.619-.72Z"/><path fill="#4FB8DD" d="m129.008 63.351-12.169 10.452.618.719 12.169-10.452-.618-.719Z"/><path fill="#48639E" d="m128.392 62.63-12.169 10.452.619.722 12.169-10.453-.619-.72Z"/><path fill="#4FB8DD" d="m129.008 63.351-12.169 10.452.618.719 12.169-10.452-.618-.719Z"/><path fill="#E8B58B" d="m128.43 62.592-.134.116 1.237 1.436.131-.115 1.216-2.191-.05-.056-.05-.06-2.35.87Z"/><path fill="#333231" d="m130.646 61.772.396-.174-.231.364-.165-.19Z"/><path fill="#F8611B" d="m116.406 72.925-.336.288.618.719.336-.289-.618-.718Z"/><path fill="#DD3E1A" d="m117.025 73.643-.336.289.617.718.336-.288-.617-.719Z"/><path fill="#F8611B" d="m116.406 72.925-.336.288.618.719.336-.289-.618-.718Z"/><path fill="#DD3E1A" d="m117.025 73.643-.336.289.617.718.336-.288-.617-.719Z"/><path fill="#808082" d="m106.897 70.025 18.304 2.325-.038-.027-18.313-2.347.047.05Z"/><path fill="#DABE95" d="M106.825 70.166c.047-.1.035-.147.125-.134l.168.022.664.084 2.378.311 3.319.421 3.709.47 3.538.453 2.805.355 1.533.196.131.016c-.823 1.206.405 3.03 1.77 3.036-2.265-.275-5.002-.284-7.511-.312-2.509-.028-8.805.168-9.431.162a4.11 4.11 0 0 1-1.381-.118 3.326 3.326 0 0 1-1.729-1.758 3.732 3.732 0 0 1-.094-3.201l.006-.003Z"/><path fill="#DABE95" d="M108.891 69.58a1.56 1.56 0 0 1 1.247-.586c.265.026.528.067.788.121l.935.15c.624.103 4.295 1.038 7.957 1.633 3.522.574 7.047.813 7.792.935a1.249 1.249 0 0 0-1.387 1.02.995.995 0 0 0 .444 1.105c.121.074.257.122.398.14l-7.515-.48-7.511-.48-1.87-.12a7.603 7.603 0 0 1-.801-.054.982.982 0 0 1-.43-.174 1.916 1.916 0 0 1-.623-1.87c.067-.492.272-.954.592-1.334l-.016-.006Z"/><path fill="#C4A270" d="M109.371 70.701a.628.628 0 0 1 .524-.227l.904.112 1.87.237 3.74.47 7.48.936 3.475.44a.498.498 0 0 0-.53.457.394.394 0 0 0 .331.437l-7.505-.652-7.521-.651-1.614-.14-.789-.069a.748.748 0 0 1-.312-.065c-.448-.25-.311-.97-.046-1.288l-.007.004Z"/><path fill="#E8D2B0" d="M109.764 72.082a.567.567 0 0 0 .259-.252c0-.022.118-.312.093-.312h.15l.623.063 2.359.236 3.351.337 3.721.371 3.466.358 2.606.262 1.118.112c.022 0 0 .05 0 .063a.35.35 0 0 1-.327.27 4.257 4.257 0 0 1-.445-.033l-.49-.044-.935-.078-3.74-.312-7.508-.623-4.466-.377a.372.372 0 0 0 .184-.031l-.019-.01Z"/><path fill="#E8D2B0" d="M110.69 71.378a1.03 1.03 0 0 0-.776-1.007c1.224.138 2.446.312 3.668.468l3.74.48 7.48.957 1.87.237c.253.034.517.046.767.102a.626.626 0 0 1 .343.215.829.829 0 0 1 .048.863.835.835 0 0 1-.743.44l-1.007-.062-2.525-.156-3.428-.212-3.74-.23-3.428-.21-2.509-.155-.979-.06c.832.05 1.297-.966 1.247-1.67-.031 0-.025.047-.028 0Z"/><path fill="#FFE8C5" d="M111.456 69.61a1.821 1.821 0 0 0-1.486-.704 1.774 1.774 0 0 0-1.306.854 2.842 2.842 0 0 0-.461 1.6 1.873 1.873 0 0 0 .645 1.452c.216.175.493.257.77.23.264-.046.502-.186.67-.396a1.734 1.734 0 0 0 .342-1.558 1.012 1.012 0 0 0-.479-.623.646.646 0 0 0-.714.068 1.064 1.064 0 0 0-.184 1.425.443.443 0 0 0 .595.096.712.712 0 0 0 .268-.514h-.065a.678.678 0 0 1-.041.178.52.52 0 0 1-.268.311.448.448 0 0 1-.551-.311c-.2-.452.077-1.247.654-1.247.577 0 .81.689.776 1.169-.034.48-.33 1.128-.869 1.296-.54.169-1.013-.205-1.247-.645a2.29 2.29 0 0 1-.147-1.642 2.35 2.35 0 0 1 .898-1.381 1.479 1.479 0 0 1 1.49-.1c1.072.511 1.415 1.87 1.284 2.958s-.698 2.313-1.73 2.864a2.05 2.05 0 0 1-1.589.172 2.832 2.832 0 0 1-1.334-1.02 4.133 4.133 0 0 1-.792-3.263 3.096 3.096 0 0 1 .284-.779c.034-.065.034-.06-.016-.109a3.777 3.777 0 0 0-.056 3.276c.424 1.01 1.309 2.072 2.493 2.075 1.185.004 2.11-1.013 2.519-2.05.408-1.038.473-2.344-.125-3.345a2.542 2.542 0 0 0-.228-.311v-.025Z"/><path fill="#E8D2B0" d="M127.629 71.783a1.558 1.558 0 0 1 1.141.916c.147.353.181.743.097 1.116a1.999 1.999 0 0 1-1.898 1.624c-.156 0-3.139-.346-6.664-.368-4.927-.03-10.852.256-11.024.256 1.2 0 2.117-1.007 2.528-2.048.37-.884.418-1.87.134-2.786-.256-.739-.817-1.434-1.624-1.558.181.03 5.473 1.246 10.186 2.032 3.655.604 6.99.804 7.124.826v-.01Z"/><path fill="#FF9196" d="M120.108 74.666c.124-.308.201-.632.228-.963.031-.33.031-.663 0-.994a3.785 3.785 0 0 0-.234-.966 1.866 1.866 0 0 0-.567-.801c.248.218.438.496.552.807.116.31.191.633.224.963a5.26 5.26 0 0 1-.072 1.477c-.03.163-.073.322-.131.477Z"/><path fill="#E06E79" d="M121.302 71.085c1.817.256 1.559 4.092.624 4.018-.527 0-2.182-.016-2.26-.016.826.031 1.147-4.09-.732-4.4-.003.015 2.103.358 2.368.398Z"/></svg>