<svg xmlns="http://www.w3.org/2000/svg" width="144" height="78" fill="none"><path fill="#fff" d="m1.033 78 43.899-.21 11.701-.004h3.877l11.723-.003 53.562-.013s12.25-14.518-.836-28.306c-13.568-14.296-20.165-2.655-24.336-22.778C90.125-23.968-13.667 5.514 13.557 48.618 23.36 64.138-5.738 55.888 1.033 78Z"/><g opacity=".68"><path fill="#E9C896" d="m45.896 31.247-1.358 3.017a2.057 2.057 0 0 0 1.031 2.72l32.662 14.707a2.057 2.057 0 0 0 2.72-1.032l1.359-3.017a2.057 2.057 0 0 0-1.032-2.72L48.617 30.216a2.057 2.057 0 0 0-2.72 1.031Z"/><path fill="#D5AB6E" d="m44.23 34.945 1.948-4.335a1.34 1.34 0 0 1 1.767-.668 1.34 1.34 0 0 1 .671 1.767l-1.951 4.342a1.34 1.34 0 0 1-2.194.367 1.338 1.338 0 0 1-.242-1.473Z"/><path fill="#DC3545" d="M64.82 46.804a.941.941 0 0 1-.282-.313 47.081 47.081 0 0 1-1.197-1.925l-.259.588a1.003 1.003 0 0 1-1.321.5l-2.374-1.068a1.006 1.006 0 0 1-.5-1.324l3.262-7.255a.998.998 0 0 1 1.322-.5l2.373 1.068a1.003 1.003 0 0 1 .5 1.321l-.733 1.633a44.14 44.14 0 0 1 3.514.098c.142 0 .283.03.412.09a.337.337 0 0 1 .186.35c-.034.148-.192.229-.332.29l-.777.335c-.132.057-.272.12-.259.334a.564.564 0 0 0 .197.389c.418.382.783.817 1.086 1.296a.344.344 0 0 1-.363.518 47.28 47.28 0 0 0-3.275-.54 48.1 48.1 0 0 0 1.751 2.151.347.347 0 0 1-.277.576 6.413 6.413 0 0 1-1.653-.314.56.56 0 0 0-.435.02c-.192.102-.177.26-.161.397.029.28.057.557.088.837a.517.517 0 0 1-.088.433.336.336 0 0 1-.404.015Z"/><path fill="#EDB607" d="M61.183 43.485a3.229 3.229 0 1 0 2.65-5.888 3.229 3.229 0 0 0-2.65 5.888Z"/><path fill="#F8C100" d="M61.393 43.019a2.721 2.721 0 1 0 2.235-4.963 2.721 2.721 0 0 0-2.235 4.963Z" opacity=".66"/><path fill="#E9C896" d="m60.81 22.012-1.163 1.031a2.057 2.057 0 0 0-.175 2.904l17.5 19.747c.754.85 2.054.928 2.904.175l1.164-1.032c.85-.753.929-2.054.175-2.904l-17.5-19.746a2.057 2.057 0 0 0-2.905-.175Z"/><path fill="#D5AB6E" d="m61.6 21.306-2.715 2.407a1.036 1.036 0 0 0-.086 1.44 1.037 1.037 0 0 0 1.441.086l2.708-2.402a1.036 1.036 0 0 0 .088-1.44 1.036 1.036 0 0 0-1.436-.091Z"/><path fill="#DC3545" d="M70.84 38.666a.701.701 0 0 1-.16-.28 34.391 34.391 0 0 1-.871-2.54l-.845.75a1.003 1.003 0 0 1-1.412-.086l-1.005-1.132a1.003 1.003 0 0 1 .085-1.412l4.187-3.71a1.005 1.005 0 0 1 1.412.082l1.003 1.135a1.003 1.003 0 0 1-.083 1.412l-.191.169c.562.132 1.119.274 1.674.435a.747.747 0 0 1 .295.132.26.26 0 0 1 .083.293.397.397 0 0 1-.296.163l-.63.125c-.108.02-.222.046-.258.207a.42.42 0 0 0 .082.324c.251.35.454.731.604 1.135a.26.26 0 0 1-.355.331 27.548 27.548 0 0 0-1.966-.777c.184.428.743 1.555 1.137 2.265a.258.258 0 0 1-.144.385.26.26 0 0 1-.156-.002 4.928 4.928 0 0 1-1.185-.5.435.435 0 0 0-.329-.054c-.158.046-.17.16-.184.259l-.067.64a.391.391 0 0 1-.135.308.258.258 0 0 1-.29-.057Z"/><path fill="#EDB607" d="M71.68 31.727a2.465 2.465 0 1 1-3.69 3.268 2.465 2.465 0 0 1 3.69-3.268Z"/><path fill="#F8C100" d="M71.39 31.984a2.072 2.072 0 1 1-3.107 2.742 2.072 2.072 0 0 1 3.106-2.742Z" opacity=".66"/></g><path fill="#2B478B" d="M129.15 17.951a14.684 14.684 0 0 0-6.445-11.77 14.69 14.69 0 0 0-22.4 8.26 14.686 14.686 0 0 0 2.738 13.136L91.299 39.974a1.94 1.94 0 0 0 .077 2.74c.252.236.564.4.902.472a1.938 1.938 0 0 0 1.848-.557l11.74-12.393a14.685 14.685 0 0 0 15.466 1.084 14.684 14.684 0 0 0 7.822-13.387l-.004.018Zm-6.844 7.826a10.801 10.801 0 0 1-17.928-11.295 10.805 10.805 0 0 1 11.909-6.784 10.8 10.8 0 0 1 8.977 10.356 10.81 10.81 0 0 1-2.956 7.723h-.002Z"/><path fill="#FC8D36" d="m79.071 51.13-2.806 1.253a2.48 2.48 0 0 0-1.252 3.276l1.254 2.805a2.48 2.48 0 0 0 3.276 1.253l2.805-1.254a2.48 2.48 0 0 0 1.252-3.276l-1.253-2.806a2.48 2.48 0 0 0-3.276-1.252Z"/><path fill="#F2CC61" d="m81.334 50.117-7.333 3.278.951 2.129 7.334-3.278-.952-2.129Z"/><path fill="#F2AE78" d="M34 77.91h31.803V67.879H44.038A10.03 10.03 0 0 0 34 77.911Zm109.039 0h-31.803V67.879h21.765a10.028 10.028 0 0 1 10.038 10.033Z"/><path fill="#FFE7D3" d="M131.493 52.821H99.689v25.09h31.804v-25.09Z"/><path fill="#FFC292" d="M131.542 70.995H99.638v2.726h31.904v-2.726Z"/><path fill="#F2AE78" d="M131.444 52.821H99.638v-5.654h26.152a5.656 5.656 0 0 1 5.654 5.654Zm-25.216 5.793h-4.452v8.904h4.452v-8.904Zm11.613 0h-4.452v8.904h4.452v-8.904Zm10.396 0h-4.452v8.904h4.452v-8.904Z"/><path fill="#FFE7D3" d="M77.261 52.821H44.965v25.09h32.296v-25.09Z"/><path fill="#FFC292" d="M76.82 70.995H44.918v2.726H76.82v-2.726Z"/><path fill="#F2AE78" d="M45.017 52.821H76.82v-5.654H50.671a5.654 5.654 0 0 0-5.654 5.654Zm28.802 5.793h-4.452v8.904h4.452v-8.904Zm-10.141 0h-4.451v8.904h4.451v-8.904Zm-11.871 0h-4.452v8.904h4.452v-8.904Z"/><path fill="#FFE7D3" d="M99.695 22.935H76.877v54.927h22.818V22.935Z"/><path fill="#FFC292" d="M100.811 41.11h-25.05c-.248 0-.449.2-.449.448v1.93c0 .248.2.448.448.448h25.051c.248 0 .449-.2.449-.448v-1.93a.449.449 0 0 0-.449-.449Z"/><path fill="#FC8D36" d="M101.84 22.935H74.68a.682.682 0 0 1-.259-1.308l13.461-5.7a.674.674 0 0 1 .518 0l13.702 5.7a.681.681 0 0 1-.262 1.308ZM88.592 58.218a7.825 7.825 0 0 0-7.825 7.826v11.66H95.81V65.44a7.218 7.218 0 0 0-7.219-7.221Z"/><path fill="#F8C100" d="M94.086 34.79a5.957 5.957 0 1 0-11.601-2.711 5.957 5.957 0 0 0 11.601 2.71Z"/><path fill="#FC8D36" d="M87.942 35.282v-4.978a.389.389 0 1 1 .777 0v3.11l1.096-1.107a.391.391 0 0 1 .664.275.387.387 0 0 1-.115.275l-2.422 2.425Z"/></svg>