<svg xmlns="http://www.w3.org/2000/svg" width="133" height="78" fill="none"><path fill="#fff" d="m1.049 78 44.569-.208 11.88-.003h3.936l11.902-.003 54.379-.013s12.438-14.332-.848-27.943c-13.775-14.113-20.473-2.62-24.707-22.486-10.659-50.004-116.035-20.9-88.396 21.65C23.716 64.316-5.826 56.172 1.049 78Z"/><path fill="#FC8D36" d="M66.726 18.032c-.262 10.545-1.11 44.075-.705 56.966a2.587 2.587 0 0 0 2.504 2.506c6.757.22 26.198.781 37.251.317a4.358 4.358 0 0 0 4.181-4.262c.23-11.068.736-39.356-.468-53.616a3.558 3.558 0 0 0-3.194-3.24c-7.36-.736-26.906-2.534-36.455-1.916a3.336 3.336 0 0 0-3.114 3.245Z"/><path fill="#FFE7D3" d="M69.433 21.479c-.37 8.838-1.536 35.415-1.166 46.287.054 1.59 1.281 2.874 2.837 2.968 6.403.382 22.826 1.225 32.218.458 1.691-.139 3.018-1.534 3.11-3.264.476-9.017 1.842-33.57 1.488-44.32-.057-1.714-1.359-3.115-3.033-3.268-6.927-.635-24.718-2.146-32.7-1.701-1.498.083-2.69 1.31-2.754 2.84Z"/><path fill="#F5F8F9" d="M83.522 16.568a.588.588 0 0 0 .563.59c1.564.081 5.968.311 7.937.425a.6.6 0 0 0 .61-.437.586.586 0 0 0 .009-.267l-.013-.064a.59.59 0 0 0-.53-.477c-1.33-.121-5.346-.456-8.005-.362a.597.597 0 0 0-.406.182.587.587 0 0 0-.165.41Z"/><path fill="#fff" d="M91.874 72.803H81.69c-.43 0-.778.36-.778.806v1.636c0 .445.348.806.778.806h10.183c.43 0 .778-.36.778-.806V73.61a.792.792 0 0 0-.778-.806Z"/><path fill="#FC8D36" d="m73.36 45.843-.923-22.476a.827.827 0 0 1 .77-.884c1.618-.107 5.77-.005 13.786 2.354l.768 20.666-14.4.34Z"/><path fill="#F2AE78" d="m74.734 45.843-.994-23.677a.642.642 0 0 1 .643-.685c2.247.003 9.409.264 12.611 3.385l.767 20.593-13.027.384Z"/><path fill="#FFE7D3" d="M75.501 45.518a.57.57 0 0 1-.55-.535l-.884-22.511a.621.621 0 0 1 .614-.666c2.106 0 8.728.243 11.869 3.111a.58.58 0 0 1 .19.407l.694 19.156a.575.575 0 0 1-.59.594l-11.343.444Z" opacity=".7"/><path fill="#FC8D36" d="M87.435 24.71s6.154-4.216 13.898-1.867a1.104 1.104 0 0 1 .776 1.06l-.152 21.94-14.221-.486-.301-20.647Z"/><path fill="#F2AE78" d="m100.982 22.513.148 23.33-13.262-.457-.76-20.722s6.494-4.192 12.777-3.41a1.264 1.264 0 0 1 1.097 1.26Z"/><path fill="#FFE7D3" d="m100.663 23.115.141 21.756a.653.653 0 0 1-.412.604.648.648 0 0 1-.255.043l-11.655-.397a.68.68 0 0 1-.655-.654l-.719-19.289s6.347-4.03 12.483-3.278a1.223 1.223 0 0 1 1.072 1.215Z" opacity=".7"/><path fill="#FFCDA6" d="m73.237 55.588 28.487.973a1.947 1.947 0 0 0 2.015-1.949V52.34a1.947 1.947 0 0 0-1.948-1.95h-27.9c-.654 0-1.234.297-1.445.738-.397.825-.892 2.23-.548 3.608.12.47.67.822 1.34.852Z"/><path fill="#FC8D36" d="M102.435 47.218a1.673 1.673 0 0 0-.507-1.203 1.735 1.735 0 0 0-1.224-.497H74.646c-.536 0-1.013.243-1.17.6a4.567 4.567 0 0 0 .017 3.727c.144.324.572.545 1.058.545h26.153a1.752 1.752 0 0 0 1.224-.498 1.674 1.674 0 0 0 .507-1.202v-1.472Z"/><path fill="#F2AE78" d="m74.735 50.065 3.187-.12c.397-.015.708-.247.708-.528v-2.65c0-.284-.32-.518-.725-.527l-3.145-.072c-.362-.009-.679.166-.755.415-.196.643-.466 1.91-.038 3.081.09.245.41.414.768.4Zm5.419-.325c.427-.02.759-.248.759-.525v-2.522c0-.294-.375-.531-.832-.525-.443.005-.799.24-.799.525v2.523c0 .304.4.544.872.523Z"/><path fill="#FFCDA6" d="m74.65 69.696 26.04.183a1.74 1.74 0 0 0 1.612-1.061c.088-.21.133-.436.133-.663v-5.322a1.73 1.73 0 0 0-.523-1.233 1.728 1.728 0 0 0-1.252-.49l-25.44.616c-.603.02-1.128.294-1.332.697-.554 1.096-1.366 3.485-.225 6.719.113.323.518.55.987.554Z"/><path fill="#FC8D36" d="m75.133 61.758 25.602-.566c.454-.01.887-.194 1.204-.513a1.69 1.69 0 0 0 .496-1.194v-1.823c0-.448-.18-.878-.5-1.197a1.753 1.753 0 0 0-1.212-.51l-25.822-.367c-.583-.011-1.11.249-1.278.638-.725 1.683-.794 3.355.287 5.005.216.332.698.542 1.223.527Z"/><path fill="#FFE7D3" d="m76.018 61.433 1.079-.062c.327-.018.573-.226.554-.466l-.334-4.21c-.017-.222-.255-.399-.556-.416l-.745-.04c-.349-.02-.647.183-.647.44v4.313c.001.258.3.46.65.44Z"/><path fill="#333" d="m98.734 4.525-.607-.3-1.943 3.89.607.302 1.943-3.892Z"/><path fill="#FF7900" d="M92.813 14.068s-1.075-2.62 1.913-4.554l1.766.875s.05 3.44-2.464 4.352a1.248 1.248 0 0 0 .418-.907s-.52.896-1.328 1.14c0 0-.074-1.152.46-1.787 0 0-.563.405-.765.88Z"/><path fill="#333" d="M97.548 8.274 95.782 7.4a.438.438 0 0 0-.578.195l-.864 1.73a.432.432 0 0 0 .19.58l1.766.876a.397.397 0 0 0 .314.026l.015-.003.016-.006a.401.401 0 0 0 .233-.21l.867-1.736a.433.433 0 0 0-.193-.577Z"/><path fill="#202020" d="m116.334 14.96-15.276-7.57a.437.437 0 0 0-.579.192l-3.628 7.265a.433.433 0 0 0 .195.576l15.276 7.57a.4.4 0 0 0 .314.027l.015-.004a.404.404 0 0 0 .25-.215l3.628-7.264a.434.434 0 0 0-.195-.576Z"/><path fill="#141414" d="M116.529 15.537a.434.434 0 0 0-.195-.576l-15.276-7.57a.437.437 0 0 0-.579.191l-.77 1.543 4.475 4.09 4.028 3.678c.311.285.661.297.978.363l2.363.507 3.498.733 1.478-2.96Z"/><path fill="#231F20" d="m124.314 18.855-10.996-8.96-2.53-2.06-.098-.083-.02-.01-.269-.236-.009-.004-.106-.09a1.575 1.575 0 0 0-.464-.289l-4.576-1.394-10.735-3.268c-.15-.045-.243-.016-.288.05-.094.073-.094.223.08.402a.65.65 0 0 0 .168.156l10.161 9.284 4.027 3.678c.312.285.662.297.978.363l2.36.48 12.333 2.575c.356.076.278-.355-.016-.594Z"/><path fill="#48639E" d="M84.566 41.201a13.333 13.333 0 0 0-.672-6.253 13.378 13.378 0 0 0-3.465-5.256 13.45 13.45 0 0 0-5.494-3.1 13.486 13.486 0 0 0-12.038 2.382 13.39 13.39 0 0 0-3.886 4.956 13.337 13.337 0 0 0 .593 12.211l-12.383 9.481a1.767 1.767 0 0 0-.323 2.476c.194.249.452.44.747.554a1.78 1.78 0 0 0 1.749-.238l12.38-9.477a13.45 13.45 0 0 0 6.452 3.553c2.442.562 4.992.433 7.364-.373a13.435 13.435 0 0 0 6.057-4.19 13.356 13.356 0 0 0 2.925-6.74l-.006.014Zm-7.303 6.067a9.906 9.906 0 0 1-12.529-.402 9.831 9.831 0 0 1-3.237-5.794 9.809 9.809 0 0 1 1.187-6.525 9.87 9.87 0 0 1 5.074-4.293 9.915 9.915 0 0 1 6.656-.113 9.874 9.874 0 0 1 5.217 4.119 9.81 9.81 0 0 1 1.41 6.48 9.84 9.84 0 0 1-3.776 6.529l-.002-.001Z"/><ellipse cx="9.529" cy="9.907" fill="#fff" fill-opacity=".4" rx="9.529" ry="9.907" transform="rotate(8.969 -146.351 417.949) skewX(-.069)"/></svg>