<svg xmlns="http://www.w3.org/2000/svg" width="174" height="83" fill="none"><path fill="#fff" d="m1.104 83 46.915-.216 12.505-.003h4.143l12.529-.004 57.241-.013s13.092-14.89-.893-29.032c-14.5-14.662-21.551-2.723-26.008-23.362C96.316-21.582-14.605 8.655 14.489 52.864 24.964 68.783-6.132 60.322 1.104 83Z"/><path fill="#FF7900" d="M160.834 33.354v17.174l-3.885 6.274-12.168 19.63-7.825-2.641-1.206-.407-49.786-16.792-4.843-1.634-35.735-12.056 4.32-2.866 4.035-2.676 37.91-25.14 38.528 11.771 1.149.35 29.506 9.013Z" opacity=".5"/><path fill="#FF7900" d="m130.179 23.991 30.655 15.433V53.76l-3.884 3.042-15.431 12.068-5.769 4.514-4.794 3.752-6.913 5.406-42.922-27.584-3.103-1.997-24.276-15.6-6.25-4.016-3.725-2.395 30.655-13.144L94.915 9.02l2.987-1.282 30.678 15.448 1.599.805Z" opacity=".2"/><path fill="#FFF4EB" d="m131.328 24.34 29.506 12.417v11.282l-19.315 20.83-4.563 4.922-3.963 4.275-2.038-.93-44.991-20.544-7.946-3.631-28.312-12.925L42 36.515l5.493-3.17 26.929-15.54L91.866 7.739l3.048 1.282 33.666 14.166 2.748 1.154Z"/><path fill="#1B3D85" d="m135.294 35.423-6.991 7.782-1.504-.56 6.991-7.782 1.504.56Zm1.697 2.997-5.401 6.011-1.501-.56 5.398-6.009 1.504.557Z"/><path stroke="#DEDEDE" stroke-linecap="round" stroke-linejoin="round" d="M97.347 26.288 87.01 34.615l-11.615-5.64 21.953-2.687Z"/><path stroke="#DEDEDE" stroke-linecap="round" stroke-linejoin="round" d="M89.058 32.964c-1.273-.617-3.22-.378-4.352.534l2.309 1.117 2.043-1.65Zm-10.592-4.375c.049.502-.205 1.039-.77 1.492l-2.31-1.117 3.08-.375Zm18.881-2.309-2.049 1.65c-.635-.308-.978-.77-1.022-1.275l3.071-.375Z"/><path fill="#DEDEDE" d="M94.853 27.928c-.277.222-.59.394-.936.517a3.078 3.078 0 0 1-1.067.172 2.446 2.446 0 0 1-1.04-.25c-.288-.142-.472-.296-.553-.462a.66.66 0 0 1-.03-.526 1.84 1.84 0 0 1 .318-.55c.149-.187.31-.37.483-.547.226-.232.413-.42.558-.561.146-.145.231-.26.257-.345.028-.087-.02-.16-.145-.222l-.027-.013a1.779 1.779 0 0 0-.985-.184c-.332.034-.652.175-.962.423-.321.257-.492.498-.513.723-.02.225.024.412.133.562l-.9.382c-.193-.24-.28-.479-.26-.714.02-.238.108-.464.267-.679a3.08 3.08 0 0 1 .568-.59 4.37 4.37 0 0 1 .543-.358 3.18 3.18 0 0 1 .767-.313c.29-.08.612-.108.965-.083.352.025.729.136 1.129.332l3.32 1.623-.673.538-.682-.334-.035.028a.77.77 0 0 1 .123.354c.018.146-.017.311-.106.495-.09.184-.262.378-.517.582Zm-.592-.422c.266-.213.43-.422.492-.626a.674.674 0 0 0-.05-.561 1.016 1.016 0 0 0-.457-.408l-.709-.346c.011.042-.016.11-.08.203a3.349 3.349 0 0 1-.248.305 17.868 17.868 0 0 1-.546.564 2.68 2.68 0 0 0-.363.454c-.093.148-.129.288-.106.42.023.128.132.24.33.337.268.131.558.161.869.09.31-.073.6-.217.868-.432Zm-7.792 9.321-6.718-3.285.672-.538 2.48 1.212.057-.046a3.888 3.888 0 0 1-.129-.327.762.762 0 0 1 .015-.486c.058-.187.23-.395.514-.623.37-.295.8-.503 1.294-.624a4.362 4.362 0 0 1 1.56-.086 4.979 4.979 0 0 1 1.615.484c.534.261.917.55 1.151.868.232.316.315.639.25.967-.068.327-.284.637-.649.929a2.51 2.51 0 0 1-.836.462 2.986 2.986 0 0 1-.762.131c-.23.005-.417.005-.558 0l-.08.063.774.379-.65.52Zm-1.858-1.761c.38.186.765.311 1.153.376.385.063.753.06 1.104-.008.348-.07.657-.213.927-.429.28-.225.43-.455.448-.689.017-.236-.072-.463-.268-.682-.196-.22-.473-.419-.832-.594a3.975 3.975 0 0 0-1.1-.354 3.002 3.002 0 0 0-1.104.008 2.172 2.172 0 0 0-.963.444c-.274.22-.424.442-.45.67-.03.225.05.446.24.66.187.215.469.414.845.598Zm18.299-1.216a3.57 3.57 0 0 1-1.395.685 4.472 4.472 0 0 1-1.606.097 4.838 4.838 0 0 1-1.582-.464c-.511-.25-.881-.536-1.11-.859-.227-.324-.305-.659-.23-1.002.073-.347.307-.678.702-.994a3.499 3.499 0 0 1 1.03-.57 3.77 3.77 0 0 1 1.158-.216c.394-.011.768.045 1.121.169l-.673.538a2.385 2.385 0 0 0-.953-.025c-.354.053-.68.198-.976.435-.262.21-.413.432-.454.667-.04.233.027.463.2.69.175.224.452.43.832.616.39.19.782.313 1.177.37a3.19 3.19 0 0 0 1.129-.037c.357-.08.669-.227.935-.44.175-.14.298-.283.371-.432a.641.641 0 0 0 .06-.437.754.754 0 0 0-.261-.4l.673-.538c.259.176.433.382.521.619.088.234.08.483-.026.748-.105.262-.32.522-.643.78Z"/><path stroke="#DEDEDE" stroke-linecap="round" stroke-linejoin="round" d="m104.731 37.115 9.813 6.595m-2.176.289 9.291-13.702m-13.866 10.169c-.335-2.197-.412-4.139.318-5.218 1.336-1.969 3.966-.203 5.718-2.789 1.593-2.35-.578-4.485-1.169-5.32m-7.548 11.234-.191-.629-.19-.63.658-.06.655-.057m14.347-6.359.635-.17.635-.17.075.649.081.65m-14.226 5.287 6.598 4.433m-5.395-6.731 6.841 4.598m-3.423-5.406 4.869 3.273m-2.964-5.097 4.41 2.964m-4.805-6.332 6.251 4.2m-3.651 22.212-3.932-3.414-6.367.543-2.439 3.96 3.931 3.414 6.368-.543 2.439-3.96Z"/><path stroke="#DEDEDE" stroke-linecap="round" stroke-linejoin="round" d="m103.584 56.087 6.368-.543 2.438-3.96m-4.874 7.917.228-.37"/><path stroke="#DEDEDE" stroke-dasharray="2.62 2.62" stroke-linecap="round" stroke-linejoin="round" d="m108.139 58.488 1.388-2.254"/><path stroke="#DEDEDE" stroke-linecap="round" stroke-linejoin="round" d="m109.727 55.91.225-.366.433-.038"/><path stroke="#DEDEDE" stroke-dasharray="2.73 2.73" stroke-linecap="round" stroke-linejoin="round" d="m111.17 55.44 4.326-.37"/><path stroke="#DEDEDE" stroke-linecap="round" stroke-linejoin="round" d="m115.889 55.036.433-.038"/><path stroke="#DEDEDE" stroke-dasharray="3 3" stroke-linecap="round" stroke-linejoin="round" d="m106.024 52.127 3.928 3.417"/><path stroke="#DEDEDE" stroke-linecap="round" stroke-linejoin="round" d="m109.952 55.544 3.931 3.414"/><path fill="#DEDEDE" d="m122.483 44.25-.31-.18-.602-1.909a9.288 9.288 0 0 0-.194-.564 1.668 1.668 0 0 0-.2-.38.864.864 0 0 0-.273-.245.661.661 0 0 0-.725.022.905.905 0 0 0-.275.303.835.835 0 0 0-.121.404.672.672 0 0 0 .098.368c.069.113.17.208.305.286l-.236.407a1.188 1.188 0 0 1-.463-.46 1.152 1.152 0 0 1-.14-.602 1.37 1.37 0 0 1 .192-.633c.121-.208.271-.366.451-.475.18-.11.371-.166.572-.171.201-.005.393.045.575.15.13.076.243.173.34.293.097.117.188.277.273.48.084.202.177.467.277.795l.389 1.287.028.016.953-1.644.379.22-1.293 2.231Zm6.626 1.063-3.077.819-.11-.415 3.077-.819.11.415Zm-.977 1.685-.414.11-.819-3.076.415-.11.818 3.076Zm6.463 4.273-.31-.18-.601-1.908a9.235 9.235 0 0 0-.195-.565 1.664 1.664 0 0 0-.2-.379.873.873 0 0 0-.272-.246.667.667 0 0 0-.726.023.915.915 0 0 0-.275.302.835.835 0 0 0-.121.404.673.673 0 0 0 .098.369c.069.112.17.207.305.285l-.236.407a1.188 1.188 0 0 1-.463-.46 1.162 1.162 0 0 1-.14-.602 1.36 1.36 0 0 1 .193-.633c.12-.207.27-.366.45-.475.18-.11.371-.166.572-.171.201-.005.393.045.575.15.13.076.243.173.34.293.097.117.188.277.273.48.085.202.177.467.277.796l.389 1.286.028.016.953-1.643.38.22-1.294 2.23Zm-5.411 2.674c-.28.32-.593.566-.937.74a2.472 2.472 0 0 1-1.039.275 1.92 1.92 0 0 1-.985-.239l.535-.609c.193.098.397.139.614.123.215-.017.427-.082.636-.195a2.05 2.05 0 0 0 .563-.454c.187-.213.311-.428.371-.644a.963.963 0 0 0-.011-.602.904.904 0 0 0-.399-.46 1.32 1.32 0 0 0-.665-.198 1.52 1.52 0 0 0-.722.168c-.243.12-.475.305-.696.556l-.348.397-.604-.37.348-.396c.173-.197.284-.394.334-.592a.857.857 0 0 0-.032-.559.949.949 0 0 0-.404-.444 1.271 1.271 0 0 0-.595-.193 1.29 1.29 0 0 0-.605.113c-.197.086-.375.22-.535.402-.15.171-.256.354-.318.55a.94.94 0 0 0-.018.553.802.802 0 0 0 .342.448l-.51.58c-.286-.19-.475-.426-.568-.708a1.528 1.528 0 0 1-.016-.895 2.25 2.25 0 0 1 .504-.9 2.37 2.37 0 0 1 .904-.66c.331-.134.663-.19.995-.167.333.022.632.114.897.277.317.194.522.432.617.715.096.282.077.574-.057.877l.044.027a1.887 1.887 0 0 1 1.097-.456c.396-.028.772.067 1.129.286.306.187.516.428.631.724.114.293.13.608.048.944-.081.337-.263.665-.545.986Z"/><path fill="#DEDEDE" d="M132.067 55.902c-.249.284-.538.5-.866.65a2.414 2.414 0 0 1-1.007.224 1.97 1.97 0 0 1-.961-.243l.51-.58a1.3 1.3 0 0 0 .899.082c.325-.082.599-.249.821-.502.178-.203.283-.417.314-.641a1.039 1.039 0 0 0-.116-.647 1.384 1.384 0 0 0-.524-.533 1.752 1.752 0 0 0-.782-.258 1.781 1.781 0 0 0-.798.106c-.256.096-.478.25-.665.46a1.95 1.95 0 0 0-.331.515 1.416 1.416 0 0 0-.14.52l-.57.514-2.504-1.993 2.26-2.573.604.37-1.818 2.07 1.505 1.188.026-.029a1.4 1.4 0 0 1 .108-.521 1.79 1.79 0 0 1 .33-.535 2.31 2.31 0 0 1 .958-.659 2.577 2.577 0 0 1 1.163-.15c.404.036.789.165 1.153.388.359.22.617.487.774.801.157.312.208.64.155.987-.056.345-.222.675-.498.99Z"/><path stroke="#DEDEDE" stroke-linecap="round" stroke-linejoin="round" d="m121.996 53.564 1.764-2.012m-34.252-7.533 9.419 6.327m-6.018 5.426 9.519-12.726m-12.694 2.306-.113-.666-.112-.667.7-.118.702-.122m10.131-.254.693-.24.693-.239-.009.699-.009.698m-6.852-4.02c3.19 2.141 4.067 6.165 1.957 8.985-2.11 2.82-6.405 3.368-9.597 1.223"/><path fill="#C77E3C" d="m122.464 24.698-3.925 2.71s1.939 4.789-1.564 5.79l-2.474-6.191 4.116-5.345 3.847 3.036Z"/><path fill="#C77E3C" d="m114.232 21.044-3.633 6.246 1.593 6.43s3.325-.023 2.548-5.085l3.877-6.973-4.385-.618Z"/><path fill="#C77E3C" d="m120.132 11.744-13.926 5.984.539 14.027s3.092.817 4.041-1.691c.892-2.379.543-3.917 0-7.473l5.888-2.684 4.116.64 7.175-3.925-7.833-4.878Z"/><path fill="#FFAD63" d="m120.135 4.774-16.409 7.389-3.48 13.213a3.932 3.932 0 0 0 4.502-.017c2.448-1.668 3.063-4.742 3.175-7.94l7.6-3.978 7.452 2.16 5.591-5.744-8.431-5.083Z"/><path fill="#FFF2F4" d="m100.246 25.376 3.478-13.213 16.411-7.39v.97l-15.805 6.988-4.084 12.645Z"/><path fill="#365784" d="M123.992 1.2 96.294 33.71l3.224 2.746 27.697-32.51-3.223-2.745Z"/><path fill="#323C4F" d="m124.802 1.896 1.61 1.374 1.308-1.524a1.06 1.06 0 0 0-1.611-1.374l-1.307 1.524Z"/><path fill="#4FB8DD" d="M121.033 3.668a6.353 6.353 0 0 0-5.831 2.15l-6.976 8.2a1.522 1.522 0 0 0 2.145-.17l5.922-6.953a2.174 2.174 0 0 1 2.503-.577l2.237-2.65Z"/><path fill="#2B1C36" d="M99.524 36.468 96.3 33.721l-1.062 2.95a1.077 1.077 0 0 0 1.532 1.304l2.754-1.507Z"/><path fill="#3EAE8D" d="m98.588 31.033 3.224 2.748 7.646-8.907-3.221-2.745-7.649 8.904Z"/><path fill="#FFBD81" d="m160.467 37.14-16.821-5.195s-11.929 1.519-20.573-5.709h-6.062s-5.853 3.848-8.081 4.278c-2.228.43-5.4.459-6.188-2.503l14.142-9.784 7.467-10.904 18.51 11.164 17.56 3.587.046 15.067Z"/><path fill="#FFF2F4" d="m124.363 7.325 18.507 11.159 17.563 3.585v1.353l-18.031-4.19-18.478-11.399.439-.508Z"/><path fill="#4FB8DD" d="m117.133 9.276 3.242 2.763a.652.652 0 0 0 .918-.073l4.655-5.484a.65.65 0 0 0-.075-.917l-3.241-2.763a.651.651 0 0 0-.915.076l-4.656 5.483a.65.65 0 0 0 .072.915Z"/><path fill="#48639E" d="m151.918 37.499 21.471 5.3V21.931l-16.937-2.812-4.534 18.38Z"/></svg>