<svg xmlns="http://www.w3.org/2000/svg" width="149" height="83" fill="none"><path fill="#fff" d="m.915 83 38.872-.21 10.361-.004h3.433l10.381-.003 47.429-.013s10.848-14.518-.74-28.306c-12.015-14.296-17.856-2.655-21.55-22.778-9.296-50.654-101.203-21.172-77.096 21.932C20.685 69.138-5.081 60.888.915 83Z"/><path fill="#FFB900" d="M132.573 31.524c-2.417-.678-4.071-1.853-5.933-3.574l.788-1.358c1.956 2.097 2.592 3.23 5.042 3.066l.103 1.866Z"/><path fill="#4FB8DD" d="M100.081 36.637c-2.546.512-4.665.217-7.26-.474v-1.596c2.88.986 4.058 1.714 6.184.43l1.076 1.64Z"/><path fill="#FF5C33" d="M76.632 30.144c-1.204 1.384-2.555 2.125-4.375 2.844l-.78-.909c2.123-.672 3.152-.763 3.738-2.408l1.417.473Z"/><path fill="#4FB8DD" d="M39.965 30.778c-2.181-1.284-3.325-2.857-4.416-5.019l1.485-1.125c1.007 2.55 1.118 3.824 3.739 4.293l-.808 1.85Z"/><path fill="#007BFF" d="M29.415 42.048c-2.472 1.399-4.8 1.803-7.791 1.955l-.619-1.675c3.396.062 4.913.427 6.647-1.638l1.763 1.358Z"/><path fill="#FFB900" d="M46.42 6.417c-2.48 1.18-4.751 1.418-7.632 1.368l-.47-1.647c3.259.282 4.69.733 6.51-1.138l1.592 1.417Z"/><path fill="#4FB8DD" d="M81.566 10.49c-2.066-.825-3.404-2.02-4.868-3.717l.842-1.127c1.508 2.036 1.953 3.1 4.129 3.185l-.103 1.659Z"/><path fill="#FF5C33" d="M123.654 13.01c2.262-1.079 3.517-2.486 4.769-4.447l-1.384-1.136c-1.197 2.33-1.405 3.515-4.039 3.807l.654 1.776Zm-8.951 45.381c-.909 2.288-2.309 3.807-4.321 5.483l-1.44-.854c2.431-1.745 3.719-2.286 3.706-4.656l2.055.027Zm-51.64-37.078c.53 0 .96-.347.96-.776 0-.43-.43-.777-.96-.777s-.96.348-.96.777c0 .429.43.776.96.776Z"/><path fill="#FFB900" d="M97.351 21.313c.53 0 .96-.347.96-.776 0-.43-.43-.777-.96-.777s-.96.348-.96.777c0 .429.43.776.96.776Z"/><path fill="#FF5C33" d="M122.443 44.982c.53 0 .96-.348.96-.777 0-.43-.43-.777-.96-.777-.531 0-.961.348-.961.777 0 .429.43.777.961.777Z"/><path fill="#4FB8DD" d="M22.588 52.853c.53 0 .96-.347.96-.776 0-.43-.43-.777-.96-.777s-.96.348-.96.777c0 .429.43.776.96.776Z"/><path fill="#FFB900" d="M1.92 27.944 0 29.497l1.92 1.554 1.92-1.554-1.92-1.553Z"/><path fill="#FC8D36" d="M62.69 44.071a3 3 0 0 1 3-3h19.526a3 3 0 0 1 3 3v38.834H62.69V44.07Z"/><path fill="#F2AE78" d="M88.215 66.76a3 3 0 0 1 3-3h13.144a3 3 0 0 1 3 3v16.145H88.215V66.76ZM40 60.38a3 3 0 0 1 3-3h16.69a3 3 0 0 1 3 3v22.525H40V60.379Z"/><path fill="#FBC343" d="m74.347 12.346 3.328 6.9a.613.613 0 0 0 .454.337l7.443 1.108a.597.597 0 0 1 .302.139.618.618 0 0 1 .196.62.622.622 0 0 1-.164.294l-5.385 5.371a.617.617 0 0 0-.174.547l1.271 7.583a.631.631 0 0 1-.24.605.595.595 0 0 1-.636.047l-6.656-3.582a.596.596 0 0 0-.562 0l-6.658 3.582a.592.592 0 0 1-.635-.048.63.63 0 0 1-.24-.604l1.272-7.585a.634.634 0 0 0-.174-.546l-5.386-5.372a.62.62 0 0 1-.153-.632.618.618 0 0 1 .186-.282.597.597 0 0 1 .302-.139l7.442-1.107a.597.597 0 0 0 .455-.338l3.328-6.9a.613.613 0 0 1 .223-.251.594.594 0 0 1 .86.253Z"/><circle cx="52.833" cy="48.251" r="4.794" fill="#FF7900"/><circle cx="97.472" cy="56.291" r="4.794" fill="#3EAE8D"/><path fill="#163560" d="M123.565 13.39s1.334 2.195-1.173 3.577c0 0 1.926.694 2.599.432a1.46 1.46 0 0 1-.292.236s1.811.575 2.712.261c.901-.314 2.846-9.078-2.497-9.54 0 0-4.215-1.51-5.106 3.194-.892 4.703-2.514 4.247-2.514 4.247s.394.332.611.393c0 0 .35-.023.459-.167 0 0-.135.236-.236.296 0 0 1.709.646 2.756.282 1.047-.364 2.664-2.195 2.681-3.212Z"/><path fill="#233862" d="M118.205 82.584h6.817s.163-1.038-.193-1.827c-.341-.756-.872-1.223-.921-1.802-.433.446-.965.732-1.951.6-.121.196-.78 1.243-1.182 1.533-.45.32-2.437.207-2.57 1.496Z"/><path fill="#2B478B" d="M123.834 79.981c-.387.12-.786.2-1.189.242-1.073.096-1.23-.224-1.23-.224s-1.067-9.499-4.521-27.655c-.498-2.622-.695-4.073-.875-6.404-.054-.698-.106-1.474-.164-2.384-.157-2.448.215-6.566 2.048-7.648.834-.493 1.968-.358 3.501.847.12.094.244.196.369.305 4.476 3.872 2.641 14.99 2.822 20.217.03.867.116 1.571.294 2.054.231.625.727 1.49.84 2.306.943 6.78-1.895 18.344-1.895 18.344Z"/><path fill="#233862" d="m124.599 57.277-8.584-11.34a198.2 198.2 0 0 1-.164-2.384c-.157-2.448.215-6.566 2.048-7.648l3.501.847c.121.094.244.196.37.305 4.483 3.875 2.648 14.993 2.829 20.22Zm24.251 10.962-2.835-6.199s-1.012.284-1.581.936c-.546.625-.945.513-2.184-.35.468.724.531 1.15.821 2.1.228.029 1.528 1.286 2.859 1.633.529.141 1.689 2.291 2.92 1.88Z"/><path fill="#2B478B" d="M119.104 38.629s6.109 21.235 8.348 22.6c2.239 1.367 14.005 3.248 16.397 4.273 0 0 .291-.417.121-1.31-.038-.198-.376-.912-.376-.912s-7.307-5.492-12.117-6.047c-1.193-.138 2.43-18.365-5.636-19.094-7.368-.664-6.737.49-6.737.49Z"/><path fill="#FFB27D" d="M138.53 6.545c.042.087.1.24.151.385v-.116c0-.29 1.08-1.86 1.523-1.958.444-.099 1.068 1.373.515 2.187-.284.417-.979 1.847-.979 1.847l-1.148-.593s-.066-.517-.229-.647-.134-.934-.18-1.27c.002 0 .193-.153.347.165Zm-30.343-3.838c.081.051.211.152.331.248l-.062-.1c-.152-.245-.06-2.149.266-2.466.325-.317 1.63.606 1.588 1.589-.022.505-.056 2-.056 2l-1.093.186s-.328-.405-.535-.43c-.207-.025-.605-.724-.822-.985.002-.001.084-.232.383-.042Zm12.138 16.307c-.014.005 1.228.903 2.284.777.99-.118 1.797-1.26 1.783-1.265-.393-.14-.424-.708-.062-3.091l-.187.008-3.156.152s-.073.975-.206 1.884c-.115.76-.269 1.477-.456 1.535Z"/><path fill="#ED975D" d="M120.984 15.592s-.073.975-.206 1.884c1.722.206 2.861-1.223 3.362-2.036l-3.156.152Z"/><path fill="#163560" d="M124.505 15.155s1.11-1.287 1.507-2.469c.282-.844.315-4.123-2.98-4.141a4.43 4.43 0 0 0-1.921.417c-.772.37-1.936 1.241-1.221 4.214l.152.99 4.463.99Z"/><path fill="#FFB27D" d="M116.368 37.81s3.095 1.953 8.25.699c.06-.015 2.931-.473 2.931-.473-.072-.197-3.089-5.18-3.159-5.361-.915-2.363 1.204-13.628-.193-14.26-.357.388-1.376.654-2.248.577-1.005-.089-1.339-.523-1.26-.99-1.111.526-1.969 1.015-1.969 1.015-1.01 1.522-2.352 18.793-2.352 18.793Zm3.916-21.443s4.048.67 4.427-1.857c.379-2.527 1.156-4.143-1.413-4.677-2.569-.535-3.216.353-3.548 1.166-.331.813-.509 5.128.534 5.368Z"/><path fill="#163560" d="M121.459 9.496s.67 3.13 2.31 3.822c1.639.692 2.447.346 2.447.346s-1.152-1.234-1.154-3.088c0 0-2.555-2.367-3.603-1.08Z"/><path fill="#163560" d="M121.698 9.778s-.927.538-1.226 1.152c-.298.613-.586 1.925-.965 1.822 0 0-.537-2.14.573-3.14 1.177-1.061 1.618.166 1.618.166Z"/><path fill="#F99746" d="M139.479 8.89s-2.61 7.935-3.307 9.162c-.419.74-5.119 3.668-7.851 5.597a.44.44 0 0 0-.104.126c-.682 1.054-2.799 7.575-2.293 8.742 2.126 4.918 3.587 6.82 4.118 8.2a1.322 1.322 0 0 1-.033 1.02 1.313 1.313 0 0 1-.755.687 22.386 22.386 0 0 1-4.577 1.098c-4.195.532-7.035-.452-8.477-1.181a1.919 1.919 0 0 1-1.051-1.823c.086-1.556.866-3.096 1.216-6.838.265-2.84-2.185-7.162-2.081-8.673.041-.598.511-1.313.766-1.776.45-.82.697-1.562.393-1.973-1.996-2.74-6.307-6.518-6.483-7.462-.258-1.387-.141-9.955-.141-9.955.164-.058.407-.195.724-.223.213-.009.427.014.635.066 0 0 1.142 7.1 1.227 7.475.085.376 4.91 5.808 6.205 5.784 1.171-.02 2.824.885 3.081 1.06a12.438 12.438 0 0 0-1.314 4.382c-.184 1.76.993.978 1.732-.229 1-1.632 3.013-3.957 3.013-3.957s1.638-.426 2.859.017c1.221.442 7.535-3.124 7.737-3.452.203-.329 3.585-6.63 3.585-6.63s.28-.162.73.072a.825.825 0 0 1 .446.684Z"/><path fill="#fff" d="M121.459 14.998s-.173.35-.405.356c-.233.006-.825-.05-.866-.11a3.187 3.187 0 0 1-.138-.426s.979-.042 1.409.18Z"/><path fill="#ED7D2B" d="M129.258 42.43a22.401 22.401 0 0 1-3.683.964c-1.448-1.995-3.898-4.506-3.267-9.124.651-4.774 5.345-9.798 5.906-10.491-.681 1.053-2.799 7.574-2.292 8.74 2.126 4.92 3.587 6.822 4.118 8.202a1.321 1.321 0 0 1-.03 1.02 1.314 1.314 0 0 1-.752.69Zm-14.204-19.192c.451-.821.698-1.562.394-1.974-1.996-2.74-6.307-6.518-6.483-7.461.427 1.023 5.648 4.088 7.116 5.405 1.453 1.302-.969 3.966-1.027 4.03Z"/></svg>