<svg width="384" height="100" viewBox="0 0 384 100" fill="none" xmlns="http://www.w3.org/2000/svg">
<g clip-path="url(#clip0_7131_17312)">
<rect width="384" height="100" rx="4" fill="url(#paint0_linear_7131_17312)"/>
<path d="M31.6094 28.2266H33.9453C33.8984 28.9922 33.6875 29.6719 33.3125 30.2656C32.9427 30.8594 32.4245 31.3229 31.7578 31.6562C31.0964 31.9896 30.2995 32.1562 29.3672 32.1562C28.638 32.1562 27.9844 32.0312 27.4062 31.7812C26.8281 31.526 26.3333 31.1615 25.9219 30.6875C25.5156 30.2135 25.2057 29.6406 24.9922 28.9688C24.7786 28.2969 24.6719 27.5443 24.6719 26.7109V25.9219C24.6719 25.0885 24.7812 24.3359 25 23.6641C25.224 22.987 25.5417 22.4115 25.9531 21.9375C26.3698 21.4635 26.8672 21.099 27.4453 20.8438C28.0234 20.5885 28.6693 20.4609 29.3828 20.4609C30.3307 20.4609 31.1302 20.6328 31.7812 20.9766C32.4375 21.3203 32.9453 21.7943 33.3047 22.3984C33.6693 23.0026 33.888 23.6901 33.9609 24.4609H31.6172C31.5911 24.0026 31.5 23.6146 31.3438 23.2969C31.1875 22.974 30.9505 22.7318 30.6328 22.5703C30.3203 22.4036 29.9036 22.3203 29.3828 22.3203C28.9922 22.3203 28.651 22.3932 28.3594 22.5391C28.0677 22.6849 27.8229 22.9062 27.625 23.2031C27.4271 23.5 27.2786 23.875 27.1797 24.3281C27.0859 24.776 27.0391 25.3021 27.0391 25.9062V26.7109C27.0391 27.2995 27.0833 27.8177 27.1719 28.2656C27.2604 28.7083 27.3958 29.0833 27.5781 29.3906C27.7656 29.6927 28.0052 29.9219 28.2969 30.0781C28.5938 30.2292 28.9505 30.3047 29.3672 30.3047C29.8568 30.3047 30.2604 30.2266 30.5781 30.0703C30.8958 29.9141 31.138 29.6823 31.3047 29.375C31.4766 29.0677 31.5781 28.6849 31.6094 28.2266ZM34.9844 27.8594V27.6953C34.9844 27.0755 35.0729 26.5052 35.25 25.9844C35.4271 25.4583 35.6849 25.0026 36.0234 24.6172C36.362 24.2318 36.7786 23.9323 37.2734 23.7188C37.7682 23.5 38.3359 23.3906 38.9766 23.3906C39.6172 23.3906 40.1875 23.5 40.6875 23.7188C41.1875 23.9323 41.6068 24.2318 41.9453 24.6172C42.2891 25.0026 42.5495 25.4583 42.7266 25.9844C42.9036 26.5052 42.9922 27.0755 42.9922 27.6953V27.8594C42.9922 28.474 42.9036 29.0443 42.7266 29.5703C42.5495 30.0911 42.2891 30.5469 41.9453 30.9375C41.6068 31.3229 41.1901 31.6224 40.6953 31.8359C40.2005 32.0495 39.6328 32.1562 38.9922 32.1562C38.3516 32.1562 37.7812 32.0495 37.2812 31.8359C36.7865 31.6224 36.3672 31.3229 36.0234 30.9375C35.6849 30.5469 35.4271 30.0911 35.25 29.5703C35.0729 29.0443 34.9844 28.474 34.9844 27.8594ZM37.2344 27.6953V27.8594C37.2344 28.2135 37.2656 28.5443 37.3281 28.8516C37.3906 29.1589 37.4896 29.4297 37.625 29.6641C37.7656 29.8932 37.9479 30.0729 38.1719 30.2031C38.3958 30.3333 38.6693 30.3984 38.9922 30.3984C39.3047 30.3984 39.5729 30.3333 39.7969 30.2031C40.0208 30.0729 40.2005 29.8932 40.3359 29.6641C40.4714 29.4297 40.5703 29.1589 40.6328 28.8516C40.7005 28.5443 40.7344 28.2135 40.7344 27.8594V27.6953C40.7344 27.3516 40.7005 27.0286 40.6328 26.7266C40.5703 26.4193 40.4688 26.1484 40.3281 25.9141C40.1927 25.6745 40.013 25.487 39.7891 25.3516C39.5651 25.2161 39.2943 25.1484 38.9766 25.1484C38.6589 25.1484 38.388 25.2161 38.1641 25.3516C37.9453 25.487 37.7656 25.6745 37.625 25.9141C37.4896 26.1484 37.3906 26.4193 37.3281 26.7266C37.2656 27.0286 37.2344 27.3516 37.2344 27.6953ZM46.75 20V32H44.4922V20H46.75ZM50.9844 20V32H48.7266V20H50.9844ZM56.7344 32.1562C56.0781 32.1562 55.4896 32.0521 54.9688 31.8438C54.4479 31.6302 54.0052 31.3359 53.6406 30.9609C53.2812 30.5859 53.0052 30.151 52.8125 29.6562C52.6198 29.1562 52.5234 28.625 52.5234 28.0625V27.75C52.5234 27.1094 52.6146 26.5234 52.7969 25.9922C52.9792 25.4609 53.2396 25 53.5781 24.6094C53.9219 24.2188 54.3385 23.9193 54.8281 23.7109C55.3177 23.4974 55.8698 23.3906 56.4844 23.3906C57.0833 23.3906 57.6146 23.4896 58.0781 23.6875C58.5417 23.8854 58.9297 24.1667 59.2422 24.5312C59.5599 24.8958 59.7995 25.3333 59.9609 25.8438C60.1224 26.349 60.2031 26.9115 60.2031 27.5312V28.4688H53.4844V26.9688H57.9922V26.7969C57.9922 26.4844 57.9349 26.2057 57.8203 25.9609C57.7109 25.7109 57.5443 25.513 57.3203 25.3672C57.0964 25.2214 56.8099 25.1484 56.4609 25.1484C56.1641 25.1484 55.9089 25.2135 55.6953 25.3438C55.4818 25.474 55.3073 25.6562 55.1719 25.8906C55.0417 26.125 54.9427 26.401 54.875 26.7188C54.8125 27.0312 54.7812 27.375 54.7812 27.75V28.0625C54.7812 28.401 54.8281 28.7135 54.9219 29C55.0208 29.2865 55.1589 29.5339 55.3359 29.7422C55.5182 29.9505 55.737 30.112 55.9922 30.2266C56.2526 30.3411 56.5469 30.3984 56.875 30.3984C57.2812 30.3984 57.6589 30.3203 58.0078 30.1641C58.362 30.0026 58.6667 29.7604 58.9219 29.4375L60.0156 30.625C59.8385 30.8802 59.5964 31.125 59.2891 31.3594C58.987 31.5938 58.6224 31.7865 58.1953 31.9375C57.7682 32.0833 57.2812 32.1562 56.7344 32.1562ZM66.8359 23.5469H68.875V31.7188C68.875 32.4896 68.7031 33.1432 68.3594 33.6797C68.0208 34.2214 67.5469 34.6302 66.9375 34.9062C66.3281 35.1875 65.6198 35.3281 64.8125 35.3281C64.4583 35.3281 64.0833 35.2812 63.6875 35.1875C63.2969 35.0938 62.9219 34.9479 62.5625 34.75C62.2083 34.5521 61.9115 34.3021 61.6719 34L62.6641 32.6719C62.9245 32.974 63.2266 33.2083 63.5703 33.375C63.9141 33.5469 64.2943 33.6328 64.7109 33.6328C65.1172 33.6328 65.4609 33.5573 65.7422 33.4062C66.0234 33.2604 66.2396 33.0443 66.3906 32.7578C66.5417 32.4766 66.6172 32.1354 66.6172 31.7344V25.5L66.8359 23.5469ZM61.1484 27.875V27.7109C61.1484 27.0651 61.2266 26.4792 61.3828 25.9531C61.5443 25.4219 61.7708 24.9661 62.0625 24.5859C62.3594 24.2057 62.7188 23.9115 63.1406 23.7031C63.5625 23.4948 64.0391 23.3906 64.5703 23.3906C65.1328 23.3906 65.6042 23.4948 65.9844 23.7031C66.3646 23.9115 66.6771 24.2083 66.9219 24.5938C67.1667 24.974 67.3568 25.4245 67.4922 25.9453C67.6328 26.4609 67.7422 27.026 67.8203 27.6406V28C67.7422 28.5885 67.625 29.1354 67.4688 29.6406C67.3125 30.1458 67.1068 30.5885 66.8516 30.9688C66.5964 31.3438 66.2786 31.6354 65.8984 31.8438C65.5234 32.0521 65.0755 32.1562 64.5547 32.1562C64.0339 32.1562 63.5625 32.0495 63.1406 31.8359C62.724 31.6224 62.3672 31.3229 62.0703 30.9375C61.7734 30.5521 61.5443 30.099 61.3828 29.5781C61.2266 29.0573 61.1484 28.4896 61.1484 27.875ZM63.3984 27.7109V27.875C63.3984 28.224 63.4323 28.5495 63.5 28.8516C63.5677 29.1536 63.6719 29.4219 63.8125 29.6562C63.9583 29.8854 64.138 30.0651 64.3516 30.1953C64.5703 30.3203 64.8281 30.3828 65.125 30.3828C65.5365 30.3828 65.8724 30.2969 66.1328 30.125C66.3932 29.9479 66.5885 29.7057 66.7188 29.3984C66.849 29.0911 66.9245 28.737 66.9453 28.3359V27.3125C66.9349 26.9844 66.8906 26.6901 66.8125 26.4297C66.7344 26.1641 66.625 25.9375 66.4844 25.75C66.3438 25.5625 66.1615 25.4167 65.9375 25.3125C65.7135 25.2083 65.4479 25.1562 65.1406 25.1562C64.8438 25.1562 64.5859 25.224 64.3672 25.3594C64.1536 25.4896 63.974 25.6693 63.8281 25.8984C63.6875 26.1276 63.5807 26.3984 63.5078 26.7109C63.4349 27.0182 63.3984 27.3516 63.3984 27.7109ZM74.5156 32.1562C73.8594 32.1562 73.2708 32.0521 72.75 31.8438C72.2292 31.6302 71.7865 31.3359 71.4219 30.9609C71.0625 30.5859 70.7865 30.151 70.5938 29.6562C70.401 29.1562 70.3047 28.625 70.3047 28.0625V27.75C70.3047 27.1094 70.3958 26.5234 70.5781 25.9922C70.7604 25.4609 71.0208 25 71.3594 24.6094C71.7031 24.2188 72.1198 23.9193 72.6094 23.7109C73.099 23.4974 73.651 23.3906 74.2656 23.3906C74.8646 23.3906 75.3958 23.4896 75.8594 23.6875C76.3229 23.8854 76.7109 24.1667 77.0234 24.5312C77.3411 24.8958 77.5807 25.3333 77.7422 25.8438C77.9036 26.349 77.9844 26.9115 77.9844 27.5312V28.4688H71.2656V26.9688H75.7734V26.7969C75.7734 26.4844 75.7161 26.2057 75.6016 25.9609C75.4922 25.7109 75.3255 25.513 75.1016 25.3672C74.8776 25.2214 74.5911 25.1484 74.2422 25.1484C73.9453 25.1484 73.6901 25.2135 73.4766 25.3438C73.263 25.474 73.0885 25.6562 72.9531 25.8906C72.8229 26.125 72.724 26.401 72.6562 26.7188C72.5938 27.0312 72.5625 27.375 72.5625 27.75V28.0625C72.5625 28.401 72.6094 28.7135 72.7031 29C72.8021 29.2865 72.9401 29.5339 73.1172 29.7422C73.2995 29.9505 73.5182 30.112 73.7734 30.2266C74.0339 30.3411 74.3281 30.3984 74.6562 30.3984C75.0625 30.3984 75.4401 30.3203 75.7891 30.1641C76.1432 30.0026 76.4479 29.7604 76.7031 29.4375L77.7969 30.625C77.6198 30.8802 77.3776 31.125 77.0703 31.3594C76.7682 31.5938 76.4036 31.7865 75.9766 31.9375C75.5495 32.0833 75.0625 32.1562 74.5156 32.1562ZM87.8203 27.9453H84.9219V26.1172H87.8203C88.2682 26.1172 88.6328 26.0443 88.9141 25.8984C89.1953 25.7474 89.401 25.5391 89.5312 25.2734C89.6615 25.0078 89.7266 24.7083 89.7266 24.375C89.7266 24.0365 89.6615 23.7214 89.5312 23.4297C89.401 23.138 89.1953 22.9036 88.9141 22.7266C88.6328 22.5495 88.2682 22.4609 87.8203 22.4609H85.7344V32H83.3906V20.625H87.8203C88.7109 20.625 89.474 20.7865 90.1094 21.1094C90.75 21.4271 91.2396 21.8672 91.5781 22.4297C91.9167 22.9922 92.0859 23.6354 92.0859 24.3594C92.0859 25.0938 91.9167 25.7292 91.5781 26.2656C91.2396 26.8021 90.75 27.2161 90.1094 27.5078C89.474 27.7995 88.7109 27.9453 87.8203 27.9453ZM95.8125 25.3906V32H93.5625V23.5469H95.6797L95.8125 25.3906ZM98.3594 23.4922L98.3203 25.5781C98.2109 25.5625 98.0781 25.5495 97.9219 25.5391C97.7708 25.5234 97.6328 25.5156 97.5078 25.5156C97.1901 25.5156 96.9141 25.5573 96.6797 25.6406C96.4505 25.7188 96.2578 25.8359 96.1016 25.9922C95.9505 26.1484 95.8359 26.3385 95.7578 26.5625C95.6849 26.7865 95.6432 27.0417 95.6328 27.3281L95.1797 27.1875C95.1797 26.6406 95.2344 26.138 95.3438 25.6797C95.4531 25.2161 95.612 24.8125 95.8203 24.4688C96.0339 24.125 96.2943 23.8594 96.6016 23.6719C96.9089 23.4844 97.2604 23.3906 97.6562 23.3906C97.7812 23.3906 97.9089 23.401 98.0391 23.4219C98.1693 23.4375 98.276 23.4609 98.3594 23.4922ZM103.156 32.1562C102.5 32.1562 101.911 32.0521 101.391 31.8438C100.87 31.6302 100.427 31.3359 100.062 30.9609C99.7031 30.5859 99.4271 30.151 99.2344 29.6562C99.0417 29.1562 98.9453 28.625 98.9453 28.0625V27.75C98.9453 27.1094 99.0365 26.5234 99.2188 25.9922C99.401 25.4609 99.6615 25 100 24.6094C100.344 24.2188 100.76 23.9193 101.25 23.7109C101.74 23.4974 102.292 23.3906 102.906 23.3906C103.505 23.3906 104.036 23.4896 104.5 23.6875C104.964 23.8854 105.352 24.1667 105.664 24.5312C105.982 24.8958 106.221 25.3333 106.383 25.8438C106.544 26.349 106.625 26.9115 106.625 27.5312V28.4688H99.9062V26.9688H104.414V26.7969C104.414 26.4844 104.357 26.2057 104.242 25.9609C104.133 25.7109 103.966 25.513 103.742 25.3672C103.518 25.2214 103.232 25.1484 102.883 25.1484C102.586 25.1484 102.331 25.2135 102.117 25.3438C101.904 25.474 101.729 25.6562 101.594 25.8906C101.464 26.125 101.365 26.401 101.297 26.7188C101.234 27.0312 101.203 27.375 101.203 27.75V28.0625C101.203 28.401 101.25 28.7135 101.344 29C101.443 29.2865 101.581 29.5339 101.758 29.7422C101.94 29.9505 102.159 30.112 102.414 30.2266C102.674 30.3411 102.969 30.3984 103.297 30.3984C103.703 30.3984 104.081 30.3203 104.43 30.1641C104.784 30.0026 105.089 29.7604 105.344 29.4375L106.438 30.625C106.26 30.8802 106.018 31.125 105.711 31.3594C105.409 31.5938 105.044 31.7865 104.617 31.9375C104.19 32.0833 103.703 32.1562 103.156 32.1562ZM112.898 30.1562V20H115.164V32H113.125L112.898 30.1562ZM107.555 27.875V27.7109C107.555 27.0651 107.628 26.4792 107.773 25.9531C107.919 25.4219 108.133 24.9661 108.414 24.5859C108.695 24.2057 109.042 23.9115 109.453 23.7031C109.865 23.4948 110.333 23.3906 110.859 23.3906C111.354 23.3906 111.786 23.4948 112.156 23.7031C112.531 23.9115 112.849 24.2083 113.109 24.5938C113.375 24.974 113.589 25.4245 113.75 25.9453C113.911 26.4609 114.029 27.026 114.102 27.6406V28C114.029 28.5885 113.911 29.1354 113.75 29.6406C113.589 30.1458 113.375 30.5885 113.109 30.9688C112.849 31.3438 112.531 31.6354 112.156 31.8438C111.781 32.0521 111.344 32.1562 110.844 32.1562C110.318 32.1562 109.849 32.0495 109.438 31.8359C109.031 31.6224 108.688 31.3229 108.406 30.9375C108.13 30.5521 107.919 30.099 107.773 29.5781C107.628 29.0573 107.555 28.4896 107.555 27.875ZM109.805 27.7109V27.875C109.805 28.224 109.831 28.5495 109.883 28.8516C109.94 29.1536 110.031 29.4219 110.156 29.6562C110.286 29.8854 110.453 30.0651 110.656 30.1953C110.865 30.3203 111.117 30.3828 111.414 30.3828C111.799 30.3828 112.117 30.2969 112.367 30.125C112.617 29.9479 112.807 29.7057 112.938 29.3984C113.073 29.0911 113.151 28.737 113.172 28.3359V27.3125C113.156 26.9844 113.109 26.6901 113.031 26.4297C112.958 26.1641 112.849 25.9375 112.703 25.75C112.562 25.5625 112.385 25.4167 112.172 25.3125C111.964 25.2083 111.716 25.1562 111.43 25.1562C111.138 25.1562 110.888 25.224 110.68 25.3594C110.471 25.4896 110.302 25.6693 110.172 25.8984C110.047 26.1276 109.953 26.3984 109.891 26.7109C109.833 27.0182 109.805 27.3516 109.805 27.7109ZM119.297 23.5469V32H117.039V23.5469H119.297ZM116.898 21.3438C116.898 21.0156 117.013 20.7448 117.242 20.5312C117.471 20.3177 117.779 20.2109 118.164 20.2109C118.544 20.2109 118.849 20.3177 119.078 20.5312C119.312 20.7448 119.43 21.0156 119.43 21.3438C119.43 21.6719 119.312 21.9427 119.078 22.1562C118.849 22.3698 118.544 22.4766 118.164 22.4766C117.779 22.4766 117.471 22.3698 117.242 22.1562C117.013 21.9427 116.898 21.6719 116.898 21.3438ZM124.648 30.3984C124.924 30.3984 125.169 30.3464 125.383 30.2422C125.596 30.1328 125.763 29.9818 125.883 29.7891C126.008 29.5911 126.073 29.3594 126.078 29.0938H128.195C128.19 29.6875 128.031 30.2161 127.719 30.6797C127.406 31.138 126.987 31.5 126.461 31.7656C125.935 32.026 125.346 32.1562 124.695 32.1562C124.039 32.1562 123.466 32.0469 122.977 31.8281C122.492 31.6094 122.089 31.3073 121.766 30.9219C121.443 30.5312 121.201 30.0781 121.039 29.5625C120.878 29.0417 120.797 28.4844 120.797 27.8906V27.6641C120.797 27.0651 120.878 26.5078 121.039 25.9922C121.201 25.4714 121.443 25.0182 121.766 24.6328C122.089 24.2422 122.492 23.9375 122.977 23.7188C123.461 23.5 124.029 23.3906 124.68 23.3906C125.372 23.3906 125.979 23.5234 126.5 23.7891C127.026 24.0547 127.438 24.4349 127.734 24.9297C128.036 25.4193 128.19 26 128.195 26.6719H126.078C126.073 26.3906 126.013 26.1354 125.898 25.9062C125.789 25.6771 125.628 25.4948 125.414 25.3594C125.206 25.2188 124.948 25.1484 124.641 25.1484C124.312 25.1484 124.044 25.2188 123.836 25.3594C123.628 25.4948 123.466 25.6823 123.352 25.9219C123.237 26.1562 123.156 26.4245 123.109 26.7266C123.068 27.0234 123.047 27.3359 123.047 27.6641V27.8906C123.047 28.2188 123.068 28.5339 123.109 28.8359C123.151 29.138 123.229 29.4062 123.344 29.6406C123.464 29.875 123.628 30.0599 123.836 30.1953C124.044 30.3307 124.315 30.3984 124.648 30.3984ZM133.641 23.5469V25.1406H128.719V23.5469H133.641ZM129.938 21.4609H132.188V29.4531C132.188 29.6979 132.219 29.8854 132.281 30.0156C132.349 30.1458 132.448 30.237 132.578 30.2891C132.708 30.3359 132.872 30.3594 133.07 30.3594C133.211 30.3594 133.336 30.3542 133.445 30.3438C133.56 30.3281 133.656 30.3125 133.734 30.2969L133.742 31.9531C133.549 32.0156 133.341 32.0651 133.117 32.1016C132.893 32.138 132.646 32.1562 132.375 32.1562C131.88 32.1562 131.448 32.0755 131.078 31.9141C130.714 31.7474 130.432 31.4818 130.234 31.1172C130.036 30.7526 129.938 30.2734 129.938 29.6797V21.4609ZM134.359 27.8594V27.6953C134.359 27.0755 134.448 26.5052 134.625 25.9844C134.802 25.4583 135.06 25.0026 135.398 24.6172C135.737 24.2318 136.154 23.9323 136.648 23.7188C137.143 23.5 137.711 23.3906 138.352 23.3906C138.992 23.3906 139.562 23.5 140.062 23.7188C140.562 23.9323 140.982 24.2318 141.32 24.6172C141.664 25.0026 141.924 25.4583 142.102 25.9844C142.279 26.5052 142.367 27.0755 142.367 27.6953V27.8594C142.367 28.474 142.279 29.0443 142.102 29.5703C141.924 30.0911 141.664 30.5469 141.32 30.9375C140.982 31.3229 140.565 31.6224 140.07 31.8359C139.576 32.0495 139.008 32.1562 138.367 32.1562C137.727 32.1562 137.156 32.0495 136.656 31.8359C136.161 31.6224 135.742 31.3229 135.398 30.9375C135.06 30.5469 134.802 30.0911 134.625 29.5703C134.448 29.0443 134.359 28.474 134.359 27.8594ZM136.609 27.6953V27.8594C136.609 28.2135 136.641 28.5443 136.703 28.8516C136.766 29.1589 136.865 29.4297 137 29.6641C137.141 29.8932 137.323 30.0729 137.547 30.2031C137.771 30.3333 138.044 30.3984 138.367 30.3984C138.68 30.3984 138.948 30.3333 139.172 30.2031C139.396 30.0729 139.576 29.8932 139.711 29.6641C139.846 29.4297 139.945 29.1589 140.008 28.8516C140.076 28.5443 140.109 28.2135 140.109 27.8594V27.6953C140.109 27.3516 140.076 27.0286 140.008 26.7266C139.945 26.4193 139.844 26.1484 139.703 25.9141C139.568 25.6745 139.388 25.487 139.164 25.3516C138.94 25.2161 138.669 25.1484 138.352 25.1484C138.034 25.1484 137.763 25.2161 137.539 25.3516C137.32 25.487 137.141 25.6745 137 25.9141C136.865 26.1484 136.766 26.4193 136.703 26.7266C136.641 27.0286 136.609 27.3516 136.609 27.6953ZM146 25.3906V32H143.75V23.5469H145.867L146 25.3906ZM148.547 23.4922L148.508 25.5781C148.398 25.5625 148.266 25.5495 148.109 25.5391C147.958 25.5234 147.82 25.5156 147.695 25.5156C147.378 25.5156 147.102 25.5573 146.867 25.6406C146.638 25.7188 146.445 25.8359 146.289 25.9922C146.138 26.1484 146.023 26.3385 145.945 26.5625C145.872 26.7865 145.831 27.0417 145.82 27.3281L145.367 27.1875C145.367 26.6406 145.422 26.138 145.531 25.6797C145.641 25.2161 145.799 24.8125 146.008 24.4688C146.221 24.125 146.482 23.8594 146.789 23.6719C147.096 23.4844 147.448 23.3906 147.844 23.3906C147.969 23.3906 148.096 23.401 148.227 23.4219C148.357 23.4375 148.464 23.4609 148.547 23.4922Z" fill="white"/>
<path d="M29.4141 49.4541H30.7568C30.7139 49.9661 30.5706 50.4227 30.3271 50.8237C30.0837 51.2212 29.7417 51.5345 29.3013 51.7637C28.8608 51.9928 28.3255 52.1074 27.6953 52.1074C27.2119 52.1074 26.7769 52.0215 26.3901 51.8496C26.0034 51.6742 25.6722 51.4271 25.3965 51.1084C25.1208 50.7861 24.9095 50.3976 24.7627 49.9429C24.6195 49.4881 24.5479 48.9797 24.5479 48.4175V47.7676C24.5479 47.2054 24.6213 46.6969 24.7681 46.2422C24.9185 45.7874 25.1333 45.3989 25.4126 45.0767C25.6919 44.7508 26.0267 44.502 26.417 44.3301C26.8109 44.1582 27.2531 44.0723 27.7437 44.0723C28.3667 44.0723 28.8931 44.1868 29.3228 44.416C29.7524 44.6452 30.0854 44.9621 30.3218 45.3667C30.5617 45.7713 30.7085 46.235 30.7622 46.7578H29.4194C29.3836 46.4212 29.3049 46.133 29.1831 45.8931C29.0649 45.6532 28.8895 45.4705 28.6567 45.3452C28.424 45.2163 28.1196 45.1519 27.7437 45.1519C27.4357 45.1519 27.1672 45.2091 26.938 45.3237C26.7088 45.4383 26.5173 45.6066 26.3633 45.8286C26.2093 46.0506 26.0929 46.3245 26.0142 46.6504C25.939 46.9727 25.9014 47.3415 25.9014 47.7568V48.4175C25.9014 48.8114 25.9354 49.1694 26.0034 49.4917C26.075 49.8104 26.1825 50.0843 26.3257 50.3135C26.4725 50.5426 26.6587 50.7199 26.8843 50.8452C27.1099 50.9705 27.3802 51.0332 27.6953 51.0332C28.0785 51.0332 28.3882 50.9723 28.6245 50.8506C28.8644 50.7288 29.0452 50.5516 29.167 50.3188C29.2923 50.0825 29.3747 49.7943 29.4141 49.4541ZM33.1309 43.75V52H31.8418V43.75H33.1309ZM32.9053 48.8794L32.4863 48.874C32.4899 48.473 32.5454 48.1024 32.6528 47.7622C32.7638 47.422 32.9178 47.1266 33.1147 46.876C33.3153 46.6217 33.5552 46.4266 33.8345 46.2905C34.1138 46.1509 34.4235 46.0811 34.7637 46.0811C35.0501 46.0811 35.3079 46.1204 35.5371 46.1992C35.7699 46.278 35.9704 46.4051 36.1387 46.5806C36.307 46.7524 36.4341 46.978 36.52 47.2573C36.6095 47.533 36.6543 47.8696 36.6543 48.2671V52H35.3545V48.2563C35.3545 47.9771 35.3133 47.755 35.231 47.5903C35.1522 47.4256 35.0358 47.3075 34.8818 47.2358C34.7279 47.1606 34.5399 47.123 34.3179 47.123C34.0851 47.123 33.8792 47.1696 33.7002 47.2627C33.5247 47.3558 33.3779 47.4829 33.2598 47.644C33.1416 47.8052 33.0521 47.9914 32.9912 48.2026C32.9339 48.4139 32.9053 48.6395 32.9053 48.8794ZM40.5269 52.1074C40.0972 52.1074 39.7087 52.0376 39.3613 51.8979C39.0176 51.7547 38.724 51.556 38.4805 51.3018C38.2406 51.0475 38.0562 50.7485 37.9272 50.4048C37.7983 50.061 37.7339 49.6904 37.7339 49.293V49.0781C37.7339 48.6234 37.8001 48.2116 37.9326 47.8428C38.0651 47.474 38.2495 47.1589 38.4858 46.8975C38.7222 46.6325 39.0015 46.4302 39.3237 46.2905C39.646 46.1509 39.9951 46.0811 40.3711 46.0811C40.7865 46.0811 41.1499 46.1509 41.4614 46.2905C41.7729 46.4302 42.0308 46.6271 42.2349 46.8813C42.4425 47.132 42.5965 47.431 42.6968 47.7783C42.8006 48.1257 42.8525 48.5088 42.8525 48.9277V49.481H38.3623V48.5518H41.5742V48.4497C41.5671 48.217 41.5205 47.9985 41.4346 47.7944C41.3522 47.5903 41.2251 47.4256 41.0532 47.3003C40.8813 47.175 40.6522 47.1123 40.3657 47.1123C40.1509 47.1123 39.9593 47.1589 39.791 47.252C39.6263 47.3415 39.4884 47.4722 39.3774 47.644C39.2664 47.8159 39.1805 48.0236 39.1196 48.2671C39.0623 48.507 39.0337 48.7773 39.0337 49.0781V49.293C39.0337 49.5472 39.0677 49.7835 39.1357 50.002C39.2074 50.2168 39.3112 50.4048 39.4473 50.5659C39.5833 50.7271 39.748 50.8542 39.9414 50.9473C40.1348 51.0368 40.355 51.0815 40.6021 51.0815C40.9136 51.0815 41.1911 51.0189 41.4346 50.8936C41.6781 50.7682 41.8893 50.591 42.0684 50.3618L42.7505 51.0225C42.6252 51.2051 42.4622 51.3805 42.2617 51.5488C42.0612 51.7135 41.8159 51.8478 41.5259 51.9517C41.2394 52.0555 40.9064 52.1074 40.5269 52.1074ZM46.2363 51.0762C46.4476 51.0762 46.6374 51.035 46.8057 50.9526C46.9775 50.8667 47.1154 50.7485 47.2192 50.5981C47.3267 50.4478 47.3857 50.2741 47.3965 50.0771H48.6157C48.6086 50.4531 48.4976 50.7951 48.2827 51.103C48.0679 51.411 47.7832 51.6562 47.4287 51.8389C47.0742 52.0179 46.6821 52.1074 46.2524 52.1074C45.8084 52.1074 45.4217 52.0322 45.0923 51.8818C44.7629 51.7279 44.4889 51.5166 44.2705 51.248C44.0521 50.9795 43.8874 50.6698 43.7764 50.3188C43.6689 49.9679 43.6152 49.592 43.6152 49.1909V49.0029C43.6152 48.6019 43.6689 48.2259 43.7764 47.875C43.8874 47.5205 44.0521 47.209 44.2705 46.9404C44.4889 46.6719 44.7629 46.4624 45.0923 46.312C45.4217 46.158 45.8066 46.0811 46.2471 46.0811C46.7126 46.0811 47.1208 46.1742 47.4717 46.3604C47.8226 46.543 48.0983 46.799 48.2988 47.1284C48.5029 47.4543 48.6086 47.8338 48.6157 48.2671H47.3965C47.3857 48.0522 47.332 47.8589 47.2354 47.687C47.1423 47.5116 47.0098 47.3719 46.8379 47.2681C46.6696 47.1642 46.4673 47.1123 46.231 47.1123C45.9696 47.1123 45.7529 47.166 45.5811 47.2734C45.4092 47.3773 45.2749 47.5205 45.1782 47.7031C45.0815 47.8822 45.0117 48.0845 44.9688 48.3101C44.9294 48.5321 44.9097 48.763 44.9097 49.0029V49.1909C44.9097 49.4308 44.9294 49.6636 44.9688 49.8892C45.0081 50.1147 45.0762 50.3171 45.1729 50.4961C45.2731 50.6715 45.4092 50.813 45.5811 50.9204C45.7529 51.0243 45.9714 51.0762 46.2363 51.0762ZM50.9146 43.75V52H49.6147V43.75H50.9146ZM54.5239 46.1885L51.9941 48.9922L50.6084 50.4102L50.27 49.3145L51.3174 48.02L52.9609 46.1885H54.5239ZM53.2402 52L51.355 49.2715L52.1714 48.3638L54.7388 52H53.2402ZM62.833 49.4541H64.1758C64.1328 49.9661 63.9896 50.4227 63.7461 50.8237C63.5026 51.2212 63.1606 51.5345 62.7202 51.7637C62.2798 51.9928 61.7445 52.1074 61.1143 52.1074C60.6309 52.1074 60.1958 52.0215 59.8091 51.8496C59.4224 51.6742 59.0911 51.4271 58.8154 51.1084C58.5397 50.7861 58.3285 50.3976 58.1816 49.9429C58.0384 49.4881 57.9668 48.9797 57.9668 48.4175V47.7676C57.9668 47.2054 58.0402 46.6969 58.187 46.2422C58.3374 45.7874 58.5522 45.3989 58.8315 45.0767C59.1108 44.7508 59.4456 44.502 59.8359 44.3301C60.2298 44.1582 60.672 44.0723 61.1626 44.0723C61.7856 44.0723 62.312 44.1868 62.7417 44.416C63.1714 44.6452 63.5044 44.9621 63.7407 45.3667C63.9806 45.7713 64.1274 46.235 64.1812 46.7578H62.8384C62.8026 46.4212 62.7238 46.133 62.6021 45.8931C62.4839 45.6532 62.3084 45.4705 62.0757 45.3452C61.8429 45.2163 61.5386 45.1519 61.1626 45.1519C60.8547 45.1519 60.5861 45.2091 60.3569 45.3237C60.1278 45.4383 59.9362 45.6066 59.7822 45.8286C59.6283 46.0506 59.5119 46.3245 59.4331 46.6504C59.3579 46.9727 59.3203 47.3415 59.3203 47.7568V48.4175C59.3203 48.8114 59.3543 49.1694 59.4224 49.4917C59.494 49.8104 59.6014 50.0843 59.7446 50.3135C59.8914 50.5426 60.0776 50.7199 60.3032 50.8452C60.5288 50.9705 60.7992 51.0332 61.1143 51.0332C61.4974 51.0332 61.8071 50.9723 62.0435 50.8506C62.2834 50.7288 62.4642 50.5516 62.5859 50.3188C62.7113 50.0825 62.7936 49.7943 62.833 49.4541ZM65.0244 49.1587V49.0352C65.0244 48.6162 65.0853 48.2277 65.207 47.8696C65.3288 47.508 65.5042 47.1947 65.7334 46.9297C65.9661 46.6611 66.249 46.4535 66.582 46.3066C66.9186 46.1562 67.2982 46.0811 67.7207 46.0811C68.1468 46.0811 68.5264 46.1562 68.8594 46.3066C69.196 46.4535 69.4806 46.6611 69.7134 46.9297C69.9461 47.1947 70.1234 47.508 70.2451 47.8696C70.3669 48.2277 70.4277 48.6162 70.4277 49.0352V49.1587C70.4277 49.5776 70.3669 49.9661 70.2451 50.3242C70.1234 50.6823 69.9461 50.9956 69.7134 51.2642C69.4806 51.5291 69.1978 51.7368 68.8647 51.8872C68.5317 52.034 68.154 52.1074 67.7314 52.1074C67.3053 52.1074 66.924 52.034 66.5874 51.8872C66.2544 51.7368 65.9715 51.5291 65.7388 51.2642C65.506 50.9956 65.3288 50.6823 65.207 50.3242C65.0853 49.9661 65.0244 49.5776 65.0244 49.1587ZM66.3188 49.0352V49.1587C66.3188 49.4201 66.3457 49.6672 66.3994 49.8999C66.4531 50.1326 66.5373 50.3368 66.6519 50.5122C66.7664 50.6877 66.9132 50.8255 67.0923 50.9258C67.2713 51.026 67.4844 51.0762 67.7314 51.0762C67.9714 51.0762 68.179 51.026 68.3545 50.9258C68.5335 50.8255 68.6803 50.6877 68.7949 50.5122C68.9095 50.3368 68.9937 50.1326 69.0474 49.8999C69.1047 49.6672 69.1333 49.4201 69.1333 49.1587V49.0352C69.1333 48.7773 69.1047 48.5339 69.0474 48.3047C68.9937 48.0719 68.9077 47.866 68.7896 47.687C68.675 47.508 68.5282 47.3683 68.3491 47.2681C68.1737 47.1642 67.9642 47.1123 67.7207 47.1123C67.4772 47.1123 67.266 47.1642 67.0869 47.2681C66.9115 47.3683 66.7664 47.508 66.6519 47.687C66.5373 47.866 66.4531 48.0719 66.3994 48.3047C66.3457 48.5339 66.3188 48.7773 66.3188 49.0352ZM72.8984 43.75V52H71.5986V43.75H72.8984ZM75.7021 43.75V52H74.4023V43.75H75.7021ZM79.6821 52.1074C79.2524 52.1074 78.8639 52.0376 78.5166 51.8979C78.1729 51.7547 77.8792 51.556 77.6357 51.3018C77.3958 51.0475 77.2114 50.7485 77.0825 50.4048C76.9536 50.061 76.8892 49.6904 76.8892 49.293V49.0781C76.8892 48.6234 76.9554 48.2116 77.0879 47.8428C77.2204 47.474 77.4048 47.1589 77.6411 46.8975C77.8774 46.6325 78.1567 46.4302 78.479 46.2905C78.8013 46.1509 79.1504 46.0811 79.5264 46.0811C79.9417 46.0811 80.3052 46.1509 80.6167 46.2905C80.9282 46.4302 81.186 46.6271 81.3901 46.8813C81.5978 47.132 81.7518 47.431 81.8521 47.7783C81.9559 48.1257 82.0078 48.5088 82.0078 48.9277V49.481H77.5176V48.5518H80.7295V48.4497C80.7223 48.217 80.6758 47.9985 80.5898 47.7944C80.5075 47.5903 80.3804 47.4256 80.2085 47.3003C80.0366 47.175 79.8075 47.1123 79.521 47.1123C79.3062 47.1123 79.1146 47.1589 78.9463 47.252C78.7816 47.3415 78.6437 47.4722 78.5327 47.644C78.4217 47.8159 78.3358 48.0236 78.2749 48.2671C78.2176 48.507 78.189 48.7773 78.189 49.0781V49.293C78.189 49.5472 78.223 49.7835 78.291 50.002C78.3626 50.2168 78.4665 50.4048 78.6025 50.5659C78.7386 50.7271 78.9033 50.8542 79.0967 50.9473C79.29 51.0368 79.5103 51.0815 79.7573 51.0815C80.0688 51.0815 80.3464 51.0189 80.5898 50.8936C80.8333 50.7682 81.0446 50.591 81.2236 50.3618L81.9058 51.0225C81.7804 51.2051 81.6175 51.3805 81.417 51.5488C81.2165 51.7135 80.9712 51.8478 80.6812 51.9517C80.3947 52.0555 80.0617 52.1074 79.6821 52.1074ZM86.7397 46.1885H87.916V51.8389C87.916 52.3617 87.805 52.8057 87.583 53.1709C87.361 53.5361 87.0513 53.8136 86.6538 54.0034C86.2563 54.1968 85.7962 54.2935 85.2734 54.2935C85.0514 54.2935 84.8044 54.2612 84.5322 54.1968C84.2637 54.1323 84.0023 54.0285 83.748 53.8853C83.4974 53.7456 83.2879 53.5612 83.1196 53.332L83.7266 52.5693C83.9342 52.8164 84.1634 52.9972 84.4141 53.1118C84.6647 53.2264 84.9279 53.2837 85.2036 53.2837C85.5008 53.2837 85.7533 53.2282 85.9609 53.1172C86.1722 53.0098 86.3351 52.8504 86.4497 52.6392C86.5643 52.4279 86.6216 52.1701 86.6216 51.8657V47.5044L86.7397 46.1885ZM82.792 49.1587V49.0459C82.792 48.6055 82.8457 48.2044 82.9531 47.8428C83.0605 47.4775 83.2145 47.1642 83.415 46.9028C83.6156 46.6379 83.859 46.4355 84.1455 46.2959C84.432 46.1527 84.756 46.0811 85.1177 46.0811C85.4937 46.0811 85.8141 46.1491 86.0791 46.2852C86.3477 46.4212 86.5715 46.6164 86.7505 46.8706C86.9295 47.1213 87.0692 47.422 87.1694 47.7729C87.2733 48.1203 87.3503 48.507 87.4004 48.9331V49.293C87.3538 49.7083 87.2751 50.0879 87.1641 50.4316C87.0531 50.7754 86.9062 51.0726 86.7236 51.3232C86.541 51.5739 86.3154 51.7673 86.0469 51.9033C85.7819 52.0394 85.4686 52.1074 85.1069 52.1074C84.7524 52.1074 84.432 52.034 84.1455 51.8872C83.8626 51.7404 83.6191 51.5345 83.415 51.2695C83.2145 51.0046 83.0605 50.693 82.9531 50.335C82.8457 49.9733 82.792 49.5812 82.792 49.1587ZM84.0864 49.0459V49.1587C84.0864 49.4237 84.1115 49.6707 84.1616 49.8999C84.2153 50.1291 84.2959 50.3314 84.4033 50.5068C84.5143 50.6787 84.654 50.8148 84.8223 50.915C84.9941 51.0117 85.1965 51.0601 85.4292 51.0601C85.7336 51.0601 85.9824 50.9956 86.1758 50.8667C86.3727 50.7378 86.5231 50.5641 86.627 50.3457C86.7344 50.1237 86.8096 49.8766 86.8525 49.6045V48.6323C86.8311 48.4211 86.7863 48.2241 86.7183 48.0415C86.6538 47.8589 86.5661 47.6995 86.4551 47.5635C86.3441 47.4238 86.2044 47.3164 86.0361 47.2412C85.8678 47.1624 85.6691 47.123 85.4399 47.123C85.2072 47.123 85.0049 47.1732 84.833 47.2734C84.6611 47.3737 84.5197 47.5116 84.4087 47.687C84.3013 47.8625 84.2207 48.0666 84.167 48.2993C84.1133 48.5321 84.0864 48.7809 84.0864 49.0459ZM91.8208 52.1074C91.3911 52.1074 91.0026 52.0376 90.6553 51.8979C90.3115 51.7547 90.0179 51.556 89.7744 51.3018C89.5345 51.0475 89.3501 50.7485 89.2212 50.4048C89.0923 50.061 89.0278 49.6904 89.0278 49.293V49.0781C89.0278 48.6234 89.0941 48.2116 89.2266 47.8428C89.359 47.474 89.5435 47.1589 89.7798 46.8975C90.0161 46.6325 90.2954 46.4302 90.6177 46.2905C90.9399 46.1509 91.2891 46.0811 91.665 46.0811C92.0804 46.0811 92.4438 46.1509 92.7554 46.2905C93.0669 46.4302 93.3247 46.6271 93.5288 46.8813C93.7365 47.132 93.8905 47.431 93.9907 47.7783C94.0946 48.1257 94.1465 48.5088 94.1465 48.9277V49.481H89.6562V48.5518H92.8682V48.4497C92.861 48.217 92.8145 47.9985 92.7285 47.7944C92.6462 47.5903 92.519 47.4256 92.3472 47.3003C92.1753 47.175 91.9461 47.1123 91.6597 47.1123C91.4448 47.1123 91.2533 47.1589 91.085 47.252C90.9202 47.3415 90.7824 47.4722 90.6714 47.644C90.5604 47.8159 90.4744 48.0236 90.4136 48.2671C90.3563 48.507 90.3276 48.7773 90.3276 49.0781V49.293C90.3276 49.5472 90.3617 49.7835 90.4297 50.002C90.5013 50.2168 90.6051 50.4048 90.7412 50.5659C90.8773 50.7271 91.042 50.8542 91.2354 50.9473C91.4287 51.0368 91.6489 51.0815 91.896 51.0815C92.2075 51.0815 92.485 51.0189 92.7285 50.8936C92.972 50.7682 93.1833 50.591 93.3623 50.3618L94.0444 51.0225C93.9191 51.2051 93.7562 51.3805 93.5557 51.5488C93.3551 51.7135 93.1099 51.8478 92.8198 51.9517C92.5334 52.0555 92.2004 52.1074 91.8208 52.1074ZM101.07 45.2217L98.7334 52H97.3208L100.264 44.1797H101.167L101.07 45.2217ZM103.025 52L100.683 45.2217L100.581 44.1797H101.489L104.443 52H103.025ZM102.912 49.0996V50.1685H98.6582V49.0996H102.912ZM107.563 51.0762C107.775 51.0762 107.965 51.035 108.133 50.9526C108.305 50.8667 108.443 50.7485 108.546 50.5981C108.654 50.4478 108.713 50.2741 108.724 50.0771H109.943C109.936 50.4531 109.825 50.7951 109.61 51.103C109.395 51.411 109.11 51.6562 108.756 51.8389C108.401 52.0179 108.009 52.1074 107.58 52.1074C107.136 52.1074 106.749 52.0322 106.419 51.8818C106.09 51.7279 105.816 51.5166 105.598 51.248C105.379 50.9795 105.215 50.6698 105.104 50.3188C104.996 49.9679 104.942 49.592 104.942 49.1909V49.0029C104.942 48.6019 104.996 48.2259 105.104 47.875C105.215 47.5205 105.379 47.209 105.598 46.9404C105.816 46.6719 106.09 46.4624 106.419 46.312C106.749 46.158 107.134 46.0811 107.574 46.0811C108.04 46.0811 108.448 46.1742 108.799 46.3604C109.15 46.543 109.425 46.799 109.626 47.1284C109.83 47.4543 109.936 47.8338 109.943 48.2671H108.724C108.713 48.0522 108.659 47.8589 108.562 47.687C108.469 47.5116 108.337 47.3719 108.165 47.2681C107.997 47.1642 107.794 47.1123 107.558 47.1123C107.297 47.1123 107.08 47.166 106.908 47.2734C106.736 47.3773 106.602 47.5205 106.505 47.7031C106.409 47.8822 106.339 48.0845 106.296 48.3101C106.257 48.5321 106.237 48.763 106.237 49.0029V49.1909C106.237 49.4308 106.257 49.6636 106.296 49.8892C106.335 50.1147 106.403 50.3171 106.5 50.4961C106.6 50.6715 106.736 50.813 106.908 50.9204C107.08 51.0243 107.299 51.0762 107.563 51.0762ZM113.311 51.0762C113.522 51.0762 113.712 51.035 113.88 50.9526C114.052 50.8667 114.19 50.7485 114.293 50.5981C114.401 50.4478 114.46 50.2741 114.471 50.0771H115.69C115.683 50.4531 115.572 50.7951 115.357 51.103C115.142 51.411 114.857 51.6562 114.503 51.8389C114.148 52.0179 113.756 52.1074 113.327 52.1074C112.883 52.1074 112.496 52.0322 112.167 51.8818C111.837 51.7279 111.563 51.5166 111.345 51.248C111.126 50.9795 110.962 50.6698 110.851 50.3188C110.743 49.9679 110.689 49.592 110.689 49.1909V49.0029C110.689 48.6019 110.743 48.2259 110.851 47.875C110.962 47.5205 111.126 47.209 111.345 46.9404C111.563 46.6719 111.837 46.4624 112.167 46.312C112.496 46.158 112.881 46.0811 113.321 46.0811C113.787 46.0811 114.195 46.1742 114.546 46.3604C114.897 46.543 115.173 46.799 115.373 47.1284C115.577 47.4543 115.683 47.8338 115.69 48.2671H114.471C114.46 48.0522 114.406 47.8589 114.31 47.687C114.216 47.5116 114.084 47.3719 113.912 47.2681C113.744 47.1642 113.542 47.1123 113.305 47.1123C113.044 47.1123 112.827 47.166 112.655 47.2734C112.483 47.3773 112.349 47.5205 112.252 47.7031C112.156 47.8822 112.086 48.0845 112.043 48.3101C112.004 48.5321 111.984 48.763 111.984 49.0029V49.1909C111.984 49.4308 112.004 49.6636 112.043 49.8892C112.082 50.1147 112.15 50.3171 112.247 50.4961C112.347 50.6715 112.483 50.813 112.655 50.9204C112.827 51.0243 113.046 51.0762 113.311 51.0762ZM119.246 52.1074C118.816 52.1074 118.427 52.0376 118.08 51.8979C117.736 51.7547 117.443 51.556 117.199 51.3018C116.959 51.0475 116.775 50.7485 116.646 50.4048C116.517 50.061 116.453 49.6904 116.453 49.293V49.0781C116.453 48.6234 116.519 48.2116 116.651 47.8428C116.784 47.474 116.968 47.1589 117.205 46.8975C117.441 46.6325 117.72 46.4302 118.042 46.2905C118.365 46.1509 118.714 46.0811 119.09 46.0811C119.505 46.0811 119.869 46.1509 120.18 46.2905C120.492 46.4302 120.75 46.6271 120.954 46.8813C121.161 47.132 121.315 47.431 121.416 47.7783C121.519 48.1257 121.571 48.5088 121.571 48.9277V49.481H117.081V48.5518H120.293V48.4497C120.286 48.217 120.239 47.9985 120.153 47.7944C120.071 47.5903 119.944 47.4256 119.772 47.3003C119.6 47.175 119.371 47.1123 119.084 47.1123C118.87 47.1123 118.678 47.1589 118.51 47.252C118.345 47.3415 118.207 47.4722 118.096 47.644C117.985 47.8159 117.899 48.0236 117.838 48.2671C117.781 48.507 117.752 48.7773 117.752 49.0781V49.293C117.752 49.5472 117.786 49.7835 117.854 50.002C117.926 50.2168 118.03 50.4048 118.166 50.5659C118.302 50.7271 118.467 50.8542 118.66 50.9473C118.854 51.0368 119.074 51.0815 119.321 51.0815C119.632 51.0815 119.91 51.0189 120.153 50.8936C120.397 50.7682 120.608 50.591 120.787 50.3618L121.469 51.0225C121.344 51.2051 121.181 51.3805 120.98 51.5488C120.78 51.7135 120.535 51.8478 120.245 51.9517C119.958 52.0555 119.625 52.1074 119.246 52.1074ZM123.881 47.3057V54.2344H122.586V46.1885H123.779L123.881 47.3057ZM127.667 49.0405V49.1533C127.667 49.5758 127.617 49.9679 127.517 50.3296C127.42 50.6877 127.275 51.001 127.082 51.2695C126.892 51.5345 126.658 51.7404 126.378 51.8872C126.099 52.034 125.777 52.1074 125.412 52.1074C125.05 52.1074 124.733 52.0412 124.461 51.9087C124.192 51.7726 123.965 51.5811 123.779 51.334C123.593 51.0869 123.442 50.7969 123.328 50.4639C123.217 50.1273 123.138 49.7585 123.091 49.3574V48.9224C123.138 48.4963 123.217 48.1095 123.328 47.7622C123.442 47.4149 123.593 47.1159 123.779 46.8652C123.965 46.6146 124.192 46.4212 124.461 46.2852C124.729 46.1491 125.043 46.0811 125.401 46.0811C125.766 46.0811 126.09 46.1527 126.373 46.2959C126.656 46.4355 126.894 46.6361 127.087 46.8975C127.281 47.1553 127.426 47.4668 127.522 47.832C127.619 48.1937 127.667 48.5965 127.667 49.0405ZM126.373 49.1533V49.0405C126.373 48.772 126.348 48.5231 126.298 48.2939C126.248 48.0612 126.169 47.8571 126.062 47.6816C125.954 47.5062 125.816 47.3701 125.648 47.2734C125.483 47.1732 125.285 47.123 125.052 47.123C124.823 47.123 124.626 47.1624 124.461 47.2412C124.296 47.3164 124.158 47.422 124.047 47.5581C123.936 47.6942 123.85 47.8535 123.79 48.0361C123.729 48.2152 123.686 48.4103 123.661 48.6216V49.6636C123.704 49.9214 123.777 50.1577 123.881 50.3726C123.985 50.5874 124.132 50.7593 124.321 50.8882C124.515 51.0135 124.762 51.0762 125.062 51.0762C125.295 51.0762 125.494 51.026 125.659 50.9258C125.823 50.8255 125.958 50.6877 126.062 50.5122C126.169 50.3332 126.248 50.1273 126.298 49.8945C126.348 49.6618 126.373 49.4147 126.373 49.1533ZM131.433 46.1885V47.1338H128.156V46.1885H131.433ZM129.102 44.7651H130.396V50.394C130.396 50.5731 130.421 50.7109 130.471 50.8076C130.525 50.9007 130.598 50.9634 130.691 50.9956C130.785 51.0278 130.894 51.0439 131.019 51.0439C131.109 51.0439 131.194 51.0386 131.277 51.0278C131.359 51.0171 131.425 51.0063 131.476 50.9956L131.481 51.9839C131.374 52.0161 131.248 52.0448 131.105 52.0698C130.965 52.0949 130.804 52.1074 130.622 52.1074C130.324 52.1074 130.061 52.0555 129.832 51.9517C129.603 51.8442 129.424 51.6706 129.295 51.4307C129.166 51.1908 129.102 50.8721 129.102 50.4746V44.7651ZM135.708 50.8345V48.063C135.708 47.8553 135.67 47.6763 135.595 47.5259C135.52 47.3755 135.405 47.2591 135.251 47.1768C135.101 47.0944 134.911 47.0532 134.682 47.0532C134.471 47.0532 134.288 47.089 134.134 47.1606C133.98 47.2323 133.86 47.3289 133.774 47.4507C133.688 47.5724 133.646 47.7103 133.646 47.8643H132.356C132.356 47.6351 132.412 47.4131 132.523 47.1982C132.634 46.9834 132.795 46.7918 133.006 46.6235C133.218 46.4552 133.47 46.3228 133.764 46.2261C134.057 46.1294 134.387 46.0811 134.752 46.0811C135.189 46.0811 135.576 46.1545 135.912 46.3013C136.252 46.4481 136.519 46.6701 136.712 46.9673C136.909 47.2609 137.008 47.6297 137.008 48.0737V50.6572C137.008 50.9222 137.026 51.1603 137.062 51.3716C137.101 51.5793 137.156 51.7601 137.228 51.9141V52H135.901C135.84 51.8604 135.792 51.6831 135.756 51.4683C135.724 51.2498 135.708 51.0386 135.708 50.8345ZM135.896 48.4658L135.907 49.2661H134.978C134.738 49.2661 134.526 49.2894 134.344 49.3359C134.161 49.3789 134.009 49.4434 133.887 49.5293C133.765 49.6152 133.674 49.7191 133.613 49.8408C133.552 49.9626 133.522 50.1004 133.522 50.2544C133.522 50.4084 133.558 50.5498 133.629 50.6787C133.701 50.804 133.805 50.9025 133.941 50.9741C134.081 51.0457 134.249 51.0815 134.446 51.0815C134.711 51.0815 134.942 51.0278 135.139 50.9204C135.339 50.8094 135.497 50.6751 135.611 50.5176C135.726 50.3564 135.787 50.2043 135.794 50.061L136.213 50.6357C136.17 50.7826 136.097 50.9401 135.993 51.1084C135.889 51.2767 135.753 51.4378 135.584 51.5918C135.42 51.7422 135.221 51.8657 134.988 51.9624C134.759 52.0591 134.494 52.1074 134.193 52.1074C133.814 52.1074 133.475 52.0322 133.178 51.8818C132.881 51.7279 132.648 51.522 132.48 51.2642C132.312 51.0028 132.228 50.7074 132.228 50.3779C132.228 50.07 132.285 49.7979 132.399 49.5615C132.518 49.3216 132.689 49.1211 132.915 48.96C133.144 48.7988 133.424 48.6771 133.753 48.5947C134.082 48.5088 134.458 48.4658 134.881 48.4658H135.896ZM139.645 47.4292V52H138.351V46.1885H139.57L139.645 47.4292ZM139.414 48.8794L138.995 48.874C138.999 48.4622 139.056 48.0845 139.167 47.7407C139.282 47.397 139.439 47.1016 139.64 46.8545C139.844 46.6074 140.087 46.4176 140.37 46.2852C140.653 46.1491 140.968 46.0811 141.315 46.0811C141.595 46.0811 141.847 46.1204 142.073 46.1992C142.302 46.2744 142.497 46.3979 142.658 46.5698C142.823 46.7417 142.948 46.9655 143.034 47.2412C143.12 47.5133 143.163 47.8481 143.163 48.2456V52H141.863V48.2402C141.863 47.9609 141.822 47.7407 141.74 47.5796C141.661 47.4149 141.545 47.2985 141.391 47.2305C141.24 47.1589 141.052 47.123 140.827 47.123C140.605 47.123 140.406 47.1696 140.23 47.2627C140.055 47.3558 139.906 47.4829 139.785 47.644C139.667 47.8052 139.575 47.9914 139.511 48.2026C139.446 48.4139 139.414 48.6395 139.414 48.8794ZM146.858 51.0762C147.07 51.0762 147.259 51.035 147.428 50.9526C147.6 50.8667 147.737 50.7485 147.841 50.5981C147.949 50.4478 148.008 50.2741 148.019 50.0771H149.238C149.231 50.4531 149.12 50.7951 148.905 51.103C148.69 51.411 148.405 51.6562 148.051 51.8389C147.696 52.0179 147.304 52.1074 146.875 52.1074C146.431 52.1074 146.044 52.0322 145.714 51.8818C145.385 51.7279 145.111 51.5166 144.893 51.248C144.674 50.9795 144.509 50.6698 144.398 50.3188C144.291 49.9679 144.237 49.592 144.237 49.1909V49.0029C144.237 48.6019 144.291 48.2259 144.398 47.875C144.509 47.5205 144.674 47.209 144.893 46.9404C145.111 46.6719 145.385 46.4624 145.714 46.312C146.044 46.158 146.429 46.0811 146.869 46.0811C147.335 46.0811 147.743 46.1742 148.094 46.3604C148.445 46.543 148.72 46.799 148.921 47.1284C149.125 47.4543 149.231 47.8338 149.238 48.2671H148.019C148.008 48.0522 147.954 47.8589 147.857 47.687C147.764 47.5116 147.632 47.3719 147.46 47.2681C147.292 47.1642 147.089 47.1123 146.853 47.1123C146.592 47.1123 146.375 47.166 146.203 47.2734C146.031 47.3773 145.897 47.5205 145.8 47.7031C145.704 47.8822 145.634 48.0845 145.591 48.3101C145.551 48.5321 145.532 48.763 145.532 49.0029V49.1909C145.532 49.4308 145.551 49.6636 145.591 49.8892C145.63 50.1147 145.698 50.3171 145.795 50.4961C145.895 50.6715 146.031 50.813 146.203 50.9204C146.375 51.0243 146.593 51.0762 146.858 51.0762ZM152.793 52.1074C152.364 52.1074 151.975 52.0376 151.628 51.8979C151.284 51.7547 150.991 51.556 150.747 51.3018C150.507 51.0475 150.323 50.7485 150.194 50.4048C150.065 50.061 150 49.6904 150 49.293V49.0781C150 48.6234 150.067 48.2116 150.199 47.8428C150.332 47.474 150.516 47.1589 150.752 46.8975C150.989 46.6325 151.268 46.4302 151.59 46.2905C151.913 46.1509 152.262 46.0811 152.638 46.0811C153.053 46.0811 153.417 46.1509 153.728 46.2905C154.04 46.4302 154.297 46.6271 154.501 46.8813C154.709 47.132 154.863 47.431 154.963 47.7783C155.067 48.1257 155.119 48.5088 155.119 48.9277V49.481H150.629V48.5518H153.841V48.4497C153.834 48.217 153.787 47.9985 153.701 47.7944C153.619 47.5903 153.492 47.4256 153.32 47.3003C153.148 47.175 152.919 47.1123 152.632 47.1123C152.417 47.1123 152.226 47.1589 152.058 47.252C151.893 47.3415 151.755 47.4722 151.644 47.644C151.533 47.8159 151.447 48.0236 151.386 48.2671C151.329 48.507 151.3 48.7773 151.3 49.0781V49.293C151.3 49.5472 151.334 49.7835 151.402 50.002C151.474 50.2168 151.578 50.4048 151.714 50.5659C151.85 50.7271 152.015 50.8542 152.208 50.9473C152.401 51.0368 152.622 51.0815 152.869 51.0815C153.18 51.0815 153.458 51.0189 153.701 50.8936C153.945 50.7682 154.156 50.591 154.335 50.3618L155.017 51.0225C154.892 51.2051 154.729 51.3805 154.528 51.5488C154.328 51.7135 154.083 51.8478 153.792 51.9517C153.506 52.0555 153.173 52.1074 152.793 52.1074ZM163.616 49.4541H164.959C164.916 49.9661 164.773 50.4227 164.529 50.8237C164.286 51.2212 163.944 51.5345 163.503 51.7637C163.063 51.9928 162.528 52.1074 161.897 52.1074C161.414 52.1074 160.979 52.0215 160.592 51.8496C160.206 51.6742 159.874 51.4271 159.599 51.1084C159.323 50.7861 159.112 50.3976 158.965 49.9429C158.822 49.4881 158.75 48.9797 158.75 48.4175V47.7676C158.75 47.2054 158.823 46.6969 158.97 46.2422C159.121 45.7874 159.335 45.3989 159.615 45.0767C159.894 44.7508 160.229 44.502 160.619 44.3301C161.013 44.1582 161.455 44.0723 161.946 44.0723C162.569 44.0723 163.095 44.1868 163.525 44.416C163.955 44.6452 164.288 44.9621 164.524 45.3667C164.764 45.7713 164.911 46.235 164.964 46.7578H163.622C163.586 46.4212 163.507 46.133 163.385 45.8931C163.267 45.6532 163.092 45.4705 162.859 45.3452C162.626 45.2163 162.322 45.1519 161.946 45.1519C161.638 45.1519 161.369 45.2091 161.14 45.3237C160.911 45.4383 160.719 45.6066 160.565 45.8286C160.411 46.0506 160.295 46.3245 160.216 46.6504C160.141 46.9727 160.104 47.3415 160.104 47.7568V48.4175C160.104 48.8114 160.138 49.1694 160.206 49.4917C160.277 49.8104 160.385 50.0843 160.528 50.3135C160.675 50.5426 160.861 50.7199 161.086 50.8452C161.312 50.9705 161.582 51.0332 161.897 51.0332C162.281 51.0332 162.59 50.9723 162.827 50.8506C163.067 50.7288 163.247 50.5516 163.369 50.3188C163.494 50.0825 163.577 49.7943 163.616 49.4541ZM167.333 43.75V52H166.044V43.75H167.333ZM167.107 48.8794L166.688 48.874C166.692 48.473 166.748 48.1024 166.855 47.7622C166.966 47.422 167.12 47.1266 167.317 46.876C167.517 46.6217 167.757 46.4266 168.037 46.2905C168.316 46.1509 168.626 46.0811 168.966 46.0811C169.252 46.0811 169.51 46.1204 169.739 46.1992C169.972 46.278 170.173 46.4051 170.341 46.5806C170.509 46.7524 170.636 46.978 170.722 47.2573C170.812 47.533 170.856 47.8696 170.856 48.2671V52H169.557V48.2563C169.557 47.9771 169.515 47.755 169.433 47.5903C169.354 47.4256 169.238 47.3075 169.084 47.2358C168.93 47.1606 168.742 47.123 168.52 47.123C168.287 47.123 168.081 47.1696 167.902 47.2627C167.727 47.3558 167.58 47.4829 167.462 47.644C167.344 47.8052 167.254 47.9914 167.193 48.2026C167.136 48.4139 167.107 48.6395 167.107 48.8794ZM175.443 50.8345V48.063C175.443 47.8553 175.406 47.6763 175.331 47.5259C175.255 47.3755 175.141 47.2591 174.987 47.1768C174.836 47.0944 174.647 47.0532 174.417 47.0532C174.206 47.0532 174.024 47.089 173.87 47.1606C173.716 47.2323 173.596 47.3289 173.51 47.4507C173.424 47.5724 173.381 47.7103 173.381 47.8643H172.092C172.092 47.6351 172.147 47.4131 172.258 47.1982C172.369 46.9834 172.53 46.7918 172.742 46.6235C172.953 46.4552 173.205 46.3228 173.499 46.2261C173.793 46.1294 174.122 46.0811 174.487 46.0811C174.924 46.0811 175.311 46.1545 175.647 46.3013C175.988 46.4481 176.254 46.6701 176.448 46.9673C176.645 47.2609 176.743 47.6297 176.743 48.0737V50.6572C176.743 50.9222 176.761 51.1603 176.797 51.3716C176.836 51.5793 176.892 51.7601 176.963 51.9141V52H175.637C175.576 51.8604 175.528 51.6831 175.492 51.4683C175.459 51.2498 175.443 51.0386 175.443 50.8345ZM175.631 48.4658L175.642 49.2661H174.713C174.473 49.2661 174.262 49.2894 174.079 49.3359C173.896 49.3789 173.744 49.4434 173.623 49.5293C173.501 49.6152 173.41 49.7191 173.349 49.8408C173.288 49.9626 173.257 50.1004 173.257 50.2544C173.257 50.4084 173.293 50.5498 173.365 50.6787C173.436 50.804 173.54 50.9025 173.676 50.9741C173.816 51.0457 173.984 51.0815 174.181 51.0815C174.446 51.0815 174.677 51.0278 174.874 50.9204C175.075 50.8094 175.232 50.6751 175.347 50.5176C175.461 50.3564 175.522 50.2043 175.529 50.061L175.948 50.6357C175.905 50.7826 175.832 50.9401 175.728 51.1084C175.624 51.2767 175.488 51.4378 175.32 51.5918C175.155 51.7422 174.956 51.8657 174.724 51.9624C174.494 52.0591 174.229 52.1074 173.929 52.1074C173.549 52.1074 173.211 52.0322 172.914 51.8818C172.616 51.7279 172.384 51.522 172.215 51.2642C172.047 51.0028 171.963 50.7074 171.963 50.3779C171.963 50.07 172.02 49.7979 172.135 49.5615C172.253 49.3216 172.425 49.1211 172.65 48.96C172.88 48.7988 173.159 48.6771 173.488 48.5947C173.818 48.5088 174.194 48.4658 174.616 48.4658H175.631ZM179.38 47.4292V52H178.086V46.1885H179.305L179.38 47.4292ZM179.149 48.8794L178.73 48.874C178.734 48.4622 178.791 48.0845 178.902 47.7407C179.017 47.397 179.174 47.1016 179.375 46.8545C179.579 46.6074 179.823 46.4176 180.105 46.2852C180.388 46.1491 180.703 46.0811 181.051 46.0811C181.33 46.0811 181.583 46.1204 181.808 46.1992C182.037 46.2744 182.232 46.3979 182.394 46.5698C182.558 46.7417 182.684 46.9655 182.77 47.2412C182.855 47.5133 182.898 47.8481 182.898 48.2456V52H181.599V48.2402C181.599 47.9609 181.557 47.7407 181.475 47.5796C181.396 47.4149 181.28 47.2985 181.126 47.2305C180.976 47.1589 180.788 47.123 180.562 47.123C180.34 47.123 180.141 47.1696 179.966 47.2627C179.79 47.3558 179.642 47.4829 179.52 47.644C179.402 47.8052 179.311 47.9914 179.246 48.2026C179.182 48.4139 179.149 48.6395 179.149 48.8794ZM186.594 51.0762C186.805 51.0762 186.995 51.035 187.163 50.9526C187.335 50.8667 187.473 50.7485 187.577 50.5981C187.684 50.4478 187.743 50.2741 187.754 50.0771H188.973C188.966 50.4531 188.855 50.7951 188.64 51.103C188.425 51.411 188.141 51.6562 187.786 51.8389C187.432 52.0179 187.04 52.1074 186.61 52.1074C186.166 52.1074 185.779 52.0322 185.45 51.8818C185.12 51.7279 184.846 51.5166 184.628 51.248C184.41 50.9795 184.245 50.6698 184.134 50.3188C184.026 49.9679 183.973 49.592 183.973 49.1909V49.0029C183.973 48.6019 184.026 48.2259 184.134 47.875C184.245 47.5205 184.41 47.209 184.628 46.9404C184.846 46.6719 185.12 46.4624 185.45 46.312C185.779 46.158 186.164 46.0811 186.604 46.0811C187.07 46.0811 187.478 46.1742 187.829 46.3604C188.18 46.543 188.456 46.799 188.656 47.1284C188.86 47.4543 188.966 47.8338 188.973 48.2671H187.754C187.743 48.0522 187.689 47.8589 187.593 47.687C187.5 47.5116 187.367 47.3719 187.195 47.2681C187.027 47.1642 186.825 47.1123 186.588 47.1123C186.327 47.1123 186.11 47.166 185.938 47.2734C185.767 47.3773 185.632 47.5205 185.536 47.7031C185.439 47.8822 185.369 48.0845 185.326 48.3101C185.287 48.5321 185.267 48.763 185.267 49.0029V49.1909C185.267 49.4308 185.287 49.6636 185.326 49.8892C185.366 50.1147 185.434 50.3171 185.53 50.4961C185.631 50.6715 185.767 50.813 185.938 50.9204C186.11 51.0243 186.329 51.0762 186.594 51.0762ZM192.529 52.1074C192.099 52.1074 191.711 52.0376 191.363 51.8979C191.02 51.7547 190.726 51.556 190.482 51.3018C190.243 51.0475 190.058 50.7485 189.929 50.4048C189.8 50.061 189.736 49.6904 189.736 49.293V49.0781C189.736 48.6234 189.802 48.2116 189.935 47.8428C190.067 47.474 190.251 47.1589 190.488 46.8975C190.724 46.6325 191.003 46.4302 191.326 46.2905C191.648 46.1509 191.997 46.0811 192.373 46.0811C192.788 46.0811 193.152 46.1509 193.463 46.2905C193.775 46.4302 194.033 46.6271 194.237 46.8813C194.444 47.132 194.598 47.431 194.699 47.7783C194.803 48.1257 194.854 48.5088 194.854 48.9277V49.481H190.364V48.5518H193.576V48.4497C193.569 48.217 193.522 47.9985 193.437 47.7944C193.354 47.5903 193.227 47.4256 193.055 47.3003C192.883 47.175 192.654 47.1123 192.368 47.1123C192.153 47.1123 191.961 47.1589 191.793 47.252C191.628 47.3415 191.49 47.4722 191.379 47.644C191.268 47.8159 191.182 48.0236 191.122 48.2671C191.064 48.507 191.036 48.7773 191.036 49.0781V49.293C191.036 49.5472 191.07 49.7835 191.138 50.002C191.209 50.2168 191.313 50.4048 191.449 50.5659C191.585 50.7271 191.75 50.8542 191.943 50.9473C192.137 51.0368 192.357 51.0815 192.604 51.0815C192.916 51.0815 193.193 51.0189 193.437 50.8936C193.68 50.7682 193.891 50.591 194.07 50.3618L194.752 51.0225C194.627 51.2051 194.464 51.3805 194.264 51.5488C194.063 51.7135 193.818 51.8478 193.528 51.9517C193.241 52.0555 192.908 52.1074 192.529 52.1074ZM199.125 50.4263C199.125 50.2974 199.092 50.181 199.028 50.0771C198.963 49.9697 198.84 49.873 198.657 49.7871C198.478 49.7012 198.213 49.6224 197.862 49.5508C197.554 49.4827 197.271 49.4022 197.014 49.3091C196.759 49.2124 196.541 49.096 196.358 48.96C196.176 48.8239 196.034 48.6628 195.934 48.4766C195.834 48.2904 195.784 48.0755 195.784 47.832C195.784 47.5957 195.836 47.3719 195.939 47.1606C196.043 46.9494 196.192 46.7632 196.385 46.6021C196.579 46.4409 196.813 46.3138 197.089 46.2207C197.368 46.1276 197.68 46.0811 198.023 46.0811C198.51 46.0811 198.928 46.1634 199.275 46.3281C199.626 46.4893 199.894 46.7095 200.081 46.9888C200.267 47.2645 200.36 47.576 200.36 47.9233H199.065C199.065 47.7694 199.026 47.6261 198.947 47.4937C198.872 47.3576 198.757 47.2484 198.604 47.166C198.45 47.0801 198.256 47.0371 198.023 47.0371C197.801 47.0371 197.617 47.0729 197.47 47.1445C197.327 47.2126 197.22 47.3021 197.148 47.4131C197.08 47.5241 197.046 47.6458 197.046 47.7783C197.046 47.875 197.064 47.9627 197.1 48.0415C197.139 48.1167 197.203 48.1865 197.293 48.251C197.382 48.3118 197.504 48.3691 197.658 48.4229C197.816 48.4766 198.013 48.5285 198.249 48.5786C198.693 48.6717 199.074 48.7917 199.393 48.9385C199.715 49.0817 199.962 49.2679 200.134 49.4971C200.306 49.7227 200.392 50.0091 200.392 50.3564C200.392 50.6143 200.337 50.8506 200.226 51.0654C200.118 51.2767 199.961 51.4611 199.753 51.6187C199.545 51.7726 199.296 51.8926 199.006 51.9785C198.72 52.0645 198.398 52.1074 198.04 52.1074C197.513 52.1074 197.067 52.0143 196.702 51.8281C196.337 51.6383 196.059 51.3966 195.87 51.103C195.683 50.8058 195.59 50.4979 195.59 50.1792H196.842C196.856 50.4191 196.922 50.6107 197.041 50.7539C197.162 50.8936 197.313 50.9956 197.492 51.0601C197.674 51.1209 197.862 51.1514 198.056 51.1514C198.288 51.1514 198.484 51.1209 198.641 51.0601C198.799 50.9956 198.919 50.9097 199.001 50.8022C199.083 50.6912 199.125 50.5659 199.125 50.4263Z" fill="white"/>
<rect x="24" y="63" width="94" height="22" rx="4" fill="white"/>
<path d="M36.2651 75.0835H34.2295V74.0146H36.2651C36.6196 74.0146 36.9061 73.9574 37.1245 73.8428C37.3429 73.7282 37.5023 73.5706 37.6025 73.3701C37.7064 73.166 37.7583 72.9333 37.7583 72.6719C37.7583 72.4248 37.7064 72.1938 37.6025 71.979C37.5023 71.7606 37.3429 71.5851 37.1245 71.4526C36.9061 71.3201 36.6196 71.2539 36.2651 71.2539H34.6431V78H33.2949V70.1797H36.2651C36.8703 70.1797 37.3841 70.2871 37.8066 70.502C38.2327 70.7132 38.5568 71.0068 38.7788 71.3828C39.0008 71.7552 39.1118 72.1813 39.1118 72.6611C39.1118 73.166 39.0008 73.5993 38.7788 73.9609C38.5568 74.3226 38.2327 74.6001 37.8066 74.7935C37.3841 74.9868 36.8703 75.0835 36.2651 75.0835ZM41.4912 73.2949V78H40.1968V72.1885H41.4321L41.4912 73.2949ZM43.269 72.1509L43.2583 73.354C43.1795 73.3397 43.0936 73.3289 43.0005 73.3218C42.911 73.3146 42.8215 73.311 42.7319 73.311C42.5099 73.311 42.3148 73.3433 42.1465 73.4077C41.9782 73.4686 41.8368 73.5581 41.7222 73.6763C41.6112 73.7909 41.5252 73.9305 41.4644 74.0952C41.4035 74.2599 41.3677 74.4443 41.3569 74.6484L41.0615 74.6699C41.0615 74.3047 41.0973 73.9663 41.1689 73.6548C41.2406 73.3433 41.348 73.0693 41.4912 72.833C41.638 72.5967 41.8206 72.4123 42.0391 72.2798C42.2611 72.1473 42.5171 72.0811 42.8071 72.0811C42.8859 72.0811 42.9701 72.0882 43.0596 72.1025C43.1527 72.1169 43.2225 72.133 43.269 72.1509ZM46.5347 78.1074C46.105 78.1074 45.7165 78.0376 45.3691 77.8979C45.0254 77.7547 44.7318 77.556 44.4883 77.3018C44.2484 77.0475 44.064 76.7485 43.9351 76.4048C43.8062 76.061 43.7417 75.6904 43.7417 75.293V75.0781C43.7417 74.6234 43.8079 74.2116 43.9404 73.8428C44.0729 73.474 44.2573 73.1589 44.4937 72.8975C44.73 72.6325 45.0093 72.4302 45.3315 72.2905C45.6538 72.1509 46.0029 72.0811 46.3789 72.0811C46.7943 72.0811 47.1577 72.1509 47.4692 72.2905C47.7808 72.4302 48.0386 72.6271 48.2427 72.8813C48.4504 73.132 48.6043 73.431 48.7046 73.7783C48.8084 74.1257 48.8604 74.5088 48.8604 74.9277V75.481H44.3701V74.5518H47.582V74.4497C47.5749 74.217 47.5283 73.9985 47.4424 73.7944C47.36 73.5903 47.2329 73.4256 47.061 73.3003C46.8892 73.175 46.66 73.1123 46.3735 73.1123C46.1587 73.1123 45.9671 73.1589 45.7988 73.252C45.6341 73.3415 45.4963 73.4722 45.3853 73.644C45.2743 73.8159 45.1883 74.0236 45.1274 74.2671C45.0701 74.507 45.0415 74.7773 45.0415 75.0781V75.293C45.0415 75.5472 45.0755 75.7835 45.1436 76.002C45.2152 76.2168 45.319 76.4048 45.4551 76.5659C45.5911 76.7271 45.7559 76.8542 45.9492 76.9473C46.1426 77.0368 46.3628 77.0815 46.6099 77.0815C46.9214 77.0815 47.1989 77.0189 47.4424 76.8936C47.6859 76.7682 47.8971 76.591 48.0762 76.3618L48.7583 77.0225C48.633 77.2051 48.4701 77.3805 48.2695 77.5488C48.069 77.7135 47.8237 77.8478 47.5337 77.9517C47.2472 78.0555 46.9142 78.1074 46.5347 78.1074ZM53.415 76.7969V69.75H54.7148V78H53.5386L53.415 76.7969ZM49.6338 75.1587V75.0459C49.6338 74.6055 49.6857 74.2044 49.7896 73.8428C49.8934 73.4775 50.0438 73.1642 50.2407 72.9028C50.4377 72.6379 50.6776 72.4355 50.9604 72.2959C51.2433 72.1527 51.562 72.0811 51.9165 72.0811C52.2674 72.0811 52.5754 72.1491 52.8403 72.2852C53.1053 72.4212 53.3309 72.6164 53.5171 72.8706C53.7033 73.1213 53.8519 73.422 53.9629 73.7729C54.0739 74.1203 54.1527 74.507 54.1992 74.9331V75.293C54.1527 75.7083 54.0739 76.0879 53.9629 76.4316C53.8519 76.7754 53.7033 77.0726 53.5171 77.3232C53.3309 77.5739 53.1035 77.7673 52.835 77.9033C52.57 78.0394 52.2603 78.1074 51.9058 78.1074C51.5549 78.1074 51.238 78.034 50.9551 77.8872C50.6758 77.7404 50.4377 77.5345 50.2407 77.2695C50.0438 77.0046 49.8934 76.693 49.7896 76.335C49.6857 75.9733 49.6338 75.5812 49.6338 75.1587ZM50.9282 75.0459V75.1587C50.9282 75.4237 50.9515 75.6707 50.998 75.8999C51.0482 76.1291 51.1252 76.3314 51.229 76.5068C51.3328 76.6787 51.4671 76.8148 51.6318 76.915C51.8001 77.0117 52.0007 77.0601 52.2334 77.0601C52.527 77.0601 52.7687 76.9956 52.9585 76.8667C53.1483 76.7378 53.2969 76.5641 53.4043 76.3457C53.5153 76.1237 53.5905 75.8766 53.6299 75.6045V74.6323C53.6084 74.4211 53.5636 74.2241 53.4956 74.0415C53.4312 73.8589 53.3434 73.6995 53.2324 73.5635C53.1214 73.4238 52.9836 73.3164 52.8188 73.2412C52.6577 73.1624 52.4661 73.123 52.2441 73.123C52.0078 73.123 51.8073 73.1732 51.6426 73.2734C51.4779 73.3737 51.3418 73.5116 51.2344 73.687C51.1305 73.8625 51.0535 74.0666 51.0034 74.2993C50.9533 74.5321 50.9282 74.7809 50.9282 75.0459ZM57.4541 72.1885V78H56.1543V72.1885H57.4541ZM56.0684 70.6631C56.0684 70.4661 56.1328 70.3032 56.2617 70.1743C56.3942 70.0418 56.5768 69.9756 56.8096 69.9756C57.0387 69.9756 57.2196 70.0418 57.3521 70.1743C57.4845 70.3032 57.5508 70.4661 57.5508 70.6631C57.5508 70.8564 57.4845 71.0176 57.3521 71.1465C57.2196 71.2754 57.0387 71.3398 56.8096 71.3398C56.5768 71.3398 56.3942 71.2754 56.2617 71.1465C56.1328 71.0176 56.0684 70.8564 56.0684 70.6631ZM61.2461 77.0762C61.4574 77.0762 61.6471 77.035 61.8154 76.9526C61.9873 76.8667 62.1252 76.7485 62.229 76.5981C62.3364 76.4478 62.3955 76.2741 62.4062 76.0771H63.6255C63.6183 76.4531 63.5073 76.7951 63.2925 77.103C63.0776 77.411 62.793 77.6562 62.4385 77.8389C62.084 78.0179 61.6919 78.1074 61.2622 78.1074C60.8182 78.1074 60.4315 78.0322 60.1021 77.8818C59.7726 77.7279 59.4987 77.5166 59.2803 77.248C59.0618 76.9795 58.8971 76.6698 58.7861 76.3188C58.6787 75.9679 58.625 75.592 58.625 75.1909V75.0029C58.625 74.6019 58.6787 74.2259 58.7861 73.875C58.8971 73.5205 59.0618 73.209 59.2803 72.9404C59.4987 72.6719 59.7726 72.4624 60.1021 72.312C60.4315 72.158 60.8164 72.0811 61.2568 72.0811C61.7223 72.0811 62.1305 72.1742 62.4814 72.3604C62.8324 72.543 63.1081 72.799 63.3086 73.1284C63.5127 73.4543 63.6183 73.8338 63.6255 74.2671H62.4062C62.3955 74.0522 62.3418 73.8589 62.2451 73.687C62.152 73.5116 62.0195 73.3719 61.8477 73.2681C61.6794 73.1642 61.4771 73.1123 61.2407 73.1123C60.9793 73.1123 60.7627 73.166 60.5908 73.2734C60.4189 73.3773 60.2847 73.5205 60.188 73.7031C60.0913 73.8822 60.0215 74.0845 59.9785 74.3101C59.9391 74.5321 59.9194 74.763 59.9194 75.0029V75.1909C59.9194 75.4308 59.9391 75.6636 59.9785 75.8892C60.0179 76.1147 60.0859 76.3171 60.1826 76.4961C60.2829 76.6715 60.4189 76.813 60.5908 76.9204C60.7627 77.0243 60.9811 77.0762 61.2461 77.0762ZM67.2832 72.1885V73.1338H64.0068V72.1885H67.2832ZM64.9521 70.7651H66.2466V76.394C66.2466 76.5731 66.2716 76.7109 66.3218 76.8076C66.3755 76.9007 66.4489 76.9634 66.542 76.9956C66.6351 77.0278 66.7443 77.0439 66.8696 77.0439C66.9591 77.0439 67.0451 77.0386 67.1274 77.0278C67.2098 77.0171 67.276 77.0063 67.3262 76.9956L67.3315 77.9839C67.2241 78.0161 67.0988 78.0448 66.9556 78.0698C66.8159 78.0949 66.6548 78.1074 66.4722 78.1074C66.175 78.1074 65.9118 78.0555 65.6826 77.9517C65.4535 77.8442 65.2744 77.6706 65.1455 77.4307C65.0166 77.1908 64.9521 76.8721 64.9521 76.4746V70.7651ZM77.354 70.1797V78H76.0059L72.4985 72.3979V78H71.1504V70.1797H72.4985L76.0166 75.7925V70.1797H77.354ZM78.584 75.1587V75.0352C78.584 74.6162 78.6449 74.2277 78.7666 73.8696C78.8883 73.508 79.0638 73.1947 79.293 72.9297C79.5257 72.6611 79.8086 72.4535 80.1416 72.3066C80.4782 72.1562 80.8577 72.0811 81.2803 72.0811C81.7064 72.0811 82.0859 72.1562 82.4189 72.3066C82.7555 72.4535 83.0402 72.6611 83.2729 72.9297C83.5057 73.1947 83.6829 73.508 83.8047 73.8696C83.9264 74.2277 83.9873 74.6162 83.9873 75.0352V75.1587C83.9873 75.5776 83.9264 75.9661 83.8047 76.3242C83.6829 76.6823 83.5057 76.9956 83.2729 77.2642C83.0402 77.5291 82.7573 77.7368 82.4243 77.8872C82.0913 78.034 81.7135 78.1074 81.291 78.1074C80.8649 78.1074 80.4836 78.034 80.147 77.8872C79.814 77.7368 79.5311 77.5291 79.2983 77.2642C79.0656 76.9956 78.8883 76.6823 78.7666 76.3242C78.6449 75.9661 78.584 75.5776 78.584 75.1587ZM79.8784 75.0352V75.1587C79.8784 75.4201 79.9053 75.6672 79.959 75.8999C80.0127 76.1326 80.0968 76.3368 80.2114 76.5122C80.326 76.6877 80.4728 76.8255 80.6519 76.9258C80.8309 77.026 81.0439 77.0762 81.291 77.0762C81.5309 77.0762 81.7386 77.026 81.9141 76.9258C82.0931 76.8255 82.2399 76.6877 82.3545 76.5122C82.4691 76.3368 82.5532 76.1326 82.6069 75.8999C82.6642 75.6672 82.6929 75.4201 82.6929 75.1587V75.0352C82.6929 74.7773 82.6642 74.5339 82.6069 74.3047C82.5532 74.0719 82.4673 73.866 82.3491 73.687C82.2345 73.508 82.0877 73.3683 81.9087 73.2681C81.7332 73.1642 81.5238 73.1123 81.2803 73.1123C81.0368 73.1123 80.8255 73.1642 80.6465 73.2681C80.471 73.3683 80.326 73.508 80.2114 73.687C80.0968 73.866 80.0127 74.0719 79.959 74.3047C79.9053 74.5339 79.8784 74.7773 79.8784 75.0352ZM86.6514 76.7109L87.9941 72.1885H88.8213L88.5957 73.542L87.2422 78H86.501L86.6514 76.7109ZM85.8618 72.1885L86.9092 76.7324L86.9951 78H86.168L84.5942 72.1885H85.8618ZM90.0781 76.6787L91.0933 72.1885H92.3555L90.7871 78H89.96L90.0781 76.6787ZM88.9609 72.1885L90.2876 76.6572L90.4541 78H89.7129L88.3433 73.5366L88.1177 72.1885H88.9609Z" fill="#1199AE"/>
<mask id="mask0_7131_17312" style="mask-type:alpha" maskUnits="userSpaceOnUse" x="95" y="67" width="15" height="14">
<rect x="95.5" y="67" width="14" height="14" fill="#D9D9D9"/>
</mask>
<g mask="url(#mask0_7131_17312)">
<path d="M103.113 73.9999L100.721 71.6083C100.614 71.5013 100.561 71.3774 100.561 71.2364C100.561 71.0954 100.614 70.9715 100.721 70.8645C100.828 70.7576 100.952 70.7041 101.093 70.7041C101.234 70.7041 101.359 70.7592 101.47 70.8694L104.236 73.6354C104.284 73.6879 104.321 73.7447 104.345 73.806C104.369 73.8672 104.381 73.9329 104.381 74.0029C104.381 74.0729 104.369 74.1385 104.345 74.1997C104.321 74.261 104.284 74.3159 104.236 74.3645L101.47 77.1304C101.359 77.2407 101.236 77.2933 101.1 77.2885C100.964 77.2836 100.842 77.2277 100.736 77.1208C100.629 77.0138 100.575 76.8899 100.575 76.7489C100.575 76.6079 100.629 76.484 100.736 76.377L103.113 73.9999Z" fill="#1199AE"/>
</g>
<g clip-path="url(#clip1_7131_17312)">
<path d="M276.664 61.0147L272.631 62.8041C271.767 63.1874 271.093 63.8956 270.755 64.7729C270.418 65.6502 270.445 66.6248 270.831 67.4823L272.633 71.4879C272.824 71.9125 273.098 72.2957 273.438 72.6155C273.778 72.9352 274.178 73.1853 274.615 73.3515C275.052 73.5176 275.518 73.5966 275.986 73.5838C276.454 73.5711 276.915 73.4669 277.343 73.2772L281.375 71.4864C282.238 71.1031 282.912 70.3949 283.25 69.5176C283.587 68.6403 283.56 67.6657 283.175 66.8082L281.373 62.8012C280.988 61.9438 280.275 61.2737 279.392 60.9384C278.508 60.6031 277.527 60.6315 276.664 61.0147Z" fill="#FC8D36"/>
<path d="M279.917 59.5684L269.376 64.2494L270.743 67.2897L281.286 62.6086L279.917 59.5684Z" fill="#F2CC61"/>
<path d="M211.875 99.2571H257.592V84.9326H226.305C224.41 84.9311 222.534 85.3006 220.783 86.0199C219.032 86.7392 217.441 87.7943 216.101 89.1247C214.761 90.4552 213.698 92.035 212.973 93.7738C212.248 95.5127 211.875 97.375 211.875 99.2571ZM368.619 99.2571H322.902V84.9326H354.189C356.084 84.9307 357.96 85.3 359.711 86.0193C361.463 86.7385 363.054 87.7937 364.394 89.1244C365.734 90.4551 366.797 92.0352 367.522 93.7744C368.247 95.5135 368.62 97.3776 368.619 99.26V99.2571Z" fill="#095F6D"/>
<path d="M352.021 63.4297H306.303V99.2588H352.021V63.4297Z" fill="#08B3CE"/>
<path d="M352.092 89.3828H306.229V93.2756H352.092V89.3828Z" fill="#72D9E9"/>
<path d="M351.951 63.4295H306.229V55.3555H343.823C345.978 55.3562 348.045 56.2071 349.569 57.7211C351.093 59.2351 351.95 61.2884 351.951 63.4295Z" fill="#5EDDF1"/>
<path d="M309.303 71.7012H315.702V84.4163H309.303V71.7012Z" fill="#117E8F"/>
<path d="M325.996 71.7012H332.396V84.4163H325.996V71.7012Z" fill="#117E8F"/>
<path d="M340.941 71.7012H347.34V84.4163H340.941V71.7012Z" fill="#117E8F"/>
<path d="M274.062 63.4297H227.637V99.2588H274.062V63.4297Z" fill="#08B3CE"/>
<path d="M273.428 89.3828H227.569V93.2756H273.428V89.3828Z" fill="#72D9E9"/>
<path d="M227.712 63.4295H273.429V55.3555H235.84C233.684 55.3555 231.617 56.2061 230.092 57.7203C228.568 59.2345 227.712 61.2881 227.712 63.4295Z" fill="#5EDDF1"/>
<path d="M262.715 71.7012H269.115V84.4163H262.715V71.7012Z" fill="#117E8F"/>
<path d="M248.139 71.7012H254.538V84.4163H248.139V71.7012Z" fill="#117E8F"/>
<path d="M231.073 71.7012H237.473V84.4163H231.073V71.7012Z" fill="#117E8F"/>
<path d="M306.312 20.752H273.511V99.1889H306.312V20.752Z" fill="#3BC5DB"/>
<path d="M307.916 46.7055H271.906C271.55 46.7055 271.261 46.9911 271.261 47.3453V50.1014C271.261 50.4555 271.548 50.7411 271.905 50.7411H307.916C308.272 50.7411 308.561 50.4555 308.561 50.1014V47.3453C308.561 47.1752 308.493 47.0121 308.372 46.8919C308.251 46.7717 308.087 46.7055 307.916 46.7055Z" fill="#72D9E9"/>
<path d="M290.351 71.1367C288.874 71.1367 287.411 71.4258 286.046 71.9875C284.681 72.5491 283.441 73.3723 282.397 74.4101C281.352 75.4479 280.524 76.6799 279.958 78.0358C279.393 79.3917 279.102 80.8449 279.103 82.3124V98.9632H300.727V81.4499C300.727 80.0958 300.459 78.7549 299.938 77.5038C299.417 76.2526 298.653 75.1157 297.689 74.1581C296.725 73.2005 295.581 72.4409 294.322 71.9228C293.062 71.4046 291.713 71.138 290.35 71.1381L290.351 71.1367Z" fill="#02404A"/>
<path d="M270.353 20.7524H309.395C309.62 20.7511 309.838 20.6727 310.012 20.5304C310.186 20.388 310.305 20.1904 310.35 19.9709C310.394 19.7514 310.361 19.5235 310.255 19.3256C310.15 19.1277 309.979 18.9719 309.772 18.8845L290.075 10.7448C289.957 10.696 289.831 10.6709 289.703 10.6709C289.575 10.6709 289.448 10.696 289.331 10.7448L269.98 18.8845C269.775 18.9728 269.605 19.1285 269.501 19.3256C269.397 19.5227 269.364 19.7494 269.407 19.9678C269.451 20.1862 269.568 20.3832 269.74 20.526C269.912 20.6687 270.129 20.7486 270.353 20.7524Z" fill="#91E6F3"/>
<path d="M298.249 37.6812C298.516 36.5896 298.562 35.4563 298.386 34.3468C298.21 33.2372 297.814 32.1733 297.221 31.2165C296.629 30.2597 295.851 29.429 294.934 28.7723C294.017 28.1155 292.977 27.6458 291.876 27.3902C290.775 27.1345 289.634 27.0981 288.518 27.2829C287.403 27.4678 286.336 27.8703 285.378 28.4671C284.42 29.064 283.59 29.8434 282.937 30.7604C282.284 31.6774 281.82 32.7138 281.572 33.8099C281.083 35.9969 281.481 38.2875 282.682 40.1842C283.882 42.0809 285.787 43.4307 287.983 43.9403C290.18 44.45 292.49 44.0784 294.412 42.9062C296.334 41.734 297.712 39.8574 298.249 37.6812Z" fill="#06A5BE"/>
<path d="M289.417 38.3838V31.2751C289.413 31.1998 289.424 31.1246 289.451 31.054C289.477 30.9834 289.518 30.9188 289.57 30.8642C289.622 30.8096 289.685 30.7661 289.755 30.7364C289.824 30.7067 289.899 30.6914 289.975 30.6914C290.051 30.6914 290.126 30.7067 290.196 30.7364C290.265 30.7661 290.328 30.8096 290.381 30.8642C290.433 30.9188 290.473 30.9834 290.5 31.054C290.526 31.1246 290.538 31.1998 290.534 31.2751V35.7162L292.109 34.1354C292.188 34.0591 292.287 34.0074 292.395 33.9868C292.503 33.9661 292.615 33.9774 292.717 34.0192C292.818 34.061 292.905 34.1315 292.967 34.222C293.029 34.3124 293.062 34.4189 293.064 34.5281C293.064 34.6012 293.049 34.6735 293.021 34.7409C292.992 34.8083 292.951 34.8694 292.898 34.9208L289.417 38.3838Z" fill="white"/>
</g>
</g>
<rect x="0.5" y="0.5" width="383" height="99" rx="3.5" stroke="#85EFFF"/>
<defs>
<linearGradient id="paint0_linear_7131_17312" x1="-5.76" y1="8.21371e-06" x2="375.175" y2="154.793" gradientUnits="userSpaceOnUse">
<stop stop-color="#71D9E9"/>
<stop offset="1" stop-color="#0A94AA"/>
</linearGradient>
<clipPath id="clip0_7131_17312">
<rect width="384" height="100" rx="4" fill="white"/>
</clipPath>
<clipPath id="clip1_7131_17312">
<rect width="207" height="111.386" fill="white" transform="translate(163 -12)"/>
</clipPath>
</defs>
</svg>
