<svg width="384" height="100" viewBox="0 0 384 100" fill="none" xmlns="http://www.w3.org/2000/svg">
<rect x="0.5" y="0.5" width="383" height="99" rx="3.5" fill="url(#paint0_linear_7131_10528)"/>
<rect x="0.5" y="0.5" width="383" height="99" rx="3.5" stroke="#A7CAFB"/>
<path d="M29.6094 26.2266H31.9453C31.8984 26.9922 31.6875 27.6719 31.3125 28.2656C30.9427 28.8594 30.4245 29.3229 29.7578 29.6562C29.0964 29.9896 28.2995 30.1562 27.3672 30.1562C26.638 30.1562 25.9844 30.0312 25.4062 29.7812C24.8281 29.526 24.3333 29.1615 23.9219 28.6875C23.5156 28.2135 23.2057 27.6406 22.9922 26.9688C22.7786 26.2969 22.6719 25.5443 22.6719 24.7109V23.9219C22.6719 23.0885 22.7812 22.3359 23 21.6641C23.224 20.987 23.5417 20.4115 23.9531 19.9375C24.3698 19.4635 24.8672 19.099 25.4453 18.8438C26.0234 18.5885 26.6693 18.4609 27.3828 18.4609C28.3307 18.4609 29.1302 18.6328 29.7812 18.9766C30.4375 19.3203 30.9453 19.7943 31.3047 20.3984C31.6693 21.0026 31.888 21.6901 31.9609 22.4609H29.6172C29.5911 22.0026 29.5 21.6146 29.3438 21.2969C29.1875 20.974 28.9505 20.7318 28.6328 20.5703C28.3203 20.4036 27.9036 20.3203 27.3828 20.3203C26.9922 20.3203 26.651 20.3932 26.3594 20.5391C26.0677 20.6849 25.8229 20.9062 25.625 21.2031C25.4271 21.5 25.2786 21.875 25.1797 22.3281C25.0859 22.776 25.0391 23.3021 25.0391 23.9062V24.7109C25.0391 25.2995 25.0833 25.8177 25.1719 26.2656C25.2604 26.7083 25.3958 27.0833 25.5781 27.3906C25.7656 27.6927 26.0052 27.9219 26.2969 28.0781C26.5938 28.2292 26.9505 28.3047 27.3672 28.3047C27.8568 28.3047 28.2604 28.2266 28.5781 28.0703C28.8958 27.9141 29.138 27.6823 29.3047 27.375C29.4766 27.0677 29.5781 26.6849 29.6094 26.2266ZM32.9844 25.8594V25.6953C32.9844 25.0755 33.0729 24.5052 33.25 23.9844C33.4271 23.4583 33.6849 23.0026 34.0234 22.6172C34.362 22.2318 34.7786 21.9323 35.2734 21.7188C35.7682 21.5 36.3359 21.3906 36.9766 21.3906C37.6172 21.3906 38.1875 21.5 38.6875 21.7188C39.1875 21.9323 39.6068 22.2318 39.9453 22.6172C40.2891 23.0026 40.5495 23.4583 40.7266 23.9844C40.9036 24.5052 40.9922 25.0755 40.9922 25.6953V25.8594C40.9922 26.474 40.9036 27.0443 40.7266 27.5703C40.5495 28.0911 40.2891 28.5469 39.9453 28.9375C39.6068 29.3229 39.1901 29.6224 38.6953 29.8359C38.2005 30.0495 37.6328 30.1562 36.9922 30.1562C36.3516 30.1562 35.7812 30.0495 35.2812 29.8359C34.7865 29.6224 34.3672 29.3229 34.0234 28.9375C33.6849 28.5469 33.4271 28.0911 33.25 27.5703C33.0729 27.0443 32.9844 26.474 32.9844 25.8594ZM35.2344 25.6953V25.8594C35.2344 26.2135 35.2656 26.5443 35.3281 26.8516C35.3906 27.1589 35.4896 27.4297 35.625 27.6641C35.7656 27.8932 35.9479 28.0729 36.1719 28.2031C36.3958 28.3333 36.6693 28.3984 36.9922 28.3984C37.3047 28.3984 37.5729 28.3333 37.7969 28.2031C38.0208 28.0729 38.2005 27.8932 38.3359 27.6641C38.4714 27.4297 38.5703 27.1589 38.6328 26.8516C38.7005 26.5443 38.7344 26.2135 38.7344 25.8594V25.6953C38.7344 25.3516 38.7005 25.0286 38.6328 24.7266C38.5703 24.4193 38.4688 24.1484 38.3281 23.9141C38.1927 23.6745 38.013 23.487 37.7891 23.3516C37.5651 23.2161 37.2943 23.1484 36.9766 23.1484C36.6589 23.1484 36.388 23.2161 36.1641 23.3516C35.9453 23.487 35.7656 23.6745 35.625 23.9141C35.4896 24.1484 35.3906 24.4193 35.3281 24.7266C35.2656 25.0286 35.2344 25.3516 35.2344 25.6953ZM47.375 27.9766V21.5469H49.625V30H47.5078L47.375 27.9766ZM47.625 26.2422L48.2891 26.2266C48.2891 26.7891 48.224 27.3125 48.0938 27.7969C47.9635 28.276 47.7682 28.6927 47.5078 29.0469C47.2474 29.3958 46.9193 29.6693 46.5234 29.8672C46.1276 30.0599 45.6615 30.1562 45.125 30.1562C44.7135 30.1562 44.3333 30.099 43.9844 29.9844C43.6406 29.8646 43.3438 29.6797 43.0938 29.4297C42.849 29.1745 42.6562 28.849 42.5156 28.4531C42.3802 28.0521 42.3125 27.5703 42.3125 27.0078V21.5469H44.5625V27.0234C44.5625 27.2734 44.5911 27.4844 44.6484 27.6562C44.7109 27.8281 44.7969 27.9688 44.9062 28.0781C45.0156 28.1875 45.1432 28.2656 45.2891 28.3125C45.4401 28.3594 45.6068 28.3828 45.7891 28.3828C46.2526 28.3828 46.6172 28.2891 46.8828 28.1016C47.1536 27.9141 47.3438 27.6589 47.4531 27.3359C47.5677 27.0078 47.625 26.6432 47.625 26.2422ZM53.5938 23.3906V30H51.3438V21.5469H53.4609L53.5938 23.3906ZM56.1406 21.4922L56.1016 23.5781C55.9922 23.5625 55.8594 23.5495 55.7031 23.5391C55.5521 23.5234 55.4141 23.5156 55.2891 23.5156C54.9714 23.5156 54.6953 23.5573 54.4609 23.6406C54.2318 23.7188 54.0391 23.8359 53.8828 23.9922C53.7318 24.1484 53.6172 24.3385 53.5391 24.5625C53.4661 24.7865 53.4245 25.0417 53.4141 25.3281L52.9609 25.1875C52.9609 24.6406 53.0156 24.138 53.125 23.6797C53.2344 23.2161 53.3932 22.8125 53.6016 22.4688C53.8151 22.125 54.0755 21.8594 54.3828 21.6719C54.6901 21.4844 55.0417 21.3906 55.4375 21.3906C55.5625 21.3906 55.6901 21.401 55.8203 21.4219C55.9505 21.4375 56.0573 21.4609 56.1406 21.4922ZM61.7734 27.6641C61.7734 27.5026 61.7266 27.3568 61.6328 27.2266C61.5391 27.0964 61.3646 26.9766 61.1094 26.8672C60.8594 26.7526 60.4974 26.6484 60.0234 26.5547C59.5964 26.4609 59.1979 26.3438 58.8281 26.2031C58.4635 26.0573 58.1458 25.8828 57.875 25.6797C57.6094 25.4766 57.401 25.237 57.25 24.9609C57.099 24.6797 57.0234 24.3594 57.0234 24C57.0234 23.6458 57.099 23.3125 57.25 23C57.4062 22.6875 57.6276 22.4115 57.9141 22.1719C58.2057 21.9271 58.5599 21.737 58.9766 21.6016C59.3984 21.4609 59.8724 21.3906 60.3984 21.3906C61.1328 21.3906 61.763 21.5078 62.2891 21.7422C62.8203 21.9766 63.2266 22.2995 63.5078 22.7109C63.7943 23.1172 63.9375 23.5807 63.9375 24.1016H61.6875C61.6875 23.8828 61.6406 23.6875 61.5469 23.5156C61.4583 23.3385 61.3177 23.2005 61.125 23.1016C60.9375 22.9974 60.6927 22.9453 60.3906 22.9453C60.1406 22.9453 59.9245 22.9896 59.7422 23.0781C59.5599 23.1615 59.4193 23.276 59.3203 23.4219C59.2266 23.5625 59.1797 23.7188 59.1797 23.8906C59.1797 24.0208 59.2057 24.138 59.2578 24.2422C59.3151 24.3411 59.4062 24.4323 59.5312 24.5156C59.6562 24.599 59.8177 24.6771 60.0156 24.75C60.2188 24.8177 60.4688 24.8802 60.7656 24.9375C61.375 25.0625 61.9193 25.2266 62.3984 25.4297C62.8776 25.6276 63.2578 25.8984 63.5391 26.2422C63.8203 26.5807 63.9609 27.026 63.9609 27.5781C63.9609 27.9531 63.8776 28.2969 63.7109 28.6094C63.5443 28.9219 63.3047 29.1953 62.9922 29.4297C62.6797 29.6589 62.3047 29.8385 61.8672 29.9688C61.4349 30.0938 60.9479 30.1562 60.4062 30.1562C59.6198 30.1562 58.9531 30.0156 58.4062 29.7344C57.8646 29.4531 57.4531 29.0964 57.1719 28.6641C56.8958 28.2266 56.7578 27.7786 56.7578 27.3203H58.8906C58.901 27.6276 58.9792 27.875 59.125 28.0625C59.276 28.25 59.4661 28.3854 59.6953 28.4688C59.9297 28.5521 60.1823 28.5938 60.4531 28.5938C60.7448 28.5938 60.987 28.5547 61.1797 28.4766C61.3724 28.3932 61.5182 28.2839 61.6172 28.1484C61.7214 28.0078 61.7734 27.8464 61.7734 27.6641ZM69.3125 30.1562C68.6562 30.1562 68.0677 30.0521 67.5469 29.8438C67.026 29.6302 66.5833 29.3359 66.2188 28.9609C65.8594 28.5859 65.5833 28.151 65.3906 27.6562C65.1979 27.1562 65.1016 26.625 65.1016 26.0625V25.75C65.1016 25.1094 65.1927 24.5234 65.375 23.9922C65.5573 23.4609 65.8177 23 66.1562 22.6094C66.5 22.2188 66.9167 21.9193 67.4062 21.7109C67.8958 21.4974 68.4479 21.3906 69.0625 21.3906C69.6615 21.3906 70.1927 21.4896 70.6562 21.6875C71.1198 21.8854 71.5078 22.1667 71.8203 22.5312C72.138 22.8958 72.3776 23.3333 72.5391 23.8438C72.7005 24.349 72.7812 24.9115 72.7812 25.5312V26.4688H66.0625V24.9688H70.5703V24.7969C70.5703 24.4844 70.513 24.2057 70.3984 23.9609C70.2891 23.7109 70.1224 23.513 69.8984 23.3672C69.6745 23.2214 69.388 23.1484 69.0391 23.1484C68.7422 23.1484 68.487 23.2135 68.2734 23.3438C68.0599 23.474 67.8854 23.6562 67.75 23.8906C67.6198 24.125 67.5208 24.401 67.4531 24.7188C67.3906 25.0312 67.3594 25.375 67.3594 25.75V26.0625C67.3594 26.401 67.4062 26.7135 67.5 27C67.599 27.2865 67.737 27.5339 67.9141 27.7422C68.0964 27.9505 68.3151 28.112 68.5703 28.2266C68.8307 28.3411 69.125 28.3984 69.4531 28.3984C69.8594 28.3984 70.237 28.3203 70.5859 28.1641C70.9401 28.0026 71.2448 27.7604 71.5 27.4375L72.5938 28.625C72.4167 28.8802 72.1745 29.125 71.8672 29.3594C71.5651 29.5938 71.2005 29.7865 70.7734 29.9375C70.3464 30.0833 69.8594 30.1562 69.3125 30.1562ZM80.5312 18.625V30H78.1875V18.625H80.5312ZM85.0625 23.4844V25.3125H79.8906V23.4844H85.0625ZM85.6094 18.625V20.4609H79.8906V18.625H85.6094ZM89.2031 21.5469V30H86.9453V21.5469H89.2031ZM86.8047 19.3438C86.8047 19.0156 86.9193 18.7448 87.1484 18.5312C87.3776 18.3177 87.6849 18.2109 88.0703 18.2109C88.4505 18.2109 88.7552 18.3177 88.9844 18.5312C89.2188 18.7448 89.3359 19.0156 89.3359 19.3438C89.3359 19.6719 89.2188 19.9427 88.9844 20.1562C88.7552 20.3698 88.4505 20.4766 88.0703 20.4766C87.6849 20.4766 87.3776 20.3698 87.1484 20.1562C86.9193 19.9427 86.8047 19.6719 86.8047 19.3438ZM93.2656 23.3516V30H91.0156V21.5469H93.125L93.2656 23.3516ZM92.9375 25.4766H92.3281C92.3281 24.8516 92.4089 24.2891 92.5703 23.7891C92.7318 23.2839 92.9583 22.8542 93.25 22.5C93.5417 22.1406 93.888 21.8672 94.2891 21.6797C94.6953 21.487 95.1484 21.3906 95.6484 21.3906C96.0443 21.3906 96.4062 21.4479 96.7344 21.5625C97.0625 21.6771 97.3438 21.8594 97.5781 22.1094C97.8177 22.3594 98 22.6901 98.125 23.1016C98.2552 23.513 98.3203 24.0156 98.3203 24.6094V30H96.0547V24.6016C96.0547 24.2266 96.0026 23.9349 95.8984 23.7266C95.7943 23.5182 95.6406 23.3724 95.4375 23.2891C95.2396 23.2005 94.9948 23.1562 94.7031 23.1562C94.401 23.1562 94.138 23.2161 93.9141 23.3359C93.6953 23.4557 93.513 23.6224 93.3672 23.8359C93.2266 24.0443 93.1198 24.2891 93.0469 24.5703C92.974 24.8516 92.9375 25.1536 92.9375 25.4766ZM105.023 28.1562V18H107.289V30H105.25L105.023 28.1562ZM99.6797 25.875V25.7109C99.6797 25.0651 99.7526 24.4792 99.8984 23.9531C100.044 23.4219 100.258 22.9661 100.539 22.5859C100.82 22.2057 101.167 21.9115 101.578 21.7031C101.99 21.4948 102.458 21.3906 102.984 21.3906C103.479 21.3906 103.911 21.4948 104.281 21.7031C104.656 21.9115 104.974 22.2083 105.234 22.5938C105.5 22.974 105.714 23.4245 105.875 23.9453C106.036 24.4609 106.154 25.026 106.227 25.6406V26C106.154 26.5885 106.036 27.1354 105.875 27.6406C105.714 28.1458 105.5 28.5885 105.234 28.9688C104.974 29.3438 104.656 29.6354 104.281 29.8438C103.906 30.0521 103.469 30.1562 102.969 30.1562C102.443 30.1562 101.974 30.0495 101.562 29.8359C101.156 29.6224 100.812 29.3229 100.531 28.9375C100.255 28.5521 100.044 28.099 99.8984 27.5781C99.7526 27.0573 99.6797 26.4896 99.6797 25.875ZM101.93 25.7109V25.875C101.93 26.224 101.956 26.5495 102.008 26.8516C102.065 27.1536 102.156 27.4219 102.281 27.6562C102.411 27.8854 102.578 28.0651 102.781 28.1953C102.99 28.3203 103.242 28.3828 103.539 28.3828C103.924 28.3828 104.242 28.2969 104.492 28.125C104.742 27.9479 104.932 27.7057 105.062 27.3984C105.198 27.0911 105.276 26.737 105.297 26.3359V25.3125C105.281 24.9844 105.234 24.6901 105.156 24.4297C105.083 24.1641 104.974 23.9375 104.828 23.75C104.688 23.5625 104.51 23.4167 104.297 23.3125C104.089 23.2083 103.841 23.1562 103.555 23.1562C103.263 23.1562 103.013 23.224 102.805 23.3594C102.596 23.4896 102.427 23.6693 102.297 23.8984C102.172 24.1276 102.078 24.3984 102.016 24.7109C101.958 25.0182 101.93 25.3516 101.93 25.7109ZM112.938 30.1562C112.281 30.1562 111.693 30.0521 111.172 29.8438C110.651 29.6302 110.208 29.3359 109.844 28.9609C109.484 28.5859 109.208 28.151 109.016 27.6562C108.823 27.1562 108.727 26.625 108.727 26.0625V25.75C108.727 25.1094 108.818 24.5234 109 23.9922C109.182 23.4609 109.443 23 109.781 22.6094C110.125 22.2188 110.542 21.9193 111.031 21.7109C111.521 21.4974 112.073 21.3906 112.688 21.3906C113.286 21.3906 113.818 21.4896 114.281 21.6875C114.745 21.8854 115.133 22.1667 115.445 22.5312C115.763 22.8958 116.003 23.3333 116.164 23.8438C116.326 24.349 116.406 24.9115 116.406 25.5312V26.4688H109.688V24.9688H114.195V24.7969C114.195 24.4844 114.138 24.2057 114.023 23.9609C113.914 23.7109 113.747 23.513 113.523 23.3672C113.299 23.2214 113.013 23.1484 112.664 23.1484C112.367 23.1484 112.112 23.2135 111.898 23.3438C111.685 23.474 111.51 23.6562 111.375 23.8906C111.245 24.125 111.146 24.401 111.078 24.7188C111.016 25.0312 110.984 25.375 110.984 25.75V26.0625C110.984 26.401 111.031 26.7135 111.125 27C111.224 27.2865 111.362 27.5339 111.539 27.7422C111.721 27.9505 111.94 28.112 112.195 28.2266C112.456 28.3411 112.75 28.3984 113.078 28.3984C113.484 28.3984 113.862 28.3203 114.211 28.1641C114.565 28.0026 114.87 27.7604 115.125 27.4375L116.219 28.625C116.042 28.8802 115.799 29.125 115.492 29.3594C115.19 29.5938 114.826 29.7865 114.398 29.9375C113.971 30.0833 113.484 30.1562 112.938 30.1562ZM119.938 23.3906V30H117.688V21.5469H119.805L119.938 23.3906ZM122.484 21.4922L122.445 23.5781C122.336 23.5625 122.203 23.5495 122.047 23.5391C121.896 23.5234 121.758 23.5156 121.633 23.5156C121.315 23.5156 121.039 23.5573 120.805 23.6406C120.576 23.7188 120.383 23.8359 120.227 23.9922C120.076 24.1484 119.961 24.3385 119.883 24.5625C119.81 24.7865 119.768 25.0417 119.758 25.3281L119.305 25.1875C119.305 24.6406 119.359 24.138 119.469 23.6797C119.578 23.2161 119.737 22.8125 119.945 22.4688C120.159 22.125 120.419 21.8594 120.727 21.6719C121.034 21.4844 121.385 21.3906 121.781 21.3906C121.906 21.3906 122.034 21.401 122.164 21.4219C122.294 21.4375 122.401 21.4609 122.484 21.4922Z" fill="white"/>
<path d="M27.3555 49.8027C27.3555 49.627 27.3281 49.4707 27.2734 49.334C27.2227 49.1973 27.1309 49.0723 26.998 48.959C26.8652 48.8457 26.6777 48.7363 26.4355 48.6309C26.1973 48.5215 25.8926 48.4102 25.5215 48.2969C25.1152 48.1719 24.7402 48.0332 24.3965 47.8809C24.0566 47.7246 23.7598 47.5449 23.5059 47.3418C23.252 47.1348 23.0547 46.8984 22.9141 46.6328C22.7734 46.3633 22.7031 46.0527 22.7031 45.7012C22.7031 45.3535 22.7754 45.0371 22.9199 44.752C23.0684 44.4668 23.2773 44.2207 23.5469 44.0137C23.8203 43.8027 24.1426 43.6406 24.5137 43.5273C24.8848 43.4102 25.2949 43.3516 25.7441 43.3516C26.377 43.3516 26.9219 43.4688 27.3789 43.7031C27.8398 43.9375 28.1934 44.252 28.4395 44.6465C28.6895 45.041 28.8145 45.4766 28.8145 45.9531H27.3555C27.3555 45.6719 27.2949 45.4238 27.1738 45.209C27.0566 44.9902 26.877 44.8184 26.6348 44.6934C26.3965 44.5684 26.0938 44.5059 25.7266 44.5059C25.3789 44.5059 25.0898 44.5586 24.8594 44.6641C24.6289 44.7695 24.457 44.9121 24.3438 45.0918C24.2305 45.2715 24.1738 45.4746 24.1738 45.7012C24.1738 45.8613 24.2109 46.0078 24.2852 46.1406C24.3594 46.2695 24.4727 46.3906 24.625 46.5039C24.7773 46.6133 24.9688 46.7168 25.1992 46.8145C25.4297 46.9121 25.7012 47.0059 26.0137 47.0957C26.4863 47.2363 26.8984 47.3926 27.25 47.5645C27.6016 47.7324 27.8945 47.9238 28.1289 48.1387C28.3633 48.3535 28.5391 48.5977 28.6562 48.8711C28.7734 49.1406 28.832 49.4473 28.832 49.791C28.832 50.1504 28.7598 50.4746 28.6152 50.7637C28.4707 51.0488 28.2637 51.293 27.9941 51.4961C27.7285 51.6953 27.4082 51.8496 27.0332 51.959C26.6621 52.0645 26.248 52.1172 25.791 52.1172C25.3809 52.1172 24.9766 52.0625 24.5781 51.9531C24.1836 51.8438 23.8242 51.6777 23.5 51.4551C23.1758 51.2285 22.918 50.9473 22.7266 50.6113C22.5352 50.2715 22.4395 49.875 22.4395 49.4219H23.9102C23.9102 49.6992 23.957 49.9355 24.0508 50.1309C24.1484 50.3262 24.2832 50.4863 24.4551 50.6113C24.627 50.7324 24.8262 50.8223 25.0527 50.8809C25.2832 50.9395 25.5293 50.9688 25.791 50.9688C26.1348 50.9688 26.4219 50.9199 26.6523 50.8223C26.8867 50.7246 27.0625 50.5879 27.1797 50.4121C27.2969 50.2363 27.3555 50.0332 27.3555 49.8027ZM32.7871 52.1172C32.3184 52.1172 31.8945 52.041 31.5156 51.8887C31.1406 51.7324 30.8203 51.5156 30.5547 51.2383C30.293 50.9609 30.0918 50.6348 29.9512 50.2598C29.8105 49.8848 29.7402 49.4805 29.7402 49.0469V48.8125C29.7402 48.3164 29.8125 47.8672 29.957 47.4648C30.1016 47.0625 30.3027 46.7188 30.5605 46.4336C30.8184 46.1445 31.123 45.9238 31.4746 45.7715C31.8262 45.6191 32.207 45.543 32.6172 45.543C33.0703 45.543 33.4668 45.6191 33.8066 45.7715C34.1465 45.9238 34.4277 46.1387 34.6504 46.416C34.877 46.6895 35.0449 47.0156 35.1543 47.3945C35.2676 47.7734 35.3242 48.1914 35.3242 48.6484V49.252H30.4258V48.2383H33.9297V48.127C33.9219 47.873 33.8711 47.6348 33.7773 47.4121C33.6875 47.1895 33.5488 47.0098 33.3613 46.873C33.1738 46.7363 32.9238 46.668 32.6113 46.668C32.377 46.668 32.168 46.7188 31.9844 46.8203C31.8047 46.918 31.6543 47.0605 31.5332 47.248C31.4121 47.4355 31.3184 47.6621 31.252 47.9277C31.1895 48.1895 31.1582 48.4844 31.1582 48.8125V49.0469C31.1582 49.3242 31.1953 49.582 31.2695 49.8203C31.3477 50.0547 31.4609 50.2598 31.6094 50.4355C31.7578 50.6113 31.9375 50.75 32.1484 50.8516C32.3594 50.9492 32.5996 50.998 32.8691 50.998C33.209 50.998 33.5117 50.9297 33.7773 50.793C34.043 50.6562 34.2734 50.4629 34.4688 50.2129L35.2129 50.9336C35.0762 51.1328 34.8984 51.3242 34.6797 51.5078C34.4609 51.6875 34.1934 51.834 33.877 51.9473C33.5645 52.0605 33.2012 52.1172 32.7871 52.1172ZM40 50.7285V47.7051C40 47.4785 39.959 47.2832 39.877 47.1191C39.7949 46.9551 39.6699 46.8281 39.502 46.7383C39.3379 46.6484 39.1309 46.6035 38.8809 46.6035C38.6504 46.6035 38.4512 46.6426 38.2832 46.7207C38.1152 46.7988 37.9844 46.9043 37.8906 47.0371C37.7969 47.1699 37.75 47.3203 37.75 47.4883H36.3438C36.3438 47.2383 36.4043 46.9961 36.5254 46.7617C36.6465 46.5273 36.8223 46.3184 37.0527 46.1348C37.2832 45.9512 37.5586 45.8066 37.8789 45.7012C38.1992 45.5957 38.5586 45.543 38.957 45.543C39.4336 45.543 39.8555 45.623 40.2227 45.7832C40.5938 45.9434 40.8848 46.1855 41.0957 46.5098C41.3105 46.8301 41.418 47.2324 41.418 47.7168V50.5352C41.418 50.8242 41.4375 51.084 41.4766 51.3145C41.5195 51.541 41.5801 51.7383 41.6582 51.9062V52H40.2109C40.1445 51.8477 40.0918 51.6543 40.0527 51.4199C40.0176 51.1816 40 50.9512 40 50.7285ZM40.2051 48.1445L40.2168 49.0176H39.2031C38.9414 49.0176 38.7109 49.043 38.5117 49.0938C38.3125 49.1406 38.1465 49.2109 38.0137 49.3047C37.8809 49.3984 37.7812 49.5117 37.7148 49.6445C37.6484 49.7773 37.6152 49.9277 37.6152 50.0957C37.6152 50.2637 37.6543 50.418 37.7324 50.5586C37.8105 50.6953 37.9238 50.8027 38.0723 50.8809C38.2246 50.959 38.4082 50.998 38.623 50.998C38.9121 50.998 39.1641 50.9395 39.3789 50.8223C39.5977 50.7012 39.7695 50.5547 39.8945 50.3828C40.0195 50.207 40.0859 50.041 40.0938 49.8848L40.5508 50.5117C40.5039 50.6719 40.4238 50.8438 40.3105 51.0273C40.1973 51.2109 40.0488 51.3867 39.8652 51.5547C39.6855 51.7188 39.4688 51.8535 39.2148 51.959C38.9648 52.0645 38.6758 52.1172 38.3477 52.1172C37.9336 52.1172 37.5645 52.0352 37.2402 51.8711C36.916 51.7031 36.6621 51.4785 36.4785 51.1973C36.2949 50.9121 36.2031 50.5898 36.2031 50.2305C36.2031 49.8945 36.2656 49.5977 36.3906 49.3398C36.5195 49.0781 36.707 48.8594 36.9531 48.6836C37.2031 48.5078 37.5078 48.375 37.8672 48.2852C38.2266 48.1914 38.6367 48.1445 39.0977 48.1445H40.2051ZM44.3125 46.8672V52H42.9004V45.6602H44.248L44.3125 46.8672ZM46.252 45.6191L46.2402 46.9316C46.1543 46.916 46.0605 46.9043 45.959 46.8965C45.8613 46.8887 45.7637 46.8848 45.666 46.8848C45.4238 46.8848 45.2109 46.9199 45.0273 46.9902C44.8438 47.0566 44.6895 47.1543 44.5645 47.2832C44.4434 47.4082 44.3496 47.5605 44.2832 47.7402C44.2168 47.9199 44.1777 48.1211 44.166 48.3438L43.8438 48.3672C43.8438 47.9688 43.8828 47.5996 43.9609 47.2598C44.0391 46.9199 44.1562 46.6211 44.3125 46.3633C44.4727 46.1055 44.6719 45.9043 44.9102 45.7598C45.1523 45.6152 45.4316 45.543 45.748 45.543C45.834 45.543 45.9258 45.5508 46.0234 45.5664C46.125 45.582 46.2012 45.5996 46.252 45.6191ZM49.6094 50.9922C49.8398 50.9922 50.0469 50.9473 50.2305 50.8574C50.418 50.7637 50.5684 50.6348 50.6816 50.4707C50.7988 50.3066 50.8633 50.1172 50.875 49.9023H52.2051C52.1973 50.3125 52.0762 50.6855 51.8418 51.0215C51.6074 51.3574 51.2969 51.625 50.9102 51.8242C50.5234 52.0195 50.0957 52.1172 49.627 52.1172C49.1426 52.1172 48.7207 52.0352 48.3613 51.8711C48.002 51.7031 47.7031 51.4727 47.4648 51.1797C47.2266 50.8867 47.0469 50.5488 46.9258 50.166C46.8086 49.7832 46.75 49.373 46.75 48.9355V48.7305C46.75 48.293 46.8086 47.8828 46.9258 47.5C47.0469 47.1133 47.2266 46.7734 47.4648 46.4805C47.7031 46.1875 48.002 45.959 48.3613 45.7949C48.7207 45.627 49.1406 45.543 49.6211 45.543C50.1289 45.543 50.5742 45.6445 50.957 45.8477C51.3398 46.0469 51.6406 46.3262 51.8594 46.6855C52.082 47.041 52.1973 47.4551 52.2051 47.9277H50.875C50.8633 47.6934 50.8047 47.4824 50.6992 47.2949C50.5977 47.1035 50.4531 46.9512 50.2656 46.8379C50.082 46.7246 49.8613 46.668 49.6035 46.668C49.3184 46.668 49.082 46.7266 48.8945 46.8438C48.707 46.957 48.5605 47.1133 48.4551 47.3125C48.3496 47.5078 48.2734 47.7285 48.2266 47.9746C48.1836 48.2168 48.1621 48.4688 48.1621 48.7305V48.9355C48.1621 49.1973 48.1836 49.4512 48.2266 49.6973C48.2695 49.9434 48.3438 50.1641 48.4492 50.3594C48.5586 50.5508 48.707 50.7051 48.8945 50.8223C49.082 50.9355 49.3203 50.9922 49.6094 50.9922ZM54.6836 43V52H53.2773V43H54.6836ZM54.4375 48.5957L53.9805 48.5898C53.9844 48.1523 54.0449 47.748 54.1621 47.377C54.2832 47.0059 54.4512 46.6836 54.666 46.4102C54.8848 46.1328 55.1465 45.9199 55.4512 45.7715C55.7559 45.6191 56.0938 45.543 56.4648 45.543C56.7773 45.543 57.0586 45.5859 57.3086 45.6719C57.5625 45.7578 57.7812 45.8965 57.9648 46.0879C58.1484 46.2754 58.2871 46.5215 58.3809 46.8262C58.4785 47.127 58.5273 47.4941 58.5273 47.9277V52H57.1094V47.916C57.1094 47.6113 57.0645 47.3691 56.9746 47.1895C56.8887 47.0098 56.7617 46.8809 56.5938 46.8027C56.4258 46.7207 56.2207 46.6797 55.9785 46.6797C55.7246 46.6797 55.5 46.7305 55.3047 46.832C55.1133 46.9336 54.9531 47.0723 54.8242 47.248C54.6953 47.4238 54.5977 47.627 54.5312 47.8574C54.4688 48.0879 54.4375 48.334 54.4375 48.5957ZM64.8555 52H63.4434V45.0508C63.4434 44.5781 63.5312 44.1816 63.707 43.8613C63.8867 43.5371 64.1426 43.293 64.4746 43.1289C64.8066 42.9609 65.1992 42.877 65.6523 42.877C65.793 42.877 65.9316 42.8867 66.0684 42.9062C66.2051 42.9219 66.3379 42.9473 66.4668 42.9824L66.4316 44.0723C66.3535 44.0527 66.2676 44.0391 66.1738 44.0312C66.084 44.0234 65.9863 44.0195 65.8809 44.0195C65.666 44.0195 65.4805 44.0605 65.3242 44.1426C65.1719 44.2207 65.0547 44.3359 64.9727 44.4883C64.8945 44.6406 64.8555 44.8281 64.8555 45.0508V52ZM66.1621 45.6602V46.6914H62.4707V45.6602H66.1621ZM68.6055 46.8672V52H67.1934V45.6602H68.541L68.6055 46.8672ZM70.5449 45.6191L70.5332 46.9316C70.4473 46.916 70.3535 46.9043 70.252 46.8965C70.1543 46.8887 70.0566 46.8848 69.959 46.8848C69.7168 46.8848 69.5039 46.9199 69.3203 46.9902C69.1367 47.0566 68.9824 47.1543 68.8574 47.2832C68.7363 47.4082 68.6426 47.5605 68.5762 47.7402C68.5098 47.9199 68.4707 48.1211 68.459 48.3438L68.1367 48.3672C68.1367 47.9688 68.1758 47.5996 68.2539 47.2598C68.332 46.9199 68.4492 46.6211 68.6055 46.3633C68.7656 46.1055 68.9648 45.9043 69.2031 45.7598C69.4453 45.6152 69.7246 45.543 70.041 45.543C70.127 45.543 70.2188 45.5508 70.3164 45.5664C70.418 45.582 70.4941 45.5996 70.5449 45.6191ZM71.0078 48.9004V48.7656C71.0078 48.3086 71.0742 47.8848 71.207 47.4941C71.3398 47.0996 71.5312 46.7578 71.7812 46.4688C72.0352 46.1758 72.3438 45.9492 72.707 45.7891C73.0742 45.625 73.4883 45.543 73.9492 45.543C74.4141 45.543 74.8281 45.625 75.1914 45.7891C75.5586 45.9492 75.8691 46.1758 76.123 46.4688C76.377 46.7578 76.5703 47.0996 76.7031 47.4941C76.8359 47.8848 76.9023 48.3086 76.9023 48.7656V48.9004C76.9023 49.3574 76.8359 49.7812 76.7031 50.1719C76.5703 50.5625 76.377 50.9043 76.123 51.1973C75.8691 51.4863 75.5605 51.7129 75.1973 51.877C74.834 52.0371 74.4219 52.1172 73.9609 52.1172C73.4961 52.1172 73.0801 52.0371 72.7129 51.877C72.3496 51.7129 72.041 51.4863 71.7871 51.1973C71.5332 50.9043 71.3398 50.5625 71.207 50.1719C71.0742 49.7812 71.0078 49.3574 71.0078 48.9004ZM72.4199 48.7656V48.9004C72.4199 49.1855 72.4492 49.4551 72.5078 49.709C72.5664 49.9629 72.6582 50.1855 72.7832 50.377C72.9082 50.5684 73.0684 50.7188 73.2637 50.8281C73.459 50.9375 73.6914 50.9922 73.9609 50.9922C74.2227 50.9922 74.4492 50.9375 74.6406 50.8281C74.8359 50.7188 74.9961 50.5684 75.1211 50.377C75.2461 50.1855 75.3379 49.9629 75.3965 49.709C75.459 49.4551 75.4902 49.1855 75.4902 48.9004V48.7656C75.4902 48.4844 75.459 48.2188 75.3965 47.9688C75.3379 47.7148 75.2441 47.4902 75.1152 47.2949C74.9902 47.0996 74.8301 46.9473 74.6348 46.8379C74.4434 46.7246 74.2148 46.668 73.9492 46.668C73.6836 46.668 73.4531 46.7246 73.2578 46.8379C73.0664 46.9473 72.9082 47.0996 72.7832 47.2949C72.6582 47.4902 72.5664 47.7148 72.5078 47.9688C72.4492 48.2188 72.4199 48.4844 72.4199 48.7656ZM79.498 46.9492V52H78.0859V45.6602H79.416L79.498 46.9492ZM79.2695 48.5957L78.7891 48.5898C78.7891 48.1523 78.8438 47.748 78.9531 47.377C79.0625 47.0059 79.2227 46.6836 79.4336 46.4102C79.6445 46.1328 79.9062 45.9199 80.2188 45.7715C80.5352 45.6191 80.9004 45.543 81.3145 45.543C81.6035 45.543 81.8672 45.5859 82.1055 45.6719C82.3477 45.7539 82.5566 45.8848 82.7324 46.0645C82.9121 46.2441 83.0488 46.4746 83.1426 46.7559C83.2402 47.0371 83.2891 47.377 83.2891 47.7754V52H81.877V47.8984C81.877 47.5898 81.8301 47.3477 81.7363 47.1719C81.6465 46.9961 81.5156 46.8711 81.3438 46.7969C81.1758 46.7188 80.9746 46.6797 80.7402 46.6797C80.4746 46.6797 80.248 46.7305 80.0605 46.832C79.877 46.9336 79.7266 47.0723 79.6094 47.248C79.4922 47.4238 79.4062 47.627 79.3516 47.8574C79.2969 48.0879 79.2695 48.334 79.2695 48.5957ZM83.2012 48.2207L82.5391 48.3672C82.5391 47.9844 82.5918 47.623 82.6973 47.2832C82.8066 46.9395 82.9648 46.6387 83.1719 46.3809C83.3828 46.1191 83.6426 45.9141 83.9512 45.7656C84.2598 45.6172 84.6133 45.543 85.0117 45.543C85.3359 45.543 85.625 45.5879 85.8789 45.6777C86.1367 45.7637 86.3555 45.9004 86.5352 46.0879C86.7148 46.2754 86.8516 46.5195 86.9453 46.8203C87.0391 47.1172 87.0859 47.4766 87.0859 47.8984V52H85.668V47.8926C85.668 47.5723 85.6211 47.3242 85.5273 47.1484C85.4375 46.9727 85.3086 46.8516 85.1406 46.7852C84.9727 46.7148 84.7715 46.6797 84.5371 46.6797C84.3184 46.6797 84.125 46.7207 83.957 46.8027C83.793 46.8809 83.6543 46.9922 83.541 47.1367C83.4277 47.2773 83.3418 47.4395 83.2832 47.623C83.2285 47.8066 83.2012 48.0059 83.2012 48.2207ZM93.1035 47.0957H93.9473C94.2754 47.0957 94.5469 47.0391 94.7617 46.9258C94.9805 46.8125 95.1426 46.6562 95.248 46.457C95.3535 46.2578 95.4062 46.0293 95.4062 45.7715C95.4062 45.502 95.3574 45.2715 95.2598 45.0801C95.166 44.8848 95.0215 44.7344 94.8262 44.6289C94.6348 44.5234 94.3906 44.4707 94.0938 44.4707C93.8438 44.4707 93.6172 44.5215 93.4141 44.623C93.2148 44.7207 93.0566 44.8613 92.9395 45.0449C92.8223 45.2246 92.7637 45.4395 92.7637 45.6895H91.3457C91.3457 45.2363 91.4648 44.834 91.7031 44.4824C91.9414 44.1309 92.2656 43.8555 92.6758 43.6562C93.0898 43.4531 93.5547 43.3516 94.0703 43.3516C94.6211 43.3516 95.1016 43.4434 95.5117 43.627C95.9258 43.8066 96.248 44.0762 96.4785 44.4355C96.709 44.7949 96.8242 45.2402 96.8242 45.7715C96.8242 46.0137 96.7676 46.2598 96.6543 46.5098C96.541 46.7598 96.373 46.9883 96.1504 47.1953C95.9277 47.3984 95.6504 47.5645 95.3184 47.6934C94.9863 47.8184 94.6016 47.8809 94.1641 47.8809H93.1035V47.0957ZM93.1035 48.1973V47.4238H94.1641C94.6641 47.4238 95.0898 47.4824 95.4414 47.5996C95.7969 47.7168 96.0859 47.8789 96.3086 48.0859C96.5312 48.2891 96.6934 48.5215 96.7949 48.7832C96.9004 49.0449 96.9531 49.3223 96.9531 49.6152C96.9531 50.0137 96.8809 50.3691 96.7363 50.6816C96.5957 50.9902 96.3945 51.252 96.1328 51.4668C95.8711 51.6816 95.5645 51.8438 95.2129 51.9531C94.8652 52.0625 94.4863 52.1172 94.0762 52.1172C93.709 52.1172 93.3574 52.0664 93.0215 51.9648C92.6855 51.8633 92.3848 51.7129 92.1191 51.5137C91.8535 51.3105 91.6426 51.0586 91.4863 50.7578C91.334 50.4531 91.2578 50.1016 91.2578 49.7031H92.6699C92.6699 49.957 92.7285 50.1816 92.8457 50.377C92.9668 50.5684 93.1348 50.7188 93.3496 50.8281C93.5684 50.9375 93.8184 50.9922 94.0996 50.9922C94.3965 50.9922 94.6523 50.9395 94.8672 50.834C95.082 50.7285 95.2461 50.5723 95.3594 50.3652C95.4766 50.1582 95.5352 49.9082 95.5352 49.6152C95.5352 49.2832 95.4707 49.0137 95.3418 48.8066C95.2129 48.5996 95.0293 48.4473 94.791 48.3496C94.5527 48.248 94.2715 48.1973 93.9473 48.1973H93.1035ZM103.826 47.0195V48.4141C103.826 49.082 103.76 49.6523 103.627 50.125C103.498 50.5938 103.311 50.9746 103.064 51.2676C102.818 51.5605 102.523 51.7754 102.18 51.9121C101.84 52.0488 101.459 52.1172 101.037 52.1172C100.701 52.1172 100.389 52.0742 100.1 51.9883C99.8145 51.9023 99.5566 51.7676 99.3262 51.584C99.0957 51.4004 98.8984 51.1641 98.7344 50.875C98.5742 50.582 98.4492 50.2324 98.3594 49.8262C98.2734 49.4199 98.2305 48.9492 98.2305 48.4141V47.0195C98.2305 46.3477 98.2969 45.7812 98.4297 45.3203C98.5625 44.8555 98.752 44.4785 98.998 44.1895C99.2441 43.8965 99.5371 43.6836 99.877 43.5508C100.221 43.418 100.604 43.3516 101.025 43.3516C101.365 43.3516 101.678 43.3945 101.963 43.4805C102.252 43.5625 102.51 43.6934 102.736 43.873C102.967 44.0527 103.162 44.2871 103.322 44.5762C103.486 44.8613 103.611 45.207 103.697 45.6133C103.783 46.0156 103.826 46.4844 103.826 47.0195ZM102.414 48.6133V46.8086C102.414 46.4688 102.395 46.1699 102.355 45.9121C102.316 45.6504 102.258 45.4297 102.18 45.25C102.105 45.0664 102.012 44.918 101.898 44.8047C101.785 44.6875 101.656 44.6035 101.512 44.5527C101.367 44.498 101.205 44.4707 101.025 44.4707C100.807 44.4707 100.611 44.5137 100.439 44.5996C100.268 44.6816 100.123 44.8145 100.006 44.998C99.8887 45.1816 99.7988 45.4238 99.7363 45.7246C99.6777 46.0215 99.6484 46.3828 99.6484 46.8086V48.6133C99.6484 48.957 99.668 49.2598 99.707 49.5215C99.7461 49.7832 99.8047 50.0078 99.8828 50.1953C99.9609 50.3789 100.055 50.5312 100.164 50.6523C100.277 50.7695 100.406 50.8555 100.551 50.9102C100.699 50.9648 100.861 50.9922 101.037 50.9922C101.26 50.9922 101.457 50.9492 101.629 50.8633C101.801 50.7773 101.945 50.6406 102.062 50.4531C102.18 50.2617 102.268 50.0137 102.326 49.709C102.385 49.4043 102.414 49.0391 102.414 48.6133ZM106.779 43.4688V52H105.309V43.4688H106.779ZM111.906 43.4688L108.449 47.5762L106.48 49.6621L106.223 48.2031L107.629 46.4688L110.113 43.4688H111.906ZM110.324 52L107.518 47.957L108.531 46.9551L112.07 52H110.324ZM118.258 47.3242V48.5957H112.41V47.3242H118.258ZM116.02 44.9336V51.1445H114.654V44.9336H116.02ZM127.586 49.2227H129.051C129.004 49.7812 128.848 50.2793 128.582 50.7168C128.316 51.1504 127.943 51.4922 127.463 51.7422C126.982 51.9922 126.398 52.1172 125.711 52.1172C125.184 52.1172 124.709 52.0234 124.287 51.8359C123.865 51.6445 123.504 51.375 123.203 51.0273C122.902 50.6758 122.672 50.252 122.512 49.7559C122.355 49.2598 122.277 48.7051 122.277 48.0918V47.3828C122.277 46.7695 122.357 46.2148 122.518 45.7188C122.682 45.2227 122.916 44.7988 123.221 44.4473C123.525 44.0918 123.891 43.8203 124.316 43.6328C124.746 43.4453 125.229 43.3516 125.764 43.3516C126.443 43.3516 127.018 43.4766 127.486 43.7266C127.955 43.9766 128.318 44.3223 128.576 44.7637C128.838 45.2051 128.998 45.7109 129.057 46.2812H127.592C127.553 45.9141 127.467 45.5996 127.334 45.3379C127.205 45.0762 127.014 44.877 126.76 44.7402C126.506 44.5996 126.174 44.5293 125.764 44.5293C125.428 44.5293 125.135 44.5918 124.885 44.7168C124.635 44.8418 124.426 45.0254 124.258 45.2676C124.09 45.5098 123.963 45.8086 123.877 46.1641C123.795 46.5156 123.754 46.918 123.754 47.3711V48.0918C123.754 48.5215 123.791 48.9121 123.865 49.2637C123.943 49.6113 124.061 49.9102 124.217 50.1602C124.377 50.4102 124.58 50.6035 124.826 50.7402C125.072 50.877 125.367 50.9453 125.711 50.9453C126.129 50.9453 126.467 50.8789 126.725 50.7461C126.986 50.6133 127.184 50.4199 127.316 50.166C127.453 49.9082 127.543 49.5938 127.586 49.2227ZM129.977 48.9004V48.7656C129.977 48.3086 130.043 47.8848 130.176 47.4941C130.309 47.0996 130.5 46.7578 130.75 46.4688C131.004 46.1758 131.312 45.9492 131.676 45.7891C132.043 45.625 132.457 45.543 132.918 45.543C133.383 45.543 133.797 45.625 134.16 45.7891C134.527 45.9492 134.838 46.1758 135.092 46.4688C135.346 46.7578 135.539 47.0996 135.672 47.4941C135.805 47.8848 135.871 48.3086 135.871 48.7656V48.9004C135.871 49.3574 135.805 49.7812 135.672 50.1719C135.539 50.5625 135.346 50.9043 135.092 51.1973C134.838 51.4863 134.529 51.7129 134.166 51.877C133.803 52.0371 133.391 52.1172 132.93 52.1172C132.465 52.1172 132.049 52.0371 131.682 51.877C131.318 51.7129 131.01 51.4863 130.756 51.1973C130.502 50.9043 130.309 50.5625 130.176 50.1719C130.043 49.7812 129.977 49.3574 129.977 48.9004ZM131.389 48.7656V48.9004C131.389 49.1855 131.418 49.4551 131.477 49.709C131.535 49.9629 131.627 50.1855 131.752 50.377C131.877 50.5684 132.037 50.7188 132.232 50.8281C132.428 50.9375 132.66 50.9922 132.93 50.9922C133.191 50.9922 133.418 50.9375 133.609 50.8281C133.805 50.7188 133.965 50.5684 134.09 50.377C134.215 50.1855 134.307 49.9629 134.365 49.709C134.428 49.4551 134.459 49.1855 134.459 48.9004V48.7656C134.459 48.4844 134.428 48.2188 134.365 47.9688C134.307 47.7148 134.213 47.4902 134.084 47.2949C133.959 47.0996 133.799 46.9473 133.604 46.8379C133.412 46.7246 133.184 46.668 132.918 46.668C132.652 46.668 132.422 46.7246 132.227 46.8379C132.035 46.9473 131.877 47.0996 131.752 47.2949C131.627 47.4902 131.535 47.7148 131.477 47.9688C131.418 48.2188 131.389 48.4844 131.389 48.7656ZM140.869 50.5059V45.6602H142.287V52H140.951L140.869 50.5059ZM141.068 49.1875L141.543 49.1758C141.543 49.6016 141.496 49.9941 141.402 50.3535C141.309 50.709 141.164 51.0195 140.969 51.2852C140.773 51.5469 140.523 51.752 140.219 51.9004C139.914 52.0449 139.549 52.1172 139.123 52.1172C138.814 52.1172 138.531 52.0723 138.273 51.9824C138.016 51.8926 137.793 51.7539 137.605 51.5664C137.422 51.3789 137.279 51.1348 137.178 50.834C137.076 50.5332 137.025 50.1738 137.025 49.7559V45.6602H138.438V49.7676C138.438 49.998 138.465 50.1914 138.52 50.3477C138.574 50.5 138.648 50.623 138.742 50.7168C138.836 50.8105 138.945 50.877 139.07 50.916C139.195 50.9551 139.328 50.9746 139.469 50.9746C139.871 50.9746 140.188 50.8965 140.418 50.7402C140.652 50.5801 140.818 50.3652 140.916 50.0957C141.018 49.8262 141.068 49.5234 141.068 49.1875ZM145.152 46.8672V52H143.74V45.6602H145.088L145.152 46.8672ZM147.092 45.6191L147.08 46.9316C146.994 46.916 146.9 46.9043 146.799 46.8965C146.701 46.8887 146.604 46.8848 146.506 46.8848C146.264 46.8848 146.051 46.9199 145.867 46.9902C145.684 47.0566 145.529 47.1543 145.404 47.2832C145.283 47.4082 145.189 47.5605 145.123 47.7402C145.057 47.9199 145.018 48.1211 145.006 48.3438L144.684 48.3672C144.684 47.9688 144.723 47.5996 144.801 47.2598C144.879 46.9199 144.996 46.6211 145.152 46.3633C145.312 46.1055 145.512 45.9043 145.75 45.7598C145.992 45.6152 146.271 45.543 146.588 45.543C146.674 45.543 146.766 45.5508 146.863 45.5664C146.965 45.582 147.041 45.5996 147.092 45.6191ZM151.533 50.2832C151.533 50.1426 151.498 50.0156 151.428 49.9023C151.357 49.7852 151.223 49.6797 151.023 49.5859C150.828 49.4922 150.539 49.4062 150.156 49.3281C149.82 49.2539 149.512 49.166 149.23 49.0645C148.953 48.959 148.715 48.832 148.516 48.6836C148.316 48.5352 148.162 48.3594 148.053 48.1562C147.943 47.9531 147.889 47.7188 147.889 47.4531C147.889 47.1953 147.945 46.9512 148.059 46.7207C148.172 46.4902 148.334 46.2871 148.545 46.1113C148.756 45.9355 149.012 45.7969 149.312 45.6953C149.617 45.5938 149.957 45.543 150.332 45.543C150.863 45.543 151.318 45.6328 151.697 45.8125C152.08 45.9883 152.373 46.2285 152.576 46.5332C152.779 46.834 152.881 47.1738 152.881 47.5527H151.469C151.469 47.3848 151.426 47.2285 151.34 47.084C151.258 46.9355 151.133 46.8164 150.965 46.7266C150.797 46.6328 150.586 46.5859 150.332 46.5859C150.09 46.5859 149.889 46.625 149.729 46.7031C149.572 46.7773 149.455 46.875 149.377 46.9961C149.303 47.1172 149.266 47.25 149.266 47.3945C149.266 47.5 149.285 47.5957 149.324 47.6816C149.367 47.7637 149.438 47.8398 149.535 47.9102C149.633 47.9766 149.766 48.0391 149.934 48.0977C150.105 48.1562 150.32 48.2129 150.578 48.2676C151.062 48.3691 151.479 48.5 151.826 48.6602C152.178 48.8164 152.447 49.0195 152.635 49.2695C152.822 49.5156 152.916 49.8281 152.916 50.207C152.916 50.4883 152.855 50.7461 152.734 50.9805C152.617 51.2109 152.445 51.4121 152.219 51.584C151.992 51.752 151.721 51.8828 151.404 51.9766C151.092 52.0703 150.74 52.1172 150.35 52.1172C149.775 52.1172 149.289 52.0156 148.891 51.8125C148.492 51.6055 148.189 51.3418 147.982 51.0215C147.779 50.6973 147.678 50.3613 147.678 50.0137H149.043C149.059 50.2754 149.131 50.4844 149.26 50.6406C149.393 50.793 149.557 50.9043 149.752 50.9746C149.951 51.041 150.156 51.0742 150.367 51.0742C150.621 51.0742 150.834 51.041 151.006 50.9746C151.178 50.9043 151.309 50.8105 151.398 50.6934C151.488 50.5723 151.533 50.4355 151.533 50.2832ZM156.947 52.1172C156.479 52.1172 156.055 52.041 155.676 51.8887C155.301 51.7324 154.98 51.5156 154.715 51.2383C154.453 50.9609 154.252 50.6348 154.111 50.2598C153.971 49.8848 153.9 49.4805 153.9 49.0469V48.8125C153.9 48.3164 153.973 47.8672 154.117 47.4648C154.262 47.0625 154.463 46.7188 154.721 46.4336C154.979 46.1445 155.283 45.9238 155.635 45.7715C155.986 45.6191 156.367 45.543 156.777 45.543C157.23 45.543 157.627 45.6191 157.967 45.7715C158.307 45.9238 158.588 46.1387 158.811 46.416C159.037 46.6895 159.205 47.0156 159.314 47.3945C159.428 47.7734 159.484 48.1914 159.484 48.6484V49.252H154.586V48.2383H158.09V48.127C158.082 47.873 158.031 47.6348 157.938 47.4121C157.848 47.1895 157.709 47.0098 157.521 46.873C157.334 46.7363 157.084 46.668 156.771 46.668C156.537 46.668 156.328 46.7188 156.145 46.8203C155.965 46.918 155.814 47.0605 155.693 47.248C155.572 47.4355 155.479 47.6621 155.412 47.9277C155.35 48.1895 155.318 48.4844 155.318 48.8125V49.0469C155.318 49.3242 155.355 49.582 155.43 49.8203C155.508 50.0547 155.621 50.2598 155.77 50.4355C155.918 50.6113 156.098 50.75 156.309 50.8516C156.52 50.9492 156.76 50.998 157.029 50.998C157.369 50.998 157.672 50.9297 157.938 50.793C158.203 50.6562 158.434 50.4629 158.629 50.2129L159.373 50.9336C159.236 51.1328 159.059 51.3242 158.84 51.5078C158.621 51.6875 158.354 51.834 158.037 51.9473C157.725 52.0605 157.361 52.1172 156.947 52.1172ZM164.143 50.2832C164.143 50.1426 164.107 50.0156 164.037 49.9023C163.967 49.7852 163.832 49.6797 163.633 49.5859C163.438 49.4922 163.148 49.4062 162.766 49.3281C162.43 49.2539 162.121 49.166 161.84 49.0645C161.562 48.959 161.324 48.832 161.125 48.6836C160.926 48.5352 160.771 48.3594 160.662 48.1562C160.553 47.9531 160.498 47.7188 160.498 47.4531C160.498 47.1953 160.555 46.9512 160.668 46.7207C160.781 46.4902 160.943 46.2871 161.154 46.1113C161.365 45.9355 161.621 45.7969 161.922 45.6953C162.227 45.5938 162.566 45.543 162.941 45.543C163.473 45.543 163.928 45.6328 164.307 45.8125C164.689 45.9883 164.982 46.2285 165.186 46.5332C165.389 46.834 165.49 47.1738 165.49 47.5527H164.078C164.078 47.3848 164.035 47.2285 163.949 47.084C163.867 46.9355 163.742 46.8164 163.574 46.7266C163.406 46.6328 163.195 46.5859 162.941 46.5859C162.699 46.5859 162.498 46.625 162.338 46.7031C162.182 46.7773 162.064 46.875 161.986 46.9961C161.912 47.1172 161.875 47.25 161.875 47.3945C161.875 47.5 161.895 47.5957 161.934 47.6816C161.977 47.7637 162.047 47.8398 162.145 47.9102C162.242 47.9766 162.375 48.0391 162.543 48.0977C162.715 48.1562 162.93 48.2129 163.188 48.2676C163.672 48.3691 164.088 48.5 164.436 48.6602C164.787 48.8164 165.057 49.0195 165.244 49.2695C165.432 49.5156 165.525 49.8281 165.525 50.207C165.525 50.4883 165.465 50.7461 165.344 50.9805C165.227 51.2109 165.055 51.4121 164.828 51.584C164.602 51.752 164.33 51.8828 164.014 51.9766C163.701 52.0703 163.35 52.1172 162.959 52.1172C162.385 52.1172 161.898 52.0156 161.5 51.8125C161.102 51.6055 160.799 51.3418 160.592 51.0215C160.389 50.6973 160.287 50.3613 160.287 50.0137H161.652C161.668 50.2754 161.74 50.4844 161.869 50.6406C162.002 50.793 162.166 50.9043 162.361 50.9746C162.561 51.041 162.766 51.0742 162.977 51.0742C163.23 51.0742 163.443 51.041 163.615 50.9746C163.787 50.9043 163.918 50.8105 164.008 50.6934C164.098 50.5723 164.143 50.4355 164.143 50.2832Z" fill="white"/>
<rect x="22" y="65" width="94" height="22" rx="4" fill="white"/>
<path d="M35.9092 77.9858C35.9092 77.8247 35.8841 77.6815 35.834 77.5562C35.7874 77.4308 35.7033 77.3162 35.5815 77.2124C35.4598 77.1086 35.2879 77.0083 35.0659 76.9116C34.8475 76.8114 34.5682 76.7093 34.228 76.6055C33.8556 76.4909 33.5119 76.3638 33.1968 76.2241C32.8853 76.0809 32.6131 75.9162 32.3804 75.73C32.1476 75.5402 31.9668 75.3236 31.8379 75.0801C31.709 74.833 31.6445 74.5483 31.6445 74.2261C31.6445 73.9074 31.7108 73.6174 31.8433 73.356C31.9793 73.0946 32.1709 72.869 32.418 72.6792C32.6686 72.4858 32.964 72.3372 33.3042 72.2334C33.6444 72.126 34.0203 72.0723 34.4321 72.0723C35.0122 72.0723 35.5117 72.1797 35.9307 72.3945C36.3532 72.6094 36.6772 72.8976 36.9028 73.2593C37.132 73.6209 37.2466 74.0202 37.2466 74.457H35.9092C35.9092 74.1992 35.8537 73.9718 35.7427 73.7749C35.6353 73.5744 35.4705 73.4168 35.2485 73.3022C35.0301 73.1877 34.7526 73.1304 34.416 73.1304C34.0973 73.1304 33.8324 73.1787 33.6211 73.2754C33.4098 73.3721 33.2523 73.5028 33.1484 73.6675C33.0446 73.8322 32.9927 74.0184 32.9927 74.2261C32.9927 74.3729 33.0267 74.5072 33.0947 74.6289C33.1628 74.7471 33.2666 74.8581 33.4062 74.9619C33.5459 75.0622 33.7214 75.1571 33.9326 75.2466C34.1439 75.3361 34.3927 75.422 34.6792 75.5044C35.1125 75.6333 35.4902 75.7765 35.8125 75.9341C36.1348 76.0881 36.4033 76.2635 36.6182 76.4604C36.833 76.6574 36.9941 76.8812 37.1016 77.1318C37.209 77.3789 37.2627 77.66 37.2627 77.9751C37.2627 78.3045 37.1965 78.6017 37.064 78.8667C36.9315 79.1281 36.7417 79.3519 36.4946 79.5381C36.2511 79.7207 35.9575 79.8621 35.6138 79.9624C35.2736 80.0591 34.894 80.1074 34.4751 80.1074C34.0991 80.1074 33.7285 80.0573 33.3633 79.957C33.0016 79.8568 32.6722 79.7046 32.375 79.5005C32.0778 79.2928 31.8415 79.035 31.666 78.7271C31.4906 78.4155 31.4028 78.0521 31.4028 77.6367H32.751C32.751 77.891 32.7939 78.1076 32.8799 78.2866C32.9694 78.4657 33.0929 78.6125 33.2505 78.7271C33.408 78.8381 33.5907 78.9204 33.7983 78.9741C34.0096 79.0278 34.2352 79.0547 34.4751 79.0547C34.7902 79.0547 35.0534 79.0099 35.2646 78.9204C35.4795 78.8309 35.6406 78.7056 35.748 78.5444C35.8555 78.3833 35.9092 78.1971 35.9092 77.9858ZM40.8882 80.1074C40.4585 80.1074 40.07 80.0376 39.7227 79.8979C39.3789 79.7547 39.0853 79.556 38.8418 79.3018C38.6019 79.0475 38.4175 78.7485 38.2886 78.4048C38.1597 78.061 38.0952 77.6904 38.0952 77.293V77.0781C38.0952 76.6234 38.1615 76.2116 38.2939 75.8428C38.4264 75.474 38.6108 75.1589 38.8472 74.8975C39.0835 74.6325 39.3628 74.4302 39.6851 74.2905C40.0073 74.1509 40.3564 74.0811 40.7324 74.0811C41.1478 74.0811 41.5112 74.1509 41.8228 74.2905C42.1343 74.4302 42.3921 74.6271 42.5962 74.8813C42.8039 75.132 42.9578 75.431 43.0581 75.7783C43.1619 76.1257 43.2139 76.5088 43.2139 76.9277V77.481H38.7236V76.5518H41.9355V76.4497C41.9284 76.217 41.8818 75.9985 41.7959 75.7944C41.7135 75.5903 41.5864 75.4256 41.4146 75.3003C41.2427 75.175 41.0135 75.1123 40.7271 75.1123C40.5122 75.1123 40.3206 75.1589 40.1523 75.252C39.9876 75.3415 39.8498 75.4722 39.7388 75.644C39.6278 75.8159 39.5418 76.0236 39.481 76.2671C39.4237 76.507 39.395 76.7773 39.395 77.0781V77.293C39.395 77.5472 39.429 77.7835 39.4971 78.002C39.5687 78.2168 39.6725 78.4048 39.8086 78.5659C39.9447 78.7271 40.1094 78.8542 40.3027 78.9473C40.4961 79.0368 40.7163 79.0815 40.9634 79.0815C41.2749 79.0815 41.5524 79.0189 41.7959 78.8936C42.0394 78.7682 42.2507 78.591 42.4297 78.3618L43.1118 79.0225C42.9865 79.2051 42.8236 79.3805 42.623 79.5488C42.4225 79.7135 42.1772 79.8478 41.8872 79.9517C41.6007 80.0555 41.2677 80.1074 40.8882 80.1074ZM47.5 78.8345V76.063C47.5 75.8553 47.4624 75.6763 47.3872 75.5259C47.312 75.3755 47.1974 75.2591 47.0435 75.1768C46.8931 75.0944 46.7033 75.0532 46.4741 75.0532C46.2629 75.0532 46.0802 75.089 45.9263 75.1606C45.7723 75.2323 45.6523 75.3289 45.5664 75.4507C45.4805 75.5724 45.4375 75.7103 45.4375 75.8643H44.1484C44.1484 75.6351 44.2039 75.4131 44.3149 75.1982C44.4259 74.9834 44.5871 74.7918 44.7983 74.6235C45.0096 74.4552 45.262 74.3228 45.5557 74.2261C45.8493 74.1294 46.1787 74.0811 46.5439 74.0811C46.9808 74.0811 47.3675 74.1545 47.7041 74.3013C48.0443 74.4481 48.311 74.6701 48.5044 74.9673C48.7013 75.2609 48.7998 75.6297 48.7998 76.0737V78.6572C48.7998 78.9222 48.8177 79.1603 48.8535 79.3716C48.8929 79.5793 48.9484 79.7601 49.02 79.9141V80H47.6934C47.6325 79.8604 47.5841 79.6831 47.5483 79.4683C47.5161 79.2498 47.5 79.0386 47.5 78.8345ZM47.688 76.4658L47.6987 77.2661H46.7695C46.5296 77.2661 46.3184 77.2894 46.1357 77.3359C45.9531 77.3789 45.8009 77.4434 45.6792 77.5293C45.5575 77.6152 45.4661 77.7191 45.4053 77.8408C45.3444 77.9626 45.314 78.1004 45.314 78.2544C45.314 78.4084 45.3498 78.5498 45.4214 78.6787C45.493 78.804 45.5968 78.9025 45.7329 78.9741C45.8726 79.0457 46.0409 79.0815 46.2378 79.0815C46.5028 79.0815 46.7337 79.0278 46.9307 78.9204C47.1312 78.8094 47.2887 78.6751 47.4033 78.5176C47.5179 78.3564 47.5788 78.2043 47.5859 78.061L48.0049 78.6357C47.9619 78.7826 47.8885 78.9401 47.7847 79.1084C47.6808 79.2767 47.5448 79.4378 47.3765 79.5918C47.2118 79.7422 47.013 79.8657 46.7803 79.9624C46.5511 80.0591 46.2861 80.1074 45.9854 80.1074C45.6058 80.1074 45.2674 80.0322 44.9702 79.8818C44.673 79.7279 44.4403 79.522 44.272 79.2642C44.1037 79.0028 44.0195 78.7074 44.0195 78.3779C44.0195 78.07 44.0768 77.7979 44.1914 77.5615C44.3096 77.3216 44.4814 77.1211 44.707 76.96C44.9362 76.7988 45.2155 76.6771 45.5449 76.5947C45.8743 76.5088 46.2503 76.4658 46.6729 76.4658H47.688ZM51.4531 75.2949V80H50.1587V74.1885H51.394L51.4531 75.2949ZM53.231 74.1509L53.2202 75.354C53.1414 75.3397 53.0555 75.3289 52.9624 75.3218C52.8729 75.3146 52.7834 75.311 52.6938 75.311C52.4718 75.311 52.2767 75.3433 52.1084 75.4077C51.9401 75.4686 51.7987 75.5581 51.6841 75.6763C51.5731 75.7909 51.4871 75.9305 51.4263 76.0952C51.3654 76.2599 51.3296 76.4443 51.3188 76.6484L51.0234 76.6699C51.0234 76.3047 51.0592 75.9663 51.1309 75.6548C51.2025 75.3433 51.3099 75.0693 51.4531 74.833C51.5999 74.5967 51.7826 74.4123 52.001 74.2798C52.223 74.1473 52.479 74.0811 52.769 74.0811C52.8478 74.0811 52.932 74.0882 53.0215 74.1025C53.1146 74.1169 53.1844 74.133 53.231 74.1509ZM56.3086 79.0762C56.5199 79.0762 56.7096 79.035 56.8779 78.9526C57.0498 78.8667 57.1877 78.7485 57.2915 78.5981C57.3989 78.4478 57.458 78.2741 57.4688 78.0771H58.688C58.6808 78.4531 58.5698 78.7951 58.355 79.103C58.1401 79.411 57.8555 79.6562 57.501 79.8389C57.1465 80.0179 56.7544 80.1074 56.3247 80.1074C55.8807 80.1074 55.494 80.0322 55.1646 79.8818C54.8351 79.7279 54.5612 79.5166 54.3428 79.248C54.1243 78.9795 53.9596 78.6698 53.8486 78.3188C53.7412 77.9679 53.6875 77.592 53.6875 77.1909V77.0029C53.6875 76.6019 53.7412 76.2259 53.8486 75.875C53.9596 75.5205 54.1243 75.209 54.3428 74.9404C54.5612 74.6719 54.8351 74.4624 55.1646 74.312C55.494 74.158 55.8789 74.0811 56.3193 74.0811C56.7848 74.0811 57.193 74.1742 57.5439 74.3604C57.8949 74.543 58.1706 74.799 58.3711 75.1284C58.5752 75.4543 58.6808 75.8338 58.688 76.2671H57.4688C57.458 76.0522 57.4043 75.8589 57.3076 75.687C57.2145 75.5116 57.082 75.3719 56.9102 75.2681C56.7419 75.1642 56.5396 75.1123 56.3032 75.1123C56.0418 75.1123 55.8252 75.166 55.6533 75.2734C55.4814 75.3773 55.3472 75.5205 55.2505 75.7031C55.1538 75.8822 55.084 76.0845 55.041 76.3101C55.0016 76.5321 54.9819 76.763 54.9819 77.0029V77.1909C54.9819 77.4308 55.0016 77.6636 55.041 77.8892C55.0804 78.1147 55.1484 78.3171 55.2451 78.4961C55.3454 78.6715 55.4814 78.813 55.6533 78.9204C55.8252 79.0243 56.0436 79.0762 56.3086 79.0762ZM60.96 71.75V80H59.6709V71.75H60.96ZM60.7344 76.8794L60.3154 76.874C60.319 76.473 60.3745 76.1024 60.4819 75.7622C60.5929 75.422 60.7469 75.1266 60.9438 74.876C61.1444 74.6217 61.3843 74.4266 61.6636 74.2905C61.9429 74.1509 62.2526 74.0811 62.5928 74.0811C62.8792 74.0811 63.137 74.1204 63.3662 74.1992C63.599 74.278 63.7995 74.4051 63.9678 74.5806C64.1361 74.7524 64.2632 74.978 64.3491 75.2573C64.4386 75.533 64.4834 75.8696 64.4834 76.2671V80H63.1836V76.2563C63.1836 75.9771 63.1424 75.755 63.0601 75.5903C62.9813 75.4256 62.8649 75.3075 62.7109 75.2358C62.557 75.1606 62.369 75.123 62.147 75.123C61.9142 75.123 61.7083 75.1696 61.5293 75.2627C61.3538 75.3558 61.207 75.4829 61.0889 75.644C60.9707 75.8052 60.8812 75.9914 60.8203 76.2026C60.763 76.4139 60.7344 76.6395 60.7344 76.8794ZM74.8657 72.1797V80H73.5176L70.0103 74.3979V80H68.6621V72.1797H70.0103L73.5283 77.7925V72.1797H74.8657ZM76.0957 77.1587V77.0352C76.0957 76.6162 76.1566 76.2277 76.2783 75.8696C76.4001 75.508 76.5755 75.1947 76.8047 74.9297C77.0374 74.6611 77.3203 74.4535 77.6533 74.3066C77.9899 74.1562 78.3695 74.0811 78.792 74.0811C79.2181 74.0811 79.5977 74.1562 79.9307 74.3066C80.2673 74.4535 80.5519 74.6611 80.7847 74.9297C81.0174 75.1947 81.1947 75.508 81.3164 75.8696C81.4382 76.2277 81.499 76.6162 81.499 77.0352V77.1587C81.499 77.5776 81.4382 77.9661 81.3164 78.3242C81.1947 78.6823 81.0174 78.9956 80.7847 79.2642C80.5519 79.5291 80.269 79.7368 79.936 79.8872C79.603 80.034 79.2253 80.1074 78.8027 80.1074C78.3766 80.1074 77.9953 80.034 77.6587 79.8872C77.3257 79.7368 77.0428 79.5291 76.8101 79.2642C76.5773 78.9956 76.4001 78.6823 76.2783 78.3242C76.1566 77.9661 76.0957 77.5776 76.0957 77.1587ZM77.3901 77.0352V77.1587C77.3901 77.4201 77.417 77.6672 77.4707 77.8999C77.5244 78.1326 77.6086 78.3368 77.7231 78.5122C77.8377 78.6877 77.9845 78.8255 78.1636 78.9258C78.3426 79.026 78.5557 79.0762 78.8027 79.0762C79.0426 79.0762 79.2503 79.026 79.4258 78.9258C79.6048 78.8255 79.7516 78.6877 79.8662 78.5122C79.9808 78.3368 80.0649 78.1326 80.1187 77.8999C80.1759 77.6672 80.2046 77.4201 80.2046 77.1587V77.0352C80.2046 76.7773 80.1759 76.5339 80.1187 76.3047C80.0649 76.0719 79.979 75.866 79.8608 75.687C79.7463 75.508 79.5994 75.3683 79.4204 75.2681C79.245 75.1642 79.0355 75.1123 78.792 75.1123C78.5485 75.1123 78.3372 75.1642 78.1582 75.2681C77.9827 75.3683 77.8377 75.508 77.7231 75.687C77.6086 75.866 77.5244 76.0719 77.4707 76.3047C77.417 76.5339 77.3901 76.7773 77.3901 77.0352ZM84.1631 78.7109L85.5059 74.1885H86.333L86.1074 75.542L84.7539 80H84.0127L84.1631 78.7109ZM83.3735 74.1885L84.4209 78.7324L84.5068 80H83.6797L82.106 74.1885H83.3735ZM87.5898 78.6787L88.605 74.1885H89.8672L88.2988 80H87.4717L87.5898 78.6787ZM86.4727 74.1885L87.7993 78.6572L87.9658 80H87.2246L85.855 75.5366L85.6294 74.1885H86.4727Z" fill="#4179C8"/>
<mask id="mask0_7131_10528" style="mask-type:alpha" maskUnits="userSpaceOnUse" x="93" y="69" width="14" height="14">
<rect x="93" y="69" width="14" height="14" fill="#D9D9D9"/>
</mask>
<g mask="url(#mask0_7131_10528)">
<path d="M100.613 75.9999L98.221 73.6083C98.114 73.5013 98.0605 73.3774 98.0605 73.2364C98.0605 73.0954 98.114 72.9715 98.221 72.8645C98.3279 72.7576 98.4519 72.7041 98.5928 72.7041C98.7338 72.7041 98.8594 72.7592 98.9696 72.8694L101.736 75.6354C101.784 75.6879 101.821 75.7447 101.845 75.806C101.869 75.8672 101.881 75.9329 101.881 76.0029C101.881 76.0729 101.869 76.1385 101.845 76.1997C101.821 76.261 101.784 76.3159 101.736 76.3645L98.9696 79.1304C98.8594 79.2407 98.7362 79.2933 98.6001 79.2885C98.464 79.2836 98.3425 79.2277 98.2355 79.1208C98.1286 79.0138 98.0751 78.8899 98.0751 78.7489C98.0751 78.6079 98.1286 78.484 98.2355 78.377L100.613 75.9999Z" fill="#4179C8"/>
</g>
<path d="M360.822 23.3955C360.61 23.2854 360.394 23.1734 360.177 23.0603C360.33 22.9171 360.653 22.643 360.881 22.643C360.938 22.643 360.99 22.66 361.031 22.7015C361.206 22.8764 361.007 23.1817 360.822 23.3955ZM359.548 22.7335C359.486 22.7011 359.422 22.668 359.359 22.6357C359.419 22.6604 359.483 22.6946 359.548 22.7335Z" fill="#1AB2A4"/>
<path d="M293.891 48.483C293.891 48.483 295.402 62.5739 295.722 68.5198C295.746 68.9666 300.349 76.6815 303.223 76.1689C307.369 75.4295 310.825 68.6358 310.532 67.7011C309.293 63.7482 306.363 49.4522 305.4 46.8183C306.057 45.3245 293.891 48.483 293.891 48.483Z" fill="#E37E57"/>
<mask id="mask1_7131_10528" style="mask-type:luminance" maskUnits="userSpaceOnUse" x="293" y="46" width="18" height="31">
<path d="M293.893 48.4879C293.893 48.4879 295.404 62.5788 295.724 68.5247C295.748 68.9715 300.351 76.6864 303.225 76.1738C307.371 75.4343 310.827 68.6406 310.534 67.706C309.295 63.7531 306.365 49.4571 305.402 46.8232C306.058 45.3293 293.893 48.4879 293.893 48.4879Z" fill="white"/>
</mask>
<g mask="url(#mask1_7131_10528)">
<path d="M309.338 52.7403C309.569 53.4285 312.139 58.0827 310.562 58.6102C293.711 62.623 293.195 55.207 293.105 54.9866C293.299 54.8609 309.338 52.7403 309.338 52.7403Z" fill="#D06A46"/>
</g>
<path d="M291.787 44.4113C291.787 44.4113 288.693 43.1305 288.145 44.6948C286.993 47.9606 291.697 50.355 292.027 50.5004C292.359 50.6469 291.787 44.4113 291.787 44.4113Z" fill="#D9663E"/>
<path d="M308.963 44.1611C308.963 44.1611 311.519 42.7178 312.068 44.2844C313.213 47.5502 309.045 50.1059 308.713 50.2554C308.382 50.3993 308.963 44.1611 308.963 44.1611Z" fill="#D9663E"/>
<path fill-rule="evenodd" clip-rule="evenodd" d="M291.49 36.3297C289.613 39.5915 290.39 51.4672 293.686 55.6928C294.239 56.3105 295.956 57.7385 299.665 58.0039C304.382 57.9952 306.773 56.7369 307.715 55.6016C309.853 53.0265 310.155 39.4068 309.447 37.5596C308.905 35.1074 298.33 29.8196 291.49 36.3297Z" fill="#E37E57"/>
<mask id="mask2_7131_10528" style="mask-type:luminance" maskUnits="userSpaceOnUse" x="290" y="33" width="20" height="26">
<path fill-rule="evenodd" clip-rule="evenodd" d="M291.49 36.3287C289.613 39.5905 290.39 51.4663 293.686 55.6918C294.239 56.3095 295.956 57.7375 299.665 58.0029C304.382 57.9942 306.773 56.7359 307.715 55.6006C309.853 53.0255 310.155 39.4058 309.447 37.5586C308.905 35.1064 298.33 29.8186 291.49 36.3287Z" fill="white"/>
</mask>
<g mask="url(#mask2_7131_10528)">
<path d="M292.243 51.2979C292.182 51.2979 292.12 51.2971 292.058 51.2949C291.925 51.2906 291.795 51.2815 291.666 51.268C291.29 49.9454 291.003 48.4989 290.807 47.0352C291.183 46.9447 291.591 46.8949 292.019 46.8949C292.08 46.8949 292.142 46.896 292.204 46.8981C294.122 46.9618 295.644 47.9979 295.604 49.2118C295.565 50.3868 294.077 51.2982 292.243 51.2979Z" fill="#E4664A"/>
<path d="M308.115 51.3115C308.054 51.3115 307.993 51.3104 307.93 51.3083C306.012 51.2446 304.49 50.2089 304.53 48.9946C304.569 47.8196 306.057 46.9086 307.891 46.9086C307.953 46.9086 308.014 46.9096 308.077 46.9115C308.62 46.9296 309.132 47.0256 309.585 47.1819C309.477 48.5842 309.322 49.9715 309.117 51.217C308.801 51.2784 308.464 51.3115 308.115 51.3115Z" fill="#E4664A"/>
</g>
<mask id="mask3_7131_10528" style="mask-type:luminance" maskUnits="userSpaceOnUse" x="298" y="42" width="4" height="10">
<path d="M300.275 51.3438C300.271 51.3438 300.267 51.3437 300.263 51.3434C297.952 51.3372 298.578 49.0621 299.066 46.5776C299.565 44.0436 299.448 42.1746 300.287 42.1746C300.287 42.1746 300.288 42.1746 300.288 42.1746C301.269 42.1775 301.221 44.1367 301.607 46.7626C301.974 49.2639 302.642 51.3438 300.275 51.3438Z" fill="white"/>
</mask>
<g mask="url(#mask3_7131_10528)">
<path d="M300.275 51.3438C300.271 51.3438 300.267 51.3437 300.263 51.3434C297.952 51.3372 298.578 49.0621 299.066 46.5776C299.565 44.0436 299.448 42.1746 300.287 42.1746C300.287 42.1746 300.288 42.1746 300.288 42.1746C301.269 42.1775 301.221 44.1367 301.607 46.7626C301.974 49.2639 302.642 51.3438 300.275 51.3438Z" fill="url(#paint1_linear_7131_10528)"/>
</g>
<path d="M293.55 42.8295L293.558 42.8266C293.581 42.8164 293.649 42.7957 293.739 42.7782C294.015 42.7226 294.492 42.6866 295 42.6873C295.666 42.6863 296.407 42.7466 296.889 42.8571C297.163 42.9193 297.437 42.747 297.499 42.4725C297.561 42.198 297.389 41.925 297.114 41.8624C296.507 41.7261 295.727 41.6687 295 41.6676C294.606 41.6679 294.231 41.6854 293.909 41.7221C293.747 41.7407 293.599 41.7639 293.463 41.7945C293.326 41.8265 293.205 41.8606 293.075 41.9279C292.826 42.0591 292.73 42.3678 292.862 42.6168C292.993 42.8658 293.301 42.9611 293.55 42.8295Z" fill="#451828"/>
<path d="M303.824 42.9127L303.831 42.9095C303.855 42.8993 303.922 42.8786 304.012 42.8611C304.288 42.8055 304.765 42.7695 305.273 42.7702C305.94 42.7695 306.68 42.8295 307.163 42.94C307.437 43.0022 307.71 42.8298 307.772 42.5554C307.834 42.2809 307.662 42.0079 307.388 41.9457C306.78 41.809 306 41.7516 305.273 41.7505C304.879 41.7508 304.504 41.7683 304.182 41.805C304.02 41.8235 303.872 41.8468 303.736 41.8773C303.6 41.9093 303.478 41.9435 303.348 42.0108C303.099 42.1424 303.004 42.4507 303.135 42.6997C303.267 42.9487 303.575 43.044 303.824 42.9127Z" fill="#451828"/>
<path d="M306.497 45.6199C306.495 46.3237 306.053 46.8931 305.51 46.8916C304.967 46.8898 304.528 46.3183 304.53 45.6144C304.532 44.9106 304.974 44.3413 305.517 44.3427C306.06 44.3442 306.499 44.9161 306.497 45.6199Z" fill="#451828"/>
<path d="M295.747 45.5861C295.745 46.2896 295.303 46.8589 294.76 46.8574C294.217 46.856 293.778 46.2845 293.78 45.5806C293.782 44.8768 294.224 44.3075 294.767 44.3089C295.31 44.3104 295.749 44.8822 295.747 45.5861Z" fill="#451828"/>
<path d="M303.186 52.2728C302.36 52.4295 300.194 52.7204 297.295 52.2019C297.187 52.1827 297.06 52.279 297.137 52.5299C297.392 53.3704 298.715 55.0496 300.273 55.0009C302.719 54.9249 303.191 53.4496 303.449 52.6047C303.525 52.3554 303.426 52.2274 303.186 52.2728Z" fill="#C1352C"/>
<path d="M318.19 41.9166C319.027 41.2299 319.148 39.9945 318.461 39.158C318.071 38.6832 317.504 38.4476 316.934 38.4509C316.274 36.4226 315.064 33.2921 313.243 30.753C312.983 30.3906 312.706 30.0859 312.417 29.8267C312.159 30.0968 311.89 30.3575 311.603 30.6018C311.859 30.8181 312.109 31.0697 312.344 31.3976C314.059 33.7887 315.228 36.812 315.871 38.7752C315.815 38.8126 315.756 38.8435 315.702 38.8871C314.866 39.5742 314.745 40.8092 315.432 41.6458C315.672 41.9381 315.98 42.1373 316.314 42.2511C314.839 44.5066 316.199 48.9244 316.689 49.5203C316.962 49.8529 317.708 50.0082 318.539 49.8446C318.741 49.8046 317.537 47.9378 317.693 46.706C318.378 47.7836 319.569 49.4858 319.769 49.3618C320.27 49.051 320.732 48.5951 321.065 47.9621C318.31 46.2171 318.086 43.5075 317.845 42.1424C317.966 42.0802 318.081 42.006 318.19 41.9166Z" fill="#FFBA0A"/>
<path d="M300.267 12.3479C300.267 12.3479 322.525 24.3717 322.542 26.1909C322.559 28.0097 300.402 36.0479 300.402 36.0479C300.402 36.0479 278.279 28.4351 278.262 26.6159C278.244 24.797 300.267 12.3479 300.267 12.3479Z" fill="#32357E"/>
<path d="M310.41 36.2296C310.596 36.4157 310.676 36.748 310.859 37.0381C311.09 37.4035 311.315 37.053 311.25 36.7422C310.217 31.8324 305.728 30.1019 305.727 30.1016C304.254 29.2203 302.623 28.7433 301.016 28.5656L301.018 28.5281C300.868 28.5227 300.716 28.5245 300.564 28.5241C300.414 28.5128 300.262 28.4994 300.112 28.4932L300.111 28.5307C298.495 28.5841 296.832 28.9346 295.296 29.6998C295.295 29.6998 291.022 30.925 289.434 35.2804C289.263 35.7482 289.117 36.3936 289.689 35.8428C289.819 35.7184 289.972 35.5861 290.155 35.4494C289.962 35.9257 289.785 36.4277 289.632 36.9629C288.805 40.1665 290.258 45.8288 290.357 46.2316C290.45 46.6199 290.923 47.098 290.789 42.8826C290.665 38.6719 292.722 36.5975 294.992 36.0907C305.731 40.7514 306.88 37.8256 305.539 36.4972C307.762 37.177 310.123 39.4877 309.675 43.6762C309.217 47.8691 309.725 47.4288 309.848 47.0485C309.977 46.6544 311.394 41.0368 310.815 37.779C310.704 37.2334 310.566 36.7193 310.41 36.2296Z" fill="#9E2927"/>
<path d="M310.326 25.5964C310.355 28.6408 310.423 32.2007 310.44 33.9926C308.54 32.6871 297.073 31.1445 289.382 34.2002C289.382 34.2002 289.295 28.624 289.269 25.804C289.213 19.8479 310.269 19.4553 310.326 25.5964Z" fill="#373E9D"/>
<mask id="mask4_7131_10528" style="mask-type:luminance" maskUnits="userSpaceOnUse" x="289" y="21" width="22" height="14">
<path d="M310.326 25.5944C310.355 28.6388 310.423 32.1987 310.44 33.9907C308.54 32.6851 297.073 31.1426 289.382 34.1982C289.382 34.1982 289.295 28.6221 289.269 25.802C289.213 19.8459 310.269 19.4533 310.326 25.5944Z" fill="white"/>
</mask>
<g mask="url(#mask4_7131_10528)">
<path d="M310.779 31.4656C310.728 31.4147 310.68 31.39 310.614 31.3562C310.375 31.2377 309.904 31.0791 309.225 30.8956C307.193 30.3488 303.354 29.6202 299.2 29.6199C295.574 29.6206 291.708 30.1739 288.6 31.9088C288.512 31.9575 288.481 32.068 288.53 32.1553C288.579 32.2425 288.689 32.2738 288.776 32.2251C291.8 30.5353 295.611 29.9816 299.2 29.982C302.123 29.982 304.899 30.348 306.978 30.7538C308.018 30.9566 308.884 31.1693 309.506 31.3504C309.816 31.4405 310.066 31.523 310.244 31.5914C310.333 31.6252 310.404 31.6557 310.452 31.6801L310.508 31.7106L310.519 31.7186L310.52 31.7194L310.553 31.6823L310.517 31.7165L310.52 31.7194L310.553 31.6823L310.517 31.7165C310.587 31.7884 310.701 31.791 310.773 31.7219C310.845 31.6525 310.848 31.538 310.779 31.4656Z" fill="#5E80C9"/>
<path d="M310.789 30.3621C310.738 30.309 310.69 30.2832 310.624 30.2483C310.385 30.1265 309.915 29.9662 309.237 29.7818C307.211 29.2325 303.382 28.5076 299.235 28.5072C295.602 28.508 291.724 29.0627 288.608 30.8023C288.52 30.851 288.489 30.9616 288.538 31.0488C288.587 31.1361 288.697 31.1673 288.784 31.1186C291.816 29.4245 295.639 28.8686 299.235 28.8693C302.154 28.8693 304.922 29.2336 306.996 29.639C308.033 29.8418 308.896 30.0549 309.516 30.237C309.826 30.3279 310.075 30.4111 310.252 30.4802C310.34 30.5148 310.411 30.5457 310.459 30.5704L310.513 30.6013L310.524 30.6093L310.525 30.61L310.559 30.5737L310.522 30.6071L310.525 30.61L310.559 30.5737L310.522 30.6071C310.59 30.6805 310.704 30.6856 310.778 30.618C310.852 30.5504 310.857 30.4359 310.789 30.3621Z" fill="#5E80C9"/>
</g>
<path d="M310.146 61.7725C310.146 61.7725 303.115 66.5402 294.072 64.8631C293.899 66.2042 300.455 77.3424 303.941 77.0824C307.428 76.8221 310.146 61.7725 310.146 61.7725Z" fill="white"/>
<path d="M299.982 65.3319C299.859 65.9492 299.979 67.1224 302.26 67.6393L300.543 75.7698L304.543 76.6914L308.087 74.766L303.521 67.5339C303.521 67.5339 305.177 65.4049 304.955 64.1943C304.136 63.9886 300.104 64.7142 299.982 65.3319Z" fill="#373E9D"/>
<path d="M268.477 54.7043C272.171 53.3948 273.185 68.6283 273.818 68.4218C280.904 66.1151 291.887 62.2109 292.71 62.1186C294.391 63.9105 293.891 73.4657 291.267 79.3891C291.267 79.3891 256.748 82.4934 255.196 77.8556C253.643 73.2178 261.621 57.1346 268.477 54.7043Z" fill="#313169"/>
<path d="M308.565 59.0439C310.549 59.1715 315.82 58.427 319.35 59.153C320.913 59.9812 323.958 89.474 327.591 99.5C327.591 99.5 290 99.5 285.995 99.5C287.281 85.7268 284.826 66.0543 286.441 64.158C287.044 63.8381 294.465 61.1856 295.128 60.9468C296.036 63.5411 302.357 76.1029 304.083 75.7757C306.812 75.2587 309.412 61.2122 308.565 59.0439Z" fill="#313169"/>
<path d="M266.703 55.9055C266.698 55.9193 266.249 57.1728 266.249 59.1211C266.246 62.1004 267.311 66.7124 272.602 70.9332C272.681 70.9954 272.794 70.9827 272.857 70.9045C272.919 70.8264 272.906 70.7126 272.828 70.65C267.624 66.4921 266.614 62.0171 266.611 59.1211C266.611 58.1748 266.721 57.3982 266.829 56.8594C266.884 56.5904 266.938 56.3806 266.978 56.2392C266.999 56.1683 267.015 56.1145 267.027 56.0789L267.04 56.0393L267.044 56.0276C267.078 55.9335 267.029 55.8299 266.935 55.7961C266.841 55.7622 266.737 55.8113 266.703 55.9055Z" fill="#5E80C9"/>
<path d="M265.96 76.253L265.962 76.248C265.995 76.1796 266.34 75.4914 267.154 74.7243C267.97 73.9572 269.252 73.1101 271.177 72.7157C271.275 72.6957 271.338 72.6001 271.318 72.5019C271.298 72.4041 271.202 72.3409 271.104 72.3609C269.045 72.7819 267.676 73.7118 266.825 74.5385C265.974 75.3649 265.638 76.0865 265.631 76.1011C265.589 76.192 265.629 76.2996 265.719 76.3418C265.81 76.3836 265.918 76.3439 265.96 76.253Z" fill="#5E80C9"/>
<path d="M262.663 76.6446C262.663 76.6446 262.684 76.6239 262.726 76.5836C263.039 76.2804 264.497 74.9018 266.401 73.5879C268.303 72.2726 270.656 71.03 272.72 70.9725C272.82 70.9696 272.899 70.8863 272.896 70.7864C272.893 70.686 272.809 70.6075 272.709 70.6104C270.366 70.6835 267.807 72.1351 265.815 73.5566C263.826 74.9803 262.413 76.3832 262.408 76.3876C262.337 76.4578 262.337 76.5727 262.407 76.6436C262.478 76.7148 262.592 76.7152 262.663 76.6446Z" fill="#5E80C9"/>
<path d="M314.178 59.1726C314.371 58.587 330.802 59.9456 334.269 60.127C335.433 56.6816 335.912 30.307 337.452 30.4433C338.992 30.5797 354.006 42.6827 355.453 44.7C357.354 47.3496 347.384 69.9123 343.169 71.0102C338.954 72.1078 318.992 71.0102 318.992 71.0102C318.992 71.0102 313.986 59.758 314.178 59.1726Z" fill="#313169"/>
<path d="M338.324 64.8957L338.319 64.8935C338.248 64.8655 337.538 64.5681 336.718 63.8075C335.898 63.0463 334.966 61.8236 334.442 59.9306C334.415 59.8343 334.315 59.7776 334.219 59.8041C334.122 59.831 334.066 59.9306 334.093 60.027C334.652 62.0527 335.673 63.356 336.555 64.1489C337.437 64.9426 338.18 65.2283 338.195 65.2341C338.288 65.2697 338.393 65.2232 338.429 65.1298C338.465 65.0364 338.418 64.9316 338.324 64.8957Z" fill="#5E80C9"/>
<path d="M336.368 65.9656L336.365 65.9623C336.269 65.8736 334.448 64.1617 334.448 60.8232C334.448 60.5436 334.461 60.2524 334.488 59.9496C334.497 59.85 334.424 59.762 334.324 59.7525C334.225 59.7434 334.137 59.8169 334.128 59.9165C334.099 60.2302 334.086 60.5327 334.086 60.8232C334.086 64.4143 336.108 66.2194 336.128 66.2365C336.203 66.303 336.317 66.2961 336.384 66.2216C336.45 66.1467 336.443 66.0322 336.368 65.9656Z" fill="#5E80C9"/>
<path d="M274.669 51.0456C274.669 51.0456 283.44 47.778 286.283 47.4712C286.652 47.4312 287.384 48.0772 287.268 48.4026C287.019 48.9443 281.818 51.2543 279.538 52.706C279.458 52.7568 282.119 52.839 282.438 53.0971C282.63 53.9853 282.879 55.0367 282.739 56.7686C282.723 56.9635 281.919 57.4361 281.842 57.5379C281.744 58.2857 281.048 59.9315 280.827 60.0064C277.643 61.0851 270.313 62.311 266.923 62.5215C266.374 61.9685 266.183 58.5751 266.74 56.4247C266.83 56.3327 270.245 53.6028 274.669 51.0456Z" fill="#E37E57"/>
<mask id="mask5_7131_10528" style="mask-type:luminance" maskUnits="userSpaceOnUse" x="266" y="47" width="22" height="16">
<path d="M274.671 51.0427C274.671 51.0427 283.442 47.7751 286.285 47.4682C286.654 47.4282 287.385 48.0743 287.27 48.3997C287.021 48.9413 281.819 51.251 279.54 52.7034C279.46 52.7539 282.121 52.8361 282.44 53.0942C282.632 53.9824 282.881 55.0338 282.741 56.7657C282.725 56.9606 281.921 57.4332 281.843 57.535C281.746 58.2828 281.05 59.9286 280.829 60.0035C277.645 61.0822 270.315 62.3081 266.925 62.5186C266.376 61.9656 266.185 58.5722 266.742 56.4218C266.832 56.3298 270.247 53.5999 274.671 51.0427Z" fill="white"/>
</mask>
<g mask="url(#mask5_7131_10528)">
<path d="M282.873 51.5752L279.113 52.8255L279.176 60.817L282.413 61.0879L283.681 57.1942L282.873 51.5752Z" fill="#D06A46"/>
</g>
<path d="M279.796 56.0869C280.006 56.0127 282.563 54.9959 282.563 54.9959L279.796 56.0869Z" fill="#D06A46"/>
<path d="M279.845 56.2277C279.959 56.1874 280.646 55.9165 281.313 55.6526C281.978 55.389 282.617 55.1349 282.618 55.1349C282.695 55.104 282.732 55.0167 282.701 54.9393C282.671 54.8622 282.583 54.8244 282.506 54.8553C282.505 54.8557 281.867 55.1094 281.202 55.3726C280.538 55.6355 279.841 55.9103 279.745 55.9441C279.667 55.9718 279.625 56.0576 279.653 56.1357C279.681 56.2143 279.767 56.2554 279.845 56.2277Z" fill="#E37E57"/>
<path d="M279.987 58.4277C280.198 58.3532 282.631 56.7474 282.631 56.7474L279.987 58.4277Z" fill="#D06A46"/>
<path d="M280.037 58.5695C280.067 58.5586 280.09 58.5462 280.123 58.5288C280.357 58.4026 280.997 57.9929 281.589 57.609C282.179 57.2258 282.714 56.8728 282.714 56.8728C282.783 56.827 282.803 56.7339 282.757 56.6645C282.711 56.5951 282.618 56.5762 282.549 56.6216C282.548 56.622 282.397 56.7219 282.165 56.8735C281.819 57.1011 281.293 57.444 280.835 57.7366C280.607 57.8828 280.394 58.0165 280.231 58.1165C280.149 58.1667 280.08 58.2081 280.027 58.2383L279.962 58.2736L279.943 58.2834L279.937 58.2856V58.2859C279.859 58.3132 279.818 58.3994 279.846 58.4775C279.873 58.5561 279.959 58.5971 280.037 58.5695Z" fill="#E37E57"/>
<path d="M357.35 16.1894C357.35 16.1894 355.848 19.3923 354.474 20.4197C354.193 20.6298 352.843 19.8831 353.074 19.3509C353.627 18.0799 355.162 16.0974 356.065 15.2645C356.385 14.9693 357.497 15.6506 357.35 16.1894Z" fill="#E37E57"/>
<path d="M338.75 13.8498C341.632 13.0886 363.208 18.7642 363.94 19.2311C364.673 19.6977 358.424 49.4912 356.85 50.8717C355.308 52.2243 331.613 44.7642 331.335 43.7918C331.056 42.8194 338.75 13.8498 338.75 13.8498Z" fill="white"/>
<path d="M340.064 16.4082C337.408 26.4082 333.529 41.461 333.68 42.1257C333.831 42.3864 336.611 43.494 341.461 45.0178C345.19 46.1894 350.238 47.6183 353.224 48.1154C354.955 48.4036 355.404 48.2805 355.517 48.1812C356.075 47.6916 357.534 42.3333 359.235 34.5299C360.751 27.5725 361.82 21.5596 361.634 21.044C360.679 20.525 342.668 15.8806 340.064 16.4082ZM354.885 48.5166C352.718 48.5166 347.048 46.9299 344.414 46.1566C340.916 45.1297 333.635 42.8086 333.457 42.1886C333.215 41.343 339.178 18.8443 339.858 16.2818L339.875 16.2169L339.94 16.1998C342.475 15.5306 360.993 20.3603 361.775 20.8588C361.851 20.9069 361.868 21.0115 361.875 21.108C362.044 23.3108 356.984 47.2018 355.669 48.3549C355.541 48.4671 355.268 48.5166 354.885 48.5166Z" fill="#BDBDBD"/>
<path d="M347.388 41.6082C347.346 42.8912 346.272 43.8971 344.988 43.8552C343.706 43.8129 342.7 42.7384 342.742 41.4552C342.784 40.172 343.858 39.166 345.141 39.2082C346.425 39.2505 347.431 40.325 347.388 41.6082Z" fill="#099250"/>
<path d="M358.103 28.8093C357.925 28.8035 357.766 28.6793 357.725 28.4977C356.868 24.7588 354.087 22.2716 350.096 21.674C346.587 21.1495 342.854 22.2492 341.772 24.1269C341.661 24.3191 341.415 24.3848 341.224 24.2743C341.031 24.1635 340.966 23.9182 341.076 23.726C342.329 21.5504 346.343 20.2993 350.215 20.8798C354.55 21.5288 357.572 24.2402 358.508 28.3184C358.557 28.5344 358.422 28.7498 358.206 28.7996C358.171 28.8074 358.137 28.8105 358.103 28.8093Z" fill="#F2994A"/>
<path d="M355.381 28.8603L355.352 28.8561C351.381 27.8302 343.808 25.8801 343.568 25.8412C343.494 25.8387 343.442 25.7774 343.444 25.7036C343.447 25.6297 343.515 25.5724 343.588 25.5746C343.724 25.5791 351.907 27.6898 355.419 28.597C355.491 28.6155 355.534 28.6885 355.515 28.7599C355.499 28.8217 355.443 28.8622 355.381 28.8603Z" fill="#828282" fill-opacity="0.4"/>
<path d="M355.007 30.3593L354.978 30.3551C351.007 29.3295 343.434 27.3791 343.194 27.3405C343.12 27.338 343.068 27.2767 343.07 27.2029C343.073 27.129 343.141 27.0717 343.214 27.0739C343.35 27.0784 351.533 29.1888 355.045 30.0961C355.117 30.1145 355.16 30.1875 355.141 30.2592C355.125 30.321 355.069 30.3613 355.007 30.3593Z" fill="#828282" fill-opacity="0.4"/>
<path d="M354.488 31.8984L354.458 31.8942C350.487 30.8683 342.914 28.9179 342.674 28.8793C342.6 28.8768 342.548 28.8155 342.551 28.7417C342.553 28.6678 342.621 28.6102 342.695 28.6127C342.831 28.6172 351.014 30.7279 354.526 31.6348C354.597 31.6533 354.64 31.7263 354.622 31.7979C354.606 31.8598 354.549 31.9003 354.488 31.8984Z" fill="#828282" fill-opacity="0.4"/>
<path d="M353.542 35.3982C353.511 35.3971 353.48 35.3924 353.448 35.3837C348.926 34.1335 342.097 32.2538 341.699 32.1663C341.501 32.1355 341.353 31.9612 341.36 31.7562C341.367 31.5346 341.552 31.3609 341.774 31.3681C341.838 31.3701 341.958 31.374 353.662 34.6099C353.876 34.6686 354.002 34.8899 353.942 35.1036C353.892 35.286 353.723 35.4041 353.542 35.3982Z" fill="#BDBDBD" fill-opacity="0.5"/>
<path d="M352.552 37.9267L352.521 37.9219C348.61 36.8315 341.151 34.7582 340.906 34.7154C340.832 34.7129 340.781 34.6516 340.783 34.5778C340.786 34.5039 340.854 34.4466 340.928 34.4491C341.065 34.4536 349.131 36.6989 352.593 37.664C352.664 37.6839 352.706 37.7577 352.686 37.8288C352.669 37.8895 352.613 37.9286 352.552 37.9267Z" fill="#CDCDCD"/>
<path d="M352.18 39.4257L352.148 39.4209C348.238 38.3307 340.778 36.2575 340.533 36.2147C340.459 36.2122 340.408 36.1509 340.41 36.0771C340.413 36.0032 340.481 35.9459 340.555 35.9484C340.692 35.9529 348.759 38.1981 352.22 39.163C352.291 39.1829 352.333 39.2567 352.313 39.3281C352.296 39.3888 352.24 39.4279 352.18 39.4257Z" fill="#CDCDCD"/>
<path d="M354.492 46.0517L354.46 46.0469C352.044 45.3716 348.383 44.3572 348.201 44.3292C348.127 44.3267 348.074 44.2655 348.076 44.1916C348.078 44.1178 348.145 44.0601 348.219 44.0626C348.356 44.0671 352.68 45.2714 354.532 45.789C354.604 45.8091 354.645 45.883 354.625 45.954C354.608 46.0147 354.552 46.0539 354.492 46.0517Z" fill="#CDCDCD"/>
<path d="M341.235 41.8085L341.196 41.8015C338.792 40.9852 335.145 39.7574 334.952 39.7202C334.878 39.7177 334.827 39.6564 334.829 39.5826C334.831 39.5087 334.9 39.4514 334.974 39.4539C335.11 39.4584 338.985 40.7676 341.282 41.5478C341.352 41.5716 341.39 41.6477 341.366 41.7176C341.347 41.7747 341.292 41.8102 341.235 41.8085Z" fill="#CDCDCD"/>
<path d="M345.428 19.5154C345.428 19.5154 346.268 15.8236 347.47 14.4355C347.716 14.1516 349.299 14.6246 349.178 15.2339C348.89 16.6888 347.737 19.1126 346.983 20.1894C346.716 20.5712 345.398 20.112 345.428 19.5154Z" fill="#E37E57"/>
<path d="M347.251 19.884C347.251 19.884 348.594 16.3438 349.976 15.1353C350.259 14.8881 351.761 15.5756 351.557 16.1624C351.071 17.5635 349.594 19.8044 348.698 20.7667C348.381 21.1078 347.139 20.4708 347.251 19.884Z" fill="#E37E57"/>
<path d="M349.342 19.5713C349.342 19.5713 351.289 16.6174 352.796 15.7976C353.104 15.6304 354.333 16.5633 354.028 17.057C353.299 18.2353 351.495 19.9767 350.482 20.6714C350.123 20.9175 349.12 20.0835 349.342 19.5713Z" fill="#E37E57"/>
<path d="M300.781 64.8358C300.781 64.8358 297.527 62.6531 295.039 59.9686C294.325 60.1897 294.347 63.166 294.347 63.166L298.414 71.0137L300.781 64.8358Z" fill="white"/>
<path d="M300.781 64.8345L300.86 64.7171C300.86 64.7171 300.81 64.6837 300.717 64.6193C300.064 64.1682 297.305 62.2061 295.142 59.8713C295.105 59.8313 295.049 59.8161 294.997 59.8324C294.871 59.8717 294.775 59.9615 294.7 60.0698C294.568 60.2611 294.481 60.5246 294.413 60.8231C294.212 61.716 294.206 62.9295 294.205 63.1357L294.205 63.1658L294.221 63.2295L298.288 71.0771C298.314 71.1269 298.366 71.1563 298.422 71.1531C298.477 71.1502 298.526 71.1149 298.546 71.0629L300.913 64.8851C300.936 64.8236 300.914 64.7535 300.86 64.7171L300.781 64.8345L300.649 64.7836L298.394 70.6677L294.472 63.0997L294.346 63.1648L294.488 63.1633V63.1357C294.488 62.9859 294.493 62.2493 294.581 61.532C294.624 61.1736 294.689 60.8198 294.78 60.5526C294.826 60.4192 294.878 60.3083 294.931 60.2313C294.986 60.1535 295.038 60.1149 295.08 60.1022L295.038 59.9673L294.935 60.0633C297.438 62.7638 300.698 64.9483 300.702 64.9516L300.781 64.8345Z" fill="#5E80C9"/>
<path d="M304.06 64.3246C304.06 64.3246 306.664 60.9312 308.039 57.5392C308.785 57.4934 309.777 60.292 309.777 60.292L308.614 69.6113L304.06 64.3246Z" fill="white"/>
<path d="M304.059 64.324L304.171 64.4101C304.174 64.4047 306.783 61.0087 308.17 57.5917L308.039 57.5386L308.048 57.6797L308.057 57.6793C308.105 57.6786 308.175 57.7037 308.259 57.7684C308.405 57.8797 308.576 58.1 308.737 58.3643C308.98 58.7613 309.208 59.2568 309.374 59.6516C309.457 59.8486 309.524 60.021 309.571 60.1438C309.618 60.2664 309.644 60.3384 309.644 60.3387L309.777 60.2915L309.636 60.274L308.513 69.2774L304.166 64.232L304.059 64.324L303.952 64.4163L308.507 69.7031C308.543 69.7452 308.601 69.762 308.655 69.746C308.708 69.73 308.747 69.6838 308.754 69.6282L309.917 60.3089L309.91 60.2442C309.909 60.2413 309.664 59.5498 309.323 58.8529C309.152 58.5039 308.958 58.1538 308.752 57.8829C308.649 57.7477 308.543 57.6313 308.431 57.5445C308.319 57.4587 308.195 57.3976 308.057 57.3968L308.03 57.3979C307.976 57.4012 307.928 57.435 307.908 57.4856C307.226 59.1684 306.235 60.859 305.415 62.1267C305.004 62.7607 304.637 63.2889 304.373 63.6587C304.24 63.8433 304.134 63.9884 304.06 64.0873C303.987 64.1862 303.947 64.2378 303.947 64.2382C303.907 64.2912 303.908 64.3654 303.952 64.4163L304.059 64.324Z" fill="#5E80C9"/>
<circle cx="227" cy="60.6719" r="13" fill="white" fill-opacity="0.2"/>
<circle cx="227" cy="60.6719" r="12.75" stroke="white" stroke-opacity="0.4" stroke-width="0.5"/>
<g clip-path="url(#clip0_7131_10528)">
<path d="M232.733 64.3883L229.703 58.4676V53.8923H230.115C230.347 53.8923 230.535 53.7041 230.535 53.472C230.535 53.2399 230.347 53.0518 230.115 53.0518H224.783C224.551 53.0518 224.363 53.2399 224.363 53.472C224.363 53.7041 224.551 53.8923 224.783 53.8923H225.195V58.4676L222.165 64.3883C221.834 65.0341 221.863 65.7892 222.241 66.4081C222.62 67.0271 223.279 67.3966 224.004 67.3966H230.894C231.619 67.3966 232.278 67.0271 232.657 66.4081C233.035 65.7892 233.064 65.0341 232.733 64.3883ZM225.99 58.7604C226.02 58.7012 226.036 58.6355 226.036 58.5689V53.8923H228.862V58.5689C228.862 58.6355 228.878 58.7012 228.908 58.7604L230.078 61.0449H224.82L225.99 58.7604ZM230.894 66.5561H224.004C223.574 66.5561 223.183 66.3368 222.958 65.9696C222.832 65.7631 222.771 65.531 222.777 65.2992C222.781 65.1705 222.805 65.0418 222.849 64.9177C222.867 64.8681 224.39 61.8855 224.39 61.8855H230.508C230.508 61.8855 232.009 64.8194 232.019 64.8438C232.083 64.9904 232.117 65.1447 232.121 65.2992C232.127 65.531 232.066 65.7631 231.94 65.9696C231.715 66.3368 231.324 66.5561 230.894 66.5561Z" fill="white"/>
</g>
<circle cx="190.634" cy="76.6328" r="13" fill="white" fill-opacity="0.2"/>
<circle cx="190.634" cy="76.6328" r="12.75" stroke="white" stroke-opacity="0.4" stroke-width="0.5"/>
<mask id="path-75-outside-1_7131_10528" maskUnits="userSpaceOnUse" x="182.543" y="68.541" width="15" height="15" fill="black">
<rect fill="white" x="182.543" y="68.541" width="15" height="15"/>
<path d="M196.478 74.929L196.163 74.9157C195.892 74.9046 195.654 74.7274 195.557 74.4648C195.509 74.3362 195.456 74.2066 195.398 74.0825C195.281 73.8277 195.324 73.533 195.507 73.3335L195.72 73.1009C196.004 72.7918 195.994 72.3175 195.697 72.0206L194.745 71.0689C194.449 70.772 193.974 70.762 193.665 71.0456L193.433 71.2595C193.233 71.4434 192.938 71.4855 192.684 71.368C192.558 71.3104 192.43 71.2572 192.301 71.2096C192.039 71.1121 191.863 70.875 191.85 70.6035L191.838 70.2889C191.82 69.8701 191.478 69.541 191.058 69.541H189.711C189.291 69.541 188.949 69.869 188.931 70.2889L188.918 70.6047C188.907 70.875 188.729 71.1132 188.467 71.2107C188.338 71.2583 188.209 71.3115 188.084 71.3691C187.83 71.4866 187.535 71.4434 187.335 71.2606L187.103 71.0467C186.794 70.7631 186.32 70.7731 186.023 71.07L185.071 72.0217C184.774 72.3187 184.764 72.7929 185.048 73.102L185.261 73.3347C185.445 73.5341 185.487 73.8277 185.37 74.0836C185.312 74.2088 185.259 74.3374 185.212 74.4659C185.114 74.7285 184.877 74.9046 184.605 74.9168L184.291 74.929C183.872 74.9467 183.543 75.2891 183.543 75.709V77.0552C183.543 77.4751 183.871 77.8174 184.291 77.8352L184.607 77.8485C184.877 77.8595 185.115 78.0368 185.213 78.2994C185.261 78.429 185.315 78.5587 185.371 78.6816C185.489 78.9365 185.445 79.2312 185.263 79.4306L185.049 79.6633C184.765 79.9724 184.775 80.4466 185.072 80.7435L186.024 81.6953C186.321 81.9922 186.795 82.0022 187.104 81.7185L187.337 81.5047C187.536 81.3219 187.831 81.2787 188.086 81.3961C188.211 81.4537 188.339 81.5069 188.468 81.5546C188.73 81.6521 188.907 81.8892 188.919 82.1606L188.932 82.4764C188.95 82.8952 189.292 83.2243 189.712 83.2243H191.058C191.478 83.2243 191.82 82.8963 191.838 82.4764L191.852 82.1606C191.863 81.8903 192.04 81.6521 192.302 81.5546C192.431 81.5069 192.561 81.4537 192.685 81.3961C192.94 81.2787 193.234 81.3219 193.434 81.5047L193.666 81.7185C193.975 82.0022 194.45 81.9922 194.747 81.6953L195.698 80.7435C195.995 80.4466 196.005 79.9724 195.722 79.6633L195.508 79.4306C195.324 79.2312 195.282 78.9376 195.399 78.6816C195.456 78.5575 195.51 78.429 195.558 78.2994C195.655 78.0368 195.892 77.8606 196.164 77.8485L196.479 77.8352C196.898 77.8174 197.227 77.4751 197.227 77.0552V75.709C197.226 75.2902 196.898 74.9467 196.478 74.929ZM196.838 77.0563C196.838 77.2679 196.673 77.4396 196.462 77.4485L196.146 77.4618C195.719 77.4795 195.345 77.7565 195.193 78.1653C195.148 78.2861 195.099 78.4058 195.046 78.521C194.863 78.9187 194.932 79.3785 195.221 79.6943L195.435 79.927C195.578 80.0821 195.572 80.3214 195.424 80.471L194.472 81.4227C194.322 81.5723 194.084 81.5767 193.928 81.4338L193.695 81.22C193.38 80.9308 192.92 80.8621 192.522 81.0438C192.405 81.097 192.286 81.1468 192.166 81.1912C191.757 81.3429 191.48 81.7163 191.463 82.144L191.449 82.4598C191.44 82.6703 191.268 82.8365 191.057 82.8365H189.711C189.499 82.8365 189.328 82.6714 189.319 82.4598L189.305 82.144C189.288 81.7174 189.012 81.3429 188.602 81.1912C188.482 81.1468 188.363 81.097 188.246 81.0438C188.099 80.9762 187.943 80.943 187.788 80.943C187.526 80.943 187.271 81.0383 187.073 81.22L186.84 81.4338C186.684 81.5767 186.446 81.5712 186.296 81.4227L185.345 80.471C185.195 80.3214 185.19 80.0832 185.333 79.927L185.547 79.6943C185.836 79.3797 185.905 78.9187 185.722 78.521C185.669 78.4058 185.62 78.2861 185.575 78.1653C185.423 77.7565 185.05 77.4806 184.622 77.4618L184.306 77.4485C184.096 77.4396 183.93 77.2668 183.93 77.0563V75.709C183.93 75.4974 184.095 75.3256 184.306 75.3168L184.622 75.3035C185.049 75.2858 185.423 75.0088 185.575 74.5999C185.619 74.4803 185.669 74.3606 185.722 74.2443C185.905 73.8465 185.836 73.3867 185.547 73.071L185.333 72.8383C185.19 72.6832 185.196 72.4439 185.345 72.2943L186.296 71.3425C186.446 71.193 186.684 71.1885 186.84 71.3315L187.073 71.5453C187.388 71.8345 187.848 71.9032 188.246 71.7215C188.363 71.6683 188.482 71.6184 188.602 71.5741C189.011 71.4223 189.288 71.0489 189.305 70.6213L189.319 70.3055C189.328 70.095 189.5 69.9288 189.711 69.9288H191.057C191.269 69.9288 191.44 70.0939 191.449 70.3055L191.463 70.6213C191.48 71.0478 191.756 71.4223 192.166 71.5741C192.286 71.6184 192.405 71.6683 192.522 71.7215C192.92 71.9043 193.379 71.8356 193.695 71.5453L193.928 71.3315C194.084 71.1885 194.322 71.1941 194.472 71.3425L195.424 72.2943C195.573 72.4439 195.578 72.6821 195.435 72.8383L195.221 73.071C194.932 73.3856 194.863 73.8465 195.046 74.2443C195.099 74.3606 195.149 74.4803 195.193 74.5999C195.345 75.0088 195.718 75.2847 196.146 75.3035L196.462 75.3168C196.672 75.3256 196.838 75.4985 196.838 75.709V77.0563Z"/>
</mask>
<path d="M196.478 74.929L196.163 74.9157C195.892 74.9046 195.654 74.7274 195.557 74.4648C195.509 74.3362 195.456 74.2066 195.398 74.0825C195.281 73.8277 195.324 73.533 195.507 73.3335L195.72 73.1009C196.004 72.7918 195.994 72.3175 195.697 72.0206L194.745 71.0689C194.449 70.772 193.974 70.762 193.665 71.0456L193.433 71.2595C193.233 71.4434 192.938 71.4855 192.684 71.368C192.558 71.3104 192.43 71.2572 192.301 71.2096C192.039 71.1121 191.863 70.875 191.85 70.6035L191.838 70.2889C191.82 69.8701 191.478 69.541 191.058 69.541H189.711C189.291 69.541 188.949 69.869 188.931 70.2889L188.918 70.6047C188.907 70.875 188.729 71.1132 188.467 71.2107C188.338 71.2583 188.209 71.3115 188.084 71.3691C187.83 71.4866 187.535 71.4434 187.335 71.2606L187.103 71.0467C186.794 70.7631 186.32 70.7731 186.023 71.07L185.071 72.0217C184.774 72.3187 184.764 72.7929 185.048 73.102L185.261 73.3347C185.445 73.5341 185.487 73.8277 185.37 74.0836C185.312 74.2088 185.259 74.3374 185.212 74.4659C185.114 74.7285 184.877 74.9046 184.605 74.9168L184.291 74.929C183.872 74.9467 183.543 75.2891 183.543 75.709V77.0552C183.543 77.4751 183.871 77.8174 184.291 77.8352L184.607 77.8485C184.877 77.8595 185.115 78.0368 185.213 78.2994C185.261 78.429 185.315 78.5587 185.371 78.6816C185.489 78.9365 185.445 79.2312 185.263 79.4306L185.049 79.6633C184.765 79.9724 184.775 80.4466 185.072 80.7435L186.024 81.6953C186.321 81.9922 186.795 82.0022 187.104 81.7185L187.337 81.5047C187.536 81.3219 187.831 81.2787 188.086 81.3961C188.211 81.4537 188.339 81.5069 188.468 81.5546C188.73 81.6521 188.907 81.8892 188.919 82.1606L188.932 82.4764C188.95 82.8952 189.292 83.2243 189.712 83.2243H191.058C191.478 83.2243 191.82 82.8963 191.838 82.4764L191.852 82.1606C191.863 81.8903 192.04 81.6521 192.302 81.5546C192.431 81.5069 192.561 81.4537 192.685 81.3961C192.94 81.2787 193.234 81.3219 193.434 81.5047L193.666 81.7185C193.975 82.0022 194.45 81.9922 194.747 81.6953L195.698 80.7435C195.995 80.4466 196.005 79.9724 195.722 79.6633L195.508 79.4306C195.324 79.2312 195.282 78.9376 195.399 78.6816C195.456 78.5575 195.51 78.429 195.558 78.2994C195.655 78.0368 195.892 77.8606 196.164 77.8485L196.479 77.8352C196.898 77.8174 197.227 77.4751 197.227 77.0552V75.709C197.226 75.2902 196.898 74.9467 196.478 74.929ZM196.838 77.0563C196.838 77.2679 196.673 77.4396 196.462 77.4485L196.146 77.4618C195.719 77.4795 195.345 77.7565 195.193 78.1653C195.148 78.2861 195.099 78.4058 195.046 78.521C194.863 78.9187 194.932 79.3785 195.221 79.6943L195.435 79.927C195.578 80.0821 195.572 80.3214 195.424 80.471L194.472 81.4227C194.322 81.5723 194.084 81.5767 193.928 81.4338L193.695 81.22C193.38 80.9308 192.92 80.8621 192.522 81.0438C192.405 81.097 192.286 81.1468 192.166 81.1912C191.757 81.3429 191.48 81.7163 191.463 82.144L191.449 82.4598C191.44 82.6703 191.268 82.8365 191.057 82.8365H189.711C189.499 82.8365 189.328 82.6714 189.319 82.4598L189.305 82.144C189.288 81.7174 189.012 81.3429 188.602 81.1912C188.482 81.1468 188.363 81.097 188.246 81.0438C188.099 80.9762 187.943 80.943 187.788 80.943C187.526 80.943 187.271 81.0383 187.073 81.22L186.84 81.4338C186.684 81.5767 186.446 81.5712 186.296 81.4227L185.345 80.471C185.195 80.3214 185.19 80.0832 185.333 79.927L185.547 79.6943C185.836 79.3797 185.905 78.9187 185.722 78.521C185.669 78.4058 185.62 78.2861 185.575 78.1653C185.423 77.7565 185.05 77.4806 184.622 77.4618L184.306 77.4485C184.096 77.4396 183.93 77.2668 183.93 77.0563V75.709C183.93 75.4974 184.095 75.3256 184.306 75.3168L184.622 75.3035C185.049 75.2858 185.423 75.0088 185.575 74.5999C185.619 74.4803 185.669 74.3606 185.722 74.2443C185.905 73.8465 185.836 73.3867 185.547 73.071L185.333 72.8383C185.19 72.6832 185.196 72.4439 185.345 72.2943L186.296 71.3425C186.446 71.193 186.684 71.1885 186.84 71.3315L187.073 71.5453C187.388 71.8345 187.848 71.9032 188.246 71.7215C188.363 71.6683 188.482 71.6184 188.602 71.5741C189.011 71.4223 189.288 71.0489 189.305 70.6213L189.319 70.3055C189.328 70.095 189.5 69.9288 189.711 69.9288H191.057C191.269 69.9288 191.44 70.0939 191.449 70.3055L191.463 70.6213C191.48 71.0478 191.756 71.4223 192.166 71.5741C192.286 71.6184 192.405 71.6683 192.522 71.7215C192.92 71.9043 193.379 71.8356 193.695 71.5453L193.928 71.3315C194.084 71.1885 194.322 71.1941 194.472 71.3425L195.424 72.2943C195.573 72.4439 195.578 72.6821 195.435 72.8383L195.221 73.071C194.932 73.3856 194.863 73.8465 195.046 74.2443C195.099 74.3606 195.149 74.4803 195.193 74.5999C195.345 75.0088 195.718 75.2847 196.146 75.3035L196.462 75.3168C196.672 75.3256 196.838 75.4985 196.838 75.709V77.0563Z" fill="white"/>
<path d="M196.478 74.929L196.163 74.9157C195.892 74.9046 195.654 74.7274 195.557 74.4648C195.509 74.3362 195.456 74.2066 195.398 74.0825C195.281 73.8277 195.324 73.533 195.507 73.3335L195.72 73.1009C196.004 72.7918 195.994 72.3175 195.697 72.0206L194.745 71.0689C194.449 70.772 193.974 70.762 193.665 71.0456L193.433 71.2595C193.233 71.4434 192.938 71.4855 192.684 71.368C192.558 71.3104 192.43 71.2572 192.301 71.2096C192.039 71.1121 191.863 70.875 191.85 70.6035L191.838 70.2889C191.82 69.8701 191.478 69.541 191.058 69.541H189.711C189.291 69.541 188.949 69.869 188.931 70.2889L188.918 70.6047C188.907 70.875 188.729 71.1132 188.467 71.2107C188.338 71.2583 188.209 71.3115 188.084 71.3691C187.83 71.4866 187.535 71.4434 187.335 71.2606L187.103 71.0467C186.794 70.7631 186.32 70.7731 186.023 71.07L185.071 72.0217C184.774 72.3187 184.764 72.7929 185.048 73.102L185.261 73.3347C185.445 73.5341 185.487 73.8277 185.37 74.0836C185.312 74.2088 185.259 74.3374 185.212 74.4659C185.114 74.7285 184.877 74.9046 184.605 74.9168L184.291 74.929C183.872 74.9467 183.543 75.2891 183.543 75.709V77.0552C183.543 77.4751 183.871 77.8174 184.291 77.8352L184.607 77.8485C184.877 77.8595 185.115 78.0368 185.213 78.2994C185.261 78.429 185.315 78.5587 185.371 78.6816C185.489 78.9365 185.445 79.2312 185.263 79.4306L185.049 79.6633C184.765 79.9724 184.775 80.4466 185.072 80.7435L186.024 81.6953C186.321 81.9922 186.795 82.0022 187.104 81.7185L187.337 81.5047C187.536 81.3219 187.831 81.2787 188.086 81.3961C188.211 81.4537 188.339 81.5069 188.468 81.5546C188.73 81.6521 188.907 81.8892 188.919 82.1606L188.932 82.4764C188.95 82.8952 189.292 83.2243 189.712 83.2243H191.058C191.478 83.2243 191.82 82.8963 191.838 82.4764L191.852 82.1606C191.863 81.8903 192.04 81.6521 192.302 81.5546C192.431 81.5069 192.561 81.4537 192.685 81.3961C192.94 81.2787 193.234 81.3219 193.434 81.5047L193.666 81.7185C193.975 82.0022 194.45 81.9922 194.747 81.6953L195.698 80.7435C195.995 80.4466 196.005 79.9724 195.722 79.6633L195.508 79.4306C195.324 79.2312 195.282 78.9376 195.399 78.6816C195.456 78.5575 195.51 78.429 195.558 78.2994C195.655 78.0368 195.892 77.8606 196.164 77.8485L196.479 77.8352C196.898 77.8174 197.227 77.4751 197.227 77.0552V75.709C197.226 75.2902 196.898 74.9467 196.478 74.929ZM196.838 77.0563C196.838 77.2679 196.673 77.4396 196.462 77.4485L196.146 77.4618C195.719 77.4795 195.345 77.7565 195.193 78.1653C195.148 78.2861 195.099 78.4058 195.046 78.521C194.863 78.9187 194.932 79.3785 195.221 79.6943L195.435 79.927C195.578 80.0821 195.572 80.3214 195.424 80.471L194.472 81.4227C194.322 81.5723 194.084 81.5767 193.928 81.4338L193.695 81.22C193.38 80.9308 192.92 80.8621 192.522 81.0438C192.405 81.097 192.286 81.1468 192.166 81.1912C191.757 81.3429 191.48 81.7163 191.463 82.144L191.449 82.4598C191.44 82.6703 191.268 82.8365 191.057 82.8365H189.711C189.499 82.8365 189.328 82.6714 189.319 82.4598L189.305 82.144C189.288 81.7174 189.012 81.3429 188.602 81.1912C188.482 81.1468 188.363 81.097 188.246 81.0438C188.099 80.9762 187.943 80.943 187.788 80.943C187.526 80.943 187.271 81.0383 187.073 81.22L186.84 81.4338C186.684 81.5767 186.446 81.5712 186.296 81.4227L185.345 80.471C185.195 80.3214 185.19 80.0832 185.333 79.927L185.547 79.6943C185.836 79.3797 185.905 78.9187 185.722 78.521C185.669 78.4058 185.62 78.2861 185.575 78.1653C185.423 77.7565 185.05 77.4806 184.622 77.4618L184.306 77.4485C184.096 77.4396 183.93 77.2668 183.93 77.0563V75.709C183.93 75.4974 184.095 75.3256 184.306 75.3168L184.622 75.3035C185.049 75.2858 185.423 75.0088 185.575 74.5999C185.619 74.4803 185.669 74.3606 185.722 74.2443C185.905 73.8465 185.836 73.3867 185.547 73.071L185.333 72.8383C185.19 72.6832 185.196 72.4439 185.345 72.2943L186.296 71.3425C186.446 71.193 186.684 71.1885 186.84 71.3315L187.073 71.5453C187.388 71.8345 187.848 71.9032 188.246 71.7215C188.363 71.6683 188.482 71.6184 188.602 71.5741C189.011 71.4223 189.288 71.0489 189.305 70.6213L189.319 70.3055C189.328 70.095 189.5 69.9288 189.711 69.9288H191.057C191.269 69.9288 191.44 70.0939 191.449 70.3055L191.463 70.6213C191.48 71.0478 191.756 71.4223 192.166 71.5741C192.286 71.6184 192.405 71.6683 192.522 71.7215C192.92 71.9043 193.379 71.8356 193.695 71.5453L193.928 71.3315C194.084 71.1885 194.322 71.1941 194.472 71.3425L195.424 72.2943C195.573 72.4439 195.578 72.6821 195.435 72.8383L195.221 73.071C194.932 73.3856 194.863 73.8465 195.046 74.2443C195.099 74.3606 195.149 74.4803 195.193 74.5999C195.345 75.0088 195.718 75.2847 196.146 75.3035L196.462 75.3168C196.672 75.3256 196.838 75.4985 196.838 75.709V77.0563Z" stroke="white" stroke-width="0.5" mask="url(#path-75-outside-1_7131_10528)"/>
<path d="M190.384 72.8203C188.42 72.8203 186.821 74.4191 186.821 76.3835C186.821 78.3479 188.42 79.9467 190.384 79.9467C192.349 79.9467 193.948 78.3479 193.948 76.3835C193.948 74.4191 192.349 72.8203 190.384 72.8203ZM190.384 79.5589C188.634 79.5589 187.209 78.1341 187.209 76.3835C187.209 74.6329 188.634 73.2081 190.384 73.2081C192.135 73.2081 193.56 74.6329 193.56 76.3835C193.56 78.1341 192.135 79.5589 190.384 79.5589Z" fill="white"/>
<path fill-rule="evenodd" clip-rule="evenodd" d="M186.526 76.385C186.526 74.2574 188.257 72.5264 190.385 72.5264C192.513 72.5264 194.244 74.2574 194.244 76.385C194.244 78.5126 192.513 80.2436 190.385 80.2436C188.257 80.2436 186.526 78.5126 186.526 76.385ZM187.505 76.385C187.505 77.9724 188.798 79.2649 190.385 79.2649C191.972 79.2649 193.265 77.9724 193.265 76.385C193.265 74.7976 191.972 73.5051 190.385 73.5051C188.798 73.5051 187.505 74.7976 187.505 76.385ZM186.822 76.385C186.822 74.4206 188.421 72.8218 190.385 72.8218C192.349 72.8218 193.948 74.4206 193.948 76.385C193.948 78.3494 192.349 79.9482 190.385 79.9482C188.421 79.9482 186.822 78.3494 186.822 76.385ZM187.21 76.385C187.21 78.1356 188.634 79.5604 190.385 79.5604C192.136 79.5604 193.56 78.1356 193.56 76.385C193.56 74.6344 192.136 73.2096 190.385 73.2096C188.634 73.2096 187.21 74.6344 187.21 76.385Z" fill="white"/>
<circle cx="196" cy="35" r="13" fill="white" fill-opacity="0.2"/>
<circle cx="196" cy="35" r="12.75" stroke="white" stroke-opacity="0.4" stroke-width="0.5"/>
<path fill-rule="evenodd" clip-rule="evenodd" d="M202.602 30.5733C202.766 30.7374 202.766 31.0035 202.602 31.1676C201.404 32.3658 199.711 32.3654 198.238 32.365C198.212 32.365 198.187 32.365 198.161 32.365C196.583 32.365 195.245 32.3865 194.315 33.3162L194.315 33.3162C193.385 34.2458 193.364 35.5846 193.364 37.1625C193.364 37.1879 193.364 37.2133 193.364 37.2387C193.364 38.7125 193.365 40.4051 192.167 41.6031C192.003 41.7673 191.736 41.7673 191.572 41.6031C191.408 41.439 191.408 41.1729 191.572 41.0088C192.502 40.0792 192.523 38.7405 192.523 37.1625C192.523 37.1372 192.523 37.1117 192.523 37.0863C192.523 35.6125 192.523 33.9199 193.721 32.7219L194.018 33.0191L193.721 32.7219C194.919 31.5237 196.611 31.5241 198.085 31.5245C198.111 31.5245 198.136 31.5245 198.161 31.5245C199.739 31.5245 201.078 31.503 202.008 30.5733C202.172 30.4092 202.438 30.4092 202.602 30.5733Z" fill="white"/>
<path fill-rule="evenodd" clip-rule="evenodd" d="M199.532 27.504C199.696 27.6681 199.696 27.9342 199.532 28.0983C198.602 29.0279 198.581 30.3666 198.581 31.9446C198.581 31.9699 198.581 31.9953 198.581 32.0208C198.581 33.4946 198.581 35.1871 197.383 36.3852C197.383 36.3852 197.383 36.3852 197.383 36.3852M197.383 36.3852C196.185 37.5834 194.493 37.583 193.019 37.5826C192.993 37.5826 192.968 37.5826 192.943 37.5826C191.365 37.5826 190.026 37.6041 189.096 38.5338C188.932 38.6979 188.666 38.6979 188.502 38.5338C188.338 38.3697 188.338 38.1036 188.502 37.9395C189.7 36.7413 191.393 36.7417 192.866 36.7421C192.892 36.7421 192.917 36.7421 192.943 36.7421C194.521 36.7421 195.859 36.7206 196.789 35.7909L196.789 35.7909C197.719 34.8613 197.74 33.5225 197.74 31.9446C197.74 31.9192 197.74 31.8938 197.74 31.8683C197.74 30.3946 197.739 28.702 198.937 27.5039C199.102 27.3398 199.368 27.3398 199.532 27.504" fill="white"/>
<path fill-rule="evenodd" clip-rule="evenodd" d="M198.25 28.5391C198.414 28.375 198.68 28.375 198.844 28.5391L201.566 31.2607C201.73 31.4249 201.73 31.691 201.566 31.8551C201.402 32.0192 201.136 32.0192 200.972 31.8551L198.25 29.1335C198.086 28.9693 198.086 28.7032 198.25 28.5391Z" fill="white"/>
<path fill-rule="evenodd" clip-rule="evenodd" d="M194.757 32.0333C194.921 31.8691 195.187 31.8691 195.351 32.0333L198.073 34.7549C198.237 34.919 198.237 35.1851 198.073 35.3492C197.909 35.5134 197.643 35.5134 197.479 35.3492L194.757 32.6276C194.593 32.4635 194.593 32.1974 194.757 32.0333Z" fill="white"/>
<path fill-rule="evenodd" clip-rule="evenodd" d="M189.538 37.254C189.702 37.0898 189.968 37.0898 190.132 37.254L192.854 39.9756C193.018 40.1397 193.018 40.4058 192.854 40.5699C192.69 40.7341 192.424 40.7341 192.26 40.5699L189.538 37.8483C189.374 37.6842 189.374 37.4181 189.538 37.254Z" fill="white"/>
<path fill-rule="evenodd" clip-rule="evenodd" d="M193.032 33.7598C193.196 33.5957 193.462 33.5957 193.627 33.7598L196.348 36.4815C196.512 36.6456 196.512 36.9117 196.348 37.0758C196.184 37.2399 195.918 37.2399 195.754 37.0758L193.032 34.3542C192.868 34.19 192.868 33.9239 193.032 33.7598Z" fill="white"/>
<circle cx="233" cy="23.6602" r="13" fill="white" fill-opacity="0.2"/>
<circle cx="233" cy="23.6602" r="12.75" stroke="white" stroke-opacity="0.4" stroke-width="0.5"/>
<g clip-path="url(#clip1_7131_10528)">
<path d="M231.782 29.0861C231.738 29.0861 231.694 29.0811 231.65 29.0698C231.36 28.9972 231.183 28.703 231.256 28.4127L233.693 18.6629C233.766 18.3726 234.059 18.195 234.349 18.2686C234.64 18.3412 234.816 18.6354 234.744 18.9257L232.306 28.6754C232.245 28.9219 232.024 29.0861 231.782 29.0861Z" fill="white"/>
<path d="M230.292 27.4613C230.153 27.4613 230.014 27.4081 229.909 27.3025L226.659 24.0525C226.447 23.8408 226.447 23.4985 226.659 23.2867L229.909 20.0367C230.121 19.825 230.463 19.825 230.675 20.0367C230.886 20.2486 230.886 20.5909 230.675 20.8026L227.808 23.6696L230.675 26.5366C230.886 26.7485 230.886 27.0907 230.675 27.3025C230.569 27.4081 230.43 27.4613 230.292 27.4613Z" fill="white"/>
<path d="M235.708 27.4613C235.569 27.4613 235.431 27.4081 235.325 27.3025C235.113 27.0907 235.113 26.7485 235.325 26.5366L238.192 23.6696L235.325 20.8026C235.113 20.5909 235.113 20.2486 235.325 20.0367C235.537 19.825 235.879 19.825 236.091 20.0367L239.341 23.2867C239.553 23.4985 239.553 23.8408 239.341 24.0525L236.091 27.3025C235.985 27.4081 235.846 27.4613 235.708 27.4613Z" fill="white"/>
</g>
<defs>
<linearGradient id="paint0_linear_7131_10528" x1="-8.32" y1="-5.07819e-07" x2="372.615" y2="154.793" gradientUnits="userSpaceOnUse">
<stop stop-color="#87ADE4"/>
<stop offset="1" stop-color="#4686E0"/>
</linearGradient>
<linearGradient id="paint1_linear_7131_10528" x1="300.313" y1="42.175" x2="300.288" y2="51.3438" gradientUnits="userSpaceOnUse">
<stop stop-color="#E37E57"/>
<stop offset="0.968029" stop-color="#E35441"/>
<stop offset="1" stop-color="#E35441"/>
</linearGradient>
<clipPath id="clip0_7131_10528">
<rect width="14.3448" height="14.3448" fill="white" transform="translate(220.276 53.0518)"/>
</clipPath>
<clipPath id="clip1_7131_10528">
<rect width="13" height="13" fill="white" transform="translate(226.5 17.1602)"/>
</clipPath>
</defs>
</svg>
