<svg width="304" height="96" viewBox="0 0 304 96" fill="none" xmlns="http://www.w3.org/2000/svg">
<rect width="304" height="96" rx="8" fill="#FFF1E4"/>
<path d="M259.331 18.9651C259.331 18.9651 255.416 18.7197 254.576 22.6986C254.239 24.3379 254.034 26.002 253.965 27.6745C253.933 28.3394 254.077 29.001 254.381 29.5921C256.997 34.5777 264.731 31.7014 264.731 31.7014" stroke="#323C4F" stroke-miterlimit="10" stroke-linecap="round"/>
<path d="M264.031 14.035C264.031 14.035 258.667 13.1472 255.008 18.5373C254.423 19.3764 254.14 20.391 254.205 21.4136C254.231 21.8661 254.358 22.307 254.575 22.7041" stroke="#323C4F" stroke-miterlimit="10" stroke-linecap="round"/>
<path d="M257.305 23.5442L255.368 25.27C255.327 25.306 255.295 25.3502 255.273 25.3998C255.25 25.4494 255.239 25.5032 255.239 25.5576C255.239 25.612 255.25 25.6658 255.273 25.7154C255.295 25.765 255.327 25.8092 255.368 25.8452C255.698 26.1386 256.262 26.5336 256.893 26.4876" stroke="#323C4F" stroke-miterlimit="10" stroke-linecap="round"/>
<path d="M256.272 28.4511C256.272 28.4511 258.212 29.2009 259.346 28.0676" stroke="#323C4F" stroke-miterlimit="10" stroke-linecap="round"/>
<path d="M259.345 32.5339V38.0775C259.345 38.1246 259.332 38.1707 259.308 38.211C259.284 38.2513 259.25 38.2843 259.208 38.3065C259.167 38.3288 259.121 38.3393 259.074 38.3372C259.027 38.335 258.982 38.3201 258.943 38.2942C257.717 37.4466 253.833 35.2377 249.369 37.5598C249.369 37.5598 240.497 44.0391 233.634 64.1828C233.634 64.1828 230.583 71.1971 239.225 71.9871C242.62 72.2758 246.018 71.4655 248.923 69.6746L251.003 68.409C251.003 68.409 252.263 69.6765 252.683 66.7178C252.683 66.7178 253.385 60.6603 250.862 57.2797C250.862 57.2797 248.972 55.0975 248.831 59.5347" stroke="#323C4F" stroke-miterlimit="10" stroke-linecap="round"/>
<path d="M249.253 64.2534C249.253 64.2534 249.531 66.1537 251.003 68.4087" stroke="#323C4F" stroke-miterlimit="10" stroke-linecap="round"/>
<path d="M241.827 60.5905C241.827 60.5905 247.591 58.9549 248.911 58.4697" stroke="#323C4F" stroke-miterlimit="10" stroke-linecap="round"/>
<path d="M246.229 59.0412L248.984 51.9329C249 51.8899 249.03 51.8535 249.068 51.8293C249.107 51.8051 249.153 51.7947 249.198 51.7995C249.244 51.8043 249.286 51.8242 249.319 51.856C249.352 51.8878 249.374 51.9297 249.38 51.9751L250.143 56.5772" stroke="#323C4F" stroke-miterlimit="10" stroke-linecap="round"/>
<path d="M285.556 60.0979L280.562 59.0662C280.525 59.0574 280.49 59.0403 280.461 59.016C280.431 58.9917 280.408 58.961 280.392 58.9263C279.799 57.584 279.154 57.5514 278.676 57.8064C278.468 57.9253 278.295 58.0982 278.177 58.307C278.058 58.5158 277.997 58.7529 278.001 58.9934C277.982 62.3049 275.957 66.2301 274.988 67.9195C274.527 68.7248 274.797 69.7987 275.636 70.1956C276.691 70.6941 277.776 69.6759 277.776 69.6759C279.387 69.3941 282.188 70.3797 282.188 70.3797C284.511 71.2732 286.471 71.6337 288.099 71.6759C288.961 71.6984 289.819 71.5378 290.615 71.2046C291.411 70.8713 292.129 70.3729 292.721 69.742C293.313 69.111 293.765 68.3616 294.05 67.5427C294.334 66.7238 294.443 65.8538 294.371 64.9895C294.332 64.5 294.234 64.017 294.079 63.5514C291.129 54.8438 285.245 45.8219 281.732 40.8785C280.913 39.7267 279.793 38.8254 278.496 38.2744C277.199 37.7234 275.776 37.5442 274.384 37.7567L268.181 38.704C268.136 38.7107 268.09 38.7085 268.045 38.6973C268.001 38.686 267.96 38.6661 267.923 38.6387C267.887 38.6112 267.856 38.5768 267.833 38.5373C267.809 38.4978 267.794 38.4541 267.788 38.4087L267.048 32.9284C267.013 32.6647 266.997 32.3986 267.002 32.1326L267.059 28.3742C267.057 28.3371 267.066 28.3002 267.085 28.268C267.103 28.2358 267.13 28.2097 267.163 28.1929C267.196 28.176 267.233 28.1691 267.27 28.1731C267.307 28.177 267.342 28.1916 267.37 28.2151C269.8 29.8948 271.478 26.7137 271.478 26.7137C272.494 24.6715 272.004 23.544 271.258 22.9265C270.202 22.0521 268.623 22.2381 267.702 23.2583C267.186 23.8597 266.777 24.546 266.493 25.287C266.49 25.2947 266.485 25.3012 266.478 25.3054C266.471 25.3095 266.463 25.3111 266.455 25.3097C266.447 25.3083 266.44 25.3041 266.434 25.2978C266.429 25.2916 266.426 25.2837 266.426 25.2755C266.268 23.7817 264.054 23.1911 264.054 23.1911C260.639 22.775 259.537 20.6983 259.194 19.6533C259.08 19.2905 259.113 18.897 259.285 18.5584C262.022 13.1088 265.534 14.1078 265.534 14.1078C265.534 14.1078 269.92 14.1519 273.386 18.2247C274.832 19.9549 275.806 22.034 276.21 24.2573C276.639 26.5181 277.293 30.3378 277.421 33.2007C277.428 33.382 277.376 33.5608 277.273 33.7096C277.17 33.8585 277.021 33.9693 276.849 34.0252L267.769 37.0683" stroke="#323C4F" stroke-miterlimit="10" stroke-linecap="round"/>
<path d="M279.999 62.7727C279.999 62.7727 280.279 64.393 277.968 69.6758" stroke="#323C4F" stroke-miterlimit="10" stroke-linecap="round"/>
<path d="M253.454 59.5306L257.077 55.0301C257.174 54.905 257.297 54.8025 257.437 54.7297C257.577 54.6568 257.732 54.6154 257.889 54.6083C258.515 54.591 259.077 55.1701 256.272 59.0435L255.239 60.5929" stroke="#323C4F" stroke-miterlimit="10" stroke-linecap="round"/>
<path d="M264.731 39.9543L268.368 38.7041" stroke="#323C4F" stroke-miterlimit="10" stroke-linecap="round"/>
<path d="M267.889 23.2582C264.815 18.1134 260.41 16.9514 260.41 16.9514" stroke="#323C4F" stroke-miterlimit="10" stroke-linecap="round"/>
<path d="M259.346 35.3748C259.346 35.3748 263.411 35.9846 267.501 34.905" stroke="#323C4F" stroke-miterlimit="10" stroke-linecap="round"/>
<path d="M262.856 14.6292C262.856 14.6292 274.349 14.8727 275.422 34.5715" stroke="#323C4F" stroke-miterlimit="10" stroke-linecap="round"/>
<path d="M271.966 35.7204C271.966 35.7204 271.393 30.2113 270.545 28.0752" stroke="#323C4F" stroke-miterlimit="10" stroke-linecap="round"/>
<path d="M261.493 15.6628C261.493 15.6628 258.615 15.3138 256.917 16.3646" stroke="#323C4F" stroke-miterlimit="10" stroke-linecap="round"/>
<path d="M259.75 18.0138C258.904 17.7327 258.002 17.6722 257.127 17.8379C256.252 18.0036 255.434 18.39 254.748 18.961" stroke="#323C4F" stroke-miterlimit="10" stroke-linecap="round"/>
<path d="M269.589 24.5583C269.336 24.6811 269.116 24.8646 268.95 25.0926C268.784 25.3206 268.676 25.5863 268.636 25.8661" stroke="#323C4F" stroke-miterlimit="10" stroke-linecap="round"/>
<path d="M260.082 25.0244C260.488 25.0244 260.818 24.6089 260.818 24.0963C260.818 23.5837 260.488 23.1682 260.082 23.1682C259.675 23.1682 259.346 23.5837 259.346 24.0963C259.346 24.6089 259.675 25.0244 260.082 25.0244Z" fill="#323C4F"/>
<path d="M255.536 24.1287C255.849 24.1287 256.104 23.8085 256.104 23.4135C256.104 23.0185 255.849 22.6982 255.536 22.6982C255.222 22.6982 254.967 23.0185 254.967 23.4135C254.967 23.8085 255.222 24.1287 255.536 24.1287Z" fill="#323C4F"/>
<path d="M201.184 59.0413L197.075 42.911C197.075 42.911 197.355 40.9379 199.596 39.9983" stroke="#323C4F" stroke-miterlimit="10" stroke-linecap="round"/>
<path d="M195.183 31.5727C196.937 35.4518 198.997 35.983 200.284 35.8545C200.682 35.8076 201.063 35.6615 201.391 35.4295C201.718 35.1975 201.984 34.8868 202.162 34.5257C204.044 30.8421 202.397 24.0368 202.397 24.0368C202.397 24.0368 204.101 19.1068 201.184 15.6552C201.184 15.6552 200.274 14.4817 199.277 15.5574C199.076 15.7828 198.806 15.9333 198.509 15.9845C198.212 16.0356 197.907 15.9845 197.643 15.8393C195.828 14.8154 192.128 13.3465 190.674 17.3254C190.582 17.5703 190.422 17.783 190.211 17.9373C190.001 18.0916 189.751 18.1809 189.491 18.1941C187.573 18.3053 183.273 19.1317 182.57 24.2477C182.57 24.2477 182.31 27.891 186.446 30.1077C186.764 30.2765 187.018 30.5461 187.169 30.8747C187.512 31.6513 188.364 32.9667 189.993 32.1997" stroke="#323C4F" stroke-miterlimit="10" stroke-linecap="round"/>
<path d="M187.619 37.6302L191.614 28.8479C191.65 28.7689 191.654 28.6791 191.627 28.5968C191.599 28.5145 191.541 28.4459 191.465 28.4049C190.691 27.9965 188.668 26.6791 189.436 24.4644C189.503 24.2652 189.612 24.0829 189.756 23.93C189.899 23.7771 190.074 23.6572 190.268 23.5785C190.992 23.2947 192.26 23.1605 193.292 24.9515C193.292 24.9515 194.343 26.2937 196.095 24.3187C196.095 24.3187 198.192 21.939 199.527 23.4098C199.527 23.4098 200.862 25.868 202.399 24.0368" stroke="#323C4F" stroke-miterlimit="10" stroke-linecap="round"/>
<path d="M195.953 40.3071L197.074 34.5161" stroke="#323C4F" stroke-miterlimit="10" stroke-linecap="round"/>
<path d="M199.831 27.2776L201.189 28.5259C201.218 28.5531 201.241 28.5874 201.254 28.6256C201.267 28.6638 201.271 28.7047 201.264 28.7446C201.257 28.7845 201.241 28.8221 201.216 28.8539C201.191 28.8857 201.159 28.9107 201.122 28.9267L200.157 29.3428" stroke="#323C4F" stroke-miterlimit="10" stroke-linecap="round"/>
<path d="M198.955 31.3083C199.264 31.3988 199.59 31.4201 199.908 31.3707C200.227 31.3214 200.531 31.2026 200.799 31.0226C200.841 30.9969 200.89 30.984 200.94 30.9852C200.989 30.9864 201.038 31.0018 201.079 31.0295C201.12 31.0573 201.153 31.0963 201.173 31.1419C201.192 31.1875 201.199 31.2379 201.192 31.2872C201.001 32.5471 200.387 34.9631 198.659 31.6822C198.638 31.6373 198.629 31.5871 198.634 31.5375C198.64 31.4878 198.659 31.4407 198.69 31.4015C198.721 31.3624 198.762 31.3329 198.809 31.3164C198.856 31.2999 198.907 31.2971 198.955 31.3083Z" stroke="#323C4F" stroke-miterlimit="10" stroke-linecap="round"/>
<path d="M199.363 35.8738L200.343 43.8507" stroke="#323C4F" stroke-miterlimit="10" stroke-linecap="round"/>
<path d="M202.753 22.4854C202.753 22.4854 203.341 23.4326 204.143 25.7068C204.161 25.7574 204.19 25.8028 204.23 25.8389C204.269 25.8749 204.317 25.9004 204.368 25.9131C204.42 25.9257 204.474 25.925 204.525 25.911C204.577 25.8971 204.624 25.8704 204.662 25.8334C205.173 25.3348 206.17 24.4662 207.172 24.1766C207.419 24.0952 207.685 24.0901 207.935 24.1618C208.186 24.2336 208.409 24.379 208.577 24.5793C208.897 24.9916 209.008 25.6838 207.948 26.7212C207.92 26.7461 207.895 26.773 207.871 26.8017L204.311 30.9896C204.311 30.9896 203.425 32.3012 204.266 34.8822L206.506 41.9771" stroke="#323C4F" stroke-miterlimit="10" stroke-linecap="round"/>
<path d="M256.951 63.1181L259.178 59.7394C259.619 59.0683 260.071 58.376 260.218 57.586C260.284 57.2313 260.269 56.819 260.01 56.5735C259.75 56.3281 259.392 56.3281 259.056 56.3818C258.534 56.4746 258.047 56.7094 257.647 57.0606" stroke="#323C4F" stroke-miterlimit="10" stroke-linecap="round"/>
<path d="M273.346 59.5303V44.0386H253.7L253.961 58.6425" stroke="#323C4F" stroke-miterlimit="10" stroke-linecap="round"/>
<path d="M205.496 38.7732C205.496 38.7732 210.429 38.0752 208.514 40.7521C208.514 40.7521 203.286 46.3877 197.073 42.9131" stroke="#323C4F" stroke-miterlimit="10" stroke-linecap="round"/>
<path d="M259.567 59.1298C259.567 59.1298 261.758 57.6341 261.178 59.8814C261.073 60.2858 260.911 60.6732 260.698 61.0319C260.275 61.7568 259.403 63.2256 258.812 64.0501" stroke="#323C4F" stroke-miterlimit="10" stroke-linecap="round"/>
<path d="M251.248 57.5974L253.7 55.6243" stroke="#323C4F" stroke-miterlimit="10" stroke-linecap="round"/>
<path d="M252.474 67.6932C252.474 67.6932 257.527 68.2953 260.82 63.908C260.864 63.852 260.903 63.793 260.938 63.7316C261.213 63.2638 262.273 61.2733 260.853 60.7556" stroke="#323C4F" stroke-miterlimit="10" stroke-linecap="round"/>
<path d="M275.422 59.0415C275.382 59.0987 275.339 59.1531 275.292 59.2045C275.138 59.3715 274.952 59.506 274.745 59.6003C274.538 59.6946 274.315 59.7467 274.088 59.7536C273.862 59.7606 273.636 59.7222 273.424 59.6408C273.212 59.5594 273.018 59.4365 272.853 59.2792L269.156 55.8277C268.932 55.6122 268.652 55.4647 268.348 55.402C267.898 55.3195 267.331 55.425 267.204 56.4125C267.154 56.8062 267.241 57.2051 267.45 57.542C268.738 59.6172 270.323 61.4908 272.154 63.1028" stroke="#323C4F" stroke-miterlimit="10" stroke-linecap="round"/>
<path d="M208.955 40.0005L215.4 60.4893C216.067 62.5606 216.238 64.7608 215.9 66.9111C215.381 70.0559 213.629 73.4595 208.272 72.1978C207.068 71.9064 205.907 71.455 204.821 70.8555L195.668 65.8699" stroke="#323C4F" stroke-miterlimit="10" stroke-linecap="round"/>
<path d="M198.353 47.927C198.353 47.927 201.281 49.066 203.064 47.927" stroke="#323C4F" stroke-miterlimit="10" stroke-linecap="round"/>
<path d="M195.954 40.3073C195.954 40.3073 192.031 44.1807 187.619 37.6227C187.619 37.6227 182.852 34.593 178.234 36.5662C178.234 36.5662 167.845 40.6505 160.001 62.6254C160.001 62.6254 159.947 62.7578 159.875 62.9955C158.494 67.5554 162.178 72.0578 166.894 71.6743L178.634 70.6906C178.842 70.673 179.043 70.6052 179.219 70.4927C179.396 70.3803 179.542 70.2266 179.647 70.0449C179.751 69.8631 179.811 69.6586 179.82 69.4489C179.828 69.2391 179.787 69.0302 179.698 68.8402C178.892 67.1144 177.791 64.3589 177.669 62.0655C177.662 61.8884 177.618 61.7147 177.541 61.5551C177.464 61.3954 177.356 61.2533 177.223 61.1373C177.089 61.0213 176.934 60.934 176.766 60.8806C176.598 60.8272 176.42 60.8089 176.245 60.8268L167.855 61.7031" stroke="#323C4F" stroke-miterlimit="10" stroke-linecap="round"/>
<path d="M181.483 45.6362C181.483 45.6362 179.622 54.4204 175.696 60.8748" stroke="#323C4F" stroke-miterlimit="10" stroke-linecap="round"/>
<path d="M173.705 61.0815C173.705 61.0815 172.752 63.6664 173.705 67.047" stroke="#323C4F" stroke-miterlimit="10" stroke-linecap="round"/>
<path d="M179.768 69.7201C179.768 69.7201 187.494 70.2762 190.812 65.3098C190.924 65.1373 190.977 64.9326 190.963 64.7268C190.949 64.5211 190.868 64.3258 190.733 64.1707C190.598 64.0156 190.416 63.9093 190.215 63.8681C190.014 63.8269 189.805 63.8531 189.62 63.9426C189.14 64.1727 188.522 64.6099 187.729 65.3616" stroke="#323C4F" stroke-miterlimit="10" stroke-linecap="round"/>
<path d="M177.318 61.2216C177.318 61.2216 180.179 57.2082 182.507 56.236C182.507 56.236 184.129 55.726 183.901 57.2619C183.838 57.6384 183.688 57.9946 183.462 58.3012L180.825 61.9771" stroke="#323C4F" stroke-miterlimit="10" stroke-linecap="round"/>
<path d="M269.165 64.464C267.866 62.9556 266.825 61.2403 266.086 59.3883C265.826 58.756 265.701 58.076 265.72 57.3921C265.748 56.4986 266.023 55.5494 267.18 56.1534" stroke="#323C4F" stroke-miterlimit="10" stroke-linecap="round"/>
<path d="M183.467 58.2935C183.467 58.2935 188.247 53.2427 187.824 56.6099C187.747 57.1688 187.576 57.7104 187.317 58.211L183.924 64.9339" stroke="#323C4F" stroke-miterlimit="10" stroke-linecap="round"/>
<path d="M185.657 65.4039C185.657 65.4039 188.557 60.8555 189.683 58.7289C189.833 58.4556 189.924 58.1536 189.951 57.8425C189.978 57.5313 189.94 57.2179 189.839 56.9226C189.587 56.2285 188.996 55.7721 187.602 57.5343" stroke="#323C4F" stroke-miterlimit="10" stroke-linecap="round"/>
<path d="M187.735 65.3559C187.735 65.3559 189.804 63.0645 190.676 61.6589C190.947 61.2439 191.08 60.7532 191.057 60.2572C191.011 59.5727 190.618 58.9034 188.866 60.192" stroke="#323C4F" stroke-miterlimit="10" stroke-linecap="round"/>
<path d="M187.736 68.0665C187.736 68.0665 192.36 69.1595 195.674 65.8709L195.945 50.1472C195.946 50.066 195.931 49.9855 195.901 49.9101C195.871 49.8348 195.827 49.7662 195.77 49.7084C195.714 49.6506 195.646 49.6047 195.572 49.5733C195.497 49.542 195.417 49.5259 195.337 49.5259H184.073C183.912 49.5259 183.758 49.5901 183.644 49.7045C183.531 49.8188 183.467 49.9739 183.467 50.1357V56.1586" stroke="#323C4F" stroke-miterlimit="10" stroke-linecap="round"/>
<path d="M185.378 56.5181V49.7205" stroke="#323C4F" stroke-miterlimit="10" stroke-linecap="round"/>
<path d="M187.528 53.2661C187.65 53.428 187.821 53.5465 188.015 53.6044C188.209 53.6623 188.416 53.6567 188.607 53.5882C189.109 53.3965 189.427 52.7694 189.965 52.7637C190.386 52.7637 190.695 53.1472 191.059 53.3619C191.355 53.5299 191.698 53.5949 192.035 53.5467C192.371 53.4985 192.683 53.3398 192.92 53.0954" stroke="#323C4F" stroke-miterlimit="10" stroke-linecap="round"/>
<path d="M191.501 56.7499C191.592 56.9349 191.744 57.0819 191.932 57.1651C192.12 57.2482 192.33 57.2621 192.527 57.2044C192.76 57.0924 192.984 56.9643 193.199 56.8209C193.429 56.7077 193.752 56.6905 193.902 56.8995" stroke="#323C4F" stroke-miterlimit="10" stroke-linecap="round"/>
<path d="M201.253 46.9517C201.885 46.9517 202.397 46.6572 202.397 46.2939C202.397 45.9307 201.885 45.6362 201.253 45.6362C200.621 45.6362 200.109 45.9307 200.109 46.2939C200.109 46.6572 200.621 46.9517 201.253 46.9517Z" fill="#323C4F"/>
<path d="M197.86 27.8013C198.167 27.6091 198.237 27.1655 198.017 26.8106C197.797 26.4557 197.37 26.3237 197.063 26.516C196.757 26.7082 196.687 27.1518 196.907 27.5067C197.127 27.8616 197.554 27.9936 197.86 27.8013Z" fill="#323C4F"/>
<path d="M201.974 27.4942C202.281 27.302 202.351 26.8584 202.131 26.5035C201.91 26.1485 201.484 26.0166 201.177 26.2088C200.871 26.4011 200.801 26.8446 201.021 27.1996C201.241 27.5545 201.668 27.6864 201.974 27.4942Z" fill="#323C4F"/>
<path d="M176.022 65.1649C176.368 65.0605 176.502 64.4825 176.32 63.8739C176.138 63.2653 175.711 62.8565 175.365 62.9609C175.019 63.0653 174.885 63.6433 175.067 64.2519C175.249 64.8605 175.676 65.2693 176.022 65.1649Z" fill="#323C4F"/>
<path d="M196.111 39.4963C196.084 39.6324 198.637 38.1022 199.772 39.1933" stroke="#323C4F" stroke-miterlimit="10" stroke-linecap="round"/>
<path d="M154.78 70.4507L162.301 70.4507" stroke="#323C4F" stroke-miterlimit="10" stroke-linecap="round"/>
<path d="M204.092 70.4509H179.268" stroke="#323C4F" stroke-miterlimit="10" stroke-linecap="round"/>
<path d="M214.412 70.6499H234.685" stroke="#323C4F" stroke-miterlimit="10" stroke-linecap="round"/>
<path d="M246.753 70.7844H252.054" stroke="#323C4F" stroke-miterlimit="10" stroke-linecap="round"/>
<path d="M274.974 68.9894C272.022 68.747 269.145 67.9283 266.504 66.5791C266.504 66.5791 263.621 65.7296 263.521 63.6203C263.521 63.6203 263.678 62.4449 265.873 63.7085C265.907 63.7295 265.948 63.7388 265.988 63.7351C266.028 63.7314 266.066 63.7149 266.097 63.688C266.127 63.6611 266.148 63.6252 266.157 63.5854C266.166 63.5457 266.162 63.5042 266.145 63.4669C265.764 62.6366 265.095 61.0393 264.793 59.5513C264.736 59.2765 264.769 58.9902 264.889 58.7364C265.034 58.4353 265.31 58.1611 265.819 58.4698" stroke="#323C4F" stroke-miterlimit="10" stroke-linecap="round"/>
<path d="M278.293 58.4698C278.293 58.4698 274.67 56.4315 273.347 55.9636" stroke="#323C4F" stroke-miterlimit="10" stroke-linecap="round"/>
<path d="M276.169 57.2158L277.694 51.8007C277.711 51.7416 277.746 51.6895 277.795 51.6524C277.844 51.6153 277.903 51.5952 277.964 51.5952C278.025 51.5952 278.085 51.6153 278.133 51.6524C278.182 51.6895 278.217 51.7416 278.234 51.8007L279.796 57.8275" stroke="#323C4F" stroke-miterlimit="10" stroke-linecap="round"/>
<path d="M254.033 67.6741V69.2982C254.033 69.6034 254.154 69.896 254.368 70.1118C254.583 70.3275 254.874 70.4487 255.177 70.4487H271.847C272.15 70.4487 272.441 70.3275 272.656 70.1118C272.87 69.896 272.991 69.6034 272.991 69.2982V68.7402" stroke="#323C4F" stroke-miterlimit="10" stroke-linecap="round"/>
<path d="M12.0488 59.696C12.0488 56.5824 14.5588 54.0583 17.655 54.0583H140.991C144.087 54.0583 146.597 56.5824 146.597 59.696V77.3139C146.597 80.4275 144.087 82.9516 140.991 82.9516H17.655C14.5588 82.9516 12.0488 80.4275 12.0488 77.3139V59.696Z" fill="#FFF8F2"/>
<path d="M37.0703 65.6103L35.5009 60.4545C35.461 60.3209 35.3952 60.1963 35.3071 60.0881C35.219 59.9798 35.1104 59.89 34.9875 59.8236C34.8646 59.7573 34.7298 59.7158 34.5908 59.7014C34.4518 59.6871 34.3114 59.7002 34.1775 59.7401C34.008 59.7904 33.8539 59.882 33.7289 60.0068C33.6039 60.1315 33.512 60.2854 33.4616 60.4545L31.882 65.6103H27.1298C26.8472 65.6103 26.5763 65.7223 26.3765 65.9217C26.1767 66.1211 26.0645 66.3916 26.0645 66.6736C26.0644 66.8428 26.1049 67.0096 26.1826 67.1601C26.2602 67.3106 26.3727 67.4404 26.5108 67.5387L30.3962 70.3087L28.8719 75.2201C28.7884 75.4898 28.8157 75.7815 28.9477 76.0311C29.0796 76.2807 29.3055 76.4677 29.5757 76.5511C29.7381 76.6012 29.9101 76.6119 30.0775 76.5824C30.2449 76.5528 30.4028 76.4839 30.5381 76.3812L34.4752 73.3981L38.4141 76.3914C38.5256 76.4761 38.6526 76.538 38.788 76.5737C38.9234 76.6094 39.0645 76.6181 39.2033 76.5993C39.342 76.5805 39.4757 76.5346 39.5967 76.4642C39.7177 76.3938 39.8236 76.3004 39.9084 76.1891C40.0116 76.0542 40.0809 75.8966 40.1106 75.7295C40.1404 75.5624 40.1296 75.3907 40.0792 75.2286L38.5525 70.3171L42.4379 67.5471C42.6677 67.383 42.8228 67.1346 42.8692 66.8564C42.9155 66.5782 42.8493 66.2931 42.6851 66.0636C42.5866 65.926 42.4566 65.8139 42.306 65.7365C42.1553 65.6591 41.9883 65.6188 41.8189 65.6187H37.0667L37.0703 65.6103Z" fill="#FF7900"/>
<path d="M33.215 67.3522C33.2148 67.1724 33.1431 66.9999 33.0157 66.8727C32.8883 66.7455 32.7155 66.674 32.5352 66.6738C32.3551 66.674 32.1824 66.7454 32.055 66.8725C31.9275 66.9995 31.8558 67.1719 31.8555 67.3516C31.8551 67.4408 31.8724 67.5291 31.9063 67.6115C31.9403 67.6939 31.9903 67.7688 32.0534 67.8319C32.1165 67.8951 32.1915 67.9452 32.2741 67.9795C32.3567 68.0137 32.4452 68.0313 32.5346 68.0312C32.715 68.0311 32.888 67.9595 33.0155 67.8322C33.1431 67.7049 33.2148 67.5323 33.215 67.3522Z" fill="#FFEEDF"/>
<path d="M36.6348 66.6733C36.4546 66.6735 36.2818 66.745 36.1544 66.8722C36.0269 66.9994 35.9552 67.1719 35.9551 67.3517C35.9547 67.4409 35.972 67.5293 36.0061 67.6117C36.0402 67.6942 36.0903 67.7691 36.1536 67.832C36.2166 67.8954 36.2915 67.9457 36.3741 67.9799C36.4568 68.0142 36.5454 68.0316 36.6348 68.0313C36.8151 68.031 36.9879 67.9594 37.1153 67.8321C37.2428 67.7048 37.3144 67.5323 37.3146 67.3523C37.3146 67.1724 37.243 66.9997 37.1155 66.8724C36.9881 66.7451 36.8152 66.6735 36.6348 66.6733Z" fill="#FFEEDF"/>
<path d="M34.7439 69.2773H34.6416C33.1257 69.3092 32.7023 70.1503 32.6565 70.2481C32.6374 70.2914 32.6271 70.3381 32.6261 70.3854C32.625 70.4327 32.6334 70.4798 32.6506 70.5239C32.6678 70.568 32.6935 70.6083 32.7263 70.6424C32.7592 70.6766 32.7984 70.704 32.8418 70.723L32.9405 70.7536H32.9886C33.0562 70.7524 33.122 70.7323 33.1787 70.6956C33.2354 70.6589 33.2806 70.607 33.3092 70.5459C33.3206 70.5237 33.5937 70.0056 34.6867 69.9948C35.7876 70.0056 36.0565 70.5243 36.0661 70.5429C36.0946 70.6053 36.1404 70.6583 36.198 70.6956C36.2557 70.7329 36.3228 70.753 36.3915 70.7536L36.4932 70.7422L36.5365 70.7236C36.5799 70.7046 36.619 70.6773 36.6516 70.643C36.6843 70.6088 36.7098 70.5684 36.7266 70.5243C36.7598 70.4443 36.7609 70.3547 36.7296 70.2739C36.729 70.2631 36.362 69.311 34.7439 69.2773Z" fill="#FFEEDF"/>
<path d="M59.4955 65.6098L57.926 60.4542C57.8452 60.1844 57.6605 59.9577 57.4124 59.8238C57.1643 59.6898 56.873 59.6596 56.6026 59.7398C56.4331 59.7901 56.2789 59.8818 56.1539 60.0065C56.0289 60.1312 55.9371 60.2851 55.8867 60.4542L54.307 65.6098H49.5546C49.272 65.61 49.001 65.7221 48.8013 65.9216C48.6015 66.1211 48.4893 66.3916 48.4893 66.6736C48.4892 66.8428 48.5297 67.0095 48.6073 67.1599C48.685 67.3103 48.7975 67.44 48.9356 67.5381L52.8211 70.308L51.2974 75.2193C51.2139 75.489 51.2411 75.7808 51.3731 76.0305C51.5051 76.2801 51.731 76.4673 52.0012 76.5508C52.1636 76.601 52.3357 76.6117 52.5032 76.582C52.6706 76.5524 52.8285 76.4832 52.9637 76.3803L56.9009 73.3973L60.84 76.3906C60.9513 76.4753 61.0783 76.5374 61.2137 76.5731C61.3491 76.6089 61.4903 76.6176 61.629 76.5989C61.7678 76.5802 61.9016 76.5343 62.0226 76.4639C62.1436 76.3936 62.2495 76.3001 62.3343 76.1888C62.4372 76.0538 62.5065 75.8963 62.5362 75.7292C62.5659 75.5622 62.5552 75.3904 62.5051 75.2283L60.9772 70.3206L64.8627 67.5507C65.0924 67.3867 65.2475 67.1384 65.2939 66.8604C65.3403 66.5823 65.2741 66.2973 65.1099 66.0679C65.0113 65.9303 64.8813 65.8182 64.7307 65.7407C64.5801 65.6633 64.4131 65.6227 64.2437 65.6224H59.4913L59.4955 65.6098Z" fill="#FF7900"/>
<path d="M54.961 66.6741C54.7809 66.6742 54.6082 66.7457 54.4808 66.8727C54.3533 66.9998 54.2816 67.1721 54.2813 67.3518C54.2807 67.441 54.298 67.5293 54.3319 67.6118C54.3659 67.6942 54.416 67.7691 54.4792 67.8321C54.5421 67.8955 54.6171 67.9458 54.6997 67.98C54.7824 68.0142 54.871 68.0317 54.9604 68.0314C55.1406 68.0309 55.3133 67.9593 55.4408 67.8322C55.5683 67.7051 55.6402 67.5329 55.6408 67.353C55.6408 67.1731 55.5692 67.0005 55.4417 66.8732C55.3143 66.7458 55.1414 66.6742 54.961 66.6741Z" fill="#FFEEDF"/>
<path d="M59.5414 66.8734C59.4784 66.8101 59.4034 66.7599 59.3208 66.7257C59.2382 66.6915 59.1496 66.6739 59.0602 66.6741C58.8799 66.6742 58.7071 66.7458 58.5797 66.8729C58.4522 67.0001 58.3806 67.1726 58.3804 67.3524C58.3797 67.4417 58.3969 67.5301 58.431 67.6126C58.4651 67.6951 58.5154 67.7699 58.5789 67.8327C58.6418 67.8962 58.7168 67.9465 58.7994 67.9808C58.882 68.015 58.9707 68.0324 59.0602 68.032C59.1496 68.0323 59.2382 68.0149 59.3209 67.9809C59.4035 67.9469 59.4787 67.897 59.542 67.834C59.6053 67.7709 59.6555 67.6961 59.6898 67.6137C59.7241 67.5312 59.7417 67.4429 59.7417 67.3536C59.742 67.2643 59.7245 67.1758 59.6901 67.0934C59.6557 67.0109 59.6051 66.9361 59.5414 66.8734Z" fill="#FFEEDF"/>
<g >
<path d="M81.9188 65.6124L80.3494 60.4566C80.3096 60.3229 80.2438 60.1983 80.1558 60.0901C80.0677 59.9818 79.9591 59.8919 79.8362 59.8255C79.7133 59.7592 79.5785 59.7176 79.4395 59.7033C79.3004 59.689 79.16 59.7022 79.0261 59.7422C78.8567 59.7926 78.7026 59.8843 78.5776 60.009C78.4526 60.1337 78.3607 60.2876 78.3103 60.4566L76.7313 65.6124H71.9792C71.8394 65.6124 71.7009 65.6399 71.5717 65.6934C71.4425 65.7468 71.3251 65.8251 71.2262 65.9239C71.1273 66.0226 71.0489 66.1398 70.9954 66.2688C70.942 66.3978 70.9145 66.5361 70.9146 66.6757C70.9146 66.8448 70.955 67.0116 71.0325 67.162C71.1101 67.3125 71.2224 67.4423 71.3603 67.5408L75.2455 70.3108L73.7213 75.2223C73.638 75.492 73.6654 75.7837 73.7975 76.0332C73.9296 76.2828 74.1555 76.4698 74.4256 76.5532C74.588 76.6036 74.7601 76.6145 74.9275 76.5849C75.095 76.5554 75.2529 76.4863 75.3881 76.3833L79.325 73.4002L83.2638 76.3935C83.4889 76.5644 83.7729 76.6391 84.0531 76.6012C84.3334 76.5632 84.5872 76.4158 84.7586 76.1912C84.8617 76.0563 84.931 75.8987 84.9606 75.7316C84.9902 75.5645 84.9793 75.3927 84.9288 75.2307L83.4021 70.3192L87.2886 67.5492C87.5185 67.3852 87.6737 67.1368 87.7202 66.8586C87.7667 66.5805 87.7006 66.2952 87.5364 66.0657C87.4378 65.9281 87.3077 65.8159 87.157 65.7385C87.0062 65.6612 86.8391 65.6208 86.6696 65.6208H81.9176L81.9188 65.6124Z" fill="#FF7900"/>
<path d="M78.0629 67.3534C78.0628 67.1736 77.9911 67.0011 77.8637 66.8739C77.7362 66.7467 77.5635 66.6752 77.3832 66.675C77.2031 66.6754 77.0305 66.747 76.9032 66.8741C76.7758 67.0013 76.7043 67.1737 76.7041 67.3534C76.7044 67.5331 76.776 67.7054 76.9031 67.8326C77.0302 67.9598 77.2026 68.0316 77.3826 68.0324C77.563 68.0321 77.7358 67.9605 77.8633 67.8332C77.9908 67.706 78.0626 67.5334 78.0629 67.3534Z" fill="#FFEEDF"/>
<path d="M81.9651 66.8729C81.9022 66.8095 81.8272 66.7592 81.7446 66.7249C81.662 66.6907 81.5734 66.6733 81.4839 66.6736C81.3037 66.6737 81.1309 66.7453 81.0035 66.8725C80.876 66.9997 80.8044 67.1721 80.8042 67.352C80.8047 67.5317 80.8763 67.704 81.0036 67.8312C81.1308 67.9584 81.3032 68.0302 81.4833 68.031C81.5727 68.0311 81.6612 68.0137 81.7438 67.9798C81.8264 67.9458 81.9014 67.8959 81.9647 67.833C82.028 67.77 82.0783 67.6953 82.1126 67.6129C82.1469 67.5306 82.1647 67.4424 82.1648 67.3532C82.1651 67.2639 82.1476 67.1755 82.1133 67.093C82.0791 67.0106 82.0287 66.9357 81.9651 66.8729Z" fill="#FFEEDF"/>
<path d="M80.8289 69.2256H77.8213C77.7216 69.2257 77.6261 69.2653 77.5556 69.3357C77.4851 69.406 77.4455 69.5013 77.4453 69.6008C77.4456 69.7002 77.4853 69.7955 77.5558 69.8658C77.6262 69.9361 77.7217 69.9757 77.8213 69.976H80.8289C80.9285 69.9759 81.0241 69.9363 81.0945 69.866C81.165 69.7956 81.2047 69.7003 81.2048 69.6008C81.2048 69.5013 81.1652 69.4059 81.0947 69.3355C81.0242 69.2651 80.9286 69.2256 80.8289 69.2256Z" fill="#FFEEDF"/>
</g>
<g >
<path d="M104.345 65.6104L102.776 60.4546C102.695 60.1848 102.51 59.9579 102.262 59.8239C102.014 59.69 101.723 59.6599 101.452 59.7402C101.283 59.7905 101.129 59.8821 101.004 60.0069C100.879 60.1316 100.787 60.2855 100.736 60.4546L99.1566 65.6104H94.4042C94.1216 65.6106 93.8507 65.7227 93.6509 65.9222C93.4511 66.1217 93.3389 66.3922 93.3389 66.6743C93.3388 66.8434 93.3793 67.0102 93.4569 67.1606C93.5346 67.3109 93.6471 67.4406 93.7852 67.5388L97.6707 70.3088L96.1464 75.2202C96.0629 75.49 96.0902 75.7817 96.2221 76.0314C96.3541 76.2811 96.58 76.4683 96.8502 76.5518C97.0126 76.602 97.1847 76.6127 97.3522 76.583C97.5196 76.5534 97.6775 76.4842 97.8127 76.3813L101.75 73.3982L105.689 76.3915C105.8 76.4762 105.927 76.5382 106.063 76.5739C106.198 76.6096 106.339 76.6184 106.478 76.5996C106.617 76.5809 106.75 76.5351 106.872 76.4648C106.993 76.3944 107.098 76.301 107.183 76.1898C107.286 76.0549 107.356 75.8973 107.385 75.7302C107.415 75.5631 107.404 75.3914 107.354 75.2293L105.827 70.3178L109.713 67.5478C109.943 67.3838 110.098 67.1355 110.144 66.8574C110.19 66.5793 110.124 66.2943 109.96 66.0649C109.862 65.9272 109.732 65.815 109.581 65.7375C109.43 65.6601 109.263 65.6196 109.094 65.6194H104.341L104.345 65.6104Z" fill="#FF7900"/>
<path d="M100.491 67.3539C100.49 67.1741 100.419 67.0016 100.291 66.8744C100.164 66.7472 99.991 66.6757 99.8108 66.6755C99.6305 66.6757 99.4576 66.7472 99.33 66.8744C99.2025 67.0015 99.1307 67.174 99.1304 67.3539C99.13 67.4431 99.1473 67.5315 99.1814 67.6139C99.2155 67.6964 99.2656 67.7713 99.3289 67.8342C99.3919 67.8976 99.4669 67.9478 99.5495 67.982C99.6321 68.0162 99.7207 68.0337 99.8102 68.0335C99.9906 68.0331 100.163 67.9613 100.291 67.8339C100.418 67.7066 100.49 67.534 100.491 67.3539Z" fill="#FFEEDF"/>
<path d="M103.912 66.6748C103.732 66.675 103.559 66.7464 103.432 66.8735C103.304 67.0005 103.233 67.1728 103.232 67.3526C103.232 67.4417 103.249 67.5301 103.283 67.6126C103.317 67.695 103.367 67.7699 103.43 67.8329C103.493 67.8963 103.568 67.9466 103.651 67.9808C103.734 68.015 103.822 68.0325 103.912 68.0322C104.092 68.032 104.265 67.9605 104.392 67.8333C104.52 67.7061 104.591 67.5337 104.591 67.3538C104.591 67.174 104.519 67.0017 104.392 66.8745C104.265 66.7472 104.092 66.6754 103.912 66.6748Z" fill="#FFEEDF"/>
<path d="M103.817 69.3062L103.718 69.2744H103.668C103.6 69.2754 103.534 69.2954 103.478 69.332C103.421 69.3686 103.376 69.4204 103.347 69.4815C103.336 69.5037 103.068 70.0219 101.97 70.0333C100.873 70.0231 100.599 69.5037 100.59 69.4875C100.562 69.4246 100.516 69.3711 100.459 69.3333C100.401 69.2955 100.333 69.2751 100.264 69.2744L100.161 69.2864L100.118 69.3056C100.031 69.3449 99.963 69.417 99.9292 69.5059C99.8954 69.5949 99.8982 69.6936 99.9371 69.7805C99.9546 69.8183 100.375 70.7177 101.922 70.7501H102.02C103.432 70.7207 103.945 69.9552 103.998 69.7787C104.036 69.692 104.039 69.5938 104.005 69.5054C103.971 69.417 103.904 69.3454 103.817 69.3062Z" fill="#FFEEDF"/>
</g>
<g >
<path d="M126.769 65.612L125.199 60.4549C125.159 60.3213 125.093 60.1967 125.005 60.0884C124.917 59.9802 124.809 59.8903 124.686 59.8239C124.563 59.7575 124.428 59.716 124.289 59.7017C124.15 59.6873 124.01 59.7005 123.876 59.7404C123.706 59.7907 123.552 59.8823 123.427 60.0071C123.302 60.1319 123.21 60.2858 123.16 60.4549L121.58 65.612H116.828C116.688 65.612 116.549 65.6396 116.42 65.6931C116.29 65.7466 116.173 65.825 116.074 65.9238C115.975 66.0226 115.897 66.1399 115.843 66.269C115.79 66.3981 115.763 66.5365 115.763 66.6761C115.763 66.8453 115.803 67.012 115.881 67.1624C115.958 67.3128 116.071 67.4425 116.208 67.5409L120.094 70.3116L118.57 75.22C118.528 75.3536 118.514 75.4941 118.527 75.6333C118.54 75.7725 118.58 75.9078 118.646 76.0314C118.711 76.1551 118.8 76.2646 118.908 76.3539C119.016 76.4431 119.14 76.5102 119.274 76.5514C119.437 76.6018 119.609 76.6126 119.776 76.5831C119.944 76.5535 120.101 76.4844 120.237 76.3814L124.173 73.3951L128.112 76.3892C128.337 76.5602 128.621 76.6349 128.902 76.5969C129.182 76.559 129.436 76.4115 129.607 76.1869C129.71 76.0518 129.779 75.8942 129.809 75.7271C129.838 75.5599 129.828 75.3882 129.777 75.2261L128.25 70.3134L132.136 67.5427C132.25 67.4615 132.347 67.3587 132.421 67.2403C132.495 67.1218 132.545 66.9899 132.568 66.8522C132.591 66.7144 132.586 66.5735 132.554 66.4375C132.523 66.3015 132.465 66.173 132.383 66.0594C132.285 65.9216 132.155 65.8092 132.004 65.7317C131.854 65.6542 131.687 65.6138 131.517 65.6138H126.765L126.769 65.612Z" fill="#FED0A6"/>
<path d="M122.913 67.3541C122.913 67.1742 122.841 67.0017 122.714 66.8745C122.587 66.7472 122.414 66.6757 122.234 66.6755C122.053 66.6757 121.88 66.7472 121.753 66.8745C121.626 67.0017 121.554 67.1742 121.554 67.3541C121.553 67.4433 121.571 67.5317 121.605 67.6142C121.639 67.6966 121.689 67.7715 121.752 67.8345C121.815 67.898 121.89 67.9483 121.973 67.9825C122.055 68.0167 122.144 68.0342 122.234 68.0339C122.414 68.0332 122.587 67.9614 122.714 67.834C122.841 67.7066 122.913 67.5341 122.913 67.3541Z" fill="#323C4F"/>
<path d="M126.335 66.6736C126.155 66.6737 125.982 66.7452 125.855 66.8723C125.727 66.9994 125.656 67.1717 125.655 67.3515C125.655 67.4408 125.672 67.5292 125.706 67.6116C125.74 67.6941 125.791 67.769 125.854 67.8319C125.917 67.8954 125.992 67.9457 126.074 67.9799C126.157 68.0142 126.246 68.0316 126.335 68.0313C126.515 68.0312 126.688 67.9596 126.816 67.8324C126.943 67.7052 127.015 67.5327 127.015 67.3527C127.015 67.1728 126.943 67.0002 126.816 66.8729C126.688 66.7456 126.515 66.6739 126.335 66.6736Z" fill="#323C4F"/>
<path d="M126.242 69.3074L126.141 69.2744H126.09C126.023 69.2756 125.958 69.2955 125.901 69.3317C125.845 69.368 125.8 69.4193 125.771 69.4798C125.08 69.49 123.701 69.49 123.01 69.4798C122.981 69.4187 122.935 69.3671 122.878 69.3308C122.821 69.2945 122.755 69.2749 122.687 69.2744L122.584 69.2858L122.54 69.3056C122.454 69.345 122.386 69.4169 122.352 69.5057C122.318 69.5946 122.321 69.6932 122.36 69.78C122.386 69.8365 122.54 69.8767 122.768 69.9049C122.985 70.1065 123.241 70.2618 123.52 70.3612C123.799 70.4606 124.096 70.5022 124.392 70.4832C124.682 70.5031 124.974 70.4639 125.249 70.368C125.524 70.2721 125.776 70.1215 125.991 69.9254L126.179 69.9175L126.367 69.9025L126.422 69.777C126.459 69.6907 126.461 69.5933 126.428 69.5056C126.394 69.4179 126.327 69.3468 126.242 69.3074Z" fill="#323C4F"/>
</g>
<path d="M15.0597 21.5097H13.7881L13.4767 16.0554H15.3841L15.0597 21.5097ZM18.667 21.5097H17.3954L17.0839 16.0554H18.9914L18.667 21.5097Z" fill="#323C4F"/>
<path d="M20.179 17.3342H24.3183V18.2476L23.2413 18.4303L24.7854 24.1847L25.0319 25.3982L25.2525 24.1847L26.576 19.5394L26.1997 18.4303L25.3823 18.2476V17.3342H29.7161V18.2476L28.4834 18.4303L30.0275 24.1847L30.313 25.5026L30.5336 24.1847L31.922 18.4303L30.819 18.2476V17.3342H33.9721V18.2476L33.1676 18.4303L30.7671 27.0945H28.7819L27.108 21.2879L25.525 27.0945H23.5657L20.9316 18.4303L20.179 18.2476V17.3342Z" fill="#323C4F"/>
<path d="M34.301 26.168L35.0925 26.0506V21.1444L34.3269 20.9095V19.8917L36.4809 19.6046H36.5198L36.8831 19.8786V20.1918L36.8442 21.2748H36.8831C36.9437 21.0748 37.0821 20.8442 37.2983 20.5833C37.5146 20.3136 37.7871 20.0831 38.1158 19.8917C38.4532 19.6916 38.8165 19.5916 39.2057 19.5916C39.4306 19.5916 39.6037 19.622 39.7248 19.6829V21.9534C39.5864 21.849 39.435 21.7663 39.2706 21.7054C39.1149 21.6445 38.9116 21.6141 38.6608 21.6141C38.3493 21.6141 38.0682 21.6576 37.8173 21.7446C37.5665 21.8229 37.3675 21.9142 37.2205 22.0186V26.0506L38.6478 26.1811V27.0292H34.301V26.168Z" fill="#323C4F"/>
<path d="M42.1054 18.6521C41.768 18.6521 41.4955 18.552 41.2879 18.352C41.0803 18.1519 40.9765 17.8953 40.9765 17.5821C40.9765 17.2167 41.089 16.9166 41.3139 16.6817C41.5474 16.4469 41.8588 16.3294 42.2481 16.3294C42.6374 16.3294 42.9358 16.4295 43.1434 16.6296C43.351 16.8296 43.4548 17.0863 43.4548 17.3994C43.4548 17.7735 43.3381 18.0779 43.1045 18.3128C42.8709 18.539 42.5422 18.6521 42.1184 18.6521H42.1054ZM41.3139 21.1444L40.4445 20.8964V19.9178L43.0396 19.6046H43.0656L43.4678 19.8786V26.0506L44.2464 26.168V27.0292H40.5094V26.168L41.3139 26.0506V21.1444Z" fill="#323C4F"/>
<path d="M47.3403 27.1467C46.7694 27.1467 46.3455 27.0162 46.0687 26.7552C45.8006 26.4856 45.6665 26.0724 45.6665 25.5156V20.8703H44.875V20.1135L45.1345 20.0091C45.3421 19.9395 45.5237 19.8656 45.6794 19.7873C45.8525 19.622 45.9909 19.4045 46.0947 19.1349C46.2244 18.8217 46.3672 18.3824 46.5229 17.817H47.7296L47.8074 19.7743H49.663V20.8703H47.8334V24.3282C47.8334 24.8066 47.8464 25.1416 47.8723 25.3329C47.8983 25.5243 47.9459 25.6504 48.0151 25.7113C48.0929 25.7635 48.2313 25.7896 48.4303 25.7896C48.8368 25.7896 49.2218 25.72 49.5851 25.5809L49.8576 26.4029C49.6154 26.603 49.2564 26.777 48.7806 26.9249C48.3048 27.0727 47.8247 27.1467 47.3403 27.1467Z" fill="#323C4F"/>
<path d="M53.7918 27.1728C52.6067 27.1728 51.7287 26.8379 51.1578 26.168C50.5869 25.4895 50.3014 24.5674 50.3014 23.4018C50.3014 22.6101 50.4485 21.9273 50.7426 21.3531C51.0367 20.779 51.4476 20.344 51.9753 20.0483C52.5116 19.7438 53.1387 19.5916 53.8567 19.5916C54.765 19.5916 55.457 19.8221 55.9328 20.2831C56.4172 20.7442 56.6681 21.3966 56.6854 22.2404C56.6854 22.7972 56.6465 23.2452 56.5686 23.5844H52.5073C52.5505 24.3238 52.7278 24.8893 53.0393 25.2807C53.3593 25.6635 53.8048 25.8549 54.3757 25.8549C54.6958 25.8549 55.0288 25.8027 55.3749 25.6983C55.7295 25.5852 56.015 25.4591 56.2313 25.3199L56.5946 26.1158C56.3697 26.3681 55.9847 26.6073 55.4397 26.8335C54.9034 27.0597 54.3541 27.1728 53.7918 27.1728ZM54.6223 22.7232L54.6353 22.1752C54.6353 21.6271 54.5617 21.2096 54.4147 20.9225C54.2676 20.6355 54.0168 20.4919 53.6621 20.4919C53.2988 20.4919 53.0176 20.6529 52.8187 20.9747C52.6197 21.2879 52.5116 21.8707 52.4943 22.7232H54.6223Z" fill="#323C4F"/>
<path d="M60.5264 24.9415C60.5264 24.176 60.9113 23.5888 61.6812 23.1799C62.4598 22.7711 63.4805 22.5623 64.7435 22.5536V22.2926C64.7435 21.9795 64.7089 21.7315 64.6397 21.5489C64.5704 21.3662 64.445 21.2313 64.2634 21.1444C64.0817 21.0487 63.8135 21.0008 63.4589 21.0008C63.035 21.0008 62.6544 21.053 62.317 21.1574C61.9883 21.2531 61.6423 21.3836 61.279 21.5489L60.8378 20.6094C60.9762 20.4963 61.2011 20.3614 61.5125 20.2049C61.8239 20.0396 62.1959 19.9004 62.6284 19.7873C63.0696 19.6655 63.5281 19.6046 64.0038 19.6046C64.6959 19.6046 65.2365 19.696 65.6258 19.8786C66.0237 20.0613 66.3049 20.344 66.4692 20.7268C66.6422 21.1096 66.7287 21.6315 66.7287 22.2926V26.168H67.4035V26.9901C67.2045 27.0336 66.9277 27.0771 66.573 27.1206C66.2183 27.1641 65.9156 27.1858 65.6647 27.1858C65.336 27.1858 65.1154 27.138 65.003 27.0423C64.8992 26.9466 64.8473 26.7552 64.8473 26.4682V26.168C64.631 26.429 64.3412 26.6639 63.9779 26.8727C63.6146 27.0727 63.195 27.1728 62.7193 27.1728C62.3127 27.1728 61.9407 27.0858 61.6034 26.9118C61.2746 26.7291 61.0108 26.4725 60.8118 26.1419C60.6215 25.8027 60.5264 25.4025 60.5264 24.9415ZM63.7314 25.9723C63.8871 25.9723 64.0601 25.9288 64.2504 25.8418C64.4407 25.7461 64.6051 25.6331 64.7435 25.5026V23.4278C64.0687 23.4278 63.567 23.5496 63.2383 23.7932C62.9182 24.0368 62.7582 24.3499 62.7582 24.7327C62.7582 25.1242 62.8447 25.4286 63.0177 25.6461C63.1907 25.8636 63.4286 25.9723 63.7314 25.9723Z" fill="#323C4F"/>
<path d="M71.0836 26.168L72.0827 26.0376V18.4172L71.1355 18.2345V17.3342H73.1337C73.2981 17.3342 73.4754 17.3298 73.6657 17.3211C73.8647 17.3124 74.0161 17.3037 74.1199 17.295C74.587 17.2602 74.9849 17.2428 75.3136 17.2428C76.2392 17.2428 76.9745 17.3342 77.5195 17.5169C78.0644 17.6908 78.458 17.9692 78.7002 18.352C78.9511 18.726 79.0765 19.2219 79.0765 19.8395C79.0765 20.431 78.9208 20.9834 78.6094 21.4967C78.298 22.0099 77.8395 22.3622 77.234 22.5536C77.6319 22.7015 77.965 22.9798 78.2331 23.3887C78.5099 23.7889 78.7954 24.3021 79.0895 24.9284C79.2625 25.2938 79.4009 25.5678 79.5047 25.7505C79.6085 25.9245 79.7167 26.0245 79.8291 26.0506L80.2054 26.168V27.0292H77.7401C77.6103 27.0292 77.4762 26.8901 77.3378 26.6117C77.1994 26.3333 77.0221 25.8984 76.8058 25.3068C76.5376 24.5848 76.3041 24.0281 76.1051 23.6366C75.9148 23.2365 75.7029 22.9929 75.4693 22.9059H74.3015V26.0376L75.4563 26.168V27.0292H71.0836V26.168ZM75.3006 22.0577C75.7505 22.0577 76.1008 21.8838 76.3517 21.5358C76.6025 21.1791 76.728 20.6442 76.728 19.9308C76.728 19.3045 76.6025 18.8478 76.3517 18.5607C76.1095 18.265 75.6986 18.1171 75.119 18.1171C74.8076 18.1171 74.5351 18.1388 74.3015 18.1823V22.0186C74.414 22.0447 74.6 22.0577 74.8595 22.0577C75.119 22.0577 75.266 22.0577 75.3006 22.0577Z" fill="#323C4F"/>
<path d="M84.026 27.1728C82.8409 27.1728 81.9629 26.8379 81.392 26.168C80.821 25.4895 80.5356 24.5674 80.5356 23.4018C80.5356 22.6101 80.6826 21.9273 80.9768 21.3531C81.2709 20.779 81.6818 20.344 82.2094 20.0483C82.7458 19.7438 83.3729 19.5916 84.0909 19.5916C84.9992 19.5916 85.6912 19.8221 86.167 20.2831C86.6514 20.7442 86.9023 21.3966 86.9196 22.2404C86.9196 22.7972 86.8807 23.2452 86.8028 23.5844H82.7414C82.7847 24.3238 82.962 24.8893 83.2734 25.2807C83.5935 25.6635 84.039 25.8549 84.6099 25.8549C84.93 25.8549 85.263 25.8027 85.609 25.6983C85.9637 25.5852 86.2492 25.4591 86.4654 25.3199L86.8288 26.1158C86.6038 26.3681 86.2189 26.6073 85.6739 26.8335C85.1376 27.0597 84.5883 27.1728 84.026 27.1728ZM84.8565 22.7232L84.8694 22.1752C84.8694 21.6271 84.7959 21.2096 84.6489 20.9225C84.5018 20.6355 84.2509 20.4919 83.8963 20.4919C83.533 20.4919 83.2518 20.6529 83.0529 20.9747C82.8539 21.2879 82.7458 21.8707 82.7285 22.7232H84.8565Z" fill="#323C4F"/>
<path d="M87.2013 19.7743H90.8864V20.6094L90.0689 20.7659L91.1589 24.2108L91.4962 25.3982L91.7687 24.2238L92.8457 20.7659L92.0542 20.6094V19.7743H95.0515V20.6094L94.3768 20.7659L92.0153 27.1336H90.2765L87.7073 20.7659L87.2013 20.6094V19.7743Z" fill="#323C4F"/>
<path d="M96.8842 18.6521C96.5469 18.6521 96.2744 18.552 96.0668 18.352C95.8592 18.1519 95.7554 17.8953 95.7554 17.5821C95.7554 17.2167 95.8678 16.9166 96.0927 16.6817C96.3263 16.4469 96.6377 16.3294 97.027 16.3294C97.4162 16.3294 97.7147 16.4295 97.9223 16.6296C98.1299 16.8296 98.2337 17.0863 98.2337 17.3994C98.2337 17.7735 98.1169 18.0779 97.8834 18.3128C97.6498 18.539 97.3211 18.6521 96.8972 18.6521H96.8842ZM96.0927 21.1444L95.2234 20.8964V19.9178L97.8185 19.6046H97.8444L98.2467 19.8786V26.0506L99.0252 26.168V27.0292H95.2882V26.168L96.0927 26.0506V21.1444Z" fill="#323C4F"/>
<path d="M103.274 27.1728C102.089 27.1728 101.211 26.8379 100.64 26.168C100.069 25.4895 99.7836 24.5674 99.7836 23.4018C99.7836 22.6101 99.9306 21.9273 100.225 21.3531C100.519 20.779 100.93 20.344 101.457 20.0483C101.994 19.7438 102.621 19.5916 103.339 19.5916C104.247 19.5916 104.939 19.8221 105.415 20.2831C105.899 20.7442 106.15 21.3966 106.168 22.2404C106.168 22.7972 106.129 23.2452 106.051 23.5844H101.989C102.033 24.3238 102.21 24.8893 102.521 25.2807C102.842 25.6635 103.287 25.8549 103.858 25.8549C104.178 25.8549 104.511 25.8027 104.857 25.6983C105.212 25.5852 105.497 25.4591 105.713 25.3199L106.077 26.1158C105.852 26.3681 105.467 26.6073 104.922 26.8335C104.386 27.0597 103.836 27.1728 103.274 27.1728ZM104.104 22.7232L104.117 22.1752C104.117 21.6271 104.044 21.2096 103.897 20.9225C103.75 20.6355 103.499 20.4919 103.144 20.4919C102.781 20.4919 102.5 20.6529 102.301 20.9747C102.102 21.2879 101.994 21.8707 101.976 22.7232H104.104Z" fill="#323C4F"/>
<path d="M106.333 19.7873H109.888V20.6094L109.018 20.7529L109.901 24.002L110.173 25.2938L110.407 24.002L111.523 19.7873H113.274L114.559 24.002L114.832 25.2807L115.091 24.002L115.909 20.7659L114.974 20.6094V19.7873H117.829V20.6094L117.206 20.7529L115.247 27.1336H113.599L112.314 23.1408L112.042 21.6271L111.847 23.1408L110.692 27.1336H109.005L106.942 20.7529L106.333 20.6094V19.7873Z" fill="#323C4F"/>
<path d="M21.846 40.2884L20.9377 40.4711C20.9377 41.0018 20.8512 41.4889 20.6782 41.9325C20.5052 42.3762 20.2803 42.7503 20.0035 43.0547C20.2716 43.2809 20.5311 43.4549 20.782 43.5767C21.0329 43.6985 21.3097 43.768 21.6124 43.7854V44.6075C21.5173 44.6771 21.327 44.7293 21.0415 44.7641C20.756 44.8076 20.5225 44.8293 20.3408 44.8293C19.9862 44.8293 19.6791 44.7902 19.4196 44.7119C19.16 44.6336 18.8876 44.4944 18.6021 44.2943C18.0485 44.6858 17.2656 44.8815 16.2535 44.8815C15.0944 44.8815 14.1861 44.651 13.5286 44.1899C12.8712 43.7289 12.5425 43.0808 12.5425 42.2457C12.5425 41.6977 12.7328 41.2236 13.1134 40.8234C13.5027 40.4233 13.9698 40.1188 14.5148 39.91C14.1688 39.449 13.9006 39.0314 13.7103 38.6574C13.5286 38.2833 13.4378 37.8614 13.4378 37.3917C13.4378 36.9306 13.5676 36.5131 13.8271 36.139C14.0866 35.7562 14.4412 35.4561 14.8911 35.2386C15.3409 35.0212 15.8426 34.9124 16.3962 34.9124C16.9672 34.9124 17.4473 35.0038 17.8365 35.1864C18.2258 35.3604 18.5156 35.5953 18.7059 35.8911C18.8962 36.1781 18.9914 36.487 18.9914 36.8175C18.9914 37.4786 18.8183 38.0136 18.4723 38.4225C18.1263 38.8226 17.5597 39.2228 16.7725 39.623C17.1099 40.0405 17.5078 40.5059 17.9663 41.0191C18.4248 41.5237 18.801 41.9151 19.0952 42.1935L19.3028 42.4023C19.5709 41.8804 19.6877 41.2366 19.6531 40.4711L18.6799 40.2884V39.3359H21.846V40.2884ZM15.4101 37.0002C15.4101 37.383 15.4923 37.7353 15.6566 38.0571C15.8296 38.379 16.0416 38.7009 16.2924 39.0227C16.6471 38.6922 16.898 38.3485 17.045 37.9919C17.1921 37.6265 17.2656 37.2307 17.2656 36.8045C17.2656 36.5174 17.2007 36.2521 17.071 36.0085C16.9412 35.7562 16.7163 35.6301 16.3962 35.6301C16.0935 35.6301 15.8513 35.7475 15.6696 35.9824C15.4966 36.2173 15.4101 36.5565 15.4101 37.0002ZM16.513 43.9551C17.058 43.9551 17.4775 43.855 17.7717 43.655C17.4343 43.3766 17.0883 43.0373 16.7336 42.6372C16.3876 42.2283 15.9637 41.7151 15.462 41.0974L15.0597 40.6016C14.8694 40.793 14.7094 41.0148 14.5797 41.2671C14.4585 41.5106 14.398 41.7716 14.398 42.05C14.398 42.6241 14.584 43.0852 14.9559 43.4331C15.3366 43.7811 15.8556 43.9551 16.513 43.9551Z" fill="#323C4F"/>
<path d="M26.4907 36.139L25.4786 35.9563V35.0429H32.5762L32.7449 37.3525H31.7198L31.2657 36.0346L28.7095 35.9041V39.2967L30.2925 39.2576L30.5261 38.1876H31.4214V41.4628H30.5261L30.3055 40.3276L28.7095 40.2884V43.8376L31.5511 43.655L32.3427 41.9717L33.4456 42.2849L33.1342 44.738H25.4915V43.8768L26.4907 43.7463V36.139Z" fill="#323C4F"/>
<path d="M33.9416 42.6502C33.9416 41.8847 34.3265 41.2975 35.0964 40.8887C35.875 40.4798 36.8957 40.271 38.1587 40.2623V40.0014C38.1587 39.6882 38.1241 39.4403 38.0549 39.2576C37.9857 39.0749 37.8602 38.9401 37.6786 38.8531C37.4969 38.7574 37.2287 38.7096 36.8741 38.7096C36.4502 38.7096 36.0696 38.7617 35.7322 38.8661C35.4035 38.9618 35.0575 39.0923 34.6942 39.2576L34.253 38.3181C34.3914 38.205 34.6163 38.0702 34.9277 37.9136C35.2392 37.7483 35.6111 37.6091 36.0436 37.496C36.4848 37.3743 36.9433 37.3134 37.4191 37.3134C38.1111 37.3134 38.6517 37.4047 39.041 37.5874C39.4389 37.7701 39.7201 38.0528 39.8844 38.4355C40.0574 38.8183 40.1439 39.3402 40.1439 40.0014V43.8768H40.8187V44.6988C40.6197 44.7423 40.3429 44.7858 39.9882 44.8293C39.6336 44.8728 39.3308 44.8946 39.0799 44.8946C38.7512 44.8946 38.5306 44.8467 38.4182 44.751C38.3144 44.6553 38.2625 44.464 38.2625 44.1769V43.8768C38.0462 44.1378 37.7564 44.3726 37.3931 44.5814C37.0298 44.7815 36.6102 44.8815 36.1345 44.8815C35.7279 44.8815 35.3559 44.7945 35.0186 44.6205C34.6899 44.4379 34.426 44.1812 34.2271 43.8507C34.0367 43.5114 33.9416 43.1113 33.9416 42.6502ZM37.1466 43.6811C37.3023 43.6811 37.4753 43.6376 37.6656 43.5506C37.8559 43.4549 38.0203 43.3418 38.1587 43.2113V41.1366C37.4839 41.1366 36.9822 41.2584 36.6535 41.5019C36.3334 41.7455 36.1734 42.0587 36.1734 42.4414C36.1734 42.8329 36.2599 43.1374 36.4329 43.3548C36.6059 43.5723 36.8438 43.6811 37.1466 43.6811Z" fill="#323C4F"/>
<path d="M41.5364 43.8768L42.3279 43.7593V38.8531L41.5623 38.6182V37.6004L43.7163 37.3134H43.7552L44.1185 37.5874V37.9005L44.0796 38.9836H44.1185C44.1791 38.7835 44.3175 38.553 44.5337 38.292C44.75 38.0223 45.0225 37.7918 45.3512 37.6004C45.6886 37.4004 46.0519 37.3003 46.4412 37.3003C46.6661 37.3003 46.8391 37.3308 46.9602 37.3917V39.6621C46.8218 39.5577 46.6704 39.4751 46.506 39.4142C46.3503 39.3533 46.147 39.3228 45.8962 39.3228C45.5848 39.3228 45.3036 39.3663 45.0528 39.4533C44.8019 39.5316 44.6029 39.623 44.4559 39.7273V43.7593L45.8832 43.8898V44.738H41.5364V43.8768Z" fill="#323C4F"/>
<path d="M48.4844 38.8531L47.7188 38.6182V37.6004L50.0804 37.3134H50.1193L50.4567 37.5874V38.0702L50.4437 38.3703C50.7465 38.0832 51.1314 37.8397 51.5986 37.6396C52.0657 37.4395 52.5544 37.3395 53.0648 37.3395C53.5838 37.3395 53.9904 37.4351 54.2845 37.6265C54.5873 37.8092 54.8035 38.105 54.9333 38.5138C55.0717 38.9227 55.1409 39.4794 55.1409 40.184V43.7593L55.8675 43.8637V44.738H52.3382V43.8768L52.974 43.7593V40.1971C52.974 39.7795 52.9437 39.4577 52.8831 39.2315C52.8312 38.9966 52.7361 38.827 52.5977 38.7226C52.4593 38.6182 52.2603 38.566 52.0008 38.566C51.6029 38.566 51.1531 38.7531 50.6513 39.1271V43.7593L51.365 43.8768V44.738H47.7708V43.8768L48.4844 43.7593V38.8531Z" fill="#323C4F"/>
<path d="M64.285 44.8424C62.9441 44.8424 61.9407 44.5162 61.2746 43.8637C60.6085 43.2113 60.2755 42.1892 60.2755 40.7973V36.139L59.471 35.9563V35.0429H63.6621V35.9563L62.5722 36.152V40.98C62.5722 42.946 63.2512 43.929 64.6093 43.929C65.2841 43.929 65.7771 43.6724 66.0886 43.1591C66.4086 42.6372 66.5687 41.9195 66.5687 41.0061V36.139L65.4528 35.9563V35.0429H68.8264V35.9563L67.97 36.139V40.8887C67.97 42.2457 67.637 43.2461 66.9709 43.8898C66.3135 44.5249 65.4182 44.8424 64.285 44.8424Z" fill="#323C4F"/>
<path d="M76.795 40.8756C76.795 41.5976 76.6436 42.2631 76.3408 42.872C76.0467 43.481 75.6055 43.9681 75.0173 44.3335C74.4377 44.6988 73.737 44.8815 72.9153 44.8815C72.7768 44.8815 72.6255 44.8685 72.4611 44.8424C72.3054 44.8163 72.1843 44.7858 72.0978 44.751L72.1367 45.808V46.9171L73.2526 47.0867V47.8957H69.2691V47.0867L70.0606 46.9171V38.8531L69.2691 38.6182V37.6004L71.5917 37.3134H71.6177L71.968 37.5874V38.292C72.167 38.0223 72.4438 37.7918 72.7985 37.6004C73.1618 37.4004 73.5554 37.3003 73.9793 37.3003C74.8097 37.3003 75.4844 37.5961 76.0034 38.1876C76.5311 38.7704 76.795 39.6664 76.795 40.8756ZM73.2137 38.5008C72.9888 38.5008 72.7768 38.5486 72.5779 38.6443C72.3789 38.7313 72.2319 38.84 72.1367 38.9705V43.7463C72.1973 43.8246 72.3011 43.8898 72.4481 43.942C72.6038 43.9942 72.7725 44.0203 72.9542 44.0203C73.4386 44.0203 73.8235 43.7854 74.109 43.3157C74.4031 42.8459 74.5502 42.0848 74.5502 41.0322C74.5502 40.1797 74.4291 39.5447 74.1869 39.1271C73.9447 38.7096 73.6203 38.5008 73.2137 38.5008Z" fill="#323C4F"/>
<path d="M79.9694 44.8554C79.3985 44.8554 78.9746 44.7249 78.6978 44.464C78.4296 44.1943 78.2956 43.7811 78.2956 43.2244V38.5791H77.5041V37.8223L77.7636 37.7179C77.9712 37.6483 78.1528 37.5743 78.3085 37.496C78.4816 37.3308 78.62 37.1133 78.7238 36.8436C78.8535 36.5304 78.9963 36.0911 79.152 35.5257H80.3587L80.4365 37.483H82.2921V38.5791H80.4625V42.0369C80.4625 42.5154 80.4755 42.8503 80.5014 43.0417C80.5274 43.2331 80.575 43.3592 80.6442 43.4201C80.722 43.4723 80.8604 43.4984 81.0594 43.4984C81.4659 43.4984 81.8509 43.4288 82.2142 43.2896L82.4867 44.1117C82.2445 44.3117 81.8855 44.4857 81.4097 44.6336C80.934 44.7815 80.4538 44.8554 79.9694 44.8554Z" fill="#323C4F"/>
<path d="M83.1122 41.1496C83.1122 40.3145 83.2765 39.6099 83.6052 39.0358C83.9339 38.4529 84.3751 38.018 84.9287 37.7309C85.491 37.4438 86.1052 37.3003 86.7713 37.3003C87.8612 37.3003 88.7133 37.6309 89.3275 38.292C89.9503 38.9444 90.2617 39.8578 90.2617 41.0322C90.2617 41.8934 90.0974 42.6111 89.7686 43.1852C89.4399 43.7593 88.9988 44.1856 88.4451 44.464C87.8915 44.7423 87.273 44.8815 86.5896 44.8815C85.5083 44.8815 84.6562 44.5553 84.0334 43.9029C83.4192 43.2417 83.1122 42.324 83.1122 41.1496ZM86.7194 43.9681C87.1346 43.9681 87.4417 43.7463 87.6406 43.3026C87.8483 42.8503 87.9521 42.1457 87.9521 41.1888C87.9521 40.171 87.8526 39.4229 87.6536 38.9444C87.4633 38.4573 87.1389 38.2137 86.6805 38.2137C85.8327 38.2137 85.4088 39.1402 85.4088 40.9931C85.4088 42.0021 85.5126 42.7503 85.7203 43.2374C85.9279 43.7245 86.2609 43.9681 86.7194 43.9681Z" fill="#323C4F"/>
<path d="M99.3953 44.738C99.2569 44.738 99.1185 44.6162 98.9801 44.3726C98.8504 44.1204 98.673 43.7289 98.4481 43.1983C98.1886 42.5632 97.9594 42.063 97.7604 41.6977C97.5614 41.3236 97.3409 41.08 97.0986 40.967H96.4628C95.7449 40.967 95.2821 40.9539 95.0745 40.9278V39.91C95.4378 39.9622 95.9568 39.9883 96.6315 39.9883C97.1765 39.9883 97.596 39.8665 97.8902 39.623C98.1843 39.3794 98.3616 38.9836 98.4222 38.4355H95.0745V37.4699H98.4611C98.4351 36.9654 98.3054 36.6 98.0718 36.3739C97.8383 36.1477 97.4101 36.0259 96.7872 36.0085L95.0874 35.9955V35.0429H102.574V36.0085H100.446C100.749 36.3565 100.922 36.8436 100.965 37.4699H102.445V38.4355H100.9C100.805 38.9662 100.606 39.4316 100.304 39.8317C100.001 40.2232 99.6073 40.4972 99.1228 40.6538C99.4343 40.8191 99.7067 41.067 99.9403 41.3976C100.174 41.7194 100.425 42.1283 100.693 42.6241C100.9 43.0069 101.065 43.2852 101.186 43.4592C101.307 43.6332 101.433 43.7332 101.562 43.7593L101.926 43.8768V44.738H99.3953Z" fill="#323C4F"/>
<path d="M104.438 45.7949C104.689 45.821 104.94 45.8341 105.191 45.8341C105.771 45.8341 106.298 45.7123 106.774 45.4687C107.258 45.2338 107.639 44.912 107.916 44.5031C108.193 44.0856 108.331 43.6376 108.331 43.1591C108.331 42.5589 108.18 42.1326 107.877 41.8804C107.583 41.6194 107.155 41.4889 106.592 41.4889C106.307 41.4889 106 41.528 105.671 41.6063C105.342 41.6759 105.066 41.7586 104.841 41.8543L104.361 41.515L104.983 36.6348H109.187L109.317 36.3869H110.264L109.966 38.2007H106.346L105.84 40.706C106.514 40.3667 107.198 40.1971 107.89 40.1971C108.798 40.1971 109.486 40.4276 109.953 40.8887C110.429 41.341 110.667 41.9717 110.667 42.7807C110.667 43.5723 110.437 44.2769 109.979 44.8946C109.52 45.5122 108.885 45.9906 108.072 46.3299C107.267 46.6692 106.359 46.8388 105.347 46.8388C105.018 46.8388 104.715 46.8084 104.438 46.7475V45.7949Z" fill="#323C4F"/>
<path d="M115.559 44.8685C114.452 44.8685 113.595 44.5162 112.99 43.8115C112.384 43.0982 112.082 42.0848 112.082 40.7712C112.082 39.8317 112.255 39.0445 112.601 38.4094C112.947 37.7657 113.409 37.2916 113.989 36.9871C114.569 36.674 115.209 36.5174 115.909 36.5174C117.017 36.5174 117.864 36.8654 118.453 37.5613C119.05 38.2485 119.348 39.2532 119.348 40.5755C119.348 41.515 119.175 42.3066 118.829 42.9503C118.492 43.5941 118.037 44.0769 117.467 44.3987C116.896 44.7119 116.26 44.8685 115.559 44.8685ZM115.728 44.0203C116.186 44.0203 116.528 43.7506 116.753 43.2113C116.978 42.672 117.09 41.8499 117.09 40.7451C117.09 39.9187 117.043 39.2619 116.947 38.7748C116.861 38.2877 116.718 37.9353 116.519 37.7179C116.32 37.4917 116.052 37.3786 115.715 37.3786C114.798 37.3786 114.339 38.4529 114.339 40.6016C114.339 41.8108 114.448 42.685 114.664 43.2244C114.88 43.755 115.235 44.0203 115.728 44.0203Z" fill="#323C4F"/>
<path d="M124.201 44.8685C123.094 44.8685 122.237 44.5162 121.632 43.8115C121.026 43.0982 120.724 42.0848 120.724 40.7712C120.724 39.8317 120.897 39.0445 121.243 38.4094C121.589 37.7657 122.051 37.2916 122.631 36.9871C123.211 36.674 123.851 36.5174 124.551 36.5174C125.659 36.5174 126.506 36.8654 127.095 37.5613C127.691 38.2485 127.99 39.2532 127.99 40.5755C127.99 41.515 127.817 42.3066 127.471 42.9503C127.134 43.5941 126.679 44.0769 126.108 44.3987C125.538 44.7119 124.902 44.8685 124.201 44.8685ZM124.37 44.0203C124.828 44.0203 125.17 43.7506 125.395 43.2113C125.62 42.672 125.732 41.8499 125.732 40.7451C125.732 39.9187 125.685 39.2619 125.589 38.7748C125.503 38.2877 125.36 37.9353 125.161 37.7179C124.962 37.4917 124.694 37.3786 124.357 37.3786C123.44 37.3786 122.981 38.4529 122.981 40.6016C122.981 41.8108 123.089 42.685 123.306 43.2244C123.522 43.755 123.877 44.0203 124.37 44.0203Z" fill="#323C4F"/>
<path d="M132.441 37.222L130.663 36.7131L129.495 36.1651L130.3 34.7558L131.377 35.5127L132.726 36.7653L132.246 35.0299L132.103 33.6728H133.803L133.699 35.0038L133.297 36.7262L134.608 35.4866L135.685 34.7167L136.528 36.1129L135.399 36.7001L133.583 37.222L135.399 37.7048L136.554 38.2529L135.698 39.7012L134.686 38.9575L133.297 37.7179L133.777 39.4533L133.907 40.7973H132.22L132.324 39.4533L132.726 37.6918L131.403 38.9705L130.352 39.7534L129.508 38.3442L130.663 37.757L132.441 37.222Z" fill="#323C4F"/>
<path d="M140.355 39.2184H139.084L138.772 33.7642H140.68L140.355 39.2184ZM143.963 39.2184H142.691L142.38 33.7642H144.287L143.963 39.2184Z" fill="#323C4F"/>
<defs>
<clipPath id="clip0_446_136176">
<rect width="16.8186" height="16.9131" fill="white" transform="translate(70.9146 59.6958)"/>
</clipPath>
<clipPath id="clip1_446_136176">
<rect width="16.8186" height="16.9131" fill="white" transform="translate(93.3398 59.6958)"/>
</clipPath>
<clipPath id="clip2_446_136176">
<rect width="16.8186" height="16.9131" fill="white" transform="translate(115.764 59.6958)"/>
</clipPath>
</defs>
</svg>
