<svg width="304" height="304" viewBox="0 0 304 304" fill="none" xmlns="http://www.w3.org/2000/svg">
<rect x="0.5" y="0.5" width="303" height="303" rx="7.5" fill="#FFF1E4" stroke="#FFF6EE"/>
<path d="M48.0446 30.848H45.6926L45.1166 20.816H48.6446L48.0446 30.848ZM54.7166 30.848H52.3646L51.7886 20.816H55.3166L54.7166 30.848ZM57.5133 23.168H65.1693V24.848L63.1773 25.184L66.0333 35.768L66.4893 38L66.8973 35.768L69.3453 27.224L68.6493 25.184L67.1373 24.848V23.168H75.1533V24.848L72.8733 25.184L75.7293 35.768L76.2573 38.192L76.6653 35.768L79.2333 25.184L77.1933 24.848V23.168H83.0253V24.848L81.5373 25.184L77.0973 41.12H73.4253L70.3293 30.44L67.4013 41.12H63.7773L58.9053 25.184L57.5133 24.848V23.168ZM83.6336 39.416L85.0976 39.2V30.176L83.6816 29.744V27.872L87.6656 27.344H87.7376L88.4096 27.848V28.424L88.3376 30.416H88.4096C88.5216 30.048 88.7776 29.624 89.1776 29.144C89.5776 28.648 90.0816 28.224 90.6896 27.872C91.3136 27.504 91.9856 27.32 92.7056 27.32C93.1216 27.32 93.4416 27.376 93.6656 27.488V31.664C93.4096 31.472 93.1296 31.32 92.8256 31.208C92.5376 31.096 92.1616 31.04 91.6976 31.04C91.1216 31.04 90.6016 31.12 90.1376 31.28C89.6736 31.424 89.3056 31.592 89.0336 31.784V39.2L91.6736 39.44V41H83.6336V39.416ZM98.0688 25.592C97.4448 25.592 96.9408 25.408 96.5568 25.04C96.1728 24.672 95.9808 24.2 95.9808 23.624C95.9808 22.952 96.1888 22.4 96.6048 21.968C97.0368 21.536 97.6128 21.32 98.3328 21.32C99.0528 21.32 99.6048 21.504 99.9888 21.872C100.373 22.24 100.565 22.712 100.565 23.288C100.565 23.976 100.349 24.536 99.9168 24.968C99.4848 25.384 98.8768 25.592 98.0928 25.592H98.0688ZM96.6048 30.176L94.9968 29.72V27.92L99.7968 27.344H99.8448L100.589 27.848V39.2L102.029 39.416V41H95.1168V39.416L96.6048 39.2V30.176ZM107.752 41.216C106.696 41.216 105.912 40.976 105.4 40.496C104.904 40 104.656 39.24 104.656 38.216V29.672H103.192V28.28L103.672 28.088C104.056 27.96 104.392 27.824 104.68 27.68C105 27.376 105.256 26.976 105.448 26.48C105.688 25.904 105.952 25.096 106.24 24.056H108.472L108.616 27.656H112.048V29.672H108.664V36.032C108.664 36.912 108.688 37.528 108.736 37.88C108.784 38.232 108.872 38.464 109 38.576C109.144 38.672 109.4 38.72 109.768 38.72C110.52 38.72 111.232 38.592 111.904 38.336L112.408 39.848C111.96 40.216 111.296 40.536 110.416 40.808C109.536 41.08 108.648 41.216 107.752 41.216ZM119.684 41.264C117.492 41.264 115.868 40.648 114.812 39.416C113.756 38.168 113.228 36.472 113.228 34.328C113.228 32.872 113.5 31.616 114.044 30.56C114.588 29.504 115.348 28.704 116.324 28.16C117.316 27.6 118.476 27.32 119.804 27.32C121.484 27.32 122.764 27.744 123.644 28.592C124.54 29.44 125.004 30.64 125.036 32.192C125.036 33.216 124.964 34.04 124.82 34.664H117.308C117.388 36.024 117.716 37.064 118.292 37.784C118.884 38.488 119.708 38.84 120.764 38.84C121.356 38.84 121.972 38.744 122.612 38.552C123.268 38.344 123.796 38.112 124.196 37.856L124.868 39.32C124.452 39.784 123.74 40.224 122.732 40.64C121.74 41.056 120.724 41.264 119.684 41.264ZM121.22 33.08L121.244 32.072C121.244 31.064 121.108 30.296 120.836 29.768C120.564 29.24 120.1 28.976 119.444 28.976C118.772 28.976 118.252 29.272 117.884 29.864C117.516 30.44 117.316 31.512 117.284 33.08H121.22ZM132.141 37.16C132.141 35.752 132.853 34.672 134.277 33.92C135.717 33.168 137.605 32.784 139.941 32.768V32.288C139.941 31.712 139.877 31.256 139.749 30.92C139.621 30.584 139.389 30.336 139.053 30.176C138.717 30 138.221 29.912 137.565 29.912C136.781 29.912 136.077 30.008 135.453 30.2C134.845 30.376 134.205 30.616 133.533 30.92L132.717 29.192C132.973 28.984 133.389 28.736 133.965 28.448C134.541 28.144 135.229 27.888 136.029 27.68C136.845 27.456 137.693 27.344 138.573 27.344C139.853 27.344 140.853 27.512 141.573 27.848C142.309 28.184 142.829 28.704 143.133 29.408C143.453 30.112 143.613 31.072 143.613 32.288V39.416H144.861V40.928C144.493 41.008 143.981 41.088 143.325 41.168C142.669 41.248 142.109 41.288 141.645 41.288C141.037 41.288 140.629 41.2 140.421 41.024C140.229 40.848 140.133 40.496 140.133 39.968V39.416C139.733 39.896 139.197 40.328 138.525 40.712C137.853 41.08 137.077 41.264 136.197 41.264C135.445 41.264 134.757 41.104 134.133 40.784C133.525 40.448 133.037 39.976 132.669 39.368C132.317 38.744 132.141 38.008 132.141 37.16ZM138.069 39.056C138.357 39.056 138.677 38.976 139.029 38.816C139.381 38.64 139.685 38.432 139.941 38.192V34.376C138.693 34.376 137.765 34.6 137.157 35.048C136.565 35.496 136.269 36.072 136.269 36.776C136.269 37.496 136.429 38.056 136.749 38.456C137.069 38.856 137.509 39.056 138.069 39.056ZM151.668 39.416L153.516 39.176V25.16L151.764 24.824V23.168H155.46C155.764 23.168 156.092 23.16 156.444 23.144C156.812 23.128 157.092 23.112 157.284 23.096C158.148 23.032 158.884 23 159.492 23C161.204 23 162.564 23.168 163.572 23.504C164.58 23.824 165.308 24.336 165.756 25.04C166.22 25.728 166.452 26.64 166.452 27.776C166.452 28.864 166.164 29.88 165.588 30.824C165.012 31.768 164.164 32.416 163.044 32.768C163.78 33.04 164.396 33.552 164.892 34.304C165.404 35.04 165.932 35.984 166.476 37.136C166.796 37.808 167.052 38.312 167.244 38.648C167.436 38.968 167.636 39.152 167.844 39.2L168.54 39.416V41H163.98C163.74 41 163.492 40.744 163.236 40.232C162.98 39.72 162.652 38.92 162.252 37.832C161.756 36.504 161.324 35.48 160.956 34.76C160.604 34.024 160.212 33.576 159.78 33.416H157.62V39.176L159.756 39.416V41H151.668V39.416ZM159.468 31.856C160.3 31.856 160.948 31.536 161.412 30.896C161.876 30.24 162.108 29.256 162.108 27.944C162.108 26.792 161.876 25.952 161.412 25.424C160.964 24.88 160.204 24.608 159.132 24.608C158.556 24.608 158.052 24.648 157.62 24.728V31.784C157.828 31.832 158.172 31.856 158.652 31.856C159.132 31.856 159.404 31.856 159.468 31.856ZM175.606 41.264C173.414 41.264 171.79 40.648 170.734 39.416C169.678 38.168 169.15 36.472 169.15 34.328C169.15 32.872 169.422 31.616 169.966 30.56C170.51 29.504 171.27 28.704 172.246 28.16C173.238 27.6 174.398 27.32 175.726 27.32C177.406 27.32 178.686 27.744 179.566 28.592C180.462 29.44 180.926 30.64 180.958 32.192C180.958 33.216 180.886 34.04 180.742 34.664H173.23C173.31 36.024 173.638 37.064 174.214 37.784C174.806 38.488 175.63 38.84 176.686 38.84C177.278 38.84 177.894 38.744 178.534 38.552C179.19 38.344 179.718 38.112 180.118 37.856L180.79 39.32C180.374 39.784 179.662 40.224 178.654 40.64C177.662 41.056 176.646 41.264 175.606 41.264ZM177.142 33.08L177.166 32.072C177.166 31.064 177.03 30.296 176.758 29.768C176.486 29.24 176.022 28.976 175.366 28.976C174.694 28.976 174.174 29.272 173.806 29.864C173.438 30.44 173.238 31.512 173.206 33.08H177.142ZM181.479 27.656H188.295V29.192L186.783 29.48L188.799 35.816L189.423 38L189.927 35.84L191.919 29.48L190.455 29.192V27.656H195.999V29.192L194.751 29.48L190.383 41.192H187.167L182.415 29.48L181.479 29.192V27.656ZM199.389 25.592C198.765 25.592 198.261 25.408 197.877 25.04C197.493 24.672 197.301 24.2 197.301 23.624C197.301 22.952 197.509 22.4 197.925 21.968C198.357 21.536 198.933 21.32 199.653 21.32C200.373 21.32 200.925 21.504 201.309 21.872C201.693 22.24 201.885 22.712 201.885 23.288C201.885 23.976 201.669 24.536 201.237 24.968C200.805 25.384 200.197 25.592 199.413 25.592H199.389ZM197.925 30.176L196.317 29.72V27.92L201.117 27.344H201.165L201.909 27.848V39.2L203.349 39.416V41H196.437V39.416L197.925 39.2V30.176ZM211.208 41.264C209.016 41.264 207.392 40.648 206.336 39.416C205.28 38.168 204.752 36.472 204.752 34.328C204.752 32.872 205.024 31.616 205.568 30.56C206.112 29.504 206.872 28.704 207.848 28.16C208.84 27.6 210 27.32 211.328 27.32C213.008 27.32 214.288 27.744 215.168 28.592C216.064 29.44 216.528 30.64 216.56 32.192C216.56 33.216 216.488 34.04 216.344 34.664H208.832C208.912 36.024 209.24 37.064 209.816 37.784C210.408 38.488 211.232 38.84 212.288 38.84C212.88 38.84 213.496 38.744 214.136 38.552C214.792 38.344 215.32 38.112 215.72 37.856L216.392 39.32C215.976 39.784 215.264 40.224 214.256 40.64C213.264 41.056 212.248 41.264 211.208 41.264ZM212.744 33.08L212.768 32.072C212.768 31.064 212.632 30.296 212.36 29.768C212.088 29.24 211.624 28.976 210.968 28.976C210.296 28.976 209.776 29.272 209.408 29.864C209.04 30.44 208.84 31.512 208.808 33.08H212.744ZM216.865 27.68H223.441V29.192L221.833 29.456L223.465 35.432L223.969 37.808L224.401 35.432L226.465 27.68H229.705L232.081 35.432L232.585 37.784L233.065 35.432L234.577 29.48L232.849 29.192V27.68H238.129V29.192L236.977 29.456L233.353 41.192H230.305L227.929 33.848L227.425 31.064L227.065 33.848L224.929 41.192H221.809L217.993 29.456L216.865 29.192V27.68ZM261.292 32.816L259.612 33.152C259.612 34.128 259.452 35.024 259.132 35.84C258.812 36.656 258.396 37.344 257.884 37.904C258.38 38.32 258.86 38.64 259.324 38.864C259.788 39.088 260.3 39.216 260.86 39.248V40.76C260.684 40.888 260.332 40.984 259.804 41.048C259.276 41.128 258.844 41.168 258.508 41.168C257.852 41.168 257.284 41.096 256.804 40.952C256.324 40.808 255.82 40.552 255.292 40.184C254.268 40.904 252.82 41.264 250.948 41.264C248.804 41.264 247.124 40.84 245.908 39.992C244.692 39.144 244.084 37.952 244.084 36.416C244.084 35.408 244.436 34.536 245.14 33.8C245.86 33.064 246.724 32.504 247.732 32.12C247.092 31.272 246.596 30.504 246.244 29.816C245.908 29.128 245.74 28.352 245.74 27.488C245.74 26.64 245.98 25.872 246.46 25.184C246.94 24.48 247.596 23.928 248.428 23.528C249.26 23.128 250.188 22.928 251.212 22.928C252.268 22.928 253.156 23.096 253.876 23.432C254.596 23.752 255.132 24.184 255.484 24.728C255.836 25.256 256.012 25.824 256.012 26.432C256.012 27.648 255.692 28.632 255.052 29.384C254.412 30.12 253.364 30.856 251.908 31.592C252.532 32.36 253.268 33.216 254.116 34.16C254.964 35.088 255.66 35.808 256.204 36.32L256.588 36.704C257.084 35.744 257.3 34.56 257.236 33.152L255.436 32.816V31.064H261.292V32.816ZM249.388 26.768C249.388 27.472 249.54 28.12 249.844 28.712C250.164 29.304 250.556 29.896 251.02 30.488C251.676 29.88 252.14 29.248 252.412 28.592C252.684 27.92 252.82 27.192 252.82 26.408C252.82 25.88 252.7 25.392 252.46 24.944C252.22 24.48 251.804 24.248 251.212 24.248C250.652 24.248 250.204 24.464 249.868 24.896C249.548 25.328 249.388 25.952 249.388 26.768ZM251.428 39.56C252.436 39.56 253.212 39.376 253.756 39.008C253.132 38.496 252.492 37.872 251.836 37.136C251.196 36.384 250.412 35.44 249.484 34.304L248.74 33.392C248.388 33.744 248.092 34.152 247.852 34.616C247.628 35.064 247.516 35.544 247.516 36.056C247.516 37.112 247.86 37.96 248.548 38.6C249.252 39.24 250.212 39.56 251.428 39.56ZM43.0781 59.184L41.2061 58.848V57.168H54.3341L54.6461 61.416H52.7501L51.9101 58.992L47.1821 58.752V64.992L50.1101 64.92L50.5421 62.952H52.1981V68.976H50.5421L50.1341 66.888L47.1821 66.816V73.344L52.4381 73.008L53.9021 69.912L55.9421 70.488L55.3661 75H41.2301V73.416L43.0781 73.176V59.184ZM56.8595 71.16C56.8595 69.752 57.5715 68.672 58.9955 67.92C60.4355 67.168 62.3235 66.784 64.6595 66.768V66.288C64.6595 65.712 64.5955 65.256 64.4675 64.92C64.3395 64.584 64.1075 64.336 63.7715 64.176C63.4355 64 62.9395 63.912 62.2835 63.912C61.4995 63.912 60.7955 64.008 60.1715 64.2C59.5635 64.376 58.9235 64.616 58.2515 64.92L57.4355 63.192C57.6915 62.984 58.1075 62.736 58.6835 62.448C59.2595 62.144 59.9475 61.888 60.7475 61.68C61.5635 61.456 62.4115 61.344 63.2915 61.344C64.5715 61.344 65.5715 61.512 66.2915 61.848C67.0275 62.184 67.5475 62.704 67.8515 63.408C68.1715 64.112 68.3315 65.072 68.3315 66.288V73.416H69.5795V74.928C69.2115 75.008 68.6995 75.088 68.0435 75.168C67.3875 75.248 66.8275 75.288 66.3635 75.288C65.7555 75.288 65.3475 75.2 65.1395 75.024C64.9475 74.848 64.8515 74.496 64.8515 73.968V73.416C64.4515 73.896 63.9155 74.328 63.2435 74.712C62.5715 75.08 61.7955 75.264 60.9155 75.264C60.1635 75.264 59.4755 75.104 58.8515 74.784C58.2435 74.448 57.7555 73.976 57.3875 73.368C57.0355 72.744 56.8595 72.008 56.8595 71.16ZM62.7875 73.056C63.0755 73.056 63.3955 72.976 63.7475 72.816C64.0995 72.64 64.4035 72.432 64.6595 72.192V68.376C63.4115 68.376 62.4835 68.6 61.8755 69.048C61.2835 69.496 60.9875 70.072 60.9875 70.776C60.9875 71.496 61.1475 72.056 61.4675 72.456C61.7875 72.856 62.2275 73.056 62.7875 73.056ZM70.907 73.416L72.371 73.2V64.176L70.955 63.744V61.872L74.939 61.344H75.011L75.683 61.848V62.424L75.611 64.416H75.683C75.795 64.048 76.051 63.624 76.451 63.144C76.851 62.648 77.355 62.224 77.963 61.872C78.587 61.504 79.259 61.32 79.979 61.32C80.395 61.32 80.715 61.376 80.939 61.488V65.664C80.683 65.472 80.403 65.32 80.099 65.208C79.811 65.096 79.435 65.04 78.971 65.04C78.395 65.04 77.875 65.12 77.411 65.28C76.947 65.424 76.579 65.592 76.307 65.784V73.2L78.947 73.44V75H70.907V73.416ZM83.7583 64.176L82.3423 63.744V61.872L86.7103 61.344H86.7823L87.4062 61.848V62.736L87.3823 63.288C87.9423 62.76 88.6543 62.312 89.5183 61.944C90.3823 61.576 91.2863 61.392 92.2303 61.392C93.1903 61.392 93.9423 61.568 94.4863 61.92C95.0463 62.256 95.4463 62.8 95.6863 63.552C95.9423 64.304 96.0703 65.328 96.0703 66.624V73.2L97.4143 73.392V75H90.8863V73.416L92.0623 73.2V66.648C92.0623 65.88 92.0063 65.288 91.8943 64.872C91.7983 64.44 91.6223 64.128 91.3663 63.936C91.1103 63.744 90.7423 63.648 90.2623 63.648C89.5263 63.648 88.6943 63.992 87.7663 64.68V73.2L89.0863 73.416V75H82.4383V73.416L83.7583 73.2V64.176ZM112.983 75.192C110.503 75.192 108.647 74.592 107.415 73.392C106.183 72.192 105.567 70.312 105.567 67.752V59.184L104.079 58.848V57.168H111.831V58.848L109.815 59.208V68.088C109.815 71.704 111.071 73.512 113.583 73.512C114.831 73.512 115.743 73.04 116.319 72.096C116.911 71.136 117.207 69.816 117.207 68.136V59.184L115.143 58.848V57.168H121.383V58.848L119.799 59.184V67.92C119.799 70.416 119.183 72.256 117.951 73.44C116.735 74.608 115.079 75.192 112.983 75.192ZM136.122 67.896C136.122 69.224 135.842 70.448 135.282 71.568C134.738 72.688 133.922 73.584 132.834 74.256C131.762 74.928 130.466 75.264 128.946 75.264C128.69 75.264 128.41 75.24 128.106 75.192C127.818 75.144 127.594 75.088 127.434 75.024L127.506 76.968V79.008L129.57 79.32V80.808H122.202V79.32L123.666 79.008V64.176L122.202 63.744V61.872L126.498 61.344H126.546L127.194 61.848V63.144C127.562 62.648 128.074 62.224 128.73 61.872C129.402 61.504 130.13 61.32 130.914 61.32C132.45 61.32 133.698 61.864 134.658 62.952C135.634 64.024 136.122 65.672 136.122 67.896ZM129.498 63.528C129.082 63.528 128.69 63.616 128.322 63.792C127.954 63.952 127.682 64.152 127.506 64.392V73.176C127.618 73.32 127.81 73.44 128.082 73.536C128.37 73.632 128.682 73.68 129.018 73.68C129.914 73.68 130.626 73.248 131.154 72.384C131.698 71.52 131.97 70.12 131.97 68.184C131.97 66.616 131.746 65.448 131.298 64.68C130.85 63.912 130.25 63.528 129.498 63.528ZM141.994 75.216C140.938 75.216 140.154 74.976 139.642 74.496C139.146 74 138.898 73.24 138.898 72.216V63.672H137.434V62.28L137.914 62.088C138.298 61.96 138.634 61.824 138.922 61.68C139.242 61.376 139.498 60.976 139.69 60.48C139.93 59.904 140.194 59.096 140.482 58.056H142.714L142.858 61.656H146.29V63.672H142.906V70.032C142.906 70.912 142.93 71.528 142.978 71.88C143.026 72.232 143.114 72.464 143.242 72.576C143.386 72.672 143.642 72.72 144.01 72.72C144.762 72.72 145.474 72.592 146.146 72.336L146.65 73.848C146.202 74.216 145.538 74.536 144.658 74.808C143.778 75.08 142.89 75.216 141.994 75.216ZM147.807 68.4C147.807 66.864 148.111 65.568 148.719 64.512C149.327 63.44 150.143 62.64 151.167 62.112C152.207 61.584 153.343 61.32 154.575 61.32C156.591 61.32 158.167 61.928 159.303 63.144C160.455 64.344 161.031 66.024 161.031 68.184C161.031 69.768 160.727 71.088 160.119 72.144C159.511 73.2 158.695 73.984 157.671 74.496C156.647 75.008 155.503 75.264 154.239 75.264C152.239 75.264 150.663 74.664 149.511 73.464C148.375 72.248 147.807 70.56 147.807 68.4ZM154.479 73.584C155.247 73.584 155.815 73.176 156.183 72.36C156.567 71.528 156.759 70.232 156.759 68.472C156.759 66.6 156.575 65.224 156.207 64.344C155.855 63.448 155.255 63 154.407 63C152.839 63 152.055 64.704 152.055 68.112C152.055 69.968 152.247 71.344 152.631 72.24C153.015 73.136 153.631 73.584 154.479 73.584ZM177.924 75C177.668 75 177.412 74.776 177.156 74.328C176.916 73.864 176.588 73.144 176.172 72.168C175.692 71 175.268 70.08 174.9 69.408C174.532 68.72 174.124 68.272 173.676 68.064H172.5C171.172 68.064 170.316 68.04 169.932 67.992V66.12C170.604 66.216 171.564 66.264 172.812 66.264C173.82 66.264 174.596 66.04 175.14 65.592C175.684 65.144 176.012 64.416 176.124 63.408H169.932V61.632H176.196C176.148 60.704 175.908 60.032 175.476 59.616C175.044 59.2 174.252 58.976 173.1 58.944L169.956 58.92V57.168H183.804V58.944H179.868C180.428 59.584 180.748 60.48 180.828 61.632H183.564V63.408H180.708C180.532 64.384 180.164 65.24 179.604 65.976C179.044 66.696 178.316 67.2 177.42 67.488C177.996 67.792 178.5 68.248 178.932 68.856C179.364 69.448 179.828 70.2 180.324 71.112C180.708 71.816 181.012 72.328 181.236 72.648C181.46 72.968 181.692 73.152 181.932 73.2L182.604 73.416V75H177.924ZM187.252 76.944C187.716 76.992 188.18 77.016 188.644 77.016C189.716 77.016 190.692 76.792 191.572 76.344C192.468 75.912 193.172 75.32 193.684 74.568C194.196 73.8 194.452 72.976 194.452 72.096C194.452 70.992 194.172 70.208 193.612 69.744C193.068 69.264 192.276 69.024 191.236 69.024C190.708 69.024 190.14 69.096 189.532 69.24C188.924 69.368 188.412 69.52 187.996 69.696L187.108 69.072L188.26 60.096H196.036L196.276 59.64H198.028L197.476 62.976H190.78L189.844 67.584C191.092 66.96 192.356 66.648 193.636 66.648C195.316 66.648 196.588 67.072 197.452 67.92C198.332 68.752 198.772 69.912 198.772 71.4C198.772 72.856 198.348 74.152 197.5 75.288C196.652 76.424 195.476 77.304 193.972 77.928C192.484 78.552 190.804 78.864 188.932 78.864C188.324 78.864 187.764 78.808 187.252 78.696V76.944ZM207.821 75.24C205.773 75.24 204.189 74.592 203.069 73.296C201.949 71.984 201.389 70.12 201.389 67.704C201.389 65.976 201.709 64.528 202.349 63.36C202.989 62.176 203.845 61.304 204.917 60.744C205.989 60.168 207.173 59.88 208.469 59.88C210.517 59.88 212.085 60.52 213.173 61.8C214.277 63.064 214.829 64.912 214.829 67.344C214.829 69.072 214.509 70.528 213.869 71.712C213.245 72.896 212.405 73.784 211.349 74.376C210.293 74.952 209.117 75.24 207.821 75.24ZM208.133 73.68C208.981 73.68 209.613 73.184 210.029 72.192C210.445 71.2 210.653 69.688 210.653 67.656C210.653 66.136 210.565 64.928 210.389 64.032C210.229 63.136 209.965 62.488 209.597 62.088C209.229 61.672 208.733 61.464 208.109 61.464C206.413 61.464 205.565 63.44 205.565 67.392C205.565 69.616 205.765 71.224 206.165 72.216C206.565 73.192 207.221 73.68 208.133 73.68ZM223.806 75.24C221.758 75.24 220.174 74.592 219.054 73.296C217.934 71.984 217.374 70.12 217.374 67.704C217.374 65.976 217.694 64.528 218.334 63.36C218.974 62.176 219.83 61.304 220.902 60.744C221.974 60.168 223.158 59.88 224.454 59.88C226.502 59.88 228.07 60.52 229.158 61.8C230.262 63.064 230.814 64.912 230.814 67.344C230.814 69.072 230.494 70.528 229.854 71.712C229.23 72.896 228.39 73.784 227.334 74.376C226.278 74.952 225.102 75.24 223.806 75.24ZM224.118 73.68C224.966 73.68 225.598 73.184 226.014 72.192C226.43 71.2 226.638 69.688 226.638 67.656C226.638 66.136 226.55 64.928 226.374 64.032C226.214 63.136 225.95 62.488 225.582 62.088C225.214 61.672 224.718 61.464 224.094 61.464C222.398 61.464 221.55 63.44 221.55 67.392C221.55 69.616 221.75 71.224 222.15 72.216C222.55 73.192 223.206 73.68 224.118 73.68ZM239.046 61.176L235.758 60.24L233.598 59.232L235.086 56.64L237.078 58.032L239.574 60.336L238.686 57.144L238.422 54.648H241.566L241.374 57.096L240.63 60.264L243.054 57.984L245.046 56.568L246.606 59.136L244.518 60.216L241.158 61.176L244.518 62.064L246.654 63.072L245.07 65.736L243.198 64.368L240.63 62.088L241.518 65.28L241.758 67.752H238.638L238.83 65.28L239.574 62.04L237.126 64.392L235.182 65.832L233.622 63.24L235.758 62.16L239.046 61.176ZM253.685 64.848H251.333L250.757 54.816H254.285L253.685 64.848ZM260.357 64.848H258.005L257.429 54.816H260.957L260.357 64.848Z" fill="#323C4F"/>
<path d="M93.9721 96.476L93.4541 97.386L91.9001 96.42L91.9561 98.254H90.9061L90.9621 96.42L89.4081 97.386L88.8901 96.476L90.5001 95.622L88.8901 94.754L89.4081 93.844L90.9621 94.81L90.9061 92.99H91.9561L91.9001 94.81L93.4541 93.844L93.9721 94.754L92.3621 95.622L93.9721 96.476ZM103.045 103H101.435L100.749 100.998H96.8152L96.1292 103H94.5192L98.1732 93.032H99.3912L103.045 103ZM100.329 99.71L98.8172 95.286L97.2632 99.71H100.329ZM110.101 99.444C110.101 100.909 109.835 101.913 109.303 102.454C108.883 102.874 108.309 103.084 107.581 103.084C106.788 103.084 106.167 102.813 105.719 102.272V105.87H104.291V95.902H105.691V96.658C106.158 96.098 106.783 95.818 107.567 95.818C108.305 95.818 108.883 96.028 109.303 96.448C109.835 96.9893 110.101 97.988 110.101 99.444ZM108.617 100.354C108.655 100.102 108.673 99.7987 108.673 99.444C108.673 99.0893 108.655 98.786 108.617 98.534C108.589 98.282 108.524 98.0393 108.421 97.806C108.328 97.5727 108.179 97.3953 107.973 97.274C107.768 97.1527 107.511 97.092 107.203 97.092C106.886 97.092 106.625 97.1527 106.419 97.274C106.214 97.3953 106.06 97.5727 105.957 97.806C105.864 98.0393 105.799 98.282 105.761 98.534C105.733 98.786 105.719 99.0893 105.719 99.444C105.719 99.7987 105.733 100.102 105.761 100.354C105.799 100.606 105.864 100.853 105.957 101.096C106.06 101.329 106.214 101.507 106.419 101.628C106.634 101.749 106.895 101.81 107.203 101.81C107.511 101.81 107.768 101.749 107.973 101.628C108.179 101.507 108.328 101.329 108.421 101.096C108.524 100.853 108.589 100.606 108.617 100.354ZM117.84 99.444C117.84 100.909 117.574 101.913 117.042 102.454C116.622 102.874 116.048 103.084 115.32 103.084C114.526 103.084 113.906 102.813 113.458 102.272V105.87H112.03V95.902H113.43V96.658C113.896 96.098 114.522 95.818 115.306 95.818C116.043 95.818 116.622 96.028 117.042 96.448C117.574 96.9893 117.84 97.988 117.84 99.444ZM116.356 100.354C116.393 100.102 116.412 99.7987 116.412 99.444C116.412 99.0893 116.393 98.786 116.356 98.534C116.328 98.282 116.262 98.0393 116.16 97.806C116.066 97.5727 115.917 97.3953 115.712 97.274C115.506 97.1527 115.25 97.092 114.942 97.092C114.624 97.092 114.363 97.1527 114.158 97.274C113.952 97.3953 113.798 97.5727 113.696 97.806C113.602 98.0393 113.537 98.282 113.5 98.534C113.472 98.786 113.458 99.0893 113.458 99.444C113.458 99.7987 113.472 100.102 113.5 100.354C113.537 100.606 113.602 100.853 113.696 101.096C113.798 101.329 113.952 101.507 114.158 101.628C114.372 101.749 114.634 101.81 114.942 101.81C115.25 101.81 115.506 101.749 115.712 101.628C115.917 101.507 116.066 101.329 116.16 101.096C116.262 100.853 116.328 100.606 116.356 100.354ZM124.752 96.49L123.674 97.568C123.356 97.2507 123.002 97.092 122.61 97.092C122.208 97.092 121.872 97.2413 121.602 97.54C121.331 97.8293 121.196 98.212 121.196 98.688V103H119.768V95.902H121.168V96.672C121.354 96.42 121.616 96.2147 121.952 96.056C122.297 95.8973 122.666 95.818 123.058 95.818C123.739 95.818 124.304 96.042 124.752 96.49ZM131.082 99.444C131.082 100.097 131.022 100.643 130.9 101.082C130.779 101.521 130.56 101.908 130.242 102.244C129.701 102.804 128.992 103.084 128.114 103.084C127.246 103.084 126.542 102.804 126 102.244C125.683 101.908 125.464 101.521 125.342 101.082C125.221 100.643 125.16 100.097 125.16 99.444C125.16 98.8 125.221 98.2587 125.342 97.82C125.464 97.372 125.683 96.9847 126 96.658C126.542 96.098 127.246 95.818 128.114 95.818C128.992 95.818 129.701 96.098 130.242 96.658C130.56 96.9847 130.779 97.372 130.9 97.82C131.022 98.2587 131.082 98.8 131.082 99.444ZM129.164 101.39C129.491 101.063 129.654 100.415 129.654 99.444C129.654 98.4733 129.491 97.8247 129.164 97.498C128.894 97.2273 128.544 97.092 128.114 97.092C127.694 97.092 127.349 97.2273 127.078 97.498C126.752 97.8247 126.588 98.4733 126.588 99.444C126.588 100.415 126.752 101.063 127.078 101.39C127.358 101.67 127.704 101.81 128.114 101.81C128.534 101.81 128.884 101.67 129.164 101.39ZM138.227 95.902L135.623 103H134.461L131.857 95.902H133.369L135.049 100.9L136.715 95.902H138.227ZM144.623 103H143.223V102.356C142.961 102.617 142.686 102.804 142.397 102.916C142.117 103.028 141.762 103.084 141.333 103.084C140.493 103.084 139.858 102.869 139.429 102.44C139.055 102.048 138.869 101.539 138.869 100.914C138.869 100.298 139.079 99.8033 139.499 99.43C139.928 99.0567 140.539 98.87 141.333 98.87H143.195V98.366C143.195 97.9087 143.073 97.5727 142.831 97.358C142.588 97.1433 142.191 97.036 141.641 97.036C141.267 97.036 140.964 97.092 140.731 97.204C140.507 97.3067 140.292 97.484 140.087 97.736L139.163 96.854C139.489 96.4713 139.839 96.2053 140.213 96.056C140.595 95.8973 141.09 95.818 141.697 95.818C143.647 95.818 144.623 96.63 144.623 98.254V103ZM143.195 100.438V99.864H141.557C140.689 99.864 140.255 100.205 140.255 100.886C140.255 101.558 140.703 101.894 141.599 101.894C142.168 101.894 142.597 101.759 142.887 101.488C143.092 101.292 143.195 100.942 143.195 100.438ZM149.61 103H148.728C148.084 103 147.599 102.818 147.272 102.454C146.946 102.081 146.782 101.609 146.782 101.04V93.032H148.21V100.956C148.21 101.236 148.266 101.446 148.378 101.586C148.5 101.717 148.7 101.782 148.98 101.782H149.61V103ZM155.963 103H154.535V95.902H155.963V103ZM156.005 94.502H154.493V92.99H156.005V94.502ZM163.981 103H162.553V98.674C162.553 98.142 162.422 97.7453 162.161 97.484C161.899 97.2227 161.554 97.092 161.125 97.092C160.695 97.092 160.341 97.2273 160.061 97.498C159.79 97.7593 159.655 98.1513 159.655 98.674V103H158.227V95.902H159.627V96.616C160.121 96.084 160.751 95.818 161.517 95.818C162.235 95.818 162.819 96.0327 163.267 96.462C163.743 96.9287 163.981 97.596 163.981 98.464V103ZM173.383 103H171.955V94.586L170.009 96.294V94.712L171.955 93.032H173.383V103ZM182.584 99.668C182.584 100.275 182.528 100.783 182.416 101.194C182.304 101.605 182.08 101.978 181.744 102.314C181.221 102.837 180.521 103.098 179.644 103.098C178.739 103.098 178.029 102.841 177.516 102.328C177.077 101.889 176.825 101.255 176.76 100.424H178.188C178.309 101.348 178.795 101.81 179.644 101.81C180.073 101.81 180.419 101.679 180.68 101.418C180.997 101.101 181.156 100.517 181.156 99.668C181.156 98.2773 180.671 97.582 179.7 97.582C178.944 97.582 178.473 97.8807 178.286 98.478H176.984V93.032H182.36V94.306H178.272V96.938C178.636 96.5553 179.187 96.364 179.924 96.364C180.689 96.364 181.287 96.5787 181.716 97.008C182.295 97.5867 182.584 98.4733 182.584 99.668ZM196.8 103H195.288V96.336L192.992 101.194H191.872L189.52 96.336V103H188.008V93.032H189.52L192.432 99.234L195.288 93.032H196.8V103ZM200.657 103H199.229V95.902H200.657V103ZM200.699 94.502H199.187V92.99H200.699V94.502ZM208.674 103H207.246V98.674C207.246 98.142 207.115 97.7453 206.854 97.484C206.593 97.2227 206.247 97.092 205.818 97.092C205.389 97.092 205.034 97.2273 204.754 97.498C204.483 97.7593 204.348 98.1513 204.348 98.674V103H202.92V95.902H204.32V96.616C204.815 96.084 205.445 95.818 206.21 95.818C206.929 95.818 207.512 96.0327 207.96 96.462C208.436 96.9287 208.674 97.596 208.674 98.464V103ZM214.867 95.706H213.453V93.032H214.867V95.706ZM212.249 95.706H210.835V93.032H212.249V95.706Z" fill="#666666"/>
<rect x="56" y="120" width="192" height="41" rx="8" fill="#FFF8F2"/>
<path d="M91.7053 137.393L89.4657 130.077C89.4089 129.887 89.3149 129.71 89.1892 129.557C89.0635 129.403 88.9085 129.276 88.7331 129.181C88.5578 129.087 88.3654 129.028 88.1671 129.008C87.9687 128.988 87.7683 129.006 87.5772 129.063C87.3355 129.134 87.1154 129.264 86.9371 129.441C86.7587 129.618 86.6276 129.837 86.5557 130.077L84.3016 137.393H77.5202C77.117 137.393 76.7304 137.552 76.4453 137.835C76.1602 138.118 76 138.501 76 138.902C76 139.142 76.0578 139.378 76.1686 139.592C76.2793 139.805 76.4399 139.99 76.6369 140.129L82.1813 144.06L80.0062 151.029C79.8871 151.412 79.926 151.826 80.1143 152.18C80.3026 152.534 80.625 152.8 81.0105 152.918C81.2422 152.989 81.4877 153.004 81.7266 152.962C81.9655 152.92 82.1908 152.823 82.3839 152.677L88.0021 148.444L93.6229 152.691C93.7819 152.812 93.9632 152.899 94.1564 152.95C94.3496 153.001 94.551 153.013 94.749 152.986C94.947 152.96 95.1378 152.895 95.3105 152.795C95.4831 152.695 95.6342 152.562 95.7552 152.404C95.9025 152.213 96.0014 151.989 96.0438 151.752C96.0862 151.515 96.0709 151.271 95.999 151.041L93.8204 144.072L99.3648 140.141C99.6927 139.908 99.9141 139.556 99.9802 139.161C100.046 138.766 99.9519 138.362 99.7176 138.036C99.577 137.841 99.3915 137.682 99.1765 137.572C98.9616 137.462 98.7233 137.405 98.4815 137.405H91.7001L91.7053 137.393Z" fill="#FF7900"/>
<path d="M86.2039 139.865C86.2037 139.61 86.1014 139.365 85.9196 139.185C85.7377 139.004 85.4911 138.903 85.2339 138.903C84.9769 138.903 84.7304 139.004 84.5486 139.184C84.3667 139.365 84.2644 139.609 84.2639 139.864C84.2634 139.991 84.288 140.116 84.3365 140.233C84.385 140.35 84.4563 140.456 84.5463 140.546C84.6364 140.636 84.7434 140.707 84.8613 140.755C84.9791 140.804 85.1055 140.829 85.2331 140.829C85.4905 140.829 85.7373 140.727 85.9193 140.546C86.1013 140.366 86.2037 140.121 86.2039 139.865Z" fill="#FFEEDF"/>
<path d="M91.0857 138.902C90.8285 138.902 90.5819 139.003 90.4001 139.184C90.2182 139.364 90.116 139.609 90.1157 139.864C90.1151 139.991 90.1399 140.116 90.1885 140.233C90.2371 140.35 90.3087 140.456 90.399 140.546C90.4888 140.636 90.5958 140.707 90.7137 140.756C90.8316 140.804 90.9581 140.829 91.0857 140.829C91.343 140.828 91.5896 140.726 91.7714 140.546C91.9532 140.365 92.0555 140.12 92.0557 139.865C92.0557 139.61 91.9535 139.365 91.7717 139.184C91.5898 139.003 91.3431 138.902 91.0857 138.902Z" fill="#FFEEDF"/>
<path d="M88.3868 142.596H88.2408C86.0777 142.642 85.4733 143.835 85.4081 143.974C85.3809 144.035 85.3661 144.102 85.3646 144.169C85.3632 144.236 85.375 144.303 85.3996 144.365C85.4242 144.428 85.4609 144.485 85.5077 144.533C85.5545 144.582 85.6105 144.621 85.6725 144.648L85.8133 144.691H85.8819C85.9784 144.69 86.0724 144.661 86.1533 144.609C86.2341 144.557 86.2987 144.483 86.3395 144.396C86.3558 144.365 86.7455 143.63 88.3052 143.614C89.8761 143.63 90.2598 144.366 90.2735 144.392C90.3142 144.481 90.3795 144.556 90.4618 144.609C90.5441 144.662 90.6399 144.69 90.7379 144.691L90.883 144.675L90.9448 144.649C91.0067 144.622 91.0625 144.583 91.1091 144.534C91.1557 144.486 91.192 144.428 91.216 144.366C91.2634 144.252 91.265 144.125 91.2203 144.011C91.2195 143.995 90.6959 142.644 88.3868 142.596Z" fill="#FFEEDF"/>
<path d="M123.707 137.392L121.467 130.076C121.352 129.693 121.088 129.372 120.734 129.182C120.38 128.992 119.964 128.949 119.578 129.062C119.337 129.134 119.117 129.264 118.938 129.441C118.76 129.618 118.629 129.836 118.557 130.076L116.303 137.392H109.521C109.118 137.392 108.731 137.551 108.446 137.835C108.161 138.118 108.001 138.501 108.001 138.902C108.001 139.142 108.058 139.378 108.169 139.592C108.28 139.805 108.441 139.989 108.638 140.128L114.182 144.059L112.008 151.028C111.889 151.411 111.928 151.825 112.116 152.179C112.304 152.533 112.627 152.799 113.012 152.918C113.244 152.989 113.49 153.004 113.729 152.962C113.967 152.92 114.193 152.822 114.386 152.676L120.004 148.443L125.625 152.69C125.784 152.81 125.965 152.899 126.158 152.949C126.352 153 126.553 153.012 126.751 152.986C126.949 152.959 127.14 152.894 127.313 152.794C127.485 152.694 127.637 152.562 127.758 152.404C127.904 152.212 128.003 151.989 128.046 151.752C128.088 151.515 128.073 151.271 128.001 151.041L125.821 144.077L131.365 140.146C131.693 139.914 131.915 139.561 131.981 139.167C132.047 138.772 131.953 138.368 131.718 138.042C131.578 137.847 131.392 137.688 131.177 137.578C130.962 137.468 130.724 137.41 130.482 137.41H123.701L123.707 137.392Z" fill="#FF7900"/>
<path d="M117.236 138.902C116.979 138.903 116.732 139.004 116.551 139.184C116.369 139.365 116.266 139.609 116.266 139.864C116.265 139.991 116.29 140.116 116.338 140.233C116.387 140.35 116.458 140.456 116.548 140.546C116.638 140.636 116.745 140.707 116.863 140.756C116.981 140.804 117.107 140.829 117.235 140.828C117.492 140.828 117.739 140.726 117.921 140.546C118.102 140.365 118.205 140.121 118.206 139.866C118.206 139.61 118.104 139.366 117.922 139.185C117.74 139.004 117.493 138.903 117.236 138.902Z" fill="#FFEEDF"/>
<path d="M123.773 139.185C123.683 139.095 123.576 139.024 123.458 138.976C123.34 138.927 123.214 138.902 123.086 138.902C122.829 138.903 122.582 139.004 122.4 139.185C122.218 139.365 122.116 139.61 122.116 139.865C122.115 139.992 122.14 140.117 122.188 140.234C122.237 140.351 122.309 140.457 122.399 140.546C122.489 140.637 122.596 140.708 122.714 140.757C122.832 140.805 122.958 140.83 123.086 140.829C123.214 140.83 123.34 140.805 123.458 140.757C123.576 140.709 123.683 140.638 123.774 140.548C123.864 140.459 123.936 140.353 123.985 140.236C124.033 140.119 124.059 139.993 124.059 139.867C124.059 139.74 124.034 139.614 123.985 139.497C123.936 139.38 123.864 139.274 123.773 139.185Z" fill="#FFEEDF"/>
<g>
<path d="M155.705 137.396L153.465 130.079C153.408 129.89 153.315 129.713 153.189 129.559C153.063 129.406 152.908 129.278 152.733 129.184C152.557 129.09 152.365 129.031 152.167 129.01C151.968 128.99 151.768 129.009 151.577 129.066C151.335 129.137 151.115 129.267 150.937 129.444C150.759 129.621 150.627 129.839 150.555 130.079L148.302 137.396H141.521C141.321 137.396 141.124 137.435 140.939 137.51C140.755 137.586 140.587 137.697 140.446 137.837C140.305 137.978 140.193 138.144 140.117 138.327C140.041 138.51 140.002 138.706 140.002 138.904C140.002 139.144 140.059 139.381 140.17 139.594C140.281 139.808 140.441 139.992 140.638 140.132L146.182 144.063L144.007 151.032C143.888 151.415 143.927 151.829 144.116 152.183C144.304 152.537 144.627 152.802 145.012 152.921C145.244 152.992 145.489 153.008 145.728 152.966C145.967 152.924 146.192 152.826 146.385 152.68L152.003 148.447L157.624 152.694C157.945 152.937 158.35 153.043 158.75 152.989C159.15 152.935 159.512 152.726 159.757 152.407C159.904 152.216 160.003 151.992 160.045 151.755C160.088 151.518 160.072 151.274 160 151.044L157.821 144.075L163.367 140.144C163.695 139.911 163.917 139.559 163.983 139.164C164.05 138.769 163.955 138.364 163.721 138.039C163.58 137.843 163.395 137.684 163.18 137.574C162.964 137.465 162.726 137.407 162.484 137.407H155.703L155.705 137.396Z" fill="#FF7900"/>
<path d="M150.202 139.866C150.202 139.611 150.1 139.366 149.918 139.186C149.736 139.005 149.49 138.904 149.233 138.903C148.976 138.904 148.729 139.005 148.547 139.186C148.366 139.366 148.264 139.611 148.263 139.866C148.264 140.121 148.366 140.365 148.547 140.546C148.729 140.727 148.975 140.828 149.232 140.83C149.489 140.829 149.736 140.728 149.918 140.547C150.1 140.366 150.202 140.122 150.202 139.866Z" fill="#FFEEDF"/>
<path d="M155.771 139.185C155.681 139.095 155.574 139.023 155.456 138.975C155.338 138.926 155.212 138.901 155.084 138.902C154.827 138.902 154.58 139.003 154.398 139.184C154.217 139.364 154.114 139.609 154.114 139.864C154.115 140.119 154.217 140.364 154.398 140.544C154.58 140.725 154.826 140.827 155.083 140.828C155.211 140.828 155.337 140.803 155.455 140.755C155.573 140.707 155.68 140.636 155.77 140.547C155.86 140.458 155.932 140.352 155.981 140.235C156.03 140.118 156.055 139.993 156.056 139.866C156.056 139.739 156.031 139.614 155.982 139.497C155.933 139.38 155.861 139.274 155.771 139.185Z" fill="#FFEEDF"/>
<path d="M154.149 142.523H149.858C149.715 142.523 149.579 142.58 149.478 142.679C149.378 142.779 149.321 142.914 149.321 143.056C149.321 143.197 149.378 143.332 149.479 143.432C149.579 143.531 149.715 143.588 149.858 143.588H154.149C154.292 143.588 154.428 143.532 154.528 143.432C154.629 143.332 154.686 143.197 154.686 143.056C154.686 142.914 154.629 142.779 154.529 142.679C154.428 142.579 154.292 142.523 154.149 142.523Z" fill="#FFEEDF"/>
</g>
<g>
<path d="M187.707 137.393L185.467 130.077C185.352 129.694 185.088 129.372 184.734 129.182C184.38 128.992 183.964 128.949 183.578 129.063C183.337 129.134 183.117 129.265 182.938 129.442C182.76 129.619 182.629 129.837 182.557 130.077L180.303 137.393H173.521C173.118 137.393 172.731 137.552 172.446 137.836C172.161 138.119 172.001 138.502 172.001 138.903C172.001 139.143 172.058 139.379 172.169 139.593C172.28 139.806 172.441 139.99 172.638 140.129L178.182 144.06L176.007 151.03C175.888 151.412 175.927 151.826 176.115 152.181C176.303 152.535 176.626 152.801 177.011 152.919C177.243 152.99 177.489 153.006 177.728 152.963C177.967 152.921 178.192 152.823 178.385 152.677L184.003 148.444L189.624 152.692C189.783 152.812 189.964 152.9 190.158 152.951C190.351 153.001 190.552 153.014 190.75 152.987C190.948 152.96 191.139 152.895 191.312 152.796C191.484 152.696 191.636 152.563 191.757 152.405C191.904 152.214 192.003 151.99 192.045 151.753C192.087 151.516 192.072 151.272 192 151.042L189.822 144.073L195.366 140.142C195.694 139.91 195.916 139.557 195.982 139.163C196.048 138.768 195.953 138.364 195.719 138.038C195.579 137.843 195.393 137.683 195.178 137.573C194.963 137.464 194.725 137.406 194.483 137.406H187.701L187.707 137.393Z" fill="#FF7900"/>
<path d="M182.206 139.867C182.206 139.612 182.103 139.367 181.921 139.187C181.74 139.006 181.493 138.905 181.236 138.904C180.979 138.905 180.732 139.006 180.55 139.187C180.368 139.367 180.265 139.612 180.265 139.867C180.264 139.994 180.289 140.119 180.338 140.236C180.386 140.353 180.458 140.459 180.548 140.549C180.638 140.638 180.745 140.71 180.863 140.758C180.981 140.807 181.107 140.832 181.235 140.831C181.492 140.831 181.739 140.729 181.921 140.548C182.103 140.367 182.205 140.123 182.206 139.867Z" fill="#FFEEDF"/>
<path d="M187.088 138.903C186.831 138.904 186.585 139.005 186.403 139.185C186.221 139.366 186.119 139.61 186.118 139.865C186.118 139.992 186.142 140.117 186.191 140.234C186.239 140.351 186.311 140.457 186.401 140.547C186.491 140.637 186.598 140.708 186.716 140.757C186.833 140.805 186.96 140.83 187.088 140.83C187.345 140.829 187.591 140.728 187.773 140.547C187.955 140.367 188.057 140.122 188.058 139.867C188.057 139.612 187.955 139.367 187.773 139.187C187.592 139.006 187.346 138.904 187.088 138.903Z" fill="#FFEEDF"/>
<path d="M186.953 142.637L186.811 142.592H186.74C186.644 142.594 186.549 142.622 186.468 142.674C186.387 142.726 186.323 142.799 186.282 142.886C186.266 142.918 185.883 143.653 184.317 143.669C182.751 143.655 182.36 142.918 182.348 142.895C182.308 142.805 182.243 142.729 182.16 142.676C182.078 142.622 181.982 142.593 181.883 142.592L181.736 142.609L181.674 142.637C181.55 142.692 181.453 142.794 181.405 142.921C181.357 143.047 181.361 143.187 181.416 143.31C181.441 143.364 182.041 144.64 184.249 144.686H184.389C186.403 144.644 187.136 143.558 187.211 143.308C187.266 143.185 187.269 143.045 187.221 142.92C187.172 142.795 187.076 142.693 186.953 142.637Z" fill="#FFEEDF"/>
</g>
<g>
<path d="M219.706 137.395L217.467 130.077C217.41 129.887 217.316 129.711 217.19 129.557C217.064 129.403 216.909 129.276 216.734 129.182C216.559 129.088 216.366 129.029 216.168 129.008C215.969 128.988 215.769 129.007 215.578 129.063C215.336 129.134 215.116 129.265 214.938 129.442C214.759 129.619 214.628 129.837 214.556 130.077L212.302 137.395H205.52C205.321 137.395 205.123 137.434 204.938 137.51C204.754 137.586 204.586 137.697 204.445 137.838C204.304 137.978 204.192 138.144 204.116 138.327C204.04 138.511 204.001 138.707 204.001 138.905C204.001 139.145 204.058 139.382 204.169 139.595C204.28 139.809 204.44 139.993 204.637 140.132L210.182 144.064L208.006 151.029C207.947 151.219 207.926 151.418 207.945 151.615C207.964 151.813 208.021 152.005 208.114 152.18C208.208 152.356 208.335 152.511 208.489 152.638C208.643 152.765 208.821 152.86 209.012 152.918C209.243 152.99 209.489 153.005 209.728 152.963C209.967 152.921 210.192 152.823 210.385 152.677L216.002 148.44L221.623 152.688C221.945 152.931 222.35 153.037 222.75 152.983C223.15 152.929 223.512 152.72 223.757 152.401C223.903 152.209 224.002 151.986 224.044 151.749C224.087 151.511 224.071 151.268 223.999 151.038L221.821 144.066L227.365 140.135C227.528 140.02 227.666 139.874 227.772 139.706C227.877 139.538 227.948 139.35 227.981 139.155C228.014 138.959 228.008 138.76 227.963 138.566C227.917 138.373 227.834 138.191 227.718 138.03C227.578 137.834 227.393 137.675 227.178 137.565C226.962 137.455 226.724 137.398 226.482 137.398H219.7L219.706 137.395Z" fill="#FED0A6"/>
<path d="M214.205 139.867C214.204 139.612 214.102 139.367 213.92 139.187C213.738 139.006 213.492 138.904 213.234 138.904C212.977 138.904 212.731 139.006 212.549 139.187C212.367 139.367 212.265 139.612 212.264 139.867C212.264 139.994 212.289 140.119 212.337 140.236C212.386 140.353 212.457 140.459 212.548 140.549C212.638 140.639 212.745 140.71 212.862 140.759C212.98 140.807 213.107 140.832 213.234 140.832C213.492 140.831 213.738 140.729 213.92 140.548C214.102 140.367 214.204 140.123 214.205 139.867Z" fill="#323C4F"/>
<path d="M219.088 138.902C218.83 138.902 218.584 139.003 218.402 139.184C218.22 139.364 218.118 139.609 218.117 139.864C218.117 139.99 218.142 140.116 218.19 140.233C218.239 140.35 218.31 140.456 218.401 140.545C218.491 140.635 218.598 140.707 218.715 140.755C218.833 140.804 218.96 140.829 219.088 140.828C219.345 140.828 219.591 140.727 219.773 140.546C219.955 140.366 220.057 140.121 220.058 139.865C220.057 139.61 219.955 139.365 219.773 139.184C219.591 139.004 219.345 138.902 219.088 138.902Z" fill="#323C4F"/>
<path d="M218.954 142.639L218.811 142.592H218.738C218.642 142.594 218.549 142.622 218.468 142.674C218.388 142.725 218.323 142.798 218.282 142.884C217.296 142.898 215.329 142.898 214.343 142.884C214.301 142.797 214.236 142.724 214.154 142.672C214.073 142.621 213.978 142.593 213.882 142.592L213.735 142.608L213.672 142.637C213.549 142.692 213.452 142.794 213.404 142.92C213.356 143.047 213.36 143.186 213.415 143.31C213.452 143.39 213.672 143.447 213.997 143.487C214.307 143.773 214.672 143.993 215.071 144.134C215.469 144.275 215.892 144.334 216.315 144.308C216.729 144.336 217.145 144.28 217.537 144.144C217.93 144.008 218.29 143.794 218.596 143.516L218.865 143.505L219.133 143.484L219.212 143.305C219.265 143.183 219.268 143.045 219.22 142.92C219.172 142.796 219.076 142.695 218.954 142.639Z" fill="#323C4F"/>
</g>
<path d="M217.931 185.768C217.931 185.768 210.483 185.304 208.883 192.832C208.242 195.934 207.853 199.083 207.722 202.247C207.661 203.505 207.934 204.757 208.513 205.875C213.491 215.309 228.206 209.866 228.206 209.866" stroke="#323C4F" stroke-width="2" stroke-miterlimit="10" stroke-linecap="round"/>
<path d="M226.875 176.44C226.875 176.44 216.669 174.76 209.706 184.959C208.593 186.547 208.054 188.466 208.179 190.401C208.229 191.257 208.469 192.092 208.883 192.843" stroke="#323C4F" stroke-width="2" stroke-miterlimit="10" stroke-linecap="round"/>
<path d="M214.078 194.432L210.392 197.698C210.315 197.766 210.253 197.849 210.211 197.943C210.168 198.037 210.146 198.139 210.146 198.242C210.146 198.345 210.168 198.447 210.211 198.54C210.253 198.634 210.315 198.718 210.392 198.786C211.02 199.341 212.094 200.089 213.295 200.001" stroke="#323C4F" stroke-width="2" stroke-miterlimit="10" stroke-linecap="round"/>
<path d="M212.112 203.717C212.112 203.717 215.802 205.135 217.961 202.991" stroke="#323C4F" stroke-width="2" stroke-miterlimit="10" stroke-linecap="round"/>
<path d="M217.961 211.441V221.93C217.96 222.019 217.936 222.107 217.89 222.183C217.844 222.259 217.779 222.322 217.7 222.364C217.622 222.406 217.533 222.426 217.444 222.422C217.355 222.418 217.269 222.389 217.195 222.34C214.862 220.737 207.472 216.557 198.978 220.951C198.978 220.951 182.096 233.21 169.038 271.324C169.038 271.324 163.233 284.596 179.676 286.091C186.136 286.637 192.602 285.104 198.129 281.715L202.087 279.321C202.087 279.321 204.486 281.719 205.284 276.121C205.284 276.121 206.619 264.659 201.819 258.263C201.819 258.263 198.223 254.134 197.955 262.53" stroke="#323C4F" stroke-width="2" stroke-miterlimit="10" stroke-linecap="round"/>
<path d="M198.757 271.458C198.757 271.458 199.286 275.054 202.087 279.321" stroke="#323C4F" stroke-width="2" stroke-miterlimit="10" stroke-linecap="round"/>
<path d="M184.629 264.528C184.629 264.528 195.597 261.433 198.107 260.516" stroke="#323C4F" stroke-width="2" stroke-miterlimit="10" stroke-linecap="round"/>
<path d="M193.002 261.597L198.245 248.147C198.276 248.066 198.332 247.997 198.406 247.951C198.48 247.906 198.567 247.886 198.653 247.895C198.74 247.904 198.821 247.942 198.883 248.002C198.946 248.062 198.987 248.141 199 248.227L200.451 256.935" stroke="#323C4F" stroke-width="2" stroke-miterlimit="10" stroke-linecap="round"/>
<path d="M268.185 263.596L258.683 261.644C258.613 261.627 258.547 261.595 258.491 261.549C258.435 261.503 258.39 261.445 258.36 261.379C257.232 258.839 256.006 258.778 255.095 259.26C254.699 259.485 254.371 259.812 254.145 260.207C253.92 260.602 253.804 261.051 253.811 261.506C253.774 267.772 249.921 275.199 248.078 278.395C247.2 279.919 247.715 281.951 249.312 282.702C251.318 283.645 253.383 281.719 253.383 281.719C256.448 281.185 261.778 283.05 261.778 283.05C266.197 284.741 269.927 285.423 273.025 285.503C274.666 285.545 276.297 285.241 277.812 284.611C279.328 283.98 280.693 283.037 281.819 281.844C282.945 280.65 283.807 279.232 284.348 277.682C284.889 276.133 285.097 274.487 284.959 272.851C284.885 271.925 284.699 271.011 284.403 270.13C278.791 253.655 267.594 236.584 260.911 227.231C259.353 225.051 257.221 223.346 254.753 222.303C252.285 221.261 249.577 220.922 246.928 221.324L235.126 223.116C235.04 223.129 234.952 223.125 234.868 223.104C234.784 223.082 234.705 223.045 234.635 222.993C234.566 222.941 234.507 222.876 234.463 222.801C234.419 222.726 234.39 222.644 234.378 222.558L232.97 212.188C232.903 211.689 232.874 211.186 232.883 210.683L232.992 203.571C232.988 203.501 233.005 203.431 233.04 203.37C233.075 203.31 233.127 203.26 233.19 203.228C233.252 203.196 233.323 203.183 233.393 203.191C233.463 203.198 233.529 203.226 233.584 203.27C238.206 206.449 241.399 200.429 241.399 200.429C243.332 196.565 242.4 194.432 240.981 193.264C238.971 191.609 235.967 191.961 234.215 193.891C233.233 195.029 232.455 196.328 231.915 197.73C231.91 197.745 231.899 197.757 231.886 197.765C231.873 197.773 231.857 197.776 231.842 197.773C231.827 197.77 231.813 197.762 231.803 197.751C231.793 197.739 231.788 197.724 231.788 197.708C231.487 194.882 227.274 193.764 227.274 193.764C220.776 192.977 218.679 189.048 218.026 187.07C217.809 186.384 217.871 185.639 218.2 184.999C223.407 174.687 230.09 176.578 230.09 176.578C230.09 176.578 238.434 176.661 245.03 184.367C247.782 187.641 249.634 191.575 250.404 195.782C251.22 200.059 252.465 207.287 252.708 212.703C252.721 213.047 252.622 213.385 252.426 213.666C252.229 213.948 251.946 214.158 251.619 214.264L234.342 220.022" stroke="#323C4F" stroke-width="2" stroke-miterlimit="10" stroke-linecap="round"/>
<path d="M257.257 268.657C257.257 268.657 257.791 271.723 253.393 281.719" stroke="#323C4F" stroke-width="2" stroke-miterlimit="10" stroke-linecap="round"/>
<path d="M206.75 262.522L213.643 254.007C213.828 253.77 214.062 253.576 214.328 253.438C214.595 253.301 214.889 253.222 215.189 253.209C216.379 253.176 217.449 254.272 212.112 261.601L210.145 264.532" stroke="#323C4F" stroke-width="2" stroke-miterlimit="10" stroke-linecap="round"/>
<path d="M228.207 225.482L235.125 223.117" stroke="#323C4F" stroke-width="2" stroke-miterlimit="10" stroke-linecap="round"/>
<path d="M234.215 193.892C228.366 184.157 219.985 181.959 219.985 181.959" stroke="#323C4F" stroke-width="2" stroke-miterlimit="10" stroke-linecap="round"/>
<path d="M217.96 216.818C217.96 216.818 225.696 217.972 233.478 215.929" stroke="#323C4F" stroke-width="2" stroke-miterlimit="10" stroke-linecap="round"/>
<path d="M224.64 177.565C224.64 177.565 246.507 178.026 248.55 215.298" stroke="#323C4F" stroke-width="2" stroke-miterlimit="10" stroke-linecap="round"/>
<path d="M241.972 217.471C241.972 217.471 240.883 207.047 239.269 203.005" stroke="#323C4F" stroke-width="2" stroke-miterlimit="10" stroke-linecap="round"/>
<path d="M222.046 179.52C222.046 179.52 216.571 178.86 213.338 180.848" stroke="#323C4F" stroke-width="2" stroke-miterlimit="10" stroke-linecap="round"/>
<path d="M218.73 183.968C217.121 183.437 215.404 183.322 213.74 183.636C212.075 183.949 210.518 184.68 209.213 185.761" stroke="#323C4F" stroke-width="2" stroke-miterlimit="10" stroke-linecap="round"/>
<path d="M237.451 196.351C236.969 196.584 236.552 196.931 236.236 197.362C235.919 197.794 235.714 198.296 235.637 198.826" stroke="#323C4F" stroke-width="2" stroke-miterlimit="10" stroke-linecap="round"/>
<path d="M219.361 197.233C220.134 197.233 220.761 196.447 220.761 195.477C220.761 194.507 220.134 193.721 219.361 193.721C218.587 193.721 217.96 194.507 217.96 195.477C217.96 196.447 218.587 197.233 219.361 197.233Z" fill="#323C4F"/>
<path d="M210.711 195.539C211.308 195.539 211.793 194.933 211.793 194.185C211.793 193.438 211.308 192.832 210.711 192.832C210.114 192.832 209.63 193.438 209.63 194.185C209.63 194.933 210.114 195.539 210.711 195.539Z" fill="#323C4F"/>
<path d="M107.294 261.597L99.4751 231.077C99.4751 231.077 100.008 227.343 104.272 225.566" stroke="#323C4F" stroke-width="2" stroke-miterlimit="10" stroke-linecap="round"/>
<path d="M95.8759 209.623C99.2138 216.963 103.132 217.968 105.581 217.725C106.339 217.636 107.063 217.36 107.687 216.921C108.311 216.482 108.816 215.894 109.155 215.211C112.736 208.241 109.601 195.365 109.601 195.365C109.601 195.365 112.845 186.037 107.294 179.506C107.294 179.506 105.563 177.285 103.666 179.321C103.283 179.747 102.768 180.032 102.204 180.129C101.639 180.226 101.059 180.129 100.556 179.854C97.1022 177.917 90.0636 175.138 87.2953 182.666C87.1212 183.129 86.8156 183.532 86.416 183.824C86.0164 184.116 85.5401 184.285 85.0458 184.31C81.3958 184.52 73.2143 186.084 71.8755 195.764C71.8755 195.764 71.3821 202.657 79.2516 206.851C79.8571 207.171 80.3403 207.681 80.6267 208.303C81.2797 209.772 82.9015 212.261 86 210.81" stroke="#323C4F" stroke-width="2" stroke-miterlimit="10" stroke-linecap="round"/>
<path d="M81.4829 221.085L89.0839 204.468C89.1523 204.318 89.161 204.148 89.1085 203.993C89.0559 203.837 88.9459 203.707 88.8009 203.63C87.3279 202.857 83.4784 200.364 84.9406 196.174C85.0679 195.797 85.2752 195.452 85.5482 195.163C85.8213 194.873 86.1536 194.646 86.5225 194.497C87.9012 193.96 90.3139 193.706 92.2767 197.095C92.2767 197.095 94.2759 199.635 97.6102 195.898C97.6102 195.898 101.601 191.395 104.141 194.178C104.141 194.178 106.681 198.829 109.605 195.365" stroke="#323C4F" stroke-width="2" stroke-miterlimit="10" stroke-linecap="round"/>
<path d="M97.3418 226.15L99.4752 215.193" stroke="#323C4F" stroke-width="2" stroke-miterlimit="10" stroke-linecap="round"/>
<path d="M104.718 201.496L107.301 203.858C107.358 203.91 107.401 203.975 107.426 204.047C107.451 204.119 107.457 204.197 107.445 204.272C107.432 204.348 107.401 204.419 107.353 204.479C107.306 204.539 107.245 204.586 107.174 204.617L105.338 205.404" stroke="#323C4F" stroke-width="2" stroke-miterlimit="10" stroke-linecap="round"/>
<path d="M103.053 209.123C103.641 209.294 104.261 209.334 104.867 209.241C105.473 209.147 106.051 208.923 106.561 208.582C106.642 208.533 106.735 208.509 106.829 208.511C106.924 208.514 107.015 208.543 107.094 208.595C107.172 208.648 107.234 208.721 107.272 208.808C107.31 208.894 107.323 208.989 107.308 209.083C106.946 211.466 105.777 216.038 102.49 209.83C102.449 209.745 102.432 209.65 102.442 209.556C102.453 209.462 102.489 209.373 102.548 209.299C102.607 209.225 102.686 209.169 102.775 209.138C102.864 209.107 102.96 209.101 103.053 209.123Z" stroke="#323C4F" stroke-width="2" stroke-miterlimit="10" stroke-linecap="round"/>
<path d="M103.829 217.761L105.694 232.855" stroke="#323C4F" stroke-width="2" stroke-miterlimit="10" stroke-linecap="round"/>
<path d="M110.28 192.43C110.28 192.43 111.398 194.222 112.925 198.525C112.958 198.621 113.014 198.707 113.089 198.775C113.164 198.843 113.254 198.891 113.353 198.915C113.451 198.939 113.554 198.938 113.652 198.911C113.749 198.885 113.839 198.834 113.912 198.764C114.884 197.821 116.782 196.177 118.687 195.63C119.157 195.476 119.664 195.466 120.14 195.602C120.616 195.737 121.041 196.012 121.36 196.391C121.97 197.172 122.18 198.481 120.163 200.444C120.111 200.491 120.063 200.542 120.018 200.597L113.244 208.52C113.244 208.52 111.557 211.002 113.157 215.886L117.42 229.31" stroke="#323C4F" stroke-width="2" stroke-miterlimit="10" stroke-linecap="round"/>
<path d="M213.404 269.31L217.642 262.918C218.48 261.648 219.339 260.338 219.619 258.843C219.746 258.172 219.717 257.392 219.223 256.928C218.73 256.463 218.048 256.463 217.409 256.565C216.415 256.74 215.488 257.184 214.728 257.849" stroke="#323C4F" stroke-width="2" stroke-miterlimit="10" stroke-linecap="round"/>
<path d="M244.598 262.522V233.21H207.217L207.714 260.842" stroke="#323C4F" stroke-width="2" stroke-miterlimit="10" stroke-linecap="round"/>
<path d="M115.497 223.247C115.497 223.247 124.883 221.926 121.241 226.991C121.241 226.991 111.292 237.654 99.4717 231.08" stroke="#323C4F" stroke-width="2" stroke-miterlimit="10" stroke-linecap="round"/>
<path d="M218.381 261.764C218.381 261.764 222.55 258.934 221.447 263.186C221.247 263.951 220.939 264.684 220.533 265.363C219.727 266.735 218.069 269.514 216.945 271.074" stroke="#323C4F" stroke-width="2" stroke-miterlimit="10" stroke-linecap="round"/>
<path d="M202.552 258.865L207.217 255.131" stroke="#323C4F" stroke-width="2" stroke-miterlimit="10" stroke-linecap="round"/>
<path d="M204.885 277.967C204.885 277.967 214.499 279.107 220.765 270.805C220.847 270.699 220.923 270.588 220.99 270.472C221.512 269.586 223.53 265.82 220.827 264.841" stroke="#323C4F" stroke-width="2" stroke-miterlimit="10" stroke-linecap="round"/>
<path d="M248.55 261.597C248.474 261.705 248.392 261.808 248.303 261.905C248.009 262.221 247.655 262.476 247.262 262.654C246.868 262.833 246.444 262.931 246.012 262.944C245.581 262.958 245.151 262.885 244.747 262.731C244.344 262.577 243.975 262.344 243.662 262.047L236.627 255.516C236.2 255.108 235.667 254.829 235.089 254.711C234.233 254.555 233.155 254.754 232.912 256.623C232.818 257.368 232.983 258.122 233.38 258.76C235.832 262.686 238.848 266.231 242.331 269.281" stroke="#323C4F" stroke-width="2" stroke-miterlimit="10" stroke-linecap="round"/>
<path d="M122.079 225.569L134.342 264.336C135.61 268.255 135.936 272.418 135.293 276.487C134.306 282.437 130.971 288.877 120.78 286.49C118.488 285.938 116.279 285.084 114.213 283.95L96.7976 274.517" stroke="#323C4F" stroke-width="2" stroke-miterlimit="10" stroke-linecap="round"/>
<path d="M101.906 240.568C101.906 240.568 107.479 242.723 110.871 240.568" stroke="#323C4F" stroke-width="2" stroke-miterlimit="10" stroke-linecap="round"/>
<path d="M97.3421 226.15C97.3421 226.15 89.8789 233.479 81.4833 221.07C81.4833 221.07 72.4129 215.338 63.6254 219.071C63.6254 219.071 43.8591 226.799 28.9328 268.378C28.9328 268.378 28.8312 268.628 28.6934 269.078C26.0666 277.706 33.0762 286.225 42.0487 285.499L64.3874 283.638C64.7832 283.605 65.1652 283.476 65.5007 283.264C65.8363 283.051 66.1154 282.76 66.3142 282.416C66.5131 282.072 66.6258 281.686 66.6428 281.289C66.6598 280.892 66.5806 280.497 66.4119 280.137C64.8772 276.872 62.7837 271.658 62.5515 267.319C62.5369 266.983 62.454 266.655 62.3079 266.353C62.1618 266.051 61.9555 265.782 61.7017 265.562C61.448 265.343 61.1521 265.178 60.8321 265.076C60.5122 264.975 60.175 264.941 59.8413 264.975L43.8773 266.633" stroke="#323C4F" stroke-width="2" stroke-miterlimit="10" stroke-linecap="round"/>
<path d="M69.8077 236.232C69.8077 236.232 66.2666 252.853 58.7961 265.065" stroke="#323C4F" stroke-width="2" stroke-miterlimit="10" stroke-linecap="round"/>
<path d="M55.0082 265.457C55.0082 265.457 53.1941 270.348 55.0082 276.745" stroke="#323C4F" stroke-width="2" stroke-miterlimit="10" stroke-linecap="round"/>
<path d="M66.5425 281.802C66.5425 281.802 81.2438 282.854 87.5569 273.457C87.7708 273.131 87.872 272.744 87.8448 272.354C87.8176 271.965 87.6636 271.595 87.4064 271.302C87.1492 271.009 86.8029 270.807 86.4205 270.73C86.0382 270.652 85.6408 270.701 85.2893 270.871C84.375 271.306 83.1994 272.133 81.6901 273.555" stroke="#323C4F" stroke-width="2" stroke-miterlimit="10" stroke-linecap="round"/>
<path d="M61.8838 265.722C61.8838 265.722 67.326 258.128 71.7561 256.289C71.7561 256.289 74.8436 255.324 74.4082 258.23C74.2897 258.942 74.0037 259.616 73.5738 260.196L68.556 267.151" stroke="#323C4F" stroke-width="2" stroke-miterlimit="10" stroke-linecap="round"/>
<path d="M236.646 271.857C234.173 269.003 232.193 265.758 230.786 262.254C230.292 261.057 230.055 259.771 230.09 258.477C230.144 256.786 230.666 254.99 232.869 256.133" stroke="#323C4F" stroke-width="2" stroke-miterlimit="10" stroke-linecap="round"/>
<path d="M73.5811 260.182C73.5811 260.182 82.6769 250.626 81.8714 256.997C81.7254 258.054 81.399 259.079 80.9063 260.026L74.4518 272.746" stroke="#323C4F" stroke-width="2" stroke-miterlimit="10" stroke-linecap="round"/>
<path d="M77.7498 273.635C77.7498 273.635 83.2682 265.029 85.4088 261.006C85.6948 260.489 85.869 259.917 85.9203 259.328C85.9715 258.74 85.8986 258.147 85.7063 257.588C85.2274 256.275 84.1027 255.411 81.4505 258.745" stroke="#323C4F" stroke-width="2" stroke-miterlimit="10" stroke-linecap="round"/>
<path d="M81.7046 273.545C81.7046 273.545 85.6412 269.209 87.2992 266.55C87.8149 265.764 88.0689 264.836 88.0249 263.897C87.9378 262.602 87.1904 261.336 83.8561 263.774" stroke="#323C4F" stroke-width="2" stroke-miterlimit="10" stroke-linecap="round"/>
<path d="M81.7045 278.675C81.7045 278.675 90.5029 280.743 96.8086 274.52L97.3238 244.769C97.3262 244.616 97.2981 244.463 97.241 244.321C97.1839 244.178 97.099 244.049 96.9913 243.939C96.8836 243.83 96.7552 243.743 96.6136 243.684C96.472 243.624 96.32 243.594 96.1664 243.594H74.7348C74.4288 243.594 74.1354 243.715 73.919 243.932C73.7026 244.148 73.5811 244.442 73.5811 244.748V256.144" stroke="#323C4F" stroke-width="2" stroke-miterlimit="10" stroke-linecap="round"/>
<path d="M77.22 256.822V243.96" stroke="#323C4F" stroke-width="2" stroke-miterlimit="10" stroke-linecap="round"/>
<path d="M81.3091 250.669C81.5424 250.975 81.8671 251.2 82.2363 251.309C82.6055 251.419 83 251.408 83.3626 251.278C84.3168 250.916 84.9227 249.729 85.9459 249.718C86.7477 249.718 87.3355 250.444 88.0285 250.85C88.5918 251.168 89.2443 251.291 89.8847 251.2C90.5251 251.109 91.1174 250.809 91.5696 250.346" stroke="#323C4F" stroke-width="2" stroke-miterlimit="10" stroke-linecap="round"/>
<path d="M88.8701 257.261C89.0423 257.611 89.3325 257.889 89.6895 258.047C90.0465 258.204 90.4475 258.23 90.8221 258.121C91.2642 257.909 91.6909 257.667 92.0992 257.395C92.5382 257.181 93.1514 257.149 93.438 257.544" stroke="#323C4F" stroke-width="2" stroke-miterlimit="10" stroke-linecap="round"/>
<path d="M107.424 238.721C108.627 238.721 109.601 238.164 109.601 237.477C109.601 236.789 108.627 236.232 107.424 236.232C106.222 236.232 105.248 236.789 105.248 237.477C105.248 238.164 106.222 238.721 107.424 238.721Z" fill="#323C4F"/>
<path d="M100.97 202.487C101.554 202.123 101.687 201.284 101.268 200.612C100.849 199.941 100.037 199.691 99.4536 200.055C98.8705 200.419 98.7372 201.258 99.1561 201.93C99.5749 202.601 100.387 202.851 100.97 202.487Z" fill="#323C4F"/>
<path d="M108.796 201.906C109.38 201.543 109.513 200.703 109.094 200.032C108.675 199.36 107.863 199.111 107.28 199.474C106.696 199.838 106.563 200.677 106.982 201.349C107.401 202.021 108.213 202.27 108.796 201.906Z" fill="#323C4F"/>
<path d="M59.4184 273.183C60.0767 272.986 60.3303 271.892 59.9848 270.74C59.6394 269.589 58.8256 268.815 58.1673 269.013C57.509 269.21 57.2554 270.304 57.6009 271.456C57.9464 272.607 58.7601 273.381 59.4184 273.183Z" fill="#323C4F"/>
<path d="M97.6393 224.615C97.5885 224.873 102.447 221.977 104.605 224.042" stroke="#323C4F" stroke-width="2" stroke-miterlimit="10" stroke-linecap="round"/>
<path d="M19 283.184L33.3099 283.184" stroke="#323C4F" stroke-width="2" stroke-miterlimit="10" stroke-linecap="round"/>
<path d="M112.827 283.185H65.5918" stroke="#323C4F" stroke-width="2" stroke-miterlimit="10" stroke-linecap="round"/>
<path d="M132.463 283.562H171.037" stroke="#323C4F" stroke-width="2" stroke-miterlimit="10" stroke-linecap="round"/>
<path d="M194 283.816H204.086" stroke="#323C4F" stroke-width="2" stroke-miterlimit="10" stroke-linecap="round"/>
<path d="M247.697 280.42C242.08 279.961 236.606 278.412 231.581 275.859C231.581 275.859 226.095 274.252 225.906 270.261C225.906 270.261 226.204 268.037 230.38 270.428C230.446 270.468 230.523 270.485 230.599 270.478C230.676 270.471 230.749 270.44 230.806 270.389C230.864 270.338 230.904 270.27 230.921 270.195C230.937 270.12 230.93 270.041 230.899 269.971C230.173 268.4 228.899 265.378 228.326 262.562C228.216 262.042 228.28 261.5 228.508 261.02C228.783 260.45 229.309 259.932 230.278 260.516" stroke="#323C4F" stroke-width="2" stroke-miterlimit="10" stroke-linecap="round"/>
<path d="M254.01 260.516C254.01 260.516 247.117 256.659 244.599 255.774" stroke="#323C4F" stroke-width="2" stroke-miterlimit="10" stroke-linecap="round"/>
<path d="M249.972 258.143L252.874 247.897C252.906 247.785 252.973 247.686 253.066 247.616C253.158 247.546 253.271 247.508 253.388 247.508C253.504 247.508 253.617 247.546 253.71 247.616C253.802 247.686 253.869 247.785 253.901 247.897L256.872 259.3" stroke="#323C4F" stroke-width="2" stroke-miterlimit="10" stroke-linecap="round"/>
<path d="M207.852 277.931V281.004C207.852 281.581 208.082 282.135 208.49 282.543C208.898 282.952 209.452 283.181 210.029 283.181H241.747C242.324 283.181 242.878 282.952 243.286 282.543C243.694 282.135 243.924 281.581 243.924 281.004V279.948" stroke="#323C4F" stroke-width="2" stroke-miterlimit="10" stroke-linecap="round"/>
<defs>
<clipPath id="clip0_2892_178056">
<rect width="24" height="24" fill="white" transform="translate(140.002 129)"/>
</clipPath>
<clipPath id="clip1_2892_178056">
<rect width="24" height="24" fill="white" transform="translate(172.002 129)"/>
</clipPath>
<clipPath id="clip2_2892_178056">
<rect width="24" height="24" fill="white" transform="translate(204.002 129)"/>
</clipPath>
</defs>
</svg>
